M48
; DRILL file {KiCad 9.0.1} date 2025-10-02T09:28:18+0800
; FORMAT={-:-/ absolute / metric / decimal}
; #@! TF.CreationDate,2025-10-02T09:28:18+08:00
; #@! TF.GenerationSoftware,Kicad,Pcbnew,9.0.1
; #@! TF.FileFunction,Plated,1,2,PTH
FMAT,2
METRIC
; #@! TA.AperFunction,Plated,PTH,ViaDrill
T1C0.300
; #@! TA.AperFunction,Plated,PTH,ComponentDrill
T2C0.600
; #@! TA.AperFunction,Plated,PTH,ComponentDrill
T3C0.900
; #@! TA.AperFunction,Plated,PTH,ComponentDrill
T4C1.000
; #@! TA.AperFunction,Plated,PTH,ComponentDrill
T5C1.100
%
G90
G05
T1
X146.179Y-86.33
X148.567Y-82.825
X151.183Y-59.279
X151.259Y-84.45
X151.259Y-110.816
X153.088Y-64.105
X154.485Y-65.375
X154.485Y-70.709
X156.39Y-68.677
X156.644Y-87.244
X157.914Y-82.52
X160.2Y-69.058
X160.2Y-74.646
X160.2Y-107.564
X162.029Y-87.041
X162.232Y-73.376
X163.248Y-76.678
X163.375Y-72.233
X164.264Y-107.564
X165.28Y-102.789
X165.788Y-71.09
X166.423Y-95.347
X166.55Y-99.538
X166.931Y-80.488
X167.312Y-81.758
X167.312Y-84.044
X167.515Y-88.972
X167.515Y-107.564
X167.769Y-117.42
X168.836Y-78.71
X168.963Y-63.851
X169.344Y-59.279
X170.131Y-101.748
X170.487Y-65.375
X170.487Y-66.645
X170.487Y-70.709
X172.062Y-85.822
X172.392Y-68.677
X172.875Y-100.681
X174.881Y-91.766
X175.034Y-80.742
X175.491Y-77.186
X177.421Y-85.466
X178.742Y-79.726
X180.52Y-77.186
X180.52Y-121.128
T3
X148.465Y-88.26
X148.465Y-90.8
T4
X149.66Y-80.6
X151.34Y-118.8
X152.2Y-80.6
X153.88Y-118.8
X154.74Y-80.6
X156.39Y-97.492
X156.39Y-105.111
X156.42Y-118.8
X158.93Y-97.492
X158.93Y-105.111
X158.96Y-118.8
X161.47Y-97.492
X161.47Y-105.111
X161.5Y-118.8
X164.01Y-97.492
X164.01Y-105.111
X164.04Y-118.8
X166.55Y-97.492
X166.55Y-105.111
X166.58Y-118.8
X169.09Y-97.492
X169.09Y-105.111
X169.12Y-118.8
X171.63Y-97.492
X171.63Y-105.111
X171.66Y-118.8
X174.17Y-97.492
X174.17Y-105.111
X174.2Y-118.8
X180.52Y-79.64
X180.52Y-82.18
X180.52Y-84.72
X180.52Y-87.26
X180.52Y-89.8
X180.52Y-113.66
X180.52Y-116.2
X180.52Y-118.74
T5
X174.95Y-59.95
X174.95Y-64.45
X174.95Y-69.95
X174.95Y-74.45
X181.45Y-59.95
X181.45Y-64.45
X181.45Y-69.95
X181.45Y-74.45
T2
G00X155.88Y-61.525
M15
G01X155.88Y-60.725
M16
G05
G00X155.88Y-65.855
M15
G01X155.88Y-64.755
M16
G05
G00X164.52Y-61.525
M15
G01X164.52Y-60.725
M16
G05
G00X164.52Y-65.855
M15
G01X164.52Y-64.755
M16
G05
M30
