%TF.GenerationSoftware,KiCad,Pcbnew,9.0.1*%
%TF.CreationDate,2025-10-02T09:28:13+08:00*%
%TF.ProjectId,M032FC1AE,4d303332-4643-4314-9145-2e6b69636164,rev?*%
%TF.SameCoordinates,Original*%
%TF.FileFunction,Copper,L1,Top*%
%TF.FilePolarity,Positive*%
%FSLAX46Y46*%
G04 Gerber Fmt 4.6, Leading zero omitted, Abs format (unit mm)*
G04 Created by KiCad (PCBNEW 9.0.1) date 2025-10-02 09:28:13*
%MOMM*%
%LPD*%
G01*
G04 APERTURE LIST*
G04 Aperture macros list*
%AMRoundRect*
0 Rectangle with rounded corners*
0 $1 Rounding radius*
0 $2 $3 $4 $5 $6 $7 $8 $9 X,Y pos of 4 corners*
0 Add a 4 corners polygon primitive as box body*
4,1,4,$2,$3,$4,$5,$6,$7,$8,$9,$2,$3,0*
0 Add four circle primitives for the rounded corners*
1,1,$1+$1,$2,$3*
1,1,$1+$1,$4,$5*
1,1,$1+$1,$6,$7*
1,1,$1+$1,$8,$9*
0 Add four rect primitives between the rounded corners*
20,1,$1+$1,$2,$3,$4,$5,0*
20,1,$1+$1,$4,$5,$6,$7,0*
20,1,$1+$1,$6,$7,$8,$9,0*
20,1,$1+$1,$8,$9,$2,$3,0*%
G04 Aperture macros list end*
%TA.AperFunction,SMDPad,CuDef*%
%ADD10RoundRect,0.237500X-0.237500X0.250000X-0.237500X-0.250000X0.237500X-0.250000X0.237500X0.250000X0*%
%TD*%
%TA.AperFunction,SMDPad,CuDef*%
%ADD11RoundRect,0.150000X0.587500X0.150000X-0.587500X0.150000X-0.587500X-0.150000X0.587500X-0.150000X0*%
%TD*%
%TA.AperFunction,SMDPad,CuDef*%
%ADD12RoundRect,0.237500X0.237500X-0.250000X0.237500X0.250000X-0.237500X0.250000X-0.237500X-0.250000X0*%
%TD*%
%TA.AperFunction,SMDPad,CuDef*%
%ADD13RoundRect,0.150000X-0.150000X0.512500X-0.150000X-0.512500X0.150000X-0.512500X0.150000X0.512500X0*%
%TD*%
%TA.AperFunction,SMDPad,CuDef*%
%ADD14RoundRect,0.375000X-0.375000X0.625000X-0.375000X-0.625000X0.375000X-0.625000X0.375000X0.625000X0*%
%TD*%
%TA.AperFunction,SMDPad,CuDef*%
%ADD15RoundRect,0.500000X-1.400000X0.500000X-1.400000X-0.500000X1.400000X-0.500000X1.400000X0.500000X0*%
%TD*%
%TA.AperFunction,SMDPad,CuDef*%
%ADD16RoundRect,0.237500X0.237500X-0.300000X0.237500X0.300000X-0.237500X0.300000X-0.237500X-0.300000X0*%
%TD*%
%TA.AperFunction,ComponentPad*%
%ADD17C,2.000000*%
%TD*%
%TA.AperFunction,SMDPad,CuDef*%
%ADD18RoundRect,0.237500X-0.300000X-0.237500X0.300000X-0.237500X0.300000X0.237500X-0.300000X0.237500X0*%
%TD*%
%TA.AperFunction,SMDPad,CuDef*%
%ADD19RoundRect,0.237500X0.300000X0.237500X-0.300000X0.237500X-0.300000X-0.237500X0.300000X-0.237500X0*%
%TD*%
%TA.AperFunction,ComponentPad*%
%ADD20R,1.700000X1.700000*%
%TD*%
%TA.AperFunction,ComponentPad*%
%ADD21C,1.700000*%
%TD*%
%TA.AperFunction,ComponentPad*%
%ADD22R,1.440000X2.000000*%
%TD*%
%TA.AperFunction,ComponentPad*%
%ADD23O,1.440000X2.000000*%
%TD*%
%TA.AperFunction,SMDPad,CuDef*%
%ADD24R,1.450000X0.450000*%
%TD*%
%TA.AperFunction,SMDPad,CuDef*%
%ADD25RoundRect,0.150000X0.150000X0.425000X-0.150000X0.425000X-0.150000X-0.425000X0.150000X-0.425000X0*%
%TD*%
%TA.AperFunction,SMDPad,CuDef*%
%ADD26RoundRect,0.075000X0.075000X0.500000X-0.075000X0.500000X-0.075000X-0.500000X0.075000X-0.500000X0*%
%TD*%
%TA.AperFunction,HeatsinkPad*%
%ADD27O,1.000000X2.100000*%
%TD*%
%TA.AperFunction,HeatsinkPad*%
%ADD28O,1.000000X1.800000*%
%TD*%
%TA.AperFunction,ComponentPad*%
%ADD29R,1.800000X1.800000*%
%TD*%
%TA.AperFunction,ComponentPad*%
%ADD30C,1.800000*%
%TD*%
%TA.AperFunction,SMDPad,CuDef*%
%ADD31RoundRect,0.150000X-0.200000X0.150000X-0.200000X-0.150000X0.200000X-0.150000X0.200000X0.150000X0*%
%TD*%
%TA.AperFunction,SMDPad,CuDef*%
%ADD32RoundRect,0.237500X0.250000X0.237500X-0.250000X0.237500X-0.250000X-0.237500X0.250000X-0.237500X0*%
%TD*%
%TA.AperFunction,SMDPad,CuDef*%
%ADD33RoundRect,0.237500X-0.250000X-0.237500X0.250000X-0.237500X0.250000X0.237500X-0.250000X0.237500X0*%
%TD*%
%TA.AperFunction,ViaPad*%
%ADD34C,0.600000*%
%TD*%
%TA.AperFunction,Conductor*%
%ADD35C,0.304800*%
%TD*%
%TA.AperFunction,Conductor*%
%ADD36C,0.200000*%
%TD*%
%TA.AperFunction,Conductor*%
%ADD37C,0.203200*%
%TD*%
%TA.AperFunction,Profile*%
%ADD38C,0.050000*%
%TD*%
G04 APERTURE END LIST*
D10*
%TO.P,R7,1*%
%TO.N,Net-(J7-Pin_15)*%
X171630000Y-111833500D03*
%TO.P,R7,2*%
%TO.N,VCC_IO*%
X171630000Y-113658500D03*
%TD*%
D11*
%TO.P,Q4,1,B*%
%TO.N,Net-(Q4-B)*%
X153771500Y-89783300D03*
%TO.P,Q4,2,E*%
%TO.N,+3.3V*%
X153771500Y-87883300D03*
%TO.P,Q4,3,C*%
%TO.N,Net-(D2-A)*%
X151896500Y-88833300D03*
%TD*%
D12*
%TO.P,R4,1*%
%TO.N,Net-(J4-CC1)*%
X167820000Y-61080500D03*
%TO.P,R4,2*%
%TO.N,GND*%
X167820000Y-59255500D03*
%TD*%
%TO.P,R12,1*%
%TO.N,VCC_IO*%
X158930000Y-113658500D03*
%TO.P,R12,2*%
%TO.N,bus_usci1_clk*%
X158930000Y-111833500D03*
%TD*%
D13*
%TO.P,U3,1,I/O1*%
%TO.N,Net-(J4-D--PadA7)*%
X161150000Y-70662500D03*
%TO.P,U3,2,GND*%
%TO.N,GND*%
X160200000Y-70662500D03*
%TO.P,U3,3,I/O2*%
%TO.N,Net-(J4-D+-PadA6)*%
X159250000Y-70662500D03*
%TO.P,U3,4,I/O2*%
%TO.N,USB_D+*%
X159250000Y-72937500D03*
%TO.P,U3,5,VBUS*%
%TO.N,VBUS*%
X160200000Y-72937500D03*
%TO.P,U3,6,I/O1*%
%TO.N,USB_D-*%
X161150000Y-72937500D03*
%TD*%
D10*
%TO.P,R9,1*%
%TO.N,GND*%
X161470000Y-88973500D03*
%TO.P,R9,2*%
%TO.N,Net-(J7-Pin_6)*%
X161470000Y-90798500D03*
%TD*%
%TO.P,R11,1*%
%TO.N,Net-(J7-Pin_11)*%
X161470000Y-111833500D03*
%TO.P,R11,2*%
%TO.N,GND*%
X161470000Y-113658500D03*
%TD*%
D14*
%TO.P,LM1117_1V8,1,GND*%
%TO.N,GND*%
X170500000Y-68650000D03*
%TO.P,LM1117_1V8,2,VO*%
%TO.N,Net-(J5-Pin_1)*%
X168200000Y-68650000D03*
D15*
X168200000Y-74950000D03*
D14*
%TO.P,LM1117_1V8,3,VI*%
%TO.N,VBUS*%
X165900000Y-68650000D03*
%TD*%
D10*
%TO.P,R6,1*%
%TO.N,VCC_IO*%
X169090000Y-88973500D03*
%TO.P,R6,2*%
%TO.N,Net-(J7-Pin_3)*%
X169090000Y-90798500D03*
%TD*%
D16*
%TO.P,C4,1*%
%TO.N,+3.3V*%
X157000000Y-75062500D03*
%TO.P,C4,2*%
%TO.N,GND*%
X157000000Y-73337500D03*
%TD*%
D17*
%TO.P,ISP,1,1*%
%TO.N,GND*%
X174950000Y-69950000D03*
X181450000Y-69950000D03*
%TO.P,ISP,2,2*%
%TO.N,ISP*%
X174950000Y-74450000D03*
X181450000Y-74450000D03*
%TD*%
D16*
%TO.P,C2,1*%
%TO.N,Net-(J5-Pin_1)*%
X163400000Y-75062500D03*
%TO.P,C2,2*%
%TO.N,GND*%
X163400000Y-73337500D03*
%TD*%
D18*
%TO.P,C3,1*%
%TO.N,VBUS*%
X151400000Y-65400000D03*
%TO.P,C3,2*%
%TO.N,GND*%
X153125000Y-65400000D03*
%TD*%
D12*
%TO.P,R17,1*%
%TO.N,Net-(Q4-B)*%
X154662800Y-85972500D03*
%TO.P,R17,2*%
%TO.N,PWR_CTL*%
X154662800Y-84147500D03*
%TD*%
D19*
%TO.P,C6,1*%
%TO.N,Net-(IC1-LDO_CAP)*%
X161470000Y-81125000D03*
%TO.P,C6,2*%
%TO.N,GND*%
X159745000Y-81125000D03*
%TD*%
D20*
%TO.P,J5,1,Pin_1*%
%TO.N,Net-(J5-Pin_1)*%
X154740000Y-80600000D03*
D21*
%TO.P,J5,2,Pin_2*%
%TO.N,VCC*%
X152200000Y-80600000D03*
%TO.P,J5,3,Pin_3*%
%TO.N,+3.3V*%
X149660000Y-80600000D03*
%TD*%
D22*
%TO.P,J7,1,Pin_1*%
%TO.N,bus_spi_ss*%
X174170000Y-97491500D03*
D23*
%TO.P,J7,2,Pin_2*%
%TO.N,bus_spi_miso*%
X171630000Y-97491500D03*
%TO.P,J7,3,Pin_3*%
%TO.N,Net-(J7-Pin_3)*%
X169090000Y-97491500D03*
%TO.P,J7,4,Pin_4*%
%TO.N,GND*%
X166550000Y-97491500D03*
%TO.P,J7,5,Pin_5*%
%TO.N,Net-(J7-Pin_5)*%
X164010000Y-97491500D03*
%TO.P,J7,6,Pin_6*%
%TO.N,Net-(J7-Pin_6)*%
X161470000Y-97491500D03*
%TO.P,J7,7,Pin_7*%
%TO.N,Net-(J7-Pin_7)*%
X158930000Y-97491500D03*
%TO.P,J7,8,Pin_8*%
%TO.N,GND*%
X156390000Y-97491500D03*
%TO.P,J7,9,Pin_9*%
%TO.N,bus_usci1_data*%
X156390000Y-105111500D03*
%TO.P,J7,10,Pin_10*%
%TO.N,bus_usci1_clk*%
X158930000Y-105111500D03*
%TO.P,J7,11,Pin_11*%
%TO.N,Net-(J7-Pin_11)*%
X161470000Y-105111500D03*
%TO.P,J7,12,Pin_12*%
%TO.N,VCC_IO*%
X164010000Y-105111500D03*
%TO.P,J7,13,Pin_13*%
%TO.N,bus_spi_mosi*%
X166550000Y-105111500D03*
%TO.P,J7,14,Pin_14*%
%TO.N,bus_spi_clk*%
X169090000Y-105111500D03*
%TO.P,J7,15,Pin_15*%
%TO.N,Net-(J7-Pin_15)*%
X171630000Y-105111500D03*
%TO.P,J7,16,Pin_16*%
%TO.N,VCC_IO*%
X174170000Y-105111500D03*
%TD*%
D18*
%TO.P,C1,1*%
%TO.N,VBUS*%
X167275000Y-65400000D03*
%TO.P,C1,2*%
%TO.N,GND*%
X169000000Y-65400000D03*
%TD*%
D24*
%TO.P,IC1,1,USB_D-*%
%TO.N,USB_D-*%
X165275000Y-78475000D03*
%TO.P,IC1,2,USB_D+*%
%TO.N,USB_D+*%
X165275000Y-79125000D03*
%TO.P,IC1,3,USB_VDD33_CAP*%
%TO.N,Net-(IC1-USB_VDD33_CAP)*%
X165275000Y-79775000D03*
%TO.P,IC1,4,VSS*%
%TO.N,GND*%
X165275000Y-80425000D03*
%TO.P,IC1,5,LDO_CAP*%
%TO.N,Net-(IC1-LDO_CAP)*%
X165275000Y-81075000D03*
%TO.P,IC1,6,VDD*%
%TO.N,VCC*%
X165275000Y-81725000D03*
%TO.P,IC1,7,PB.14*%
%TO.N,bus_spi_clk*%
X165275000Y-82375000D03*
%TO.P,IC1,8,PB.13*%
%TO.N,bus_spi_miso*%
X165275000Y-83025000D03*
%TO.P,IC1,9,PB.12*%
%TO.N,bus_spi_mosi*%
X165275000Y-83675000D03*
%TO.P,IC1,10,AVDD*%
%TO.N,VCC*%
X165275000Y-84325000D03*
%TO.P,IC1,11,PF.3*%
%TO.N,uart_tx*%
X171125000Y-84325000D03*
%TO.P,IC1,12,PF.2*%
%TO.N,uart_rx*%
X171125000Y-83675000D03*
%TO.P,IC1,13,PA.3*%
%TO.N,bus_spi_ss*%
X171125000Y-83025000D03*
%TO.P,IC1,14,PA.2*%
%TO.N,bus_usci1_data*%
X171125000Y-82375000D03*
%TO.P,IC1,15,PA.1*%
%TO.N,bus_usci1_clk*%
X171125000Y-81725000D03*
%TO.P,IC1,16,PA.0*%
%TO.N,ISP*%
X171125000Y-81075000D03*
%TO.P,IC1,17,NRESET*%
%TO.N,rst*%
X171125000Y-80425000D03*
%TO.P,IC1,18,PF.0*%
%TO.N,ice_dat*%
X171125000Y-79775000D03*
%TO.P,IC1,19,PF.1*%
%TO.N,ice_clk*%
X171125000Y-79125000D03*
%TO.P,IC1,20,USB_VBUS*%
%TO.N,VBUS*%
X171125000Y-78475000D03*
%TD*%
D16*
%TO.P,C9,1*%
%TO.N,VCC*%
X157800000Y-81125000D03*
%TO.P,C9,2*%
%TO.N,GND*%
X157800000Y-79400000D03*
%TD*%
D17*
%TO.P,RST,1,1*%
%TO.N,GND*%
X174950000Y-59950000D03*
X181450000Y-59950000D03*
%TO.P,RST,2,2*%
%TO.N,rst*%
X174950000Y-64450000D03*
X181450000Y-64450000D03*
%TD*%
D25*
%TO.P,J4,A1,GND*%
%TO.N,GND*%
X163400000Y-65880000D03*
%TO.P,J4,A4,VBUS*%
%TO.N,VBUS*%
X162600000Y-65880000D03*
D26*
%TO.P,J4,A5,CC1*%
%TO.N,Net-(J4-CC1)*%
X161450000Y-65880000D03*
%TO.P,J4,A6,D+*%
%TO.N,Net-(J4-D+-PadA6)*%
X160450000Y-65880000D03*
%TO.P,J4,A7,D-*%
%TO.N,Net-(J4-D--PadA7)*%
X159950000Y-65880000D03*
%TO.P,J4,A8,SBU1*%
%TO.N,unconnected-(J4-SBU1-PadA8)*%
X158950000Y-65880000D03*
D25*
%TO.P,J4,A9,VBUS*%
%TO.N,VBUS*%
X157800000Y-65880000D03*
%TO.P,J4,A12,GND*%
%TO.N,GND*%
X157000000Y-65880000D03*
%TO.P,J4,B1,GND*%
X157000000Y-65880000D03*
%TO.P,J4,B4,VBUS*%
%TO.N,VBUS*%
X157800000Y-65880000D03*
D26*
%TO.P,J4,B5,CC2*%
%TO.N,Net-(J4-CC2)*%
X158450000Y-65880000D03*
%TO.P,J4,B6,D+*%
%TO.N,Net-(J4-D+-PadA6)*%
X159450000Y-65880000D03*
%TO.P,J4,B7,D-*%
%TO.N,Net-(J4-D--PadA7)*%
X160950000Y-65880000D03*
%TO.P,J4,B8,SBU2*%
%TO.N,unconnected-(J4-SBU2-PadB8)*%
X161950000Y-65880000D03*
D25*
%TO.P,J4,B9,VBUS*%
%TO.N,VBUS*%
X162600000Y-65880000D03*
%TO.P,J4,B12,GND*%
%TO.N,GND*%
X163400000Y-65880000D03*
D27*
%TO.P,J4,S1,SHIELD*%
X164520000Y-65305000D03*
D28*
X164520000Y-61125000D03*
D27*
X155880000Y-65305000D03*
D28*
X155880000Y-61125000D03*
%TD*%
D14*
%TO.P,LM1117_3V3,1,GND*%
%TO.N,GND*%
X154500000Y-68650000D03*
%TO.P,LM1117_3V3,2,VO*%
%TO.N,+3.3V*%
X152200000Y-68650000D03*
D15*
X152200000Y-74950000D03*
D14*
%TO.P,LM1117_3V3,3,VI*%
%TO.N,VBUS*%
X149900000Y-68650000D03*
%TD*%
D19*
%TO.P,C7,1*%
%TO.N,Net-(IC1-USB_VDD33_CAP)*%
X161470000Y-79218000D03*
%TO.P,C7,2*%
%TO.N,GND*%
X159745000Y-79218000D03*
%TD*%
D10*
%TO.P,R15,1*%
%TO.N,GND*%
X177421200Y-86687500D03*
%TO.P,R15,2*%
%TO.N,Net-(D3-K)*%
X177421200Y-88512500D03*
%TD*%
D29*
%TO.P,ISP/PRG,1,K*%
%TO.N,Net-(D2-K)*%
X148465200Y-90800400D03*
D30*
%TO.P,ISP/PRG,2,A*%
%TO.N,Net-(D2-A)*%
X148465200Y-88260400D03*
%TD*%
D12*
%TO.P,R5,1*%
%TO.N,Net-(J4-CC2)*%
X152580000Y-61080500D03*
%TO.P,R5,2*%
%TO.N,GND*%
X152580000Y-59255500D03*
%TD*%
D20*
%TO.P,J6,1,Pin_1*%
%TO.N,VCC*%
X180520000Y-89800000D03*
D21*
%TO.P,J6,2,Pin_2*%
%TO.N,ice_dat*%
X180520000Y-87260000D03*
%TO.P,J6,3,Pin_3*%
%TO.N,ice_clk*%
X180520000Y-84720000D03*
%TO.P,J6,4,Pin_4*%
%TO.N,rst*%
X180520000Y-82180000D03*
%TO.P,J6,5,Pin_5*%
%TO.N,GND*%
X180520000Y-79640000D03*
%TD*%
D20*
%TO.P,J1,1,Pin_1*%
%TO.N,VCC_IO*%
X174200000Y-118800000D03*
D21*
%TO.P,J1,2,Pin_2*%
%TO.N,bus_spi_ss*%
X171660000Y-118800000D03*
%TO.P,J1,3,Pin_3*%
%TO.N,bus_spi_clk*%
X169120000Y-118800000D03*
%TO.P,J1,4,Pin_4*%
%TO.N,bus_spi_miso*%
X166580000Y-118800000D03*
%TO.P,J1,5,Pin_5*%
%TO.N,bus_spi_mosi*%
X164040000Y-118800000D03*
%TO.P,J1,6,Pin_6*%
%TO.N,GND*%
X161500000Y-118800000D03*
%TO.P,J1,7,Pin_7*%
%TO.N,VCC_IO*%
X158960000Y-118800000D03*
%TO.P,J1,8,Pin_8*%
%TO.N,bus_usci1_clk*%
X156420000Y-118800000D03*
%TO.P,J1,9,Pin_9*%
%TO.N,bus_usci1_data*%
X153880000Y-118800000D03*
%TO.P,J1,10,Pin_10*%
%TO.N,GND*%
X151340000Y-118800000D03*
%TD*%
D10*
%TO.P,R8,1*%
%TO.N,GND*%
X164010000Y-88973500D03*
%TO.P,R8,2*%
%TO.N,Net-(J7-Pin_5)*%
X164010000Y-90798500D03*
%TD*%
D31*
%TO.P,D3,1,K*%
%TO.N,Net-(D3-K)*%
X175744800Y-87893600D03*
%TO.P,D3,2,A*%
%TO.N,ISP*%
X175744800Y-86493600D03*
%TD*%
D11*
%TO.P,Q2,1,B*%
%TO.N,Net-(Q2-B)*%
X160403200Y-86431600D03*
%TO.P,Q2,2,E*%
%TO.N,GND*%
X160403200Y-84531600D03*
%TO.P,Q2,3,C*%
%TO.N,PWR_CTL*%
X158528200Y-85481600D03*
%TD*%
D10*
%TO.P,R10,1*%
%TO.N,GND*%
X158930000Y-88973500D03*
%TO.P,R10,2*%
%TO.N,Net-(J7-Pin_7)*%
X158930000Y-90798500D03*
%TD*%
D32*
%TO.P,R16,1*%
%TO.N,Net-(D3-K)*%
X177825700Y-90851200D03*
%TO.P,R16,2*%
%TO.N,Net-(Q2-B)*%
X176000700Y-90851200D03*
%TD*%
D11*
%TO.P,Q3,1,G*%
%TO.N,Net-(Q3-G)*%
X149707500Y-85871700D03*
%TO.P,Q3,2,S*%
%TO.N,VCC_IO*%
X149707500Y-83971700D03*
%TO.P,Q3,3,D*%
%TO.N,VCC*%
X147832500Y-84921700D03*
%TD*%
D12*
%TO.P,R13,1*%
%TO.N,VCC_IO*%
X156390000Y-113658500D03*
%TO.P,R13,2*%
%TO.N,bus_usci1_data*%
X156390000Y-111833500D03*
%TD*%
D10*
%TO.P,R14,1*%
%TO.N,PWR_CTL*%
X156390000Y-84147500D03*
%TO.P,R14,2*%
%TO.N,Net-(Q3-G)*%
X156390000Y-85972500D03*
%TD*%
D20*
%TO.P,J2,1,Pin_1*%
%TO.N,uart_rx*%
X180520000Y-113660000D03*
D21*
%TO.P,J2,2,Pin_2*%
%TO.N,uart_tx*%
X180520000Y-116200000D03*
%TO.P,J2,3,Pin_3*%
%TO.N,GND*%
X180520000Y-118740000D03*
%TD*%
D12*
%TO.P,R3,1*%
%TO.N,VCC*%
X177400000Y-84225000D03*
%TO.P,R3,2*%
%TO.N,rst*%
X177400000Y-82400000D03*
%TD*%
D33*
%TO.P,R18,1*%
%TO.N,Net-(D2-K)*%
X151972300Y-91918000D03*
%TO.P,R18,2*%
%TO.N,GND*%
X153797300Y-91918000D03*
%TD*%
D16*
%TO.P,C5,1*%
%TO.N,rst*%
X177400000Y-80662500D03*
%TO.P,C5,2*%
%TO.N,GND*%
X177400000Y-78937500D03*
%TD*%
D34*
%TO.N,GND*%
X154485000Y-70709000D03*
X170487000Y-66645000D03*
X160200000Y-74646000D03*
X160200000Y-107564400D03*
X180520000Y-77186000D03*
X178742000Y-79726000D03*
X166931000Y-80488000D03*
X170487000Y-70709000D03*
X164264000Y-107564400D03*
X168963000Y-63851000D03*
X154485000Y-65375000D03*
X166550000Y-99538000D03*
X169344000Y-59279000D03*
X180520000Y-121128000D03*
X162232000Y-73376000D03*
X172392000Y-68677000D03*
X177421200Y-85466400D03*
X167769200Y-117419600D03*
X151183000Y-59279000D03*
X167515200Y-107564400D03*
X172061800Y-85822000D03*
X170487000Y-65375000D03*
X156390000Y-68677000D03*
X153088000Y-64105000D03*
X160200000Y-69058000D03*
X163375000Y-72233000D03*
%TO.N,VBUS*%
X168836000Y-78710000D03*
X165788000Y-71090000D03*
%TO.N,Net-(J5-Pin_1)*%
X163248000Y-76678000D03*
%TO.N,VCC*%
X167312000Y-84044000D03*
X167312000Y-81758000D03*
X148566800Y-82824800D03*
X157914000Y-82520000D03*
%TO.N,bus_spi_clk*%
X165280000Y-102789200D03*
%TO.N,bus_usci1_clk*%
X170131400Y-101747800D03*
%TO.N,bus_spi_miso*%
X166423000Y-95347000D03*
%TO.N,ice_clk*%
X175490800Y-77186000D03*
%TO.N,ice_dat*%
X175033600Y-80742000D03*
%TO.N,bus_usci1_data*%
X172874600Y-100681000D03*
%TO.N,VCC_IO*%
X151259200Y-84450400D03*
X151259200Y-110815600D03*
X167515200Y-88971600D03*
%TO.N,Net-(Q2-B)*%
X174881200Y-91765600D03*
X162028800Y-87041200D03*
%TO.N,Net-(Q3-G)*%
X146179200Y-86330000D03*
X156644000Y-87244400D03*
%TD*%
D35*
%TO.N,GND*%
X154527000Y-68677000D02*
X154500000Y-68650000D01*
X163945000Y-65880000D02*
X164520000Y-65305000D01*
X157000000Y-65880000D02*
X156455000Y-65880000D01*
X155880000Y-65305000D02*
X154555000Y-65305000D01*
X154485000Y-65375000D02*
X153150000Y-65375000D01*
X165275000Y-80425000D02*
X166868000Y-80425000D01*
X153088000Y-65363000D02*
X153125000Y-65400000D01*
X166550000Y-97491500D02*
X166550000Y-99538000D01*
X167058000Y-63851000D02*
X168963000Y-63851000D01*
X153150000Y-65375000D02*
X153125000Y-65400000D01*
X161470000Y-113658500D02*
X161470000Y-118770000D01*
X156390000Y-68677000D02*
X154527000Y-68677000D01*
X160200000Y-70662500D02*
X160200000Y-69058000D01*
X154485000Y-70709000D02*
X154485000Y-68665000D01*
X165604000Y-65305000D02*
X167058000Y-63851000D01*
X164520000Y-65305000D02*
X165604000Y-65305000D01*
X154555000Y-65305000D02*
X154485000Y-65375000D01*
X153088000Y-64105000D02*
X153088000Y-65363000D01*
X163400000Y-65880000D02*
X163945000Y-65880000D01*
X161470000Y-118770000D02*
X161500000Y-118800000D01*
X154485000Y-68665000D02*
X154500000Y-68650000D01*
D36*
X177421200Y-86687500D02*
X177421200Y-85466400D01*
D35*
X166868000Y-80425000D02*
X166931000Y-80488000D01*
X156455000Y-65880000D02*
X155880000Y-65305000D01*
%TO.N,VBUS*%
X157406000Y-67026000D02*
X157406000Y-71090000D01*
X162613000Y-71852000D02*
X161470000Y-71852000D01*
X160623001Y-71852000D02*
X161470000Y-71852000D01*
X165900000Y-67930000D02*
X165900000Y-68650000D01*
X163171001Y-67026000D02*
X163171001Y-71293999D01*
X157406000Y-71090000D02*
X158168000Y-71852000D01*
X160200000Y-72275001D02*
X159776999Y-71852000D01*
X162600000Y-65880000D02*
X162600000Y-66454999D01*
X157800000Y-66632000D02*
X157406000Y-67026000D01*
X167275000Y-66555000D02*
X165900000Y-67930000D01*
X166296000Y-66518000D02*
X166296000Y-65756000D01*
X166652000Y-65400000D02*
X167275000Y-65400000D01*
X167275000Y-65400000D02*
X167275000Y-66555000D01*
X169071000Y-78475000D02*
X171125000Y-78475000D01*
X149900000Y-66150000D02*
X150650000Y-65400000D01*
X168836000Y-78710000D02*
X169071000Y-78475000D01*
X157800000Y-65880000D02*
X157800000Y-66632000D01*
X165788000Y-67026000D02*
X166296000Y-66518000D01*
X159776999Y-71852000D02*
X158168000Y-71852000D01*
X149900000Y-68650000D02*
X149900000Y-66150000D01*
X165900000Y-70978000D02*
X165788000Y-71090000D01*
X163171001Y-71293999D02*
X162613000Y-71852000D01*
X153026000Y-67026000D02*
X151400000Y-65400000D01*
X162600000Y-66454999D02*
X163171001Y-67026000D01*
X150650000Y-65400000D02*
X151400000Y-65400000D01*
X160200000Y-72275001D02*
X160623001Y-71852000D01*
X165900000Y-68650000D02*
X165900000Y-70978000D01*
X157406000Y-67026000D02*
X153026000Y-67026000D01*
X163171001Y-67026000D02*
X165788000Y-67026000D01*
X161470000Y-71852000D02*
X160856928Y-71852000D01*
X166296000Y-65756000D02*
X166652000Y-65400000D01*
%TO.N,Net-(J5-Pin_1)*%
X163400000Y-76526000D02*
X163248000Y-76678000D01*
X168200000Y-74950000D02*
X163512500Y-74950000D01*
X163400000Y-75062500D02*
X163400000Y-76526000D01*
X163512500Y-74950000D02*
X163400000Y-75062500D01*
X168200000Y-74950000D02*
X168200000Y-68650000D01*
%TO.N,rst*%
X178005400Y-67505400D02*
X178005400Y-75814400D01*
X178005400Y-75814400D02*
X176329000Y-77490800D01*
X177297500Y-80662500D02*
X177400000Y-80662500D01*
X174728800Y-81605600D02*
X176354400Y-81605600D01*
X180520000Y-82180000D02*
X179082000Y-82180000D01*
X178862000Y-82400000D02*
X177400000Y-82400000D01*
X176354400Y-81605600D02*
X177297500Y-80662500D01*
X176329000Y-77490800D02*
X176329000Y-79980000D01*
X176329000Y-79980000D02*
X177011500Y-80662500D01*
X174950000Y-64450000D02*
X178005400Y-67505400D01*
X179082000Y-82180000D02*
X178862000Y-82400000D01*
X177400000Y-80662500D02*
X177400000Y-82400000D01*
X177011500Y-80662500D02*
X177400000Y-80662500D01*
X173548200Y-80425000D02*
X174728800Y-81605600D01*
X171125000Y-80425000D02*
X173548200Y-80425000D01*
%TO.N,Net-(IC1-LDO_CAP)*%
X165275000Y-81075000D02*
X161520000Y-81075000D01*
X161520000Y-81075000D02*
X161470000Y-81125000D01*
%TO.N,Net-(IC1-USB_VDD33_CAP)*%
X162740000Y-79218000D02*
X161470000Y-79218000D01*
X163297000Y-79775000D02*
X162740000Y-79218000D01*
X165275000Y-79775000D02*
X163297000Y-79775000D01*
%TO.N,VCC*%
X165275000Y-84325000D02*
X167031000Y-84325000D01*
X157800000Y-82406000D02*
X157914000Y-82520000D01*
X178742000Y-89124000D02*
X179418000Y-89800000D01*
X178742000Y-84806000D02*
X178742000Y-89124000D01*
X157800000Y-81125000D02*
X157800000Y-82406000D01*
X147804800Y-83180400D02*
X148160400Y-82824800D01*
X179418000Y-89800000D02*
X180520000Y-89800000D01*
X178161000Y-84225000D02*
X178742000Y-84806000D01*
X165275000Y-84325000D02*
X165203400Y-84253400D01*
X167279000Y-81725000D02*
X167312000Y-81758000D01*
X148160400Y-82824800D02*
X148566800Y-82824800D01*
X167031000Y-84325000D02*
X167312000Y-84044000D01*
X165275000Y-81725000D02*
X167279000Y-81725000D01*
X177400000Y-84225000D02*
X178161000Y-84225000D01*
X147804800Y-84894000D02*
X147804800Y-83180400D01*
X147832500Y-84921700D02*
X147804800Y-84894000D01*
%TO.N,+3.3V*%
X150040000Y-77186000D02*
X156136000Y-77186000D01*
X157000000Y-76322000D02*
X157000000Y-75062500D01*
X152558500Y-87883300D02*
X151919600Y-87244400D01*
X156136000Y-77186000D02*
X157000000Y-76322000D01*
X151919600Y-82859600D02*
X149660000Y-80600000D01*
X152200000Y-74950000D02*
X156887500Y-74950000D01*
X153771500Y-87883300D02*
X152558500Y-87883300D01*
X156887500Y-74950000D02*
X157000000Y-75062500D01*
X152200000Y-74950000D02*
X152200000Y-68650000D01*
X149660000Y-77566000D02*
X150040000Y-77186000D01*
X151919600Y-87244400D02*
X151919600Y-82859600D01*
X149660000Y-80600000D02*
X149660000Y-77566000D01*
D36*
%TO.N,Net-(D2-A)*%
X149989200Y-88260400D02*
X150562100Y-88833300D01*
X148465200Y-88260400D02*
X149989200Y-88260400D01*
X150562100Y-88833300D02*
X151896500Y-88833300D01*
D35*
%TO.N,bus_spi_clk*%
X165280000Y-87346000D02*
X164899000Y-86965000D01*
X161851000Y-85822000D02*
X161851000Y-83155000D01*
X164899000Y-86965000D02*
X162994000Y-86965000D01*
X165280000Y-102789200D02*
X165280000Y-87346000D01*
X161851000Y-83155000D02*
X162631000Y-82375000D01*
X162994000Y-86965000D02*
X161851000Y-85822000D01*
X162631000Y-82375000D02*
X165275000Y-82375000D01*
%TO.N,bus_spi_ss*%
X172061720Y-88031720D02*
X172061721Y-88031721D01*
X171632721Y-91331107D02*
X171632721Y-91230147D01*
X172716480Y-91533027D02*
X171834641Y-91533027D01*
X172061721Y-88031721D02*
X171861074Y-88232365D01*
X172418670Y-88388670D02*
X173043602Y-87763737D01*
X170419759Y-86104200D02*
X171043329Y-85480629D01*
X171834641Y-90018627D02*
X172716480Y-90018627D01*
X172918400Y-89816707D02*
X172918400Y-89715747D01*
X171082073Y-86155781D02*
X170776706Y-86461147D01*
X172289416Y-88946266D02*
X172218022Y-88874872D01*
X172114165Y-86551480D02*
X171490601Y-87175043D01*
X172918400Y-89715747D02*
X172918400Y-89160947D01*
X170686381Y-85123681D02*
X170062810Y-85747251D01*
X173043602Y-87478179D02*
X172972211Y-87406788D01*
X171439021Y-86227171D02*
X171367631Y-86155781D01*
X171704772Y-87674772D02*
X171847551Y-87531992D01*
X171834641Y-91028227D02*
X172716480Y-91028227D01*
X172218022Y-88589314D02*
X172275887Y-88531446D01*
X172716480Y-92542627D02*
X171834625Y-92542627D01*
X174170000Y-94966000D02*
X172918400Y-93714400D01*
X170118200Y-83025000D02*
X171125000Y-83025000D01*
X172918400Y-89160947D02*
X172918400Y-88888400D01*
X172632840Y-88888399D02*
X172574974Y-88946266D01*
X171205043Y-87175043D02*
X171133655Y-87103655D01*
X172874600Y-108869956D02*
X172874600Y-110797685D01*
X171043329Y-85195071D02*
X170971939Y-85123681D01*
X171632705Y-92340707D02*
X171632705Y-92239747D01*
X172874600Y-103551200D02*
X172874600Y-107669956D01*
X169777252Y-85747251D02*
X169705863Y-85675863D01*
X172918400Y-91835907D02*
X172918400Y-91734947D01*
X171632721Y-90321507D02*
X171632721Y-90220547D01*
X173114600Y-107909956D02*
X173366623Y-107909956D01*
X170491148Y-86461147D02*
X170419759Y-86389759D01*
X172874600Y-115463800D02*
X171660000Y-116678400D01*
X172686653Y-87406788D02*
X172061720Y-88031720D01*
X172471114Y-86622871D02*
X172399723Y-86551480D01*
X173366623Y-108509956D02*
X173114600Y-108509956D01*
X174170000Y-97491500D02*
X174170000Y-102255800D01*
X173606623Y-108149956D02*
X173606623Y-108269956D01*
X169705863Y-85675863D02*
X169598000Y-85568000D01*
X172918400Y-90826307D02*
X172918400Y-90725347D01*
X171834625Y-92037827D02*
X172716480Y-92037827D01*
X169598000Y-85568000D02*
X169598000Y-84611345D01*
X174170000Y-97491500D02*
X174170000Y-94966000D01*
X171847551Y-87531992D02*
X172471114Y-86908429D01*
X172874600Y-110797685D02*
X172874600Y-115463800D01*
X171704771Y-87674771D02*
X171704772Y-87674772D01*
X172716480Y-90523427D02*
X171834641Y-90523427D01*
X172418666Y-88388667D02*
X172418670Y-88388670D01*
X172918400Y-93714400D02*
X172918400Y-92744547D01*
X172275887Y-88531446D02*
X172418666Y-88388667D01*
X171133655Y-86818096D02*
X171439021Y-86512729D01*
X171504125Y-87875416D02*
X171704771Y-87674771D01*
X172874600Y-108749956D02*
X172874600Y-108869956D01*
X174170000Y-102255800D02*
X172874600Y-103551200D01*
X169598000Y-83545200D02*
X170118200Y-83025000D01*
X171575516Y-88232365D02*
X171504125Y-88160974D01*
X169598000Y-84611345D02*
X169598000Y-83545200D01*
X171660000Y-116678400D02*
X171660000Y-118800000D01*
X171439021Y-86512729D02*
G75*
G03*
X171438971Y-86227221I-142821J142729D01*
G01*
X171043329Y-85480629D02*
G75*
G03*
X171043279Y-85195121I-142729J142729D01*
G01*
X171632721Y-90220547D02*
G75*
G02*
X171834641Y-90018621I201879J47D01*
G01*
X172874600Y-107669956D02*
G75*
G03*
X173114600Y-107910000I240000J-44D01*
G01*
X172716480Y-92037827D02*
G75*
G03*
X172918427Y-91835907I20J201927D01*
G01*
X170062810Y-85747251D02*
G75*
G02*
X169777252Y-85747251I-142779J142779D01*
G01*
X171834641Y-91533027D02*
G75*
G02*
X171632673Y-91331107I-41J201927D01*
G01*
X172918400Y-91734947D02*
G75*
G03*
X172716480Y-91533000I-201900J47D01*
G01*
X172918400Y-92744547D02*
G75*
G03*
X172716480Y-92542600I-201900J47D01*
G01*
X171632705Y-92239747D02*
G75*
G02*
X171834625Y-92037805I201895J47D01*
G01*
X171367631Y-86155781D02*
G75*
G03*
X171082073Y-86155781I-142779J-142779D01*
G01*
X173114600Y-108509956D02*
G75*
G03*
X172874556Y-108749956I0J-240044D01*
G01*
X172918400Y-90725347D02*
G75*
G03*
X172716480Y-90523400I-201900J47D01*
G01*
X172716480Y-90018627D02*
G75*
G03*
X172918427Y-89816707I20J201927D01*
G01*
X171834625Y-92542627D02*
G75*
G02*
X171632673Y-92340707I-25J201927D01*
G01*
X171632721Y-91230147D02*
G75*
G02*
X171834641Y-91028221I201879J47D01*
G01*
X170776706Y-86461147D02*
G75*
G02*
X170491148Y-86461147I-142779J142779D01*
G01*
X173606623Y-108269956D02*
G75*
G02*
X173366623Y-108510023I-240023J-44D01*
G01*
X172716480Y-91028227D02*
G75*
G03*
X172918427Y-90826307I20J201927D01*
G01*
X171834641Y-90523427D02*
G75*
G02*
X171632673Y-90321507I-41J201927D01*
G01*
X172918400Y-88888400D02*
G75*
G03*
X172632821Y-88888379I-142800J-142800D01*
G01*
X170971939Y-85123681D02*
G75*
G03*
X170686381Y-85123681I-142779J-142779D01*
G01*
X172399723Y-86551480D02*
G75*
G03*
X172114165Y-86551480I-142779J-142779D01*
G01*
X172218022Y-88874872D02*
G75*
G02*
X172218029Y-88589321I142778J142772D01*
G01*
X171504125Y-88160974D02*
G75*
G02*
X171504130Y-87875421I142775J142774D01*
G01*
X172574974Y-88946266D02*
G75*
G02*
X172289416Y-88946266I-142779J142779D01*
G01*
X173366623Y-107909956D02*
G75*
G02*
X173606644Y-108149956I-23J-240044D01*
G01*
X171490601Y-87175043D02*
G75*
G02*
X171205043Y-87175043I-142779J142779D01*
G01*
X170419759Y-86389759D02*
G75*
G02*
X170419779Y-86104221I142741J142759D01*
G01*
X172972211Y-87406788D02*
G75*
G03*
X172686653Y-87406788I-142779J-142779D01*
G01*
X173043602Y-87763737D02*
G75*
G03*
X173043560Y-87478221I-142802J142737D01*
G01*
X172471114Y-86908429D02*
G75*
G03*
X172471064Y-86622921I-142814J142729D01*
G01*
X171133655Y-87103655D02*
G75*
G02*
X171133679Y-86818121I142745J142755D01*
G01*
X171861074Y-88232365D02*
G75*
G02*
X171575516Y-88232365I-142779J142779D01*
G01*
%TO.N,bus_usci1_clk*%
X168887291Y-82825291D02*
X169987581Y-81725000D01*
X158930000Y-111833500D02*
X158930000Y-105111500D01*
X168709000Y-83003581D02*
X168887291Y-82825291D01*
X170360000Y-101519200D02*
X170131400Y-101747800D01*
X168586400Y-86715400D02*
X170360000Y-88489000D01*
X169987581Y-81725000D02*
X171125000Y-81725000D01*
X168586400Y-83126182D02*
X168586400Y-86715400D01*
X170360000Y-88489000D02*
X170360000Y-101519200D01*
X168887291Y-82825291D02*
X168586400Y-83126182D01*
%TO.N,bus_spi_miso*%
X170360000Y-104008400D02*
X170360000Y-103602000D01*
X170131400Y-108097800D02*
X170360000Y-107869200D01*
X163124000Y-83025000D02*
X162943200Y-83205800D01*
X171630000Y-102332000D02*
X171630000Y-97491500D01*
X162943200Y-85390200D02*
X163527400Y-85974400D01*
X170995000Y-102967000D02*
X171630000Y-102332000D01*
X165635600Y-85974400D02*
X166044200Y-86383000D01*
X166044200Y-86383000D02*
X166044200Y-94968200D01*
X165275000Y-83025000D02*
X163124000Y-83025000D01*
X170360000Y-107869200D02*
X170360000Y-104008400D01*
X170360000Y-103602000D02*
X170995000Y-102967000D01*
X162943200Y-83205800D02*
X162943200Y-85390200D01*
X166044200Y-94968200D02*
X166423000Y-95347000D01*
X166580000Y-111649200D02*
X170131400Y-108097800D01*
X166580000Y-118800000D02*
X166580000Y-111649200D01*
X171122000Y-97999500D02*
X171630000Y-97491500D01*
X163527400Y-85974400D02*
X165635600Y-85974400D01*
%TO.N,bus_spi_mosi*%
X163800000Y-111091152D02*
X164040000Y-111091152D01*
X163049231Y-113131152D02*
X163049231Y-113251152D01*
X167820000Y-95093000D02*
X167820000Y-102179600D01*
X164040000Y-115236704D02*
X164040000Y-118800000D01*
X163502000Y-84907600D02*
X164035400Y-85441000D01*
X163049231Y-110731152D02*
X163049231Y-110851152D01*
X163289231Y-111091152D02*
X163800000Y-111091152D01*
X163502000Y-83866200D02*
X163502000Y-84907600D01*
D36*
X167820000Y-95067600D02*
X167820000Y-102179600D01*
D35*
X164040000Y-113731152D02*
X164040000Y-113851152D01*
X163800000Y-110491152D02*
X163289231Y-110491152D01*
X164040000Y-112891152D02*
X163800000Y-112891152D01*
X165915000Y-85441000D02*
X166550000Y-86076000D01*
X166550000Y-93823000D02*
X167820000Y-95093000D01*
X164040000Y-111691152D02*
X163289231Y-111691152D01*
X164040000Y-112291152D02*
X164790790Y-112291152D01*
X166550000Y-107208800D02*
X164040000Y-109718800D01*
X163693200Y-83675000D02*
X163502000Y-83866200D01*
X164790769Y-111691152D02*
X164040000Y-111691152D01*
X166550000Y-105111500D02*
X166550000Y-107208800D01*
X165030769Y-111331152D02*
X165030769Y-111451152D01*
X165030790Y-112531152D02*
X165030790Y-112651152D01*
X164035400Y-85441000D02*
X165915000Y-85441000D01*
X163289231Y-113491152D02*
X163800000Y-113491152D01*
X167820000Y-102179600D02*
X166550000Y-103449600D01*
X164040000Y-111091152D02*
X164790769Y-111091152D01*
X166550000Y-86076000D02*
X166550000Y-93823000D01*
X164790790Y-112891152D02*
X164040000Y-112891152D01*
X164040000Y-113851152D02*
X164040000Y-115236704D01*
X166550000Y-103449600D02*
X166550000Y-105111500D01*
X163049231Y-111931152D02*
X163049231Y-112051152D01*
X163289231Y-112291152D02*
X164040000Y-112291152D01*
X164040000Y-109718800D02*
X164040000Y-110251152D01*
X165275000Y-83675000D02*
X163693200Y-83675000D01*
X163800000Y-112891152D02*
X163289231Y-112891152D01*
X163289231Y-112891152D02*
G75*
G03*
X163049152Y-113131152I-31J-240048D01*
G01*
X163049231Y-112051152D02*
G75*
G03*
X163289231Y-112291169I239969J-48D01*
G01*
X165030769Y-111451152D02*
G75*
G02*
X164790769Y-111691169I-239969J-48D01*
G01*
X164790790Y-112291152D02*
G75*
G02*
X165030848Y-112531152I10J-240048D01*
G01*
X164040000Y-110251152D02*
G75*
G02*
X163800000Y-110491200I-240000J-48D01*
G01*
X163289231Y-110491152D02*
G75*
G03*
X163049152Y-110731152I-31J-240048D01*
G01*
X163049231Y-113251152D02*
G75*
G03*
X163289231Y-113491169I239969J-48D01*
G01*
X163800000Y-113491152D02*
G75*
G02*
X164040048Y-113731152I0J-240048D01*
G01*
X164790769Y-111091152D02*
G75*
G02*
X165030848Y-111331152I31J-240048D01*
G01*
X163289231Y-111691152D02*
G75*
G03*
X163049152Y-111931152I-31J-240048D01*
G01*
X165030790Y-112651152D02*
G75*
G02*
X164790790Y-112891190I-239990J-48D01*
G01*
X163049231Y-110851152D02*
G75*
G03*
X163289231Y-111091169I239969J-48D01*
G01*
%TO.N,uart_tx*%
X179402000Y-116200000D02*
X178742000Y-115540000D01*
X180520000Y-116200000D02*
X179402000Y-116200000D01*
X172927000Y-84325000D02*
X171125000Y-84325000D01*
X178742000Y-115540000D02*
X178742000Y-98265800D01*
X173664200Y-85062200D02*
X172927000Y-84325000D01*
X173664200Y-93188000D02*
X173664200Y-85062200D01*
X178742000Y-98265800D02*
X173664200Y-93188000D01*
%TO.N,uart_rx*%
X174170000Y-84806000D02*
X174170000Y-92934000D01*
X180520000Y-113660000D02*
X180520000Y-99284000D01*
X171125000Y-83675000D02*
X173039000Y-83675000D01*
X173039000Y-83675000D02*
X174170000Y-84806000D01*
X180520000Y-99284000D02*
X174170000Y-92934000D01*
D37*
%TO.N,Net-(J4-D+-PadA6)*%
X159450000Y-67522000D02*
X159450000Y-65880000D01*
X159450000Y-67546000D02*
X159450000Y-67522000D01*
X160450000Y-65880000D02*
X160450000Y-67530000D01*
X160200000Y-67788000D02*
X159692000Y-67788000D01*
X160454000Y-67534000D02*
X160200000Y-67788000D01*
X159250000Y-67722000D02*
X159450000Y-67522000D01*
X159250000Y-70662500D02*
X159250000Y-67722000D01*
X160450000Y-67530000D02*
X160454000Y-67534000D01*
X159692000Y-67788000D02*
X159450000Y-67546000D01*
%TO.N,Net-(J4-CC2)*%
X157660000Y-62962000D02*
X153469000Y-62962000D01*
X153469000Y-62962000D02*
X152580000Y-62073000D01*
X152580000Y-62073000D02*
X152580000Y-61080500D01*
X157660000Y-62962000D02*
X158450000Y-63752000D01*
X158450000Y-65880000D02*
X158450000Y-63752000D01*
%TO.N,Net-(J4-CC1)*%
X162232000Y-62962000D02*
X167312000Y-62962000D01*
X161450000Y-65880000D02*
X161450000Y-63744000D01*
X167820000Y-62454000D02*
X167820000Y-61080500D01*
X161450000Y-63744000D02*
X162232000Y-62962000D01*
X167312000Y-62962000D02*
X167820000Y-62454000D01*
%TO.N,Net-(J4-D--PadA7)*%
X160950000Y-67534000D02*
X160950000Y-65880000D01*
X160708000Y-64486000D02*
X160950000Y-64728000D01*
X161150000Y-70662500D02*
X161150000Y-67734000D01*
X160950000Y-64728000D02*
X160950000Y-65880000D01*
X161150000Y-67734000D02*
X160950000Y-67534000D01*
X159950000Y-64736000D02*
X160200000Y-64486000D01*
X159950000Y-65880000D02*
X159950000Y-64736000D01*
X160200000Y-64486000D02*
X160708000Y-64486000D01*
D35*
%TO.N,ice_clk*%
X175236800Y-77998800D02*
X175135200Y-78100400D01*
X175490800Y-77744800D02*
X175490800Y-77186000D01*
X171125000Y-79125000D02*
X172849200Y-79125000D01*
X172849200Y-79125000D02*
X174110600Y-79125000D01*
X174110600Y-79125000D02*
X175490800Y-77744800D01*
X172849200Y-79125000D02*
X174009000Y-79125000D01*
X174110600Y-79125000D02*
X175135200Y-78100400D01*
%TO.N,ice_dat*%
X171125000Y-79775000D02*
X174066600Y-79775000D01*
X174066600Y-79775000D02*
X175033600Y-80742000D01*
%TO.N,bus_usci1_data*%
X170865800Y-93439800D02*
X170865800Y-88006254D01*
X170052891Y-82375000D02*
X171125000Y-82375000D01*
X169092200Y-86232655D02*
X169092200Y-83335691D01*
X156390000Y-111833500D02*
X156390000Y-105111500D01*
X172874600Y-100681000D02*
X172874600Y-95448600D01*
X170865800Y-88006254D02*
X169092200Y-86232655D01*
X169092200Y-83335691D02*
X170052891Y-82375000D01*
X172874600Y-95448600D02*
X170865800Y-93439800D01*
%TO.N,Net-(J7-Pin_15)*%
X171630000Y-105111500D02*
X171630000Y-111833500D01*
%TO.N,Net-(J7-Pin_3)*%
X169090000Y-90798500D02*
X169090000Y-97491500D01*
%TO.N,Net-(J7-Pin_5)*%
X164010000Y-97491500D02*
X164010000Y-90798500D01*
%TO.N,Net-(J7-Pin_7)*%
X158930000Y-97491500D02*
X158930000Y-90798500D01*
%TO.N,Net-(J7-Pin_6)*%
X161470000Y-97491500D02*
X161470000Y-90798500D01*
%TO.N,Net-(J7-Pin_11)*%
X161470000Y-111833500D02*
X161470000Y-105111500D01*
D36*
%TO.N,Net-(D2-K)*%
X149582800Y-91918000D02*
X148465200Y-90800400D01*
X151972300Y-91918000D02*
X149582800Y-91918000D01*
%TO.N,Net-(D3-K)*%
X177421200Y-88512500D02*
X175946100Y-88512500D01*
X175744800Y-88311200D02*
X175744800Y-87893600D01*
X175946100Y-88512500D02*
X175744800Y-88311200D01*
X177825700Y-90851200D02*
X177825700Y-88917000D01*
X177825700Y-88917000D02*
X177421200Y-88512500D01*
D35*
%TO.N,ISP*%
X167667600Y-77922600D02*
X168150200Y-77440000D01*
X168150200Y-77440000D02*
X173916000Y-77440000D01*
X173916000Y-77440000D02*
X174950000Y-76406000D01*
X175744800Y-83540110D02*
X175744800Y-86493600D01*
X173279690Y-81075000D02*
X175744800Y-83540110D01*
X171125000Y-81075000D02*
X169169000Y-81075000D01*
X167667600Y-79573600D02*
X167667600Y-77922600D01*
X169169000Y-81075000D02*
X167667600Y-79573600D01*
X171125000Y-81075000D02*
X173279690Y-81075000D01*
X174950000Y-76406000D02*
X174950000Y-74450000D01*
%TO.N,USB_D+*%
X162232000Y-77948000D02*
X163409000Y-79125000D01*
X159250000Y-72937500D02*
X159250000Y-77252000D01*
X159946000Y-77948000D02*
X162232000Y-77948000D01*
X163409000Y-79125000D02*
X165275000Y-79125000D01*
X159250000Y-77252000D02*
X159946000Y-77948000D01*
%TO.N,USB_D-*%
X165275000Y-78475000D02*
X163474310Y-78475000D01*
X163474310Y-78475000D02*
X161150000Y-76150690D01*
X161150000Y-76150690D02*
X161150000Y-72937500D01*
%TO.N,VCC_IO*%
X170385400Y-120086600D02*
X170385400Y-116225800D01*
X158269600Y-116048000D02*
X154256400Y-116048000D01*
X174200000Y-118800000D02*
X174200000Y-120082000D01*
X154256400Y-116048000D02*
X151259200Y-113050800D01*
X150780500Y-83971700D02*
X151259200Y-84450400D01*
X158930000Y-118770000D02*
X158960000Y-118800000D01*
X167515200Y-88971600D02*
X169088100Y-88971600D01*
X158269600Y-116048000D02*
X158930000Y-115387600D01*
X173738200Y-120543800D02*
X170842600Y-120543800D01*
X174200000Y-105141500D02*
X174170000Y-105111500D01*
X174200000Y-120082000D02*
X173738200Y-120543800D01*
X171630000Y-114981200D02*
X170385400Y-116225800D01*
X158960000Y-116738400D02*
X158269600Y-116048000D01*
X158960000Y-118800000D02*
X158960000Y-116738400D01*
X149707500Y-83971700D02*
X150780500Y-83971700D01*
X158930000Y-115387600D02*
X158930000Y-113658500D01*
X156390000Y-113658500D02*
X158930000Y-113658500D01*
X174200000Y-118800000D02*
X174200000Y-105141500D01*
X171630000Y-113658500D02*
X171630000Y-114981200D01*
X151259200Y-113050800D02*
X151259200Y-110815600D01*
X170842600Y-120543800D02*
X170385400Y-120086600D01*
X169088100Y-88971600D02*
X169090000Y-88973500D01*
D36*
%TO.N,Net-(Q2-B)*%
X160403200Y-86431600D02*
X161419200Y-86431600D01*
X176000700Y-90851200D02*
X175795600Y-90851200D01*
X161419200Y-86431600D02*
X162028800Y-87041200D01*
X175795600Y-90851200D02*
X174881200Y-91765600D01*
%TO.N,PWR_CTL*%
X158528200Y-85481600D02*
X157724100Y-85481600D01*
X157724100Y-85481600D02*
X156390000Y-84147500D01*
X156390000Y-84147500D02*
X154662800Y-84147500D01*
%TO.N,Net-(Q3-G)*%
X156390000Y-85972500D02*
X156390000Y-86990400D01*
X149707500Y-85871700D02*
X146637500Y-85871700D01*
X146637500Y-85871700D02*
X146179200Y-86330000D01*
X156390000Y-86990400D02*
X156644000Y-87244400D01*
%TO.N,Net-(Q4-B)*%
X155019500Y-89783300D02*
X155475600Y-89327200D01*
X155475600Y-89327200D02*
X155475600Y-87396800D01*
X153771500Y-89783300D02*
X155019500Y-89783300D01*
X155475600Y-87396800D02*
X154662800Y-86584000D01*
X154662800Y-86584000D02*
X154662800Y-85972500D01*
%TD*%
%TA.AperFunction,Conductor*%
%TO.N,GND*%
G36*
X185042539Y-57640185D02*
G01*
X185088294Y-57692989D01*
X185099500Y-57744500D01*
X185099500Y-122535500D01*
X185079815Y-122602539D01*
X185027011Y-122648294D01*
X184975500Y-122659500D01*
X145584500Y-122659500D01*
X145517461Y-122639815D01*
X145471706Y-122587011D01*
X145460500Y-122535500D01*
X145460500Y-87042741D01*
X145480185Y-86975702D01*
X145532989Y-86929947D01*
X145602147Y-86920003D01*
X145663951Y-86948228D01*
X145664201Y-86947924D01*
X145665349Y-86948866D01*
X145665703Y-86949028D01*
X145666867Y-86950112D01*
X145668911Y-86951789D01*
X145800014Y-87039390D01*
X145800027Y-87039397D01*
X145911819Y-87085702D01*
X145945703Y-87099737D01*
X146100353Y-87130499D01*
X146100356Y-87130500D01*
X146100358Y-87130500D01*
X146258044Y-87130500D01*
X146258045Y-87130499D01*
X146412697Y-87099737D01*
X146558379Y-87039394D01*
X146689489Y-86951789D01*
X146800989Y-86840289D01*
X146888594Y-86709179D01*
X146948937Y-86563497D01*
X146948938Y-86563490D01*
X146949936Y-86560203D01*
X146950928Y-86558688D01*
X146951268Y-86557869D01*
X146951423Y-86557933D01*
X146988235Y-86501765D01*
X147052047Y-86473309D01*
X147068596Y-86472200D01*
X148599192Y-86472200D01*
X148666231Y-86491885D01*
X148686874Y-86508520D01*
X148718129Y-86539776D01*
X148718133Y-86539779D01*
X148718135Y-86539781D01*
X148859602Y-86623444D01*
X148884023Y-86630539D01*
X149017426Y-86669297D01*
X149017429Y-86669297D01*
X149017431Y-86669298D01*
X149054306Y-86672200D01*
X149054314Y-86672200D01*
X150360686Y-86672200D01*
X150360694Y-86672200D01*
X150397569Y-86669298D01*
X150397571Y-86669297D01*
X150397573Y-86669297D01*
X150473282Y-86647301D01*
X150555398Y-86623444D01*
X150696865Y-86539781D01*
X150813081Y-86423565D01*
X150896744Y-86282098D01*
X150942598Y-86124269D01*
X150945500Y-86087394D01*
X150945500Y-85656006D01*
X150942598Y-85619131D01*
X150942054Y-85617259D01*
X150896745Y-85461306D01*
X150896744Y-85461302D01*
X150873478Y-85421961D01*
X150855204Y-85391060D01*
X150838021Y-85323336D01*
X150860181Y-85257074D01*
X150914648Y-85213311D01*
X150984128Y-85205942D01*
X151009390Y-85213380D01*
X151025697Y-85220135D01*
X151025699Y-85220135D01*
X151025703Y-85220137D01*
X151166891Y-85248221D01*
X151228802Y-85280605D01*
X151263376Y-85341321D01*
X151266700Y-85369838D01*
X151266700Y-87308709D01*
X151290361Y-87427659D01*
X151291790Y-87434843D01*
X151340107Y-87551489D01*
X151341008Y-87553664D01*
X151412459Y-87660600D01*
X151572978Y-87821119D01*
X151606463Y-87882442D01*
X151601479Y-87952133D01*
X151559608Y-88008067D01*
X151494143Y-88032484D01*
X151485297Y-88032800D01*
X151243298Y-88032800D01*
X151206432Y-88035701D01*
X151206426Y-88035702D01*
X151048606Y-88081554D01*
X151048603Y-88081555D01*
X150907134Y-88165218D01*
X150901218Y-88169808D01*
X150836180Y-88195340D01*
X150767664Y-88181657D01*
X150737541Y-88159506D01*
X150476790Y-87898755D01*
X150476788Y-87898752D01*
X150357917Y-87779881D01*
X150357916Y-87779880D01*
X150259039Y-87722794D01*
X150259038Y-87722793D01*
X150220983Y-87700822D01*
X150165081Y-87685843D01*
X150068257Y-87659899D01*
X149910143Y-87659899D01*
X149902547Y-87659899D01*
X149902531Y-87659900D01*
X149807036Y-87659900D01*
X149739997Y-87640215D01*
X149696552Y-87592196D01*
X149663014Y-87526376D01*
X149533447Y-87348041D01*
X149533443Y-87348036D01*
X149377563Y-87192156D01*
X149377558Y-87192152D01*
X149199225Y-87062587D01*
X149199224Y-87062586D01*
X149199222Y-87062585D01*
X149124795Y-87024662D01*
X149002806Y-86962504D01*
X149002803Y-86962503D01*
X148793152Y-86894385D01*
X148609017Y-86865221D01*
X148575422Y-86859900D01*
X148354978Y-86859900D01*
X148321427Y-86865214D01*
X148137247Y-86894385D01*
X147927596Y-86962503D01*
X147927593Y-86962504D01*
X147731174Y-87062587D01*
X147552841Y-87192152D01*
X147552836Y-87192156D01*
X147396956Y-87348036D01*
X147396952Y-87348041D01*
X147267387Y-87526374D01*
X147167304Y-87722793D01*
X147167304Y-87722795D01*
X147099185Y-87932447D01*
X147066207Y-88140661D01*
X147064700Y-88150178D01*
X147064700Y-88370622D01*
X147070889Y-88409699D01*
X147099185Y-88588352D01*
X147167303Y-88798003D01*
X147167304Y-88798006D01*
X147231069Y-88923148D01*
X147266020Y-88991744D01*
X147267387Y-88994425D01*
X147396952Y-89172758D01*
X147396956Y-89172763D01*
X147447128Y-89222935D01*
X147480613Y-89284258D01*
X147475629Y-89353950D01*
X147433757Y-89409883D01*
X147402781Y-89426798D01*
X147322869Y-89456603D01*
X147322864Y-89456606D01*
X147207655Y-89542852D01*
X147207652Y-89542855D01*
X147121406Y-89658064D01*
X147121402Y-89658071D01*
X147071108Y-89792917D01*
X147069218Y-89810501D01*
X147064701Y-89852523D01*
X147064700Y-89852535D01*
X147064700Y-91748270D01*
X147064701Y-91748276D01*
X147071108Y-91807883D01*
X147121402Y-91942728D01*
X147121406Y-91942735D01*
X147207652Y-92057944D01*
X147207655Y-92057947D01*
X147322864Y-92144193D01*
X147322871Y-92144197D01*
X147457717Y-92194491D01*
X147457716Y-92194491D01*
X147464644Y-92195235D01*
X147517327Y-92200900D01*
X148965102Y-92200899D01*
X148994542Y-92209543D01*
X149024529Y-92216067D01*
X149029544Y-92219821D01*
X149032141Y-92220584D01*
X149052783Y-92237218D01*
X149097939Y-92282374D01*
X149097949Y-92282385D01*
X149102279Y-92286715D01*
X149102280Y-92286716D01*
X149214084Y-92398520D01*
X149277760Y-92435283D01*
X149351015Y-92477577D01*
X149503743Y-92518500D01*
X151009899Y-92518500D01*
X151076938Y-92538185D01*
X151115438Y-92577404D01*
X151139267Y-92616038D01*
X151139460Y-92616350D01*
X151261450Y-92738340D01*
X151408284Y-92828908D01*
X151572047Y-92883174D01*
X151673123Y-92893500D01*
X152271476Y-92893499D01*
X152271484Y-92893498D01*
X152271487Y-92893498D01*
X152326830Y-92887844D01*
X152372553Y-92883174D01*
X152536316Y-92828908D01*
X152683150Y-92738340D01*
X152797475Y-92624014D01*
X152858794Y-92590532D01*
X152928486Y-92595516D01*
X152972834Y-92624017D01*
X153086761Y-92737944D01*
X153086765Y-92737947D01*
X153233488Y-92828448D01*
X153233499Y-92828453D01*
X153397147Y-92882680D01*
X153498151Y-92892999D01*
X154047300Y-92892999D01*
X154096440Y-92892999D01*
X154096454Y-92892998D01*
X154197452Y-92882680D01*
X154361100Y-92828453D01*
X154361111Y-92828448D01*
X154507834Y-92737947D01*
X154507838Y-92737944D01*
X154629744Y-92616038D01*
X154629747Y-92616034D01*
X154720248Y-92469311D01*
X154720253Y-92469300D01*
X154774480Y-92305652D01*
X154784799Y-92204654D01*
X154784800Y-92204641D01*
X154784800Y-92168000D01*
X154047300Y-92168000D01*
X154047300Y-92892999D01*
X153498151Y-92892999D01*
X153547299Y-92892998D01*
X153547300Y-92892998D01*
X153547300Y-91668000D01*
X154047300Y-91668000D01*
X154784799Y-91668000D01*
X154784799Y-91631360D01*
X154784798Y-91631345D01*
X154774480Y-91530347D01*
X154720253Y-91366699D01*
X154720248Y-91366688D01*
X154629747Y-91219965D01*
X154629744Y-91219961D01*
X154507838Y-91098055D01*
X154507834Y-91098052D01*
X154361111Y-91007551D01*
X154361100Y-91007546D01*
X154197452Y-90953319D01*
X154096454Y-90943000D01*
X154047300Y-90943000D01*
X154047300Y-91668000D01*
X153547300Y-91668000D01*
X153547300Y-90943000D01*
X153547299Y-90942999D01*
X153498161Y-90943000D01*
X153498143Y-90943001D01*
X153397147Y-90953319D01*
X153233499Y-91007546D01*
X153233488Y-91007551D01*
X153086765Y-91098052D01*
X152972834Y-91211983D01*
X152911511Y-91245467D01*
X152841819Y-91240483D01*
X152797472Y-91211982D01*
X152683151Y-91097661D01*
X152683150Y-91097660D01*
X152591929Y-91041395D01*
X152536318Y-91007093D01*
X152536313Y-91007091D01*
X152534869Y-91006612D01*
X152372553Y-90952826D01*
X152372551Y-90952825D01*
X152271478Y-90942500D01*
X151673130Y-90942500D01*
X151673112Y-90942501D01*
X151572047Y-90952825D01*
X151408284Y-91007092D01*
X151408281Y-91007093D01*
X151261448Y-91097661D01*
X151139459Y-91219650D01*
X151115438Y-91258596D01*
X151063490Y-91305321D01*
X151009899Y-91317500D01*
X149989700Y-91317500D01*
X149922661Y-91297815D01*
X149876906Y-91245011D01*
X149865700Y-91193500D01*
X149865699Y-89852529D01*
X149865698Y-89852523D01*
X149865697Y-89852516D01*
X149859291Y-89792917D01*
X149851526Y-89772099D01*
X149808997Y-89658071D01*
X149808993Y-89658064D01*
X149722747Y-89542855D01*
X149722744Y-89542852D01*
X149607535Y-89456606D01*
X149607528Y-89456602D01*
X149527619Y-89426798D01*
X149471685Y-89384927D01*
X149447268Y-89319462D01*
X149462120Y-89251189D01*
X149483269Y-89222937D01*
X149533442Y-89172765D01*
X149562562Y-89132685D01*
X149665879Y-88990481D01*
X149667617Y-88991744D01*
X149712755Y-88950873D01*
X149781680Y-88939421D01*
X149845855Y-88967051D01*
X149854399Y-88974834D01*
X150077239Y-89197674D01*
X150077249Y-89197685D01*
X150081579Y-89202015D01*
X150081580Y-89202016D01*
X150193384Y-89313820D01*
X150193386Y-89313821D01*
X150193387Y-89313822D01*
X150259685Y-89352098D01*
X150259687Y-89352100D01*
X150259688Y-89352100D01*
X150330315Y-89392877D01*
X150483043Y-89433801D01*
X150483046Y-89433801D01*
X150648753Y-89433801D01*
X150648769Y-89433800D01*
X150788192Y-89433800D01*
X150855231Y-89453485D01*
X150875874Y-89470120D01*
X150907129Y-89501376D01*
X150907133Y-89501379D01*
X150907135Y-89501381D01*
X151048602Y-89585044D01*
X151090224Y-89597136D01*
X151206426Y-89630897D01*
X151206429Y-89630897D01*
X151206431Y-89630898D01*
X151243306Y-89633800D01*
X152409500Y-89633800D01*
X152476539Y-89653485D01*
X152522294Y-89706289D01*
X152533500Y-89757800D01*
X152533500Y-89999001D01*
X152536401Y-90035867D01*
X152536402Y-90035873D01*
X152582254Y-90193693D01*
X152582255Y-90193696D01*
X152665917Y-90335162D01*
X152665923Y-90335170D01*
X152782129Y-90451376D01*
X152782133Y-90451379D01*
X152782135Y-90451381D01*
X152923602Y-90535044D01*
X152965224Y-90547136D01*
X153081426Y-90580897D01*
X153081429Y-90580897D01*
X153081431Y-90580898D01*
X153118306Y-90583800D01*
X153118314Y-90583800D01*
X154424686Y-90583800D01*
X154424694Y-90583800D01*
X154461569Y-90580898D01*
X154461571Y-90580897D01*
X154461573Y-90580897D01*
X154517928Y-90564524D01*
X154619398Y-90535044D01*
X154760865Y-90451381D01*
X154792126Y-90420120D01*
X154819056Y-90405414D01*
X154844873Y-90388823D01*
X154851071Y-90387931D01*
X154853448Y-90386634D01*
X154879808Y-90383800D01*
X154932831Y-90383800D01*
X154932847Y-90383801D01*
X154940443Y-90383801D01*
X155098554Y-90383801D01*
X155098557Y-90383801D01*
X155251285Y-90342877D01*
X155326097Y-90299684D01*
X155388216Y-90263820D01*
X155500020Y-90152016D01*
X155500021Y-90152014D01*
X155956120Y-89695916D01*
X156035177Y-89558985D01*
X156076101Y-89406257D01*
X156076101Y-89248142D01*
X156076101Y-89240547D01*
X156076100Y-89240529D01*
X156076100Y-88674345D01*
X157955000Y-88674345D01*
X157955000Y-88723500D01*
X158680000Y-88723500D01*
X159180000Y-88723500D01*
X159904999Y-88723500D01*
X159904999Y-88674361D01*
X159904998Y-88674345D01*
X160495000Y-88674345D01*
X160495000Y-88723500D01*
X161220000Y-88723500D01*
X161220000Y-87986000D01*
X161183361Y-87986000D01*
X161183343Y-87986001D01*
X161082347Y-87996319D01*
X160918699Y-88050546D01*
X160918688Y-88050551D01*
X160771965Y-88141052D01*
X160771961Y-88141055D01*
X160650055Y-88262961D01*
X160650052Y-88262965D01*
X160559551Y-88409688D01*
X160559546Y-88409699D01*
X160505319Y-88573347D01*
X160495000Y-88674345D01*
X159904998Y-88674345D01*
X159904998Y-88674344D01*
X159894680Y-88573347D01*
X159840453Y-88409699D01*
X159840448Y-88409688D01*
X159749947Y-88262965D01*
X159749944Y-88262961D01*
X159628038Y-88141055D01*
X159628034Y-88141052D01*
X159481311Y-88050551D01*
X159481300Y-88050546D01*
X159317652Y-87996319D01*
X159216654Y-87986000D01*
X159180000Y-87986000D01*
X159180000Y-88723500D01*
X158680000Y-88723500D01*
X158680000Y-87986000D01*
X158643361Y-87986000D01*
X158643343Y-87986001D01*
X158542347Y-87996319D01*
X158378699Y-88050546D01*
X158378688Y-88050551D01*
X158231965Y-88141052D01*
X158231961Y-88141055D01*
X158110055Y-88262961D01*
X158110052Y-88262965D01*
X158019551Y-88409688D01*
X158019546Y-88409699D01*
X157965319Y-88573347D01*
X157955000Y-88674345D01*
X156076100Y-88674345D01*
X156076100Y-88059682D01*
X156095785Y-87992643D01*
X156148589Y-87946888D01*
X156217747Y-87936944D01*
X156258550Y-87952596D01*
X156259446Y-87950921D01*
X156264827Y-87953797D01*
X156410498Y-88014135D01*
X156410503Y-88014137D01*
X156504328Y-88032800D01*
X156565153Y-88044899D01*
X156565156Y-88044900D01*
X156565158Y-88044900D01*
X156722844Y-88044900D01*
X156722845Y-88044899D01*
X156877497Y-88014137D01*
X157023179Y-87953794D01*
X157154289Y-87866189D01*
X157265789Y-87754689D01*
X157353394Y-87623579D01*
X157413737Y-87477897D01*
X157444500Y-87323242D01*
X157444500Y-87165558D01*
X157444500Y-87165555D01*
X157444499Y-87165553D01*
X157437737Y-87131557D01*
X157413737Y-87010903D01*
X157402371Y-86983462D01*
X157353397Y-86865227D01*
X157353390Y-86865214D01*
X157264916Y-86732804D01*
X157244038Y-86666127D01*
X157262478Y-86598819D01*
X157300908Y-86536516D01*
X157355174Y-86372753D01*
X157365500Y-86271677D01*
X157365499Y-86264574D01*
X157385177Y-86197537D01*
X157437977Y-86151777D01*
X157507134Y-86141826D01*
X157552619Y-86157834D01*
X157619755Y-86197537D01*
X157680302Y-86233344D01*
X157706761Y-86241031D01*
X157838126Y-86279197D01*
X157838129Y-86279197D01*
X157838131Y-86279198D01*
X157875006Y-86282100D01*
X159041200Y-86282100D01*
X159108239Y-86301785D01*
X159153994Y-86354589D01*
X159165200Y-86406100D01*
X159165200Y-86647301D01*
X159168101Y-86684167D01*
X159168102Y-86684173D01*
X159213954Y-86841993D01*
X159213955Y-86841996D01*
X159297617Y-86983462D01*
X159297623Y-86983470D01*
X159413829Y-87099676D01*
X159413833Y-87099679D01*
X159413835Y-87099681D01*
X159555302Y-87183344D01*
X159564950Y-87186147D01*
X159713126Y-87229197D01*
X159713129Y-87229197D01*
X159713131Y-87229198D01*
X159750006Y-87232100D01*
X159750014Y-87232100D01*
X161056386Y-87232100D01*
X161056394Y-87232100D01*
X161093269Y-87229198D01*
X161117775Y-87222078D01*
X161187644Y-87222275D01*
X161246315Y-87260216D01*
X161266934Y-87293701D01*
X161319402Y-87420372D01*
X161319409Y-87420385D01*
X161407010Y-87551488D01*
X161407013Y-87551492D01*
X161518507Y-87662986D01*
X161518511Y-87662989D01*
X161649614Y-87750590D01*
X161649626Y-87750597D01*
X161694390Y-87769138D01*
X161748794Y-87812978D01*
X161770859Y-87879272D01*
X161753580Y-87946972D01*
X161734620Y-87971379D01*
X161720000Y-87985999D01*
X161720000Y-88723500D01*
X162444999Y-88723500D01*
X162444999Y-88674361D01*
X162444998Y-88674345D01*
X163035000Y-88674345D01*
X163035000Y-88723500D01*
X163760000Y-88723500D01*
X163760000Y-87986000D01*
X163723361Y-87986000D01*
X163723343Y-87986001D01*
X163622347Y-87996319D01*
X163458699Y-88050546D01*
X163458688Y-88050551D01*
X163311965Y-88141052D01*
X163311961Y-88141055D01*
X163190055Y-88262961D01*
X163190052Y-88262965D01*
X163099551Y-88409688D01*
X163099546Y-88409699D01*
X163045319Y-88573347D01*
X163035000Y-88674345D01*
X162444998Y-88674345D01*
X162444998Y-88674344D01*
X162434680Y-88573347D01*
X162380453Y-88409699D01*
X162380448Y-88409688D01*
X162289947Y-88262965D01*
X162289944Y-88262961D01*
X162168038Y-88141055D01*
X162168034Y-88141052D01*
X162053993Y-88070710D01*
X162007268Y-88018762D01*
X161996047Y-87949800D01*
X162023890Y-87885718D01*
X162081959Y-87846862D01*
X162106948Y-87841768D01*
X162107631Y-87841700D01*
X162107642Y-87841700D01*
X162262297Y-87810937D01*
X162374966Y-87764267D01*
X162407972Y-87750597D01*
X162407972Y-87750596D01*
X162407979Y-87750594D01*
X162539089Y-87662989D01*
X162607589Y-87594488D01*
X162668910Y-87561005D01*
X162738602Y-87565989D01*
X162742671Y-87567589D01*
X162803556Y-87592809D01*
X162803560Y-87592809D01*
X162803561Y-87592810D01*
X162929692Y-87617900D01*
X162929695Y-87617900D01*
X164503100Y-87617900D01*
X164570139Y-87637585D01*
X164615894Y-87690389D01*
X164627100Y-87741900D01*
X164627100Y-87900630D01*
X164607415Y-87967669D01*
X164554611Y-88013424D01*
X164485453Y-88023368D01*
X164464097Y-88018336D01*
X164397653Y-87996319D01*
X164296654Y-87986000D01*
X164260000Y-87986000D01*
X164260000Y-88849500D01*
X164240315Y-88916539D01*
X164187511Y-88962294D01*
X164136000Y-88973500D01*
X164010000Y-88973500D01*
X164010000Y-89099500D01*
X163990315Y-89166539D01*
X163937511Y-89212294D01*
X163886000Y-89223500D01*
X163035001Y-89223500D01*
X163035001Y-89272654D01*
X163045319Y-89373652D01*
X163099546Y-89537300D01*
X163099551Y-89537311D01*
X163190052Y-89684034D01*
X163190055Y-89684038D01*
X163303982Y-89797965D01*
X163337467Y-89859288D01*
X163332483Y-89928980D01*
X163303983Y-89973327D01*
X163189659Y-90087651D01*
X163099093Y-90234481D01*
X163099092Y-90234484D01*
X163044826Y-90398247D01*
X163044826Y-90398248D01*
X163044825Y-90398248D01*
X163034500Y-90499315D01*
X163034500Y-91097669D01*
X163034501Y-91097687D01*
X163044825Y-91198752D01*
X163099092Y-91362515D01*
X163099093Y-91362518D01*
X163189661Y-91509351D01*
X163316757Y-91636447D01*
X163315460Y-91637743D01*
X163350382Y-91687049D01*
X163357100Y-91727309D01*
X163357100Y-96114058D01*
X163337415Y-96181097D01*
X163305987Y-96214374D01*
X163214898Y-96280555D01*
X163214896Y-96280557D01*
X163214895Y-96280557D01*
X163079057Y-96416395D01*
X163079057Y-96416396D01*
X163079055Y-96416398D01*
X163059271Y-96443629D01*
X162966135Y-96571818D01*
X162878916Y-96742993D01*
X162857931Y-96807581D01*
X162818494Y-96865256D01*
X162754135Y-96892455D01*
X162685289Y-96880541D01*
X162633813Y-96833297D01*
X162622069Y-96807581D01*
X162601083Y-96742993D01*
X162513864Y-96571818D01*
X162400945Y-96416398D01*
X162265102Y-96280555D01*
X162174013Y-96214375D01*
X162131349Y-96159046D01*
X162122900Y-96114058D01*
X162122900Y-91727309D01*
X162142585Y-91660270D01*
X162163737Y-91636941D01*
X162163243Y-91636447D01*
X162168366Y-91631324D01*
X162290340Y-91509350D01*
X162380908Y-91362516D01*
X162435174Y-91198753D01*
X162445500Y-91097677D01*
X162445499Y-90499324D01*
X162437624Y-90422236D01*
X162435174Y-90398247D01*
X162416825Y-90342875D01*
X162380908Y-90234484D01*
X162290340Y-90087650D01*
X162176017Y-89973327D01*
X162142532Y-89912004D01*
X162147516Y-89842312D01*
X162176017Y-89797964D01*
X162289948Y-89684033D01*
X162380448Y-89537311D01*
X162380453Y-89537300D01*
X162434680Y-89373652D01*
X162444999Y-89272654D01*
X162445000Y-89272641D01*
X162445000Y-89223500D01*
X160495001Y-89223500D01*
X160495001Y-89272654D01*
X160505319Y-89373652D01*
X160559546Y-89537300D01*
X160559551Y-89537311D01*
X160650052Y-89684034D01*
X160650055Y-89684038D01*
X160763982Y-89797965D01*
X160797467Y-89859288D01*
X160792483Y-89928980D01*
X160763983Y-89973327D01*
X160649659Y-90087651D01*
X160559093Y-90234481D01*
X160559092Y-90234484D01*
X160504826Y-90398247D01*
X160504826Y-90398248D01*
X160504825Y-90398248D01*
X160494500Y-90499315D01*
X160494500Y-91097669D01*
X160494501Y-91097687D01*
X160504825Y-91198752D01*
X160559092Y-91362515D01*
X160559093Y-91362518D01*
X160649661Y-91509351D01*
X160776757Y-91636447D01*
X160775460Y-91637743D01*
X160810382Y-91687049D01*
X160817100Y-91727309D01*
X160817100Y-96114058D01*
X160797415Y-96181097D01*
X160765987Y-96214374D01*
X160674898Y-96280555D01*
X160674896Y-96280557D01*
X160674895Y-96280557D01*
X160539057Y-96416395D01*
X160539057Y-96416396D01*
X160539055Y-96416398D01*
X160519271Y-96443629D01*
X160426135Y-96571818D01*
X160338916Y-96742993D01*
X160317931Y-96807581D01*
X160278494Y-96865256D01*
X160214135Y-96892455D01*
X160145289Y-96880541D01*
X160093813Y-96833297D01*
X160082069Y-96807581D01*
X160061083Y-96742993D01*
X159973864Y-96571818D01*
X159860945Y-96416398D01*
X159725102Y-96280555D01*
X159634013Y-96214375D01*
X159591349Y-96159046D01*
X159582900Y-96114058D01*
X159582900Y-91727309D01*
X159602585Y-91660270D01*
X159623737Y-91636941D01*
X159623243Y-91636447D01*
X159628366Y-91631324D01*
X159750340Y-91509350D01*
X159840908Y-91362516D01*
X159895174Y-91198753D01*
X159905500Y-91097677D01*
X159905499Y-90499324D01*
X159897624Y-90422236D01*
X159895174Y-90398247D01*
X159876825Y-90342875D01*
X159840908Y-90234484D01*
X159750340Y-90087650D01*
X159636017Y-89973327D01*
X159602532Y-89912004D01*
X159607516Y-89842312D01*
X159636017Y-89797964D01*
X159749948Y-89684033D01*
X159840448Y-89537311D01*
X159840453Y-89537300D01*
X159894680Y-89373652D01*
X159904999Y-89272654D01*
X159905000Y-89272641D01*
X159905000Y-89223500D01*
X157955001Y-89223500D01*
X157955001Y-89272654D01*
X157965319Y-89373652D01*
X158019546Y-89537300D01*
X158019551Y-89537311D01*
X158110052Y-89684034D01*
X158110055Y-89684038D01*
X158223982Y-89797965D01*
X158257467Y-89859288D01*
X158252483Y-89928980D01*
X158223983Y-89973327D01*
X158109659Y-90087651D01*
X158019093Y-90234481D01*
X158019092Y-90234484D01*
X157964826Y-90398247D01*
X157964826Y-90398248D01*
X157964825Y-90398248D01*
X157954500Y-90499315D01*
X157954500Y-91097669D01*
X157954501Y-91097687D01*
X157964825Y-91198752D01*
X158019092Y-91362515D01*
X158019093Y-91362518D01*
X158109661Y-91509351D01*
X158236757Y-91636447D01*
X158235460Y-91637743D01*
X158270382Y-91687049D01*
X158277100Y-91727309D01*
X158277100Y-96114058D01*
X158257415Y-96181097D01*
X158225987Y-96214374D01*
X158134898Y-96280555D01*
X158134896Y-96280557D01*
X158134895Y-96280557D01*
X157999057Y-96416395D01*
X157999057Y-96416396D01*
X157999055Y-96416398D01*
X157979271Y-96443629D01*
X157886135Y-96571818D01*
X157798917Y-96742992D01*
X157777667Y-96808392D01*
X157738229Y-96866067D01*
X157673870Y-96893265D01*
X157605024Y-96881350D01*
X157553548Y-96834105D01*
X157541805Y-96808391D01*
X157520616Y-96743180D01*
X157433434Y-96572077D01*
X157320569Y-96416730D01*
X157320565Y-96416725D01*
X157184774Y-96280934D01*
X157184769Y-96280930D01*
X157029422Y-96168065D01*
X156858319Y-96080883D01*
X156675681Y-96021540D01*
X156675682Y-96021540D01*
X156640000Y-96015889D01*
X156640000Y-97058488D01*
X156582993Y-97025575D01*
X156455826Y-96991500D01*
X156324174Y-96991500D01*
X156197007Y-97025575D01*
X156140000Y-97058488D01*
X156140000Y-96015889D01*
X156104318Y-96021540D01*
X155921680Y-96080883D01*
X155750577Y-96168065D01*
X155595230Y-96280930D01*
X155595225Y-96280934D01*
X155459434Y-96416725D01*
X155459430Y-96416730D01*
X155346565Y-96572077D01*
X155259383Y-96743178D01*
X155200040Y-96925815D01*
X155170000Y-97115484D01*
X155170000Y-97241500D01*
X155956988Y-97241500D01*
X155924075Y-97298507D01*
X155890000Y-97425674D01*
X155890000Y-97557326D01*
X155924075Y-97684493D01*
X155956988Y-97741500D01*
X155170000Y-97741500D01*
X155170000Y-97867515D01*
X155200040Y-98057184D01*
X155259383Y-98239821D01*
X155346565Y-98410922D01*
X155459430Y-98566269D01*
X155459434Y-98566274D01*
X155595225Y-98702065D01*
X155595230Y-98702069D01*
X155750577Y-98814934D01*
X155921680Y-98902116D01*
X156104315Y-98961459D01*
X156139999Y-98967110D01*
X156140000Y-98967109D01*
X156140000Y-97924512D01*
X156197007Y-97957425D01*
X156324174Y-97991500D01*
X156455826Y-97991500D01*
X156582993Y-97957425D01*
X156640000Y-97924512D01*
X156640000Y-98967110D01*
X156675684Y-98961459D01*
X156858319Y-98902116D01*
X157029422Y-98814934D01*
X157184769Y-98702069D01*
X157184774Y-98702065D01*
X157320565Y-98566274D01*
X157320569Y-98566269D01*
X157433434Y-98410922D01*
X157520616Y-98239819D01*
X157541805Y-98174608D01*
X157581242Y-98116933D01*
X157645600Y-98089734D01*
X157714447Y-98101648D01*
X157765923Y-98148892D01*
X157777667Y-98174608D01*
X157798916Y-98240005D01*
X157798917Y-98240008D01*
X157798918Y-98240009D01*
X157886135Y-98411181D01*
X157999055Y-98566602D01*
X158134898Y-98702445D01*
X158290319Y-98815365D01*
X158393228Y-98867800D01*
X158461493Y-98902583D01*
X158552845Y-98932264D01*
X158644199Y-98961947D01*
X158833945Y-98992000D01*
X158833946Y-98992000D01*
X159026054Y-98992000D01*
X159026055Y-98992000D01*
X159215801Y-98961947D01*
X159398509Y-98902582D01*
X159569681Y-98815365D01*
X159725102Y-98702445D01*
X159860945Y-98566602D01*
X159973865Y-98411181D01*
X160061082Y-98240009D01*
X160061144Y-98239819D01*
X160082069Y-98175419D01*
X160121506Y-98117743D01*
X160185864Y-98090544D01*
X160254711Y-98102458D01*
X160306187Y-98149702D01*
X160317931Y-98175419D01*
X160338915Y-98240004D01*
X160338918Y-98240009D01*
X160426135Y-98411181D01*
X160539055Y-98566602D01*
X160674898Y-98702445D01*
X160830319Y-98815365D01*
X160933228Y-98867800D01*
X161001493Y-98902583D01*
X161092845Y-98932264D01*
X161184199Y-98961947D01*
X161373945Y-98992000D01*
X161373946Y-98992000D01*
X161566054Y-98992000D01*
X161566055Y-98992000D01*
X161755801Y-98961947D01*
X161938509Y-98902582D01*
X162109681Y-98815365D01*
X162265102Y-98702445D01*
X162400945Y-98566602D01*
X162513865Y-98411181D01*
X162601082Y-98240009D01*
X162601144Y-98239819D01*
X162622069Y-98175419D01*
X162661506Y-98117743D01*
X162725864Y-98090544D01*
X162794711Y-98102458D01*
X162846187Y-98149702D01*
X162857931Y-98175419D01*
X162878915Y-98240004D01*
X162878918Y-98240009D01*
X162966135Y-98411181D01*
X163079055Y-98566602D01*
X163214898Y-98702445D01*
X163370319Y-98815365D01*
X163473228Y-98867800D01*
X163541493Y-98902583D01*
X163632845Y-98932264D01*
X163724199Y-98961947D01*
X163913945Y-98992000D01*
X163913946Y-98992000D01*
X164106054Y-98992000D01*
X164106055Y-98992000D01*
X164295801Y-98961947D01*
X164464785Y-98907040D01*
X164534622Y-98905046D01*
X164594455Y-98941126D01*
X164625284Y-99003827D01*
X164627100Y-99024972D01*
X164627100Y-102287856D01*
X164607415Y-102354895D01*
X164606203Y-102356746D01*
X164570608Y-102410017D01*
X164570602Y-102410028D01*
X164510264Y-102555698D01*
X164510261Y-102555710D01*
X164479500Y-102710353D01*
X164479500Y-102868046D01*
X164510261Y-103022689D01*
X164510264Y-103022701D01*
X164570602Y-103168372D01*
X164570609Y-103168385D01*
X164658210Y-103299488D01*
X164658213Y-103299492D01*
X164769707Y-103410986D01*
X164769711Y-103410989D01*
X164900814Y-103498590D01*
X164900827Y-103498597D01*
X165046498Y-103558935D01*
X165046503Y-103558937D01*
X165201153Y-103589699D01*
X165201156Y-103589700D01*
X165201158Y-103589700D01*
X165358844Y-103589700D01*
X165358845Y-103589699D01*
X165513497Y-103558937D01*
X165659179Y-103498594D01*
X165704209Y-103468505D01*
X165713909Y-103465468D01*
X165721589Y-103458814D01*
X165746686Y-103455205D01*
X165770886Y-103447628D01*
X165780686Y-103450316D01*
X165790747Y-103448870D01*
X165813813Y-103459404D01*
X165838266Y-103466112D01*
X165845057Y-103473672D01*
X165854303Y-103477895D01*
X165868012Y-103499227D01*
X165884957Y-103518091D01*
X165887588Y-103529688D01*
X165892077Y-103536673D01*
X165897100Y-103571608D01*
X165897100Y-103734058D01*
X165877415Y-103801097D01*
X165845987Y-103834374D01*
X165754898Y-103900555D01*
X165754896Y-103900557D01*
X165754895Y-103900557D01*
X165619057Y-104036395D01*
X165619057Y-104036396D01*
X165619055Y-104036398D01*
X165570560Y-104103145D01*
X165506135Y-104191818D01*
X165418916Y-104362993D01*
X165397931Y-104427581D01*
X165358494Y-104485256D01*
X165294135Y-104512455D01*
X165225289Y-104500541D01*
X165173813Y-104453297D01*
X165162069Y-104427581D01*
X165141083Y-104362993D01*
X165053864Y-104191818D01*
X164940945Y-104036398D01*
X164805102Y-103900555D01*
X164649681Y-103787635D01*
X164627099Y-103776129D01*
X164478506Y-103700416D01*
X164295802Y-103641053D01*
X164200928Y-103626026D01*
X164106055Y-103611000D01*
X163913945Y-103611000D01*
X163850696Y-103621017D01*
X163724197Y-103641053D01*
X163541493Y-103700416D01*
X163370318Y-103787635D01*
X163284357Y-103850090D01*
X163214898Y-103900555D01*
X163214896Y-103900557D01*
X163214895Y-103900557D01*
X163079057Y-104036395D01*
X163079057Y-104036396D01*
X163079055Y-104036398D01*
X163030560Y-104103145D01*
X162966135Y-104191818D01*
X162878916Y-104362993D01*
X162857931Y-104427581D01*
X162818494Y-104485256D01*
X162754135Y-104512455D01*
X162685289Y-104500541D01*
X162633813Y-104453297D01*
X162622069Y-104427581D01*
X162601083Y-104362993D01*
X162513864Y-104191818D01*
X162400945Y-104036398D01*
X162265102Y-103900555D01*
X162109681Y-103787635D01*
X162087099Y-103776129D01*
X161938506Y-103700416D01*
X161755802Y-103641053D01*
X161660928Y-103626026D01*
X161566055Y-103611000D01*
X161373945Y-103611000D01*
X161310696Y-103621017D01*
X161184197Y-103641053D01*
X161001493Y-103700416D01*
X160830318Y-103787635D01*
X160744357Y-103850090D01*
X160674898Y-103900555D01*
X160674896Y-103900557D01*
X160674895Y-103900557D01*
X160539057Y-104036395D01*
X160539057Y-104036396D01*
X160539055Y-104036398D01*
X160490560Y-104103145D01*
X160426135Y-104191818D01*
X160338916Y-104362993D01*
X160317931Y-104427581D01*
X160278494Y-104485256D01*
X160214135Y-104512455D01*
X160145289Y-104500541D01*
X160093813Y-104453297D01*
X160082069Y-104427581D01*
X160061083Y-104362993D01*
X159973864Y-104191818D01*
X159860945Y-104036398D01*
X159725102Y-103900555D01*
X159569681Y-103787635D01*
X159547099Y-103776129D01*
X159398506Y-103700416D01*
X159215802Y-103641053D01*
X159120928Y-103626026D01*
X159026055Y-103611000D01*
X158833945Y-103611000D01*
X158770696Y-103621017D01*
X158644197Y-103641053D01*
X158461493Y-103700416D01*
X158290318Y-103787635D01*
X158204357Y-103850090D01*
X158134898Y-103900555D01*
X158134896Y-103900557D01*
X158134895Y-103900557D01*
X157999057Y-104036395D01*
X157999057Y-104036396D01*
X157999055Y-104036398D01*
X157950560Y-104103145D01*
X157886135Y-104191818D01*
X157798916Y-104362993D01*
X157777931Y-104427581D01*
X157738494Y-104485256D01*
X157674135Y-104512455D01*
X157605289Y-104500541D01*
X157553813Y-104453297D01*
X157542069Y-104427581D01*
X157521083Y-104362993D01*
X157433864Y-104191818D01*
X157320945Y-104036398D01*
X157185102Y-103900555D01*
X157029681Y-103787635D01*
X157007099Y-103776129D01*
X156858506Y-103700416D01*
X156675802Y-103641053D01*
X156580928Y-103626026D01*
X156486055Y-103611000D01*
X156293945Y-103611000D01*
X156230696Y-103621017D01*
X156104197Y-103641053D01*
X155921493Y-103700416D01*
X155750318Y-103787635D01*
X155664357Y-103850090D01*
X155594898Y-103900555D01*
X155594896Y-103900557D01*
X155594895Y-103900557D01*
X155459057Y-104036395D01*
X155459057Y-104036396D01*
X155459055Y-104036398D01*
X155410560Y-104103145D01*
X155346135Y-104191818D01*
X155258916Y-104362993D01*
X155199553Y-104545697D01*
X155169500Y-104735445D01*
X155169500Y-105487554D01*
X155199553Y-105677302D01*
X155258916Y-105860006D01*
X155258918Y-105860009D01*
X155346135Y-106031181D01*
X155459055Y-106186602D01*
X155459057Y-106186604D01*
X155594901Y-106322448D01*
X155685984Y-106388622D01*
X155728651Y-106443952D01*
X155737100Y-106488941D01*
X155737100Y-110904690D01*
X155717415Y-110971729D01*
X155696263Y-110995059D01*
X155696757Y-110995553D01*
X155569661Y-111122648D01*
X155479093Y-111269481D01*
X155479091Y-111269486D01*
X155455746Y-111339936D01*
X155424826Y-111433247D01*
X155424826Y-111433248D01*
X155424825Y-111433248D01*
X155414500Y-111534315D01*
X155414500Y-112132669D01*
X155414501Y-112132687D01*
X155424825Y-112233752D01*
X155461109Y-112343249D01*
X155479092Y-112397516D01*
X155554878Y-112520385D01*
X155569661Y-112544351D01*
X155683629Y-112658319D01*
X155717114Y-112719642D01*
X155712130Y-112789334D01*
X155683629Y-112833681D01*
X155569661Y-112947648D01*
X155479093Y-113094481D01*
X155479091Y-113094486D01*
X155472259Y-113115105D01*
X155424826Y-113258247D01*
X155424826Y-113258248D01*
X155424825Y-113258248D01*
X155414500Y-113359315D01*
X155414500Y-113957669D01*
X155414501Y-113957687D01*
X155424825Y-114058752D01*
X155441727Y-114109757D01*
X155479092Y-114222516D01*
X155569660Y-114369350D01*
X155691650Y-114491340D01*
X155838484Y-114581908D01*
X156002247Y-114636174D01*
X156103323Y-114646500D01*
X156676676Y-114646499D01*
X156676684Y-114646498D01*
X156676687Y-114646498D01*
X156732030Y-114640844D01*
X156777753Y-114636174D01*
X156941516Y-114581908D01*
X157088350Y-114491340D01*
X157210340Y-114369350D01*
X157210343Y-114369344D01*
X157214821Y-114363683D01*
X157216039Y-114364646D01*
X157261705Y-114323576D01*
X157315291Y-114311400D01*
X158004709Y-114311400D01*
X158071748Y-114331085D01*
X158093411Y-114348752D01*
X158103026Y-114358595D01*
X158109660Y-114369350D01*
X158231650Y-114491340D01*
X158234283Y-114492964D01*
X158241802Y-114500661D01*
X158254603Y-114524771D01*
X158270382Y-114547049D01*
X158272192Y-114557900D01*
X158274567Y-114562372D01*
X158274024Y-114568879D01*
X158277100Y-114587309D01*
X158277100Y-115065797D01*
X158257415Y-115132836D01*
X158240781Y-115153478D01*
X158035478Y-115358781D01*
X157974155Y-115392266D01*
X157947797Y-115395100D01*
X154578202Y-115395100D01*
X154511163Y-115375415D01*
X154490521Y-115358781D01*
X151948419Y-112816678D01*
X151914934Y-112755355D01*
X151912100Y-112728997D01*
X151912100Y-111316943D01*
X151931785Y-111249904D01*
X151932964Y-111248101D01*
X151968594Y-111194779D01*
X152028937Y-111049097D01*
X152059700Y-110894442D01*
X152059700Y-110736758D01*
X152059700Y-110736755D01*
X152059699Y-110736753D01*
X152045781Y-110666784D01*
X152028937Y-110582103D01*
X151982751Y-110470599D01*
X151968597Y-110436427D01*
X151968590Y-110436414D01*
X151880989Y-110305311D01*
X151880986Y-110305307D01*
X151769492Y-110193813D01*
X151769488Y-110193810D01*
X151638385Y-110106209D01*
X151638372Y-110106202D01*
X151492701Y-110045864D01*
X151492689Y-110045861D01*
X151338045Y-110015100D01*
X151338042Y-110015100D01*
X151180358Y-110015100D01*
X151180355Y-110015100D01*
X151025710Y-110045861D01*
X151025698Y-110045864D01*
X150880027Y-110106202D01*
X150880014Y-110106209D01*
X150748911Y-110193810D01*
X150748907Y-110193813D01*
X150637413Y-110305307D01*
X150637410Y-110305311D01*
X150549809Y-110436414D01*
X150549802Y-110436427D01*
X150489464Y-110582098D01*
X150489461Y-110582110D01*
X150458700Y-110736753D01*
X150458700Y-110894446D01*
X150489461Y-111049089D01*
X150489464Y-111049101D01*
X150549802Y-111194772D01*
X150549806Y-111194779D01*
X150585402Y-111248052D01*
X150606280Y-111314729D01*
X150606300Y-111316943D01*
X150606300Y-113115105D01*
X150606300Y-113115107D01*
X150606299Y-113115107D01*
X150631272Y-113240646D01*
X150631275Y-113240682D01*
X150631279Y-113240682D01*
X150631390Y-113241242D01*
X150631390Y-113241243D01*
X150680605Y-113360060D01*
X150752062Y-113467004D01*
X150752063Y-113467005D01*
X153840195Y-116555136D01*
X153840198Y-116555139D01*
X153928434Y-116614096D01*
X153928435Y-116614097D01*
X153947127Y-116626587D01*
X153947135Y-116626591D01*
X153947136Y-116626592D01*
X154065956Y-116675809D01*
X154065960Y-116675809D01*
X154065961Y-116675810D01*
X154192092Y-116700900D01*
X154192095Y-116700900D01*
X157947797Y-116700900D01*
X158014836Y-116720585D01*
X158035478Y-116737219D01*
X158270781Y-116972521D01*
X158304266Y-117033844D01*
X158307100Y-117060202D01*
X158307100Y-117541868D01*
X158287415Y-117608907D01*
X158255985Y-117642186D01*
X158080214Y-117769890D01*
X158080209Y-117769894D01*
X157929890Y-117920213D01*
X157804949Y-118092182D01*
X157800484Y-118100946D01*
X157752509Y-118151742D01*
X157684688Y-118168536D01*
X157618553Y-118145998D01*
X157579516Y-118100946D01*
X157575050Y-118092182D01*
X157450109Y-117920213D01*
X157299786Y-117769890D01*
X157127820Y-117644951D01*
X156938414Y-117548444D01*
X156938413Y-117548443D01*
X156938412Y-117548443D01*
X156736243Y-117482754D01*
X156736241Y-117482753D01*
X156736240Y-117482753D01*
X156574957Y-117457208D01*
X156526287Y-117449500D01*
X156313713Y-117449500D01*
X156265042Y-117457208D01*
X156103760Y-117482753D01*
X155901585Y-117548444D01*
X155712179Y-117644951D01*
X155540213Y-117769890D01*
X155389890Y-117920213D01*
X155264949Y-118092182D01*
X155260484Y-118100946D01*
X155212509Y-118151742D01*
X155144688Y-118168536D01*
X155078553Y-118145998D01*
X155039516Y-118100946D01*
X155035050Y-118092182D01*
X154910109Y-117920213D01*
X154759786Y-117769890D01*
X154587820Y-117644951D01*
X154398414Y-117548444D01*
X154398413Y-117548443D01*
X154398412Y-117548443D01*
X154196243Y-117482754D01*
X154196241Y-117482753D01*
X154196240Y-117482753D01*
X154034957Y-117457208D01*
X153986287Y-117449500D01*
X153773713Y-117449500D01*
X153725042Y-117457208D01*
X153563760Y-117482753D01*
X153361585Y-117548444D01*
X153172179Y-117644951D01*
X153000213Y-117769890D01*
X152849890Y-117920213D01*
X152724949Y-118092182D01*
X152720202Y-118101499D01*
X152672227Y-118152293D01*
X152604405Y-118169087D01*
X152538271Y-118146548D01*
X152499234Y-118101495D01*
X152494626Y-118092452D01*
X152455270Y-118038282D01*
X152455269Y-118038282D01*
X151822962Y-118670590D01*
X151805925Y-118607007D01*
X151740099Y-118492993D01*
X151647007Y-118399901D01*
X151532993Y-118334075D01*
X151469409Y-118317037D01*
X152101716Y-117684728D01*
X152047550Y-117645375D01*
X151858217Y-117548904D01*
X151656129Y-117483242D01*
X151446246Y-117450000D01*
X151233754Y-117450000D01*
X151023872Y-117483242D01*
X151023869Y-117483242D01*
X150821782Y-117548904D01*
X150632439Y-117645380D01*
X150578282Y-117684727D01*
X150578282Y-117684728D01*
X151210591Y-118317037D01*
X151147007Y-118334075D01*
X151032993Y-118399901D01*
X150939901Y-118492993D01*
X150874075Y-118607007D01*
X150857037Y-118670591D01*
X150224728Y-118038282D01*
X150224727Y-118038282D01*
X150185380Y-118092439D01*
X150088904Y-118281782D01*
X150023242Y-118483869D01*
X150023242Y-118483872D01*
X149990000Y-118693753D01*
X149990000Y-118906246D01*
X150023242Y-119116127D01*
X150023242Y-119116130D01*
X150088904Y-119318217D01*
X150185375Y-119507550D01*
X150224728Y-119561716D01*
X150857037Y-118929408D01*
X150874075Y-118992993D01*
X150939901Y-119107007D01*
X151032993Y-119200099D01*
X151147007Y-119265925D01*
X151210590Y-119282962D01*
X150578282Y-119915269D01*
X150578282Y-119915270D01*
X150632449Y-119954624D01*
X150821782Y-120051095D01*
X151023870Y-120116757D01*
X151233754Y-120150000D01*
X151446246Y-120150000D01*
X151656127Y-120116757D01*
X151656130Y-120116757D01*
X151858217Y-120051095D01*
X152047554Y-119954622D01*
X152101716Y-119915270D01*
X152101717Y-119915270D01*
X151469408Y-119282962D01*
X151532993Y-119265925D01*
X151647007Y-119200099D01*
X151740099Y-119107007D01*
X151805925Y-118992993D01*
X151822962Y-118929408D01*
X152455270Y-119561717D01*
X152455270Y-119561716D01*
X152494622Y-119507555D01*
X152499232Y-119498507D01*
X152547205Y-119447709D01*
X152615025Y-119430912D01*
X152681161Y-119453447D01*
X152720204Y-119498504D01*
X152724949Y-119507817D01*
X152849890Y-119679786D01*
X153000213Y-119830109D01*
X153172179Y-119955048D01*
X153172181Y-119955049D01*
X153172184Y-119955051D01*
X153361588Y-120051557D01*
X153563757Y-120117246D01*
X153773713Y-120150500D01*
X153773714Y-120150500D01*
X153986286Y-120150500D01*
X153986287Y-120150500D01*
X154196243Y-120117246D01*
X154398412Y-120051557D01*
X154587816Y-119955051D01*
X154642572Y-119915269D01*
X154759786Y-119830109D01*
X154759788Y-119830106D01*
X154759792Y-119830104D01*
X154910104Y-119679792D01*
X154910106Y-119679788D01*
X154910109Y-119679786D01*
X155035048Y-119507820D01*
X155035047Y-119507820D01*
X155035051Y-119507816D01*
X155039514Y-119499054D01*
X155087488Y-119448259D01*
X155155308Y-119431463D01*
X155221444Y-119453999D01*
X155260484Y-119499054D01*
X155264591Y-119507115D01*
X155264951Y-119507820D01*
X155389890Y-119679786D01*
X155540213Y-119830109D01*
X155712179Y-119955048D01*
X155712181Y-119955049D01*
X155712184Y-119955051D01*
X155901588Y-120051557D01*
X156103757Y-120117246D01*
X156313713Y-120150500D01*
X156313714Y-120150500D01*
X156526286Y-120150500D01*
X156526287Y-120150500D01*
X156736243Y-120117246D01*
X156938412Y-120051557D01*
X157127816Y-119955051D01*
X157182572Y-119915269D01*
X157299786Y-119830109D01*
X157299788Y-119830106D01*
X157299792Y-119830104D01*
X157450104Y-119679792D01*
X157450106Y-119679788D01*
X157450109Y-119679786D01*
X157575048Y-119507820D01*
X157575047Y-119507820D01*
X157575051Y-119507816D01*
X157579514Y-119499054D01*
X157627488Y-119448259D01*
X157695308Y-119431463D01*
X157761444Y-119453999D01*
X157800484Y-119499054D01*
X157804591Y-119507115D01*
X157804951Y-119507820D01*
X157929890Y-119679786D01*
X158080213Y-119830109D01*
X158252179Y-119955048D01*
X158252181Y-119955049D01*
X158252184Y-119955051D01*
X158441588Y-120051557D01*
X158643757Y-120117246D01*
X158853713Y-120150500D01*
X158853714Y-120150500D01*
X159066286Y-120150500D01*
X159066287Y-120150500D01*
X159276243Y-120117246D01*
X159478412Y-120051557D01*
X159667816Y-119955051D01*
X159722572Y-119915269D01*
X159839786Y-119830109D01*
X159839788Y-119830106D01*
X159839792Y-119830104D01*
X159990104Y-119679792D01*
X159990106Y-119679788D01*
X159990109Y-119679786D01*
X160075890Y-119561717D01*
X160115051Y-119507816D01*
X160119793Y-119498508D01*
X160167763Y-119447711D01*
X160235583Y-119430911D01*
X160301719Y-119453445D01*
X160340763Y-119498500D01*
X160345373Y-119507547D01*
X160384728Y-119561716D01*
X161017037Y-118929408D01*
X161034075Y-118992993D01*
X161099901Y-119107007D01*
X161192993Y-119200099D01*
X161307007Y-119265925D01*
X161370590Y-119282962D01*
X160738282Y-119915269D01*
X160738282Y-119915270D01*
X160792449Y-119954624D01*
X160981782Y-120051095D01*
X161183870Y-120116757D01*
X161393754Y-120150000D01*
X161606246Y-120150000D01*
X161816127Y-120116757D01*
X161816130Y-120116757D01*
X162018217Y-120051095D01*
X162207554Y-119954622D01*
X162261716Y-119915270D01*
X162261717Y-119915270D01*
X161629408Y-119282962D01*
X161692993Y-119265925D01*
X161807007Y-119200099D01*
X161900099Y-119107007D01*
X161965925Y-118992993D01*
X161982962Y-118929409D01*
X162615270Y-119561717D01*
X162615270Y-119561716D01*
X162654622Y-119507555D01*
X162659232Y-119498507D01*
X162707205Y-119447709D01*
X162775025Y-119430912D01*
X162841161Y-119453447D01*
X162880204Y-119498504D01*
X162884949Y-119507817D01*
X163009890Y-119679786D01*
X163160213Y-119830109D01*
X163332179Y-119955048D01*
X163332181Y-119955049D01*
X163332184Y-119955051D01*
X163521588Y-120051557D01*
X163723757Y-120117246D01*
X163933713Y-120150500D01*
X163933714Y-120150500D01*
X164146286Y-120150500D01*
X164146287Y-120150500D01*
X164356243Y-120117246D01*
X164558412Y-120051557D01*
X164747816Y-119955051D01*
X164802572Y-119915269D01*
X164919786Y-119830109D01*
X164919788Y-119830106D01*
X164919792Y-119830104D01*
X165070104Y-119679792D01*
X165070106Y-119679788D01*
X165070109Y-119679786D01*
X165195048Y-119507820D01*
X165195047Y-119507820D01*
X165195051Y-119507816D01*
X165199514Y-119499054D01*
X165247488Y-119448259D01*
X165315308Y-119431463D01*
X165381444Y-119453999D01*
X165420484Y-119499054D01*
X165424591Y-119507115D01*
X165424951Y-119507820D01*
X165549890Y-119679786D01*
X165700213Y-119830109D01*
X165872179Y-119955048D01*
X165872181Y-119955049D01*
X165872184Y-119955051D01*
X166061588Y-120051557D01*
X166263757Y-120117246D01*
X166473713Y-120150500D01*
X166473714Y-120150500D01*
X166686286Y-120150500D01*
X166686287Y-120150500D01*
X166896243Y-120117246D01*
X167098412Y-120051557D01*
X167287816Y-119955051D01*
X167342572Y-119915269D01*
X167459786Y-119830109D01*
X167459788Y-119830106D01*
X167459792Y-119830104D01*
X167610104Y-119679792D01*
X167610106Y-119679788D01*
X167610109Y-119679786D01*
X167735048Y-119507820D01*
X167735047Y-119507820D01*
X167735051Y-119507816D01*
X167739514Y-119499054D01*
X167787488Y-119448259D01*
X167855308Y-119431463D01*
X167921444Y-119453999D01*
X167960484Y-119499054D01*
X167964591Y-119507115D01*
X167964951Y-119507820D01*
X168089890Y-119679786D01*
X168240213Y-119830109D01*
X168412179Y-119955048D01*
X168412181Y-119955049D01*
X168412184Y-119955051D01*
X168601588Y-120051557D01*
X168803757Y-120117246D01*
X169013713Y-120150500D01*
X169013714Y-120150500D01*
X169226286Y-120150500D01*
X169226287Y-120150500D01*
X169436243Y-120117246D01*
X169575517Y-120071992D01*
X169591815Y-120071527D01*
X169607194Y-120066102D01*
X169626019Y-120070550D01*
X169645355Y-120069998D01*
X169659319Y-120078418D01*
X169675191Y-120082169D01*
X169688623Y-120096089D01*
X169705188Y-120106078D01*
X169712865Y-120121212D01*
X169723707Y-120132448D01*
X169735449Y-120165732D01*
X169749135Y-120234533D01*
X169749135Y-120234534D01*
X169757589Y-120277038D01*
X169757592Y-120277046D01*
X169806807Y-120395862D01*
X169878262Y-120502804D01*
X169878263Y-120502805D01*
X170426396Y-121050937D01*
X170426397Y-121050938D01*
X170426400Y-121050940D01*
X170533336Y-121122392D01*
X170652156Y-121171609D01*
X170652160Y-121171609D01*
X170652161Y-121171610D01*
X170778292Y-121196700D01*
X170778295Y-121196700D01*
X173802507Y-121196700D01*
X173887365Y-121179819D01*
X173928644Y-121171609D01*
X174047464Y-121122392D01*
X174154400Y-121050941D01*
X174707141Y-120498199D01*
X174778592Y-120391264D01*
X174827809Y-120272444D01*
X174832213Y-120250305D01*
X174864599Y-120188395D01*
X174925316Y-120153822D01*
X174953830Y-120150499D01*
X175097871Y-120150499D01*
X175097872Y-120150499D01*
X175157483Y-120144091D01*
X175292331Y-120093796D01*
X175407546Y-120007546D01*
X175493796Y-119892331D01*
X175535570Y-119780330D01*
X175541408Y-119764678D01*
X175544091Y-119757482D01*
X175550500Y-119697873D01*
X175550499Y-117902128D01*
X175544091Y-117842517D01*
X175542810Y-117839083D01*
X175493797Y-117707671D01*
X175493793Y-117707664D01*
X175407547Y-117592455D01*
X175407544Y-117592452D01*
X175292335Y-117506206D01*
X175292328Y-117506202D01*
X175157482Y-117455908D01*
X175157483Y-117455908D01*
X175097883Y-117449501D01*
X175097881Y-117449500D01*
X175097873Y-117449500D01*
X175097865Y-117449500D01*
X174976900Y-117449500D01*
X174909861Y-117429815D01*
X174864106Y-117377011D01*
X174852900Y-117325500D01*
X174852900Y-106467145D01*
X174872585Y-106400106D01*
X174904016Y-106366826D01*
X174965098Y-106322448D01*
X174965098Y-106322447D01*
X174965102Y-106322445D01*
X175100945Y-106186602D01*
X175213865Y-106031181D01*
X175301082Y-105860009D01*
X175360447Y-105677301D01*
X175390500Y-105487555D01*
X175390500Y-104735445D01*
X175360447Y-104545699D01*
X175330424Y-104453297D01*
X175301083Y-104362993D01*
X175213864Y-104191818D01*
X175100945Y-104036398D01*
X174965102Y-103900555D01*
X174809681Y-103787635D01*
X174787099Y-103776129D01*
X174638506Y-103700416D01*
X174455802Y-103641053D01*
X174360928Y-103626026D01*
X174266055Y-103611000D01*
X174073945Y-103611000D01*
X174051874Y-103614495D01*
X173982584Y-103605540D01*
X173929132Y-103560543D01*
X173908493Y-103493792D01*
X173927218Y-103426478D01*
X173944799Y-103404341D01*
X174677138Y-102672002D01*
X174677140Y-102672000D01*
X174748592Y-102565064D01*
X174797809Y-102446244D01*
X174805014Y-102410021D01*
X174822072Y-102324267D01*
X174822900Y-102320106D01*
X174822900Y-99115693D01*
X174842585Y-99048654D01*
X174895389Y-99002899D01*
X174934668Y-98993257D01*
X174934571Y-98992354D01*
X174997483Y-98985591D01*
X175060876Y-98961947D01*
X175132331Y-98935296D01*
X175247546Y-98849046D01*
X175333796Y-98733831D01*
X175384091Y-98598983D01*
X175390500Y-98539373D01*
X175390499Y-96443628D01*
X175384091Y-96384017D01*
X175333796Y-96249169D01*
X175333795Y-96249168D01*
X175333793Y-96249164D01*
X175247547Y-96133955D01*
X175247544Y-96133952D01*
X175132335Y-96047706D01*
X175132328Y-96047702D01*
X174997482Y-95997408D01*
X174997483Y-95997408D01*
X174934572Y-95990645D01*
X174934728Y-95989186D01*
X174874340Y-95967859D01*
X174831495Y-95912668D01*
X174822900Y-95867306D01*
X174822900Y-95569402D01*
X174842585Y-95502363D01*
X174895389Y-95456608D01*
X174964547Y-95446664D01*
X175028103Y-95475689D01*
X175034581Y-95481721D01*
X178052781Y-98499921D01*
X178086266Y-98561244D01*
X178089100Y-98587602D01*
X178089100Y-115604306D01*
X178111847Y-115718660D01*
X178111848Y-115718663D01*
X178114191Y-115730443D01*
X178114191Y-115730444D01*
X178146978Y-115809600D01*
X178163408Y-115849264D01*
X178208356Y-115916534D01*
X178234862Y-115956204D01*
X178234863Y-115956205D01*
X178985795Y-116707136D01*
X178985798Y-116707139D01*
X178985801Y-116707141D01*
X179092736Y-116778592D01*
X179211556Y-116827809D01*
X179277899Y-116841005D01*
X179339808Y-116873389D01*
X179362279Y-116903746D01*
X179362407Y-116903668D01*
X179363296Y-116905119D01*
X179364191Y-116906328D01*
X179364951Y-116907820D01*
X179489890Y-117079786D01*
X179640213Y-117230109D01*
X179812179Y-117355048D01*
X179812181Y-117355049D01*
X179812184Y-117355051D01*
X179821493Y-117359794D01*
X179872290Y-117407766D01*
X179889087Y-117475587D01*
X179866552Y-117541722D01*
X179821505Y-117580760D01*
X179812446Y-117585376D01*
X179812440Y-117585380D01*
X179758282Y-117624727D01*
X179758282Y-117624728D01*
X180390591Y-118257037D01*
X180327007Y-118274075D01*
X180212993Y-118339901D01*
X180119901Y-118432993D01*
X180054075Y-118547007D01*
X180037037Y-118610591D01*
X179404728Y-117978282D01*
X179404727Y-117978282D01*
X179365380Y-118032439D01*
X179268904Y-118221782D01*
X179203242Y-118423869D01*
X179203242Y-118423872D01*
X179170000Y-118633753D01*
X179170000Y-118846246D01*
X179203242Y-119056127D01*
X179203242Y-119056130D01*
X179268904Y-119258217D01*
X179365375Y-119447550D01*
X179404728Y-119501716D01*
X180037037Y-118869408D01*
X180054075Y-118932993D01*
X180119901Y-119047007D01*
X180212993Y-119140099D01*
X180327007Y-119205925D01*
X180390590Y-119222962D01*
X179758282Y-119855269D01*
X179758282Y-119855270D01*
X179812449Y-119894624D01*
X180001782Y-119991095D01*
X180203870Y-120056757D01*
X180413754Y-120090000D01*
X180626246Y-120090000D01*
X180836127Y-120056757D01*
X180836130Y-120056757D01*
X181038217Y-119991095D01*
X181227554Y-119894622D01*
X181281716Y-119855270D01*
X181281717Y-119855270D01*
X180649408Y-119222962D01*
X180712993Y-119205925D01*
X180827007Y-119140099D01*
X180920099Y-119047007D01*
X180985925Y-118932993D01*
X181002962Y-118869408D01*
X181635270Y-119501717D01*
X181635270Y-119501716D01*
X181674622Y-119447554D01*
X181771095Y-119258217D01*
X181836757Y-119056130D01*
X181836757Y-119056127D01*
X181870000Y-118846246D01*
X181870000Y-118633753D01*
X181836757Y-118423872D01*
X181836757Y-118423869D01*
X181771095Y-118221782D01*
X181674624Y-118032449D01*
X181635270Y-117978282D01*
X181635269Y-117978282D01*
X181002962Y-118610590D01*
X180985925Y-118547007D01*
X180920099Y-118432993D01*
X180827007Y-118339901D01*
X180712993Y-118274075D01*
X180649409Y-118257037D01*
X181281716Y-117624728D01*
X181227547Y-117585373D01*
X181227547Y-117585372D01*
X181218500Y-117580763D01*
X181167706Y-117532788D01*
X181150912Y-117464966D01*
X181173451Y-117398832D01*
X181218508Y-117359793D01*
X181227816Y-117355051D01*
X181307007Y-117297515D01*
X181399786Y-117230109D01*
X181399788Y-117230106D01*
X181399792Y-117230104D01*
X181550104Y-117079792D01*
X181550106Y-117079788D01*
X181550109Y-117079786D01*
X181675048Y-116907820D01*
X181675047Y-116907820D01*
X181675051Y-116907816D01*
X181771557Y-116718412D01*
X181837246Y-116516243D01*
X181870500Y-116306287D01*
X181870500Y-116093713D01*
X181837246Y-115883757D01*
X181771557Y-115681588D01*
X181675051Y-115492184D01*
X181675049Y-115492181D01*
X181675048Y-115492179D01*
X181550109Y-115320213D01*
X181436569Y-115206673D01*
X181403084Y-115145350D01*
X181408068Y-115075658D01*
X181449940Y-115019725D01*
X181480915Y-115002810D01*
X181612331Y-114953796D01*
X181727546Y-114867546D01*
X181813796Y-114752331D01*
X181864091Y-114617483D01*
X181870500Y-114557873D01*
X181870499Y-112762128D01*
X181864091Y-112702517D01*
X181862506Y-112698268D01*
X181813797Y-112567671D01*
X181813793Y-112567664D01*
X181727547Y-112452455D01*
X181727544Y-112452452D01*
X181612335Y-112366206D01*
X181612328Y-112366202D01*
X181477482Y-112315908D01*
X181477483Y-112315908D01*
X181417883Y-112309501D01*
X181417881Y-112309500D01*
X181417873Y-112309500D01*
X181417865Y-112309500D01*
X181296900Y-112309500D01*
X181229861Y-112289815D01*
X181184106Y-112237011D01*
X181172900Y-112185500D01*
X181172900Y-99219692D01*
X181147810Y-99093561D01*
X181147809Y-99093560D01*
X181147809Y-99093556D01*
X181123200Y-99034146D01*
X181098593Y-98974737D01*
X181050380Y-98902582D01*
X181050378Y-98902579D01*
X181027142Y-98867802D01*
X181027140Y-98867800D01*
X174928403Y-92769062D01*
X174894918Y-92707739D01*
X174899902Y-92638047D01*
X174941774Y-92582114D01*
X174991887Y-92559765D01*
X175114697Y-92535337D01*
X175254143Y-92477577D01*
X175260372Y-92474997D01*
X175260372Y-92474996D01*
X175260379Y-92474994D01*
X175391489Y-92387389D01*
X175502989Y-92275889D01*
X175590594Y-92144779D01*
X175590836Y-92144196D01*
X175650935Y-91999101D01*
X175650937Y-91999097D01*
X175665376Y-91926508D01*
X175697760Y-91864597D01*
X175758476Y-91830023D01*
X175786985Y-91826699D01*
X176299876Y-91826699D01*
X176299884Y-91826698D01*
X176299887Y-91826698D01*
X176355230Y-91821044D01*
X176400953Y-91816374D01*
X176564716Y-91762108D01*
X176711550Y-91671540D01*
X176825519Y-91557571D01*
X176886842Y-91524086D01*
X176956534Y-91529070D01*
X177000881Y-91557571D01*
X177114850Y-91671540D01*
X177261684Y-91762108D01*
X177425447Y-91816374D01*
X177526523Y-91826700D01*
X178124876Y-91826699D01*
X178124884Y-91826698D01*
X178124887Y-91826698D01*
X178180230Y-91821044D01*
X178225953Y-91816374D01*
X178389716Y-91762108D01*
X178536550Y-91671540D01*
X178658540Y-91549550D01*
X178749108Y-91402716D01*
X178803374Y-91238953D01*
X178813700Y-91137877D01*
X178813699Y-90564524D01*
X178807039Y-90499330D01*
X178803374Y-90463447D01*
X178792144Y-90429558D01*
X178789742Y-90359729D01*
X178825473Y-90299687D01*
X178887994Y-90268494D01*
X178957453Y-90276054D01*
X178982527Y-90290084D01*
X178990541Y-90295881D01*
X179001800Y-90307140D01*
X179056301Y-90343556D01*
X179058217Y-90344836D01*
X179113801Y-90381977D01*
X179112289Y-90384239D01*
X179153769Y-90424947D01*
X179169500Y-90485393D01*
X179169500Y-90697869D01*
X179169501Y-90697876D01*
X179175908Y-90757483D01*
X179226202Y-90892328D01*
X179226206Y-90892335D01*
X179312452Y-91007544D01*
X179312455Y-91007547D01*
X179427664Y-91093793D01*
X179427671Y-91093797D01*
X179562517Y-91144091D01*
X179562516Y-91144091D01*
X179569444Y-91144835D01*
X179622127Y-91150500D01*
X181417872Y-91150499D01*
X181477483Y-91144091D01*
X181612331Y-91093796D01*
X181727546Y-91007546D01*
X181813796Y-90892331D01*
X181864091Y-90757483D01*
X181870500Y-90697873D01*
X181870499Y-88902128D01*
X181864091Y-88842517D01*
X181851142Y-88807800D01*
X181813797Y-88707671D01*
X181813793Y-88707664D01*
X181727547Y-88592455D01*
X181727544Y-88592452D01*
X181612335Y-88506206D01*
X181612328Y-88506202D01*
X181480917Y-88457189D01*
X181424983Y-88415318D01*
X181400566Y-88349853D01*
X181415418Y-88281580D01*
X181436563Y-88253332D01*
X181550104Y-88139792D01*
X181675051Y-87967816D01*
X181771557Y-87778412D01*
X181837246Y-87576243D01*
X181870500Y-87366287D01*
X181870500Y-87153713D01*
X181837246Y-86943757D01*
X181771557Y-86741588D01*
X181675051Y-86552184D01*
X181675049Y-86552181D01*
X181675048Y-86552179D01*
X181550109Y-86380213D01*
X181399786Y-86229890D01*
X181227820Y-86104951D01*
X181227115Y-86104591D01*
X181219054Y-86100485D01*
X181168259Y-86052512D01*
X181151463Y-85984692D01*
X181173999Y-85918556D01*
X181219054Y-85879515D01*
X181227816Y-85875051D01*
X181296443Y-85825191D01*
X181399786Y-85750109D01*
X181399788Y-85750106D01*
X181399792Y-85750104D01*
X181550104Y-85599792D01*
X181550106Y-85599788D01*
X181550109Y-85599786D01*
X181675048Y-85427820D01*
X181675047Y-85427820D01*
X181675051Y-85427816D01*
X181771557Y-85238412D01*
X181837246Y-85036243D01*
X181870500Y-84826287D01*
X181870500Y-84613713D01*
X181837246Y-84403757D01*
X181771557Y-84201588D01*
X181675051Y-84012184D01*
X181675049Y-84012181D01*
X181675048Y-84012179D01*
X181550109Y-83840213D01*
X181399786Y-83689890D01*
X181227820Y-83564951D01*
X181227115Y-83564591D01*
X181219054Y-83560485D01*
X181168259Y-83512512D01*
X181151463Y-83444692D01*
X181173999Y-83378556D01*
X181219054Y-83339515D01*
X181227816Y-83335051D01*
X181273951Y-83301532D01*
X181399786Y-83210109D01*
X181399788Y-83210106D01*
X181399792Y-83210104D01*
X181550104Y-83059792D01*
X181550106Y-83059788D01*
X181550109Y-83059786D01*
X181675048Y-82887820D01*
X181675047Y-82887820D01*
X181675051Y-82887816D01*
X181771557Y-82698412D01*
X181837246Y-82496243D01*
X181870500Y-82286287D01*
X181870500Y-82073713D01*
X181837246Y-81863757D01*
X181771557Y-81661588D01*
X181675051Y-81472184D01*
X181675049Y-81472181D01*
X181675048Y-81472179D01*
X181550109Y-81300213D01*
X181399786Y-81149890D01*
X181227817Y-81024949D01*
X181218504Y-81020204D01*
X181167707Y-80972230D01*
X181150912Y-80904409D01*
X181173449Y-80838274D01*
X181218507Y-80799232D01*
X181227555Y-80794622D01*
X181281716Y-80755270D01*
X181281717Y-80755270D01*
X180649408Y-80122962D01*
X180712993Y-80105925D01*
X180827007Y-80040099D01*
X180920099Y-79947007D01*
X180985925Y-79832993D01*
X181002962Y-79769408D01*
X181635270Y-80401717D01*
X181635270Y-80401716D01*
X181674622Y-80347554D01*
X181771095Y-80158217D01*
X181836757Y-79956130D01*
X181836757Y-79956127D01*
X181870000Y-79746246D01*
X181870000Y-79533753D01*
X181836757Y-79323872D01*
X181836757Y-79323869D01*
X181771095Y-79121782D01*
X181674624Y-78932449D01*
X181635270Y-78878282D01*
X181635269Y-78878282D01*
X181002962Y-79510590D01*
X180985925Y-79447007D01*
X180920099Y-79332993D01*
X180827007Y-79239901D01*
X180712993Y-79174075D01*
X180649409Y-79157037D01*
X181281716Y-78524728D01*
X181227550Y-78485375D01*
X181038217Y-78388904D01*
X180836129Y-78323242D01*
X180626246Y-78290000D01*
X180413754Y-78290000D01*
X180203872Y-78323242D01*
X180203869Y-78323242D01*
X180001782Y-78388904D01*
X179812439Y-78485380D01*
X179758282Y-78524727D01*
X179758282Y-78524728D01*
X180390591Y-79157037D01*
X180327007Y-79174075D01*
X180212993Y-79239901D01*
X180119901Y-79332993D01*
X180054075Y-79447007D01*
X180037037Y-79510591D01*
X179404728Y-78878282D01*
X179404727Y-78878282D01*
X179365380Y-78932439D01*
X179268904Y-79121782D01*
X179203242Y-79323869D01*
X179203242Y-79323872D01*
X179170000Y-79533753D01*
X179170000Y-79746246D01*
X179203242Y-79956127D01*
X179203242Y-79956130D01*
X179268904Y-80158217D01*
X179365375Y-80347550D01*
X179404728Y-80401716D01*
X180037037Y-79769408D01*
X180054075Y-79832993D01*
X180119901Y-79947007D01*
X180212993Y-80040099D01*
X180327007Y-80105925D01*
X180390590Y-80122962D01*
X179758282Y-80755269D01*
X179758282Y-80755270D01*
X179812452Y-80794626D01*
X179812451Y-80794626D01*
X179821495Y-80799234D01*
X179872292Y-80847208D01*
X179889087Y-80915029D01*
X179866550Y-80981164D01*
X179821499Y-81020202D01*
X179812182Y-81024949D01*
X179640213Y-81149890D01*
X179489896Y-81300207D01*
X179432786Y-81378814D01*
X179364949Y-81472184D01*
X179364947Y-81472186D01*
X179362188Y-81475985D01*
X179306858Y-81518651D01*
X179261869Y-81527100D01*
X179017693Y-81527100D01*
X178891561Y-81552189D01*
X178891555Y-81552191D01*
X178772737Y-81601407D01*
X178665795Y-81672862D01*
X178665795Y-81672863D01*
X178627879Y-81710780D01*
X178600948Y-81725485D01*
X178575132Y-81742077D01*
X178568933Y-81742968D01*
X178566557Y-81744266D01*
X178540197Y-81747100D01*
X178325291Y-81747100D01*
X178258252Y-81727415D01*
X178225625Y-81694180D01*
X178224821Y-81694817D01*
X178220339Y-81689149D01*
X178175121Y-81643931D01*
X178141636Y-81582608D01*
X178146620Y-81512916D01*
X178175121Y-81468569D01*
X178220340Y-81423350D01*
X178310908Y-81276516D01*
X178365174Y-81112753D01*
X178375500Y-81011677D01*
X178375499Y-80313324D01*
X178374256Y-80301159D01*
X178365174Y-80212247D01*
X178352654Y-80174465D01*
X178310908Y-80048484D01*
X178220340Y-79901650D01*
X178206017Y-79887327D01*
X178172532Y-79826004D01*
X178177516Y-79756312D01*
X178206021Y-79711960D01*
X178219947Y-79698035D01*
X178310448Y-79551311D01*
X178310453Y-79551300D01*
X178330807Y-79489877D01*
X178364680Y-79387651D01*
X178374999Y-79286654D01*
X178375000Y-79286641D01*
X178375000Y-79187500D01*
X177524000Y-79187500D01*
X177456961Y-79167815D01*
X177411206Y-79115011D01*
X177400000Y-79063500D01*
X177400000Y-78937500D01*
X177274000Y-78937500D01*
X177206961Y-78917815D01*
X177161206Y-78865011D01*
X177150000Y-78813500D01*
X177150000Y-78687500D01*
X177650000Y-78687500D01*
X178374999Y-78687500D01*
X178374999Y-78588360D01*
X178374998Y-78588342D01*
X178374614Y-78584580D01*
X178374614Y-78584579D01*
X178364680Y-78487347D01*
X178310453Y-78323699D01*
X178310448Y-78323688D01*
X178219947Y-78176965D01*
X178219944Y-78176961D01*
X178098038Y-78055055D01*
X178098034Y-78055052D01*
X177951311Y-77964551D01*
X177951300Y-77964546D01*
X177787652Y-77910319D01*
X177686654Y-77900000D01*
X177650000Y-77900000D01*
X177650000Y-78687500D01*
X177150000Y-78687500D01*
X177150000Y-77921802D01*
X177082544Y-77884541D01*
X177079549Y-77881516D01*
X177075463Y-77880317D01*
X177055176Y-77856905D01*
X177033381Y-77834896D01*
X177032496Y-77830730D01*
X177029708Y-77827513D01*
X177025298Y-77796849D01*
X177018862Y-77766551D01*
X177020369Y-77762569D01*
X177019763Y-77758355D01*
X177032630Y-77730179D01*
X177043597Y-77701207D01*
X177047018Y-77698671D01*
X177048787Y-77694799D01*
X177054806Y-77688333D01*
X178512541Y-76230599D01*
X178583993Y-76123663D01*
X178620342Y-76035908D01*
X178633209Y-76004844D01*
X178647873Y-75931124D01*
X178658300Y-75878707D01*
X178658300Y-74331902D01*
X179949500Y-74331902D01*
X179949500Y-74568097D01*
X179986446Y-74801368D01*
X180059433Y-75025996D01*
X180166657Y-75236433D01*
X180305483Y-75427510D01*
X180472490Y-75594517D01*
X180663567Y-75733343D01*
X180729393Y-75766883D01*
X180874003Y-75840566D01*
X180874005Y-75840566D01*
X180874008Y-75840568D01*
X180987266Y-75877368D01*
X181098631Y-75913553D01*
X181331903Y-75950500D01*
X181331908Y-75950500D01*
X181568097Y-75950500D01*
X181801368Y-75913553D01*
X182025992Y-75840568D01*
X182236433Y-75733343D01*
X182427510Y-75594517D01*
X182594517Y-75427510D01*
X182733343Y-75236433D01*
X182840568Y-75025992D01*
X182913553Y-74801368D01*
X182927500Y-74713312D01*
X182950500Y-74568097D01*
X182950500Y-74331902D01*
X182913553Y-74098631D01*
X182840566Y-73874003D01*
X182771722Y-73738890D01*
X182733343Y-73663567D01*
X182594517Y-73472490D01*
X182427510Y-73305483D01*
X182236433Y-73166657D01*
X182025996Y-73059433D01*
X181801368Y-72986446D01*
X181568097Y-72949500D01*
X181568092Y-72949500D01*
X181331908Y-72949500D01*
X181331903Y-72949500D01*
X181098631Y-72986446D01*
X180874003Y-73059433D01*
X180663566Y-73166657D01*
X180554550Y-73245862D01*
X180472490Y-73305483D01*
X180472488Y-73305485D01*
X180472487Y-73305485D01*
X180305485Y-73472487D01*
X180305485Y-73472488D01*
X180305483Y-73472490D01*
X180273805Y-73516091D01*
X180166657Y-73663566D01*
X180059433Y-73874003D01*
X179986446Y-74098631D01*
X179949500Y-74331902D01*
X178658300Y-74331902D01*
X178658300Y-69831947D01*
X179950000Y-69831947D01*
X179950000Y-70068052D01*
X179986934Y-70301247D01*
X180059897Y-70525802D01*
X180167087Y-70736174D01*
X180227338Y-70819104D01*
X180227340Y-70819105D01*
X180926212Y-70120233D01*
X180937482Y-70162292D01*
X181009890Y-70287708D01*
X181112292Y-70390110D01*
X181237708Y-70462518D01*
X181279765Y-70473787D01*
X180580893Y-71172658D01*
X180663828Y-71232914D01*
X180874197Y-71340102D01*
X181098752Y-71413065D01*
X181098751Y-71413065D01*
X181331948Y-71450000D01*
X181568052Y-71450000D01*
X181801247Y-71413065D01*
X182025802Y-71340102D01*
X182236163Y-71232918D01*
X182236169Y-71232914D01*
X182319104Y-71172658D01*
X182319105Y-71172658D01*
X181620233Y-70473787D01*
X181662292Y-70462518D01*
X181787708Y-70390110D01*
X181890110Y-70287708D01*
X181962518Y-70162292D01*
X181973787Y-70120234D01*
X182672658Y-70819105D01*
X182672658Y-70819104D01*
X182732914Y-70736169D01*
X182732918Y-70736163D01*
X182840102Y-70525802D01*
X182913065Y-70301247D01*
X182950000Y-70068052D01*
X182950000Y-69831947D01*
X182913065Y-69598752D01*
X182840102Y-69374197D01*
X182732914Y-69163828D01*
X182672658Y-69080894D01*
X182672658Y-69080893D01*
X181973787Y-69779765D01*
X181962518Y-69737708D01*
X181890110Y-69612292D01*
X181787708Y-69509890D01*
X181662292Y-69437482D01*
X181620234Y-69426212D01*
X182319105Y-68727340D01*
X182319104Y-68727338D01*
X182236174Y-68667087D01*
X182025802Y-68559897D01*
X181801247Y-68486934D01*
X181801248Y-68486934D01*
X181568052Y-68450000D01*
X181331948Y-68450000D01*
X181098752Y-68486934D01*
X180874197Y-68559897D01*
X180663830Y-68667084D01*
X180580894Y-68727340D01*
X181279766Y-69426212D01*
X181237708Y-69437482D01*
X181112292Y-69509890D01*
X181009890Y-69612292D01*
X180937482Y-69737708D01*
X180926212Y-69779766D01*
X180227340Y-69080894D01*
X180167084Y-69163830D01*
X180059897Y-69374197D01*
X179986934Y-69598752D01*
X179950000Y-69831947D01*
X178658300Y-69831947D01*
X178658300Y-67441092D01*
X178633210Y-67314961D01*
X178633209Y-67314960D01*
X178633209Y-67314956D01*
X178583992Y-67196136D01*
X178512540Y-67089200D01*
X178512538Y-67089197D01*
X176420972Y-64997631D01*
X176387487Y-64936308D01*
X176390721Y-64871634D01*
X176413553Y-64801368D01*
X176436461Y-64656732D01*
X176450500Y-64568097D01*
X176450500Y-64331902D01*
X179949500Y-64331902D01*
X179949500Y-64568097D01*
X179986446Y-64801368D01*
X180059433Y-65025996D01*
X180103948Y-65113360D01*
X180166657Y-65236433D01*
X180305483Y-65427510D01*
X180472490Y-65594517D01*
X180663567Y-65733343D01*
X180704109Y-65754000D01*
X180874003Y-65840566D01*
X180874005Y-65840566D01*
X180874008Y-65840568D01*
X180956099Y-65867241D01*
X181098631Y-65913553D01*
X181331903Y-65950500D01*
X181331908Y-65950500D01*
X181568097Y-65950500D01*
X181801368Y-65913553D01*
X181877774Y-65888727D01*
X182025992Y-65840568D01*
X182236433Y-65733343D01*
X182427510Y-65594517D01*
X182594517Y-65427510D01*
X182733343Y-65236433D01*
X182840568Y-65025992D01*
X182913553Y-64801368D01*
X182918680Y-64768995D01*
X182950500Y-64568097D01*
X182950500Y-64331902D01*
X182913553Y-64098631D01*
X182874438Y-63978248D01*
X182840568Y-63874008D01*
X182840566Y-63874005D01*
X182840566Y-63874003D01*
X182760058Y-63715998D01*
X182733343Y-63663567D01*
X182594517Y-63472490D01*
X182427510Y-63305483D01*
X182236433Y-63166657D01*
X182025996Y-63059433D01*
X181801368Y-62986446D01*
X181568097Y-62949500D01*
X181568092Y-62949500D01*
X181331908Y-62949500D01*
X181331903Y-62949500D01*
X181098631Y-62986446D01*
X180874003Y-63059433D01*
X180663566Y-63166657D01*
X180554550Y-63245862D01*
X180472490Y-63305483D01*
X180472488Y-63305485D01*
X180472487Y-63305485D01*
X180305485Y-63472487D01*
X180305485Y-63472488D01*
X180305483Y-63472490D01*
X180271257Y-63519598D01*
X180166657Y-63663566D01*
X180059433Y-63874003D01*
X179986446Y-64098631D01*
X179949500Y-64331902D01*
X176450500Y-64331902D01*
X176413553Y-64098631D01*
X176374438Y-63978248D01*
X176340568Y-63874008D01*
X176340566Y-63874005D01*
X176340566Y-63874003D01*
X176260058Y-63715998D01*
X176233343Y-63663567D01*
X176094517Y-63472490D01*
X175927510Y-63305483D01*
X175736433Y-63166657D01*
X175525996Y-63059433D01*
X175301368Y-62986446D01*
X175068097Y-62949500D01*
X175068092Y-62949500D01*
X174831908Y-62949500D01*
X174831903Y-62949500D01*
X174598631Y-62986446D01*
X174374003Y-63059433D01*
X174163566Y-63166657D01*
X174054550Y-63245862D01*
X173972490Y-63305483D01*
X173972488Y-63305485D01*
X173972487Y-63305485D01*
X173805485Y-63472487D01*
X173805485Y-63472488D01*
X173805483Y-63472490D01*
X173771257Y-63519598D01*
X173666657Y-63663566D01*
X173559433Y-63874003D01*
X173486446Y-64098631D01*
X173449500Y-64331902D01*
X173449500Y-64568097D01*
X173486446Y-64801368D01*
X173559433Y-65025996D01*
X173603948Y-65113360D01*
X173666657Y-65236433D01*
X173805483Y-65427510D01*
X173972490Y-65594517D01*
X174163567Y-65733343D01*
X174204109Y-65754000D01*
X174374003Y-65840566D01*
X174374005Y-65840566D01*
X174374008Y-65840568D01*
X174456099Y-65867241D01*
X174598631Y-65913553D01*
X174831903Y-65950500D01*
X174831908Y-65950500D01*
X175068097Y-65950500D01*
X175174126Y-65933705D01*
X175301368Y-65913553D01*
X175371634Y-65890721D01*
X175441472Y-65888727D01*
X175497631Y-65920972D01*
X177316181Y-67739521D01*
X177349666Y-67800844D01*
X177352500Y-67827202D01*
X177352500Y-75492596D01*
X177332815Y-75559635D01*
X177316181Y-75580277D01*
X176254349Y-76642108D01*
X176193026Y-76675593D01*
X176123334Y-76670609D01*
X176078987Y-76642108D01*
X176001092Y-76564213D01*
X176001088Y-76564210D01*
X175869985Y-76476609D01*
X175869972Y-76476602D01*
X175724301Y-76416264D01*
X175724292Y-76416261D01*
X175702707Y-76411968D01*
X175640797Y-76379582D01*
X175606223Y-76318866D01*
X175602900Y-76290351D01*
X175602900Y-75877368D01*
X175622585Y-75810329D01*
X175670605Y-75766883D01*
X175736433Y-75733343D01*
X175927510Y-75594517D01*
X176094517Y-75427510D01*
X176233343Y-75236433D01*
X176340568Y-75025992D01*
X176413553Y-74801368D01*
X176427500Y-74713312D01*
X176450500Y-74568097D01*
X176450500Y-74331902D01*
X176413553Y-74098631D01*
X176340566Y-73874003D01*
X176271722Y-73738890D01*
X176233343Y-73663567D01*
X176094517Y-73472490D01*
X175927510Y-73305483D01*
X175736433Y-73166657D01*
X175525996Y-73059433D01*
X175301368Y-72986446D01*
X175068097Y-72949500D01*
X175068092Y-72949500D01*
X174831908Y-72949500D01*
X174831903Y-72949500D01*
X174598631Y-72986446D01*
X174374003Y-73059433D01*
X174163566Y-73166657D01*
X174054550Y-73245862D01*
X173972490Y-73305483D01*
X173972488Y-73305485D01*
X173972487Y-73305485D01*
X173805485Y-73472487D01*
X173805485Y-73472488D01*
X173805483Y-73472490D01*
X173773805Y-73516091D01*
X173666657Y-73663566D01*
X173559433Y-73874003D01*
X173486446Y-74098631D01*
X173449500Y-74331902D01*
X173449500Y-74568097D01*
X173486446Y-74801368D01*
X173559433Y-75025996D01*
X173666657Y-75236433D01*
X173805483Y-75427510D01*
X173972490Y-75594517D01*
X174107748Y-75692788D01*
X174163568Y-75733344D01*
X174204201Y-75754047D01*
X174229394Y-75766883D01*
X174240458Y-75777332D01*
X174254303Y-75783655D01*
X174265343Y-75800834D01*
X174280190Y-75814856D01*
X174284431Y-75830536D01*
X174292077Y-75842433D01*
X174297100Y-75877368D01*
X174297100Y-76084197D01*
X174277415Y-76151236D01*
X174260781Y-76171878D01*
X173681878Y-76750781D01*
X173620555Y-76784266D01*
X173594197Y-76787100D01*
X168085893Y-76787100D01*
X167959761Y-76812189D01*
X167959755Y-76812191D01*
X167840937Y-76861407D01*
X167733997Y-76932861D01*
X167733996Y-76932862D01*
X167160463Y-77506394D01*
X167160457Y-77506401D01*
X167096451Y-77602194D01*
X167096452Y-77602195D01*
X167089006Y-77613338D01*
X167039791Y-77732155D01*
X167039789Y-77732161D01*
X167014700Y-77858292D01*
X167014700Y-77858295D01*
X167014700Y-79637905D01*
X167014700Y-79637907D01*
X167014699Y-79637907D01*
X167037555Y-79752806D01*
X167037556Y-79752809D01*
X167039791Y-79764044D01*
X167089008Y-79882864D01*
X167160459Y-79989800D01*
X167160462Y-79989804D01*
X167160463Y-79989805D01*
X168752794Y-81582135D01*
X168752797Y-81582137D01*
X168752800Y-81582140D01*
X168781637Y-81601408D01*
X168781638Y-81601409D01*
X168859729Y-81653588D01*
X168859733Y-81653590D01*
X168859736Y-81653592D01*
X168883379Y-81663385D01*
X168937784Y-81707225D01*
X168959850Y-81773519D01*
X168942572Y-81841218D01*
X168923611Y-81865628D01*
X168753793Y-82035448D01*
X168471093Y-82318149D01*
X168287142Y-82502100D01*
X168238907Y-82550335D01*
X168079256Y-82709984D01*
X168024994Y-82791197D01*
X168024994Y-82791198D01*
X168007806Y-82816921D01*
X167958591Y-82935737D01*
X167958589Y-82935743D01*
X167933500Y-83061874D01*
X167933500Y-83264531D01*
X167913815Y-83331570D01*
X167861011Y-83377325D01*
X167791853Y-83387269D01*
X167740610Y-83367634D01*
X167691183Y-83334608D01*
X167691172Y-83334602D01*
X167545501Y-83274264D01*
X167545489Y-83274261D01*
X167390845Y-83243500D01*
X167390842Y-83243500D01*
X167233158Y-83243500D01*
X167233155Y-83243500D01*
X167078510Y-83274261D01*
X167078498Y-83274264D01*
X166932827Y-83334602D01*
X166932814Y-83334609D01*
X166801711Y-83422210D01*
X166801707Y-83422213D01*
X166712180Y-83511741D01*
X166696242Y-83520443D01*
X166683330Y-83533216D01*
X166666211Y-83536841D01*
X166650857Y-83545226D01*
X166632743Y-83543930D01*
X166614976Y-83547694D01*
X166598616Y-83541490D01*
X166581165Y-83540242D01*
X166566626Y-83529358D01*
X166549647Y-83522919D01*
X166539238Y-83508855D01*
X166525232Y-83498370D01*
X166518885Y-83481354D01*
X166508082Y-83466757D01*
X166503210Y-83439329D01*
X166500815Y-83432906D01*
X166500768Y-83432229D01*
X166500499Y-83428154D01*
X166500499Y-83402128D01*
X166496045Y-83360700D01*
X166495878Y-83358166D01*
X166496320Y-83356186D01*
X166496320Y-83336747D01*
X166500500Y-83297873D01*
X166500499Y-82752128D01*
X166500498Y-82752111D01*
X166496320Y-82713253D01*
X166495647Y-82696936D01*
X166495772Y-82691835D01*
X166500500Y-82647873D01*
X166500500Y-82500378D01*
X166500538Y-82498839D01*
X166510759Y-82466960D01*
X166520185Y-82434861D01*
X166521385Y-82433820D01*
X166521871Y-82432306D01*
X166547715Y-82411005D01*
X166572989Y-82389106D01*
X166574752Y-82388722D01*
X166575788Y-82387869D01*
X166582140Y-82387115D01*
X166624500Y-82377900D01*
X166761268Y-82377900D01*
X166828307Y-82397585D01*
X166830159Y-82398798D01*
X166932814Y-82467390D01*
X166932827Y-82467397D01*
X167078498Y-82527735D01*
X167078503Y-82527737D01*
X167233153Y-82558499D01*
X167233156Y-82558500D01*
X167233158Y-82558500D01*
X167390844Y-82558500D01*
X167390845Y-82558499D01*
X167545497Y-82527737D01*
X167691179Y-82467394D01*
X167822289Y-82379789D01*
X167933789Y-82268289D01*
X168021394Y-82137179D01*
X168081737Y-81991497D01*
X168112500Y-81836842D01*
X168112500Y-81679158D01*
X168112500Y-81679155D01*
X168112499Y-81679153D01*
X168111247Y-81672859D01*
X168081737Y-81524503D01*
X168063215Y-81479786D01*
X168021397Y-81378827D01*
X168021390Y-81378814D01*
X167933789Y-81247711D01*
X167933786Y-81247707D01*
X167822292Y-81136213D01*
X167822288Y-81136210D01*
X167691185Y-81048609D01*
X167691172Y-81048602D01*
X167545501Y-80988264D01*
X167545489Y-80988261D01*
X167390845Y-80957500D01*
X167390842Y-80957500D01*
X167233158Y-80957500D01*
X167233155Y-80957500D01*
X167078510Y-80988261D01*
X167078498Y-80988264D01*
X166932827Y-81048602D01*
X166932820Y-81048606D01*
X166928936Y-81051202D01*
X166910887Y-81056853D01*
X166894979Y-81067077D01*
X166864021Y-81071528D01*
X166862259Y-81072080D01*
X166860044Y-81072100D01*
X166624499Y-81072100D01*
X166557460Y-81052415D01*
X166511705Y-80999611D01*
X166500499Y-80948100D01*
X166500499Y-80802129D01*
X166500499Y-80802128D01*
X166496067Y-80760898D01*
X166496068Y-80734393D01*
X166499999Y-80697833D01*
X166500000Y-80697819D01*
X166500000Y-80152182D01*
X166499999Y-80152164D01*
X166496068Y-80115602D01*
X166496068Y-80089094D01*
X166500500Y-80047873D01*
X166500499Y-79502128D01*
X166500499Y-79502127D01*
X166500498Y-79502111D01*
X166496320Y-79463253D01*
X166496320Y-79436747D01*
X166500500Y-79397873D01*
X166500499Y-78852128D01*
X166500498Y-78852111D01*
X166496320Y-78813253D01*
X166496320Y-78786747D01*
X166500500Y-78747873D01*
X166500499Y-78202128D01*
X166494091Y-78142517D01*
X166479322Y-78102920D01*
X166443797Y-78007671D01*
X166443793Y-78007664D01*
X166357547Y-77892455D01*
X166357544Y-77892452D01*
X166242335Y-77806206D01*
X166242328Y-77806202D01*
X166107482Y-77755908D01*
X166107483Y-77755908D01*
X166047883Y-77749501D01*
X166047881Y-77749500D01*
X166047873Y-77749500D01*
X166047864Y-77749500D01*
X164502129Y-77749500D01*
X164502123Y-77749501D01*
X164442516Y-77755908D01*
X164307669Y-77806203D01*
X164306337Y-77806931D01*
X164304378Y-77807430D01*
X164299359Y-77809303D01*
X164299157Y-77808763D01*
X164246908Y-77822100D01*
X163796112Y-77822100D01*
X163766671Y-77813455D01*
X163736685Y-77806932D01*
X163731669Y-77803177D01*
X163729073Y-77802415D01*
X163708431Y-77785781D01*
X163534154Y-77611504D01*
X163500669Y-77550181D01*
X163505653Y-77480489D01*
X163547525Y-77424556D01*
X163574379Y-77409264D01*
X163627179Y-77387394D01*
X163758289Y-77299789D01*
X163869789Y-77188289D01*
X163957394Y-77057179D01*
X164017737Y-76911497D01*
X164048500Y-76756842D01*
X164048500Y-76624638D01*
X164050883Y-76600443D01*
X164052900Y-76590304D01*
X164052900Y-76041309D01*
X164072585Y-75974270D01*
X164093737Y-75950941D01*
X164093243Y-75950447D01*
X164130137Y-75913553D01*
X164220340Y-75823350D01*
X164310908Y-75676516D01*
X164310910Y-75676509D01*
X164311848Y-75674500D01*
X164312859Y-75673350D01*
X164314699Y-75670369D01*
X164315208Y-75670683D01*
X164358018Y-75622058D01*
X164424232Y-75602900D01*
X165709603Y-75602900D01*
X165776642Y-75622585D01*
X165822397Y-75675389D01*
X165828817Y-75692784D01*
X165866091Y-75823049D01*
X165960302Y-76003407D01*
X165960304Y-76003409D01*
X166088890Y-76161109D01*
X166154977Y-76214995D01*
X166246593Y-76289698D01*
X166426951Y-76383909D01*
X166426953Y-76383909D01*
X166426954Y-76383910D01*
X166446355Y-76389461D01*
X166622582Y-76439886D01*
X166741963Y-76450500D01*
X169658036Y-76450499D01*
X169777418Y-76439886D01*
X169973049Y-76383909D01*
X170153407Y-76289698D01*
X170311109Y-76161109D01*
X170439698Y-76003407D01*
X170533909Y-75823049D01*
X170589886Y-75627418D01*
X170600500Y-75508037D01*
X170600499Y-74391964D01*
X170589886Y-74272582D01*
X170533909Y-74076951D01*
X170439698Y-73896593D01*
X170387684Y-73832803D01*
X170311109Y-73738890D01*
X170153409Y-73610304D01*
X170153410Y-73610304D01*
X170153407Y-73610302D01*
X169973049Y-73516091D01*
X169973048Y-73516090D01*
X169973045Y-73516089D01*
X169855829Y-73482550D01*
X169777418Y-73460114D01*
X169777415Y-73460113D01*
X169777413Y-73460113D01*
X169704631Y-73453642D01*
X169658037Y-73449500D01*
X169658033Y-73449500D01*
X168976900Y-73449500D01*
X168909861Y-73429815D01*
X168864106Y-73377011D01*
X168852900Y-73325500D01*
X168852900Y-70191347D01*
X168872585Y-70124308D01*
X168921806Y-70080259D01*
X169049292Y-70017032D01*
X169049292Y-70017031D01*
X169049296Y-70017030D01*
X169197722Y-69897722D01*
X169253675Y-69828112D01*
X169311015Y-69788196D01*
X169380837Y-69785616D01*
X169440970Y-69821194D01*
X169446967Y-69828115D01*
X169502632Y-69897366D01*
X169502633Y-69897367D01*
X169650974Y-70016607D01*
X169650977Y-70016609D01*
X169821476Y-70101168D01*
X170006175Y-70147102D01*
X170048903Y-70150000D01*
X170250000Y-70150000D01*
X170750000Y-70150000D01*
X170951097Y-70150000D01*
X170993824Y-70147102D01*
X171178523Y-70101168D01*
X171349022Y-70016609D01*
X171349025Y-70016607D01*
X171497366Y-69897367D01*
X171497367Y-69897366D01*
X171549953Y-69831947D01*
X173450000Y-69831947D01*
X173450000Y-70068052D01*
X173486934Y-70301247D01*
X173559897Y-70525802D01*
X173667087Y-70736174D01*
X173727338Y-70819104D01*
X173727340Y-70819105D01*
X174426212Y-70120233D01*
X174437482Y-70162292D01*
X174509890Y-70287708D01*
X174612292Y-70390110D01*
X174737708Y-70462518D01*
X174779765Y-70473787D01*
X174080893Y-71172658D01*
X174163828Y-71232914D01*
X174374197Y-71340102D01*
X174598752Y-71413065D01*
X174598751Y-71413065D01*
X174831948Y-71450000D01*
X175068052Y-71450000D01*
X175301247Y-71413065D01*
X175525802Y-71340102D01*
X175736163Y-71232918D01*
X175736169Y-71232914D01*
X175819104Y-71172658D01*
X175819105Y-71172658D01*
X175120233Y-70473787D01*
X175162292Y-70462518D01*
X175287708Y-70390110D01*
X175390110Y-70287708D01*
X175462518Y-70162292D01*
X175473787Y-70120233D01*
X176172658Y-70819105D01*
X176172658Y-70819104D01*
X176232914Y-70736169D01*
X176232918Y-70736163D01*
X176340102Y-70525802D01*
X176413065Y-70301247D01*
X176450000Y-70068052D01*
X176450000Y-69831947D01*
X176413065Y-69598752D01*
X176340102Y-69374197D01*
X176232914Y-69163828D01*
X176172658Y-69080894D01*
X176172658Y-69080893D01*
X175473787Y-69779765D01*
X175462518Y-69737708D01*
X175390110Y-69612292D01*
X175287708Y-69509890D01*
X175162292Y-69437482D01*
X175120234Y-69426212D01*
X175819105Y-68727340D01*
X175819104Y-68727338D01*
X175736174Y-68667087D01*
X175525802Y-68559897D01*
X175301247Y-68486934D01*
X175301248Y-68486934D01*
X175068052Y-68450000D01*
X174831948Y-68450000D01*
X174598752Y-68486934D01*
X174374197Y-68559897D01*
X174163830Y-68667084D01*
X174080894Y-68727340D01*
X174779766Y-69426212D01*
X174737708Y-69437482D01*
X174612292Y-69509890D01*
X174509890Y-69612292D01*
X174437482Y-69737708D01*
X174426212Y-69779766D01*
X173727340Y-69080894D01*
X173667084Y-69163830D01*
X173559897Y-69374197D01*
X173486934Y-69598752D01*
X173450000Y-69831947D01*
X171549953Y-69831947D01*
X171616316Y-69749388D01*
X171616607Y-69749025D01*
X171616609Y-69749022D01*
X171701168Y-69578523D01*
X171747102Y-69393824D01*
X171750000Y-69351096D01*
X171750000Y-68900000D01*
X170750000Y-68900000D01*
X170750000Y-70150000D01*
X170250000Y-70150000D01*
X170250000Y-68400000D01*
X170750000Y-68400000D01*
X171750000Y-68400000D01*
X171750000Y-67948903D01*
X171747102Y-67906175D01*
X171701168Y-67721476D01*
X171616609Y-67550977D01*
X171616607Y-67550974D01*
X171497367Y-67402633D01*
X171497366Y-67402632D01*
X171349025Y-67283392D01*
X171349022Y-67283390D01*
X171178523Y-67198831D01*
X170993824Y-67152897D01*
X170951097Y-67150000D01*
X170750000Y-67150000D01*
X170750000Y-68400000D01*
X170250000Y-68400000D01*
X170250000Y-67150000D01*
X170048903Y-67150000D01*
X170006175Y-67152897D01*
X169821476Y-67198831D01*
X169650977Y-67283390D01*
X169650974Y-67283392D01*
X169502635Y-67402631D01*
X169446967Y-67471885D01*
X169389624Y-67511803D01*
X169319801Y-67514383D01*
X169259669Y-67478804D01*
X169253673Y-67471884D01*
X169197722Y-67402278D01*
X169197721Y-67402277D01*
X169049295Y-67282969D01*
X169049292Y-67282967D01*
X168878697Y-67198360D01*
X168693892Y-67152400D01*
X168668229Y-67150660D01*
X168651123Y-67149500D01*
X168651121Y-67149500D01*
X167894991Y-67149500D01*
X167888737Y-67147663D01*
X167882328Y-67148852D01*
X167855622Y-67137939D01*
X167827952Y-67129815D01*
X167823684Y-67124890D01*
X167817649Y-67122424D01*
X167801082Y-67098805D01*
X167782197Y-67077011D01*
X167781269Y-67070559D01*
X167777526Y-67065223D01*
X167776358Y-67036403D01*
X167772253Y-67007853D01*
X167774895Y-67000305D01*
X167774697Y-66995411D01*
X167783807Y-66974849D01*
X167788047Y-66962739D01*
X167789874Y-66959624D01*
X167853592Y-66864264D01*
X167868918Y-66827264D01*
X167902809Y-66745444D01*
X167927900Y-66619305D01*
X167927900Y-66356131D01*
X167929443Y-66350874D01*
X167928356Y-66345505D01*
X167939182Y-66317706D01*
X167947585Y-66289092D01*
X167952251Y-66284151D01*
X167953713Y-66280399D01*
X167967672Y-66267824D01*
X167979026Y-66255804D01*
X167982811Y-66253054D01*
X168035850Y-66220340D01*
X168057085Y-66199104D01*
X168064979Y-66193371D01*
X168089056Y-66184783D01*
X168111489Y-66172533D01*
X168121414Y-66173242D01*
X168130789Y-66169899D01*
X168155685Y-66175691D01*
X168181181Y-66177514D01*
X168191206Y-66183956D01*
X168198841Y-66185733D01*
X168206937Y-66194066D01*
X168225534Y-66206017D01*
X168239461Y-66219944D01*
X168239465Y-66219947D01*
X168386188Y-66310448D01*
X168386199Y-66310453D01*
X168549847Y-66364680D01*
X168650851Y-66374999D01*
X169250000Y-66374999D01*
X169349140Y-66374999D01*
X169349154Y-66374998D01*
X169450152Y-66364680D01*
X169613800Y-66310453D01*
X169613811Y-66310448D01*
X169760534Y-66219947D01*
X169760538Y-66219944D01*
X169882444Y-66098038D01*
X169882447Y-66098034D01*
X169972948Y-65951311D01*
X169972953Y-65951300D01*
X170027180Y-65787652D01*
X170037499Y-65686654D01*
X170037500Y-65686641D01*
X170037500Y-65650000D01*
X169250000Y-65650000D01*
X169250000Y-66374999D01*
X168650851Y-66374999D01*
X168750000Y-66374998D01*
X168750000Y-65150000D01*
X169250000Y-65150000D01*
X170037499Y-65150000D01*
X170037499Y-65113360D01*
X170037498Y-65113345D01*
X170027180Y-65012347D01*
X169972953Y-64848699D01*
X169972948Y-64848688D01*
X169882447Y-64701965D01*
X169882444Y-64701961D01*
X169760538Y-64580055D01*
X169760534Y-64580052D01*
X169613811Y-64489551D01*
X169613800Y-64489546D01*
X169450152Y-64435319D01*
X169349154Y-64425000D01*
X169250000Y-64425000D01*
X169250000Y-65150000D01*
X168750000Y-65150000D01*
X168750000Y-64424999D01*
X168650860Y-64425000D01*
X168650844Y-64425001D01*
X168549847Y-64435319D01*
X168386199Y-64489546D01*
X168386188Y-64489551D01*
X168239465Y-64580052D01*
X168225532Y-64593985D01*
X168164208Y-64627468D01*
X168094516Y-64622482D01*
X168050172Y-64593982D01*
X168035851Y-64579661D01*
X168035850Y-64579660D01*
X167912534Y-64503598D01*
X167889018Y-64489093D01*
X167889013Y-64489091D01*
X167847829Y-64475444D01*
X167725253Y-64434826D01*
X167725251Y-64434825D01*
X167624178Y-64424500D01*
X166925830Y-64424500D01*
X166925812Y-64424501D01*
X166824747Y-64434825D01*
X166660984Y-64489092D01*
X166660981Y-64489093D01*
X166514148Y-64579661D01*
X166392161Y-64701648D01*
X166385410Y-64712593D01*
X166315928Y-64825243D01*
X166315341Y-64826194D01*
X166278693Y-64864199D01*
X166235800Y-64892859D01*
X166235796Y-64892862D01*
X165788863Y-65339794D01*
X165788857Y-65339801D01*
X165730255Y-65427506D01*
X165730256Y-65427507D01*
X165717406Y-65446739D01*
X165698895Y-65491428D01*
X165655053Y-65545830D01*
X165588759Y-65567894D01*
X165538243Y-65555000D01*
X164820000Y-65555000D01*
X164820000Y-65055000D01*
X165520000Y-65055000D01*
X165520000Y-64656508D01*
X165519999Y-64656504D01*
X165481572Y-64463318D01*
X165481569Y-64463306D01*
X165406192Y-64281328D01*
X165406185Y-64281315D01*
X165296751Y-64117537D01*
X165296748Y-64117533D01*
X165157466Y-63978251D01*
X165157462Y-63978248D01*
X164993684Y-63868814D01*
X164993671Y-63868807D01*
X164833978Y-63802661D01*
X164779574Y-63758820D01*
X164757509Y-63692526D01*
X164774788Y-63624827D01*
X164825925Y-63577216D01*
X164881430Y-63564100D01*
X167391266Y-63564100D01*
X167391268Y-63564100D01*
X167544402Y-63523067D01*
X167681698Y-63443800D01*
X167793800Y-63331698D01*
X168301800Y-62823698D01*
X168381067Y-62686402D01*
X168422100Y-62533268D01*
X168422100Y-62374732D01*
X168422100Y-62041914D01*
X168441785Y-61974875D01*
X168481004Y-61936375D01*
X168518350Y-61913340D01*
X168640340Y-61791350D01*
X168730908Y-61644516D01*
X168785174Y-61480753D01*
X168795500Y-61379677D01*
X168795499Y-60781324D01*
X168790886Y-60736169D01*
X168785174Y-60680247D01*
X168778273Y-60659422D01*
X168730908Y-60516484D01*
X168640340Y-60369650D01*
X168526017Y-60255327D01*
X168492532Y-60194004D01*
X168497516Y-60124312D01*
X168526017Y-60079964D01*
X168639948Y-59966033D01*
X168722654Y-59831947D01*
X173450000Y-59831947D01*
X173450000Y-60068052D01*
X173486934Y-60301247D01*
X173559897Y-60525802D01*
X173667087Y-60736174D01*
X173727338Y-60819104D01*
X173727340Y-60819105D01*
X174426212Y-60120233D01*
X174437482Y-60162292D01*
X174509890Y-60287708D01*
X174612292Y-60390110D01*
X174737708Y-60462518D01*
X174779765Y-60473787D01*
X174080893Y-61172658D01*
X174163828Y-61232914D01*
X174374197Y-61340102D01*
X174598752Y-61413065D01*
X174598751Y-61413065D01*
X174831948Y-61450000D01*
X175068052Y-61450000D01*
X175301247Y-61413065D01*
X175525802Y-61340102D01*
X175736163Y-61232918D01*
X175736169Y-61232914D01*
X175819104Y-61172658D01*
X175819105Y-61172658D01*
X175120233Y-60473787D01*
X175162292Y-60462518D01*
X175287708Y-60390110D01*
X175390110Y-60287708D01*
X175462518Y-60162292D01*
X175473787Y-60120233D01*
X176172658Y-60819105D01*
X176172658Y-60819104D01*
X176232914Y-60736169D01*
X176232918Y-60736163D01*
X176340102Y-60525802D01*
X176413065Y-60301247D01*
X176450000Y-60068052D01*
X176450000Y-59831947D01*
X179950000Y-59831947D01*
X179950000Y-60068052D01*
X179986934Y-60301247D01*
X180059897Y-60525802D01*
X180167087Y-60736174D01*
X180227338Y-60819104D01*
X180227340Y-60819105D01*
X180926212Y-60120233D01*
X180937482Y-60162292D01*
X181009890Y-60287708D01*
X181112292Y-60390110D01*
X181237708Y-60462518D01*
X181279765Y-60473787D01*
X180580893Y-61172658D01*
X180663828Y-61232914D01*
X180874197Y-61340102D01*
X181098752Y-61413065D01*
X181098751Y-61413065D01*
X181331948Y-61450000D01*
X181568052Y-61450000D01*
X181801247Y-61413065D01*
X182025802Y-61340102D01*
X182236163Y-61232918D01*
X182236169Y-61232914D01*
X182319104Y-61172658D01*
X182319105Y-61172658D01*
X181620233Y-60473787D01*
X181662292Y-60462518D01*
X181787708Y-60390110D01*
X181890110Y-60287708D01*
X181962518Y-60162292D01*
X181973787Y-60120234D01*
X182672658Y-60819105D01*
X182672658Y-60819104D01*
X182732914Y-60736169D01*
X182732918Y-60736163D01*
X182840102Y-60525802D01*
X182913065Y-60301247D01*
X182950000Y-60068052D01*
X182950000Y-59831947D01*
X182913065Y-59598752D01*
X182840102Y-59374197D01*
X182732914Y-59163828D01*
X182672658Y-59080894D01*
X182672658Y-59080893D01*
X181973787Y-59779765D01*
X181962518Y-59737708D01*
X181890110Y-59612292D01*
X181787708Y-59509890D01*
X181662292Y-59437482D01*
X181620234Y-59426212D01*
X182319105Y-58727340D01*
X182319104Y-58727338D01*
X182236174Y-58667087D01*
X182025802Y-58559897D01*
X181801247Y-58486934D01*
X181801248Y-58486934D01*
X181568052Y-58450000D01*
X181331948Y-58450000D01*
X181098752Y-58486934D01*
X180874197Y-58559897D01*
X180663830Y-58667084D01*
X180580894Y-58727340D01*
X181279766Y-59426212D01*
X181237708Y-59437482D01*
X181112292Y-59509890D01*
X181009890Y-59612292D01*
X180937482Y-59737708D01*
X180926212Y-59779766D01*
X180227340Y-59080894D01*
X180167084Y-59163830D01*
X180059897Y-59374197D01*
X179986934Y-59598752D01*
X179950000Y-59831947D01*
X176450000Y-59831947D01*
X176413065Y-59598752D01*
X176340102Y-59374197D01*
X176232914Y-59163828D01*
X176172658Y-59080894D01*
X176172658Y-59080893D01*
X175473787Y-59779765D01*
X175462518Y-59737708D01*
X175390110Y-59612292D01*
X175287708Y-59509890D01*
X175162292Y-59437482D01*
X175120234Y-59426212D01*
X175819105Y-58727340D01*
X175819104Y-58727339D01*
X175736174Y-58667087D01*
X175525802Y-58559897D01*
X175301247Y-58486934D01*
X175301248Y-58486934D01*
X175068052Y-58450000D01*
X174831948Y-58450000D01*
X174598752Y-58486934D01*
X174374197Y-58559897D01*
X174163830Y-58667084D01*
X174080894Y-58727340D01*
X174779766Y-59426212D01*
X174737708Y-59437482D01*
X174612292Y-59509890D01*
X174509890Y-59612292D01*
X174437482Y-59737708D01*
X174426212Y-59779766D01*
X173727340Y-59080894D01*
X173667084Y-59163830D01*
X173559897Y-59374197D01*
X173486934Y-59598752D01*
X173450000Y-59831947D01*
X168722654Y-59831947D01*
X168730448Y-59819311D01*
X168730452Y-59819302D01*
X168740802Y-59788070D01*
X168740802Y-59788069D01*
X168784680Y-59655652D01*
X168794999Y-59554654D01*
X168795000Y-59554641D01*
X168795000Y-59505500D01*
X166845001Y-59505500D01*
X166845001Y-59554654D01*
X166855319Y-59655652D01*
X166909546Y-59819300D01*
X166909551Y-59819311D01*
X167000052Y-59966034D01*
X167000055Y-59966038D01*
X167113982Y-60079965D01*
X167147467Y-60141288D01*
X167142483Y-60210980D01*
X167113983Y-60255327D01*
X166999659Y-60369651D01*
X166909093Y-60516481D01*
X166909092Y-60516484D01*
X166854826Y-60680247D01*
X166854826Y-60680248D01*
X166854825Y-60680248D01*
X166844500Y-60781315D01*
X166844500Y-61379669D01*
X166844501Y-61379687D01*
X166854825Y-61480752D01*
X166882576Y-61564496D01*
X166907859Y-61640796D01*
X166909092Y-61644515D01*
X166909093Y-61644518D01*
X166999661Y-61791351D01*
X167121650Y-61913340D01*
X167158996Y-61936375D01*
X167165819Y-61943961D01*
X167175103Y-61948201D01*
X167188791Y-61969501D01*
X167205721Y-61988323D01*
X167208365Y-61999958D01*
X167212877Y-62006979D01*
X167217900Y-62041914D01*
X167217900Y-62153240D01*
X167198215Y-62220279D01*
X167181581Y-62240921D01*
X167098921Y-62323581D01*
X167037598Y-62357066D01*
X167011240Y-62359900D01*
X165396816Y-62359900D01*
X165329777Y-62340215D01*
X165284022Y-62287411D01*
X165274078Y-62218253D01*
X165293714Y-62167009D01*
X165406185Y-61998684D01*
X165406192Y-61998671D01*
X165481569Y-61816693D01*
X165481572Y-61816681D01*
X165519999Y-61623495D01*
X165520000Y-61623492D01*
X165520000Y-61375000D01*
X164820000Y-61375000D01*
X164820000Y-60875000D01*
X165520000Y-60875000D01*
X165520000Y-60626508D01*
X165519999Y-60626504D01*
X165481572Y-60433318D01*
X165481569Y-60433306D01*
X165406192Y-60251328D01*
X165406185Y-60251315D01*
X165296751Y-60087537D01*
X165296748Y-60087533D01*
X165157466Y-59948251D01*
X165157462Y-59948248D01*
X164993684Y-59838814D01*
X164993671Y-59838807D01*
X164811691Y-59763429D01*
X164811683Y-59763427D01*
X164770000Y-59755135D01*
X164770000Y-60558011D01*
X164760060Y-60540795D01*
X164704205Y-60484940D01*
X164635796Y-60445444D01*
X164559496Y-60425000D01*
X164480504Y-60425000D01*
X164404204Y-60445444D01*
X164335795Y-60484940D01*
X164279940Y-60540795D01*
X164270000Y-60558011D01*
X164270000Y-59755136D01*
X164269999Y-59755135D01*
X164228316Y-59763427D01*
X164228308Y-59763429D01*
X164046328Y-59838807D01*
X164046315Y-59838814D01*
X163882537Y-59948248D01*
X163882533Y-59948251D01*
X163743251Y-60087533D01*
X163743248Y-60087537D01*
X163633814Y-60251315D01*
X163633807Y-60251328D01*
X163558430Y-60433306D01*
X163558427Y-60433318D01*
X163520000Y-60626504D01*
X163520000Y-60875000D01*
X164220000Y-60875000D01*
X164220000Y-61375000D01*
X163520000Y-61375000D01*
X163520000Y-61623495D01*
X163558427Y-61816681D01*
X163558430Y-61816693D01*
X163633807Y-61998671D01*
X163633814Y-61998684D01*
X163746286Y-62167009D01*
X163767164Y-62233686D01*
X163748680Y-62301067D01*
X163696701Y-62347757D01*
X163643184Y-62359900D01*
X162152732Y-62359900D01*
X162050642Y-62387255D01*
X161999597Y-62400933D01*
X161862303Y-62480199D01*
X161862300Y-62480201D01*
X160968201Y-63374300D01*
X160968199Y-63374303D01*
X160888933Y-63511597D01*
X160888933Y-63511598D01*
X160848213Y-63663566D01*
X160847900Y-63664733D01*
X160847900Y-63759900D01*
X160828215Y-63826939D01*
X160775411Y-63872694D01*
X160723900Y-63883900D01*
X160279268Y-63883900D01*
X160120732Y-63883900D01*
X160018642Y-63911255D01*
X159967597Y-63924933D01*
X159830303Y-64004199D01*
X159830300Y-64004201D01*
X159468201Y-64366300D01*
X159468199Y-64366303D01*
X159388933Y-64503597D01*
X159371650Y-64568097D01*
X159355742Y-64627468D01*
X159347900Y-64656733D01*
X159347900Y-64694357D01*
X159347736Y-64694914D01*
X159347895Y-64695473D01*
X159337893Y-64728434D01*
X159328215Y-64761396D01*
X159327777Y-64761775D01*
X159327608Y-64762333D01*
X159301358Y-64784667D01*
X159275411Y-64807151D01*
X159274688Y-64807359D01*
X159274394Y-64807610D01*
X159248743Y-64814851D01*
X159240442Y-64817248D01*
X159224764Y-64819313D01*
X159224598Y-64819381D01*
X159216542Y-64820466D01*
X159196494Y-64817399D01*
X159183684Y-64817399D01*
X159183292Y-64820374D01*
X159175237Y-64819313D01*
X159175236Y-64819313D01*
X159159913Y-64817295D01*
X159096017Y-64789029D01*
X159057547Y-64730704D01*
X159052100Y-64694357D01*
X159052100Y-63672734D01*
X159052100Y-63672732D01*
X159011997Y-63523067D01*
X159011068Y-63519599D01*
X159011067Y-63519597D01*
X159011067Y-63519596D01*
X158931804Y-63382308D01*
X158931798Y-63382300D01*
X158029699Y-62480201D01*
X158029698Y-62480200D01*
X157892402Y-62400933D01*
X157892403Y-62400933D01*
X157841357Y-62387255D01*
X157739268Y-62359900D01*
X157739266Y-62359900D01*
X156756816Y-62359900D01*
X156689777Y-62340215D01*
X156644022Y-62287411D01*
X156634078Y-62218253D01*
X156653714Y-62167009D01*
X156766185Y-61998684D01*
X156766192Y-61998671D01*
X156841569Y-61816693D01*
X156841572Y-61816681D01*
X156879999Y-61623495D01*
X156880000Y-61623492D01*
X156880000Y-61375000D01*
X156180000Y-61375000D01*
X156180000Y-60875000D01*
X156880000Y-60875000D01*
X156880000Y-60626508D01*
X156879999Y-60626504D01*
X156841572Y-60433318D01*
X156841569Y-60433306D01*
X156766192Y-60251328D01*
X156766185Y-60251315D01*
X156656751Y-60087537D01*
X156656748Y-60087533D01*
X156517466Y-59948251D01*
X156517462Y-59948248D01*
X156353684Y-59838814D01*
X156353671Y-59838807D01*
X156171691Y-59763429D01*
X156171683Y-59763427D01*
X156130000Y-59755135D01*
X156130000Y-60558011D01*
X156120060Y-60540795D01*
X156064205Y-60484940D01*
X155995796Y-60445444D01*
X155919496Y-60425000D01*
X155840504Y-60425000D01*
X155764204Y-60445444D01*
X155695795Y-60484940D01*
X155639940Y-60540795D01*
X155630000Y-60558011D01*
X155630000Y-59755136D01*
X155629999Y-59755135D01*
X155588316Y-59763427D01*
X155588308Y-59763429D01*
X155406328Y-59838807D01*
X155406315Y-59838814D01*
X155242537Y-59948248D01*
X155242533Y-59948251D01*
X155103251Y-60087533D01*
X155103248Y-60087537D01*
X154993814Y-60251315D01*
X154993807Y-60251328D01*
X154918430Y-60433306D01*
X154918427Y-60433318D01*
X154880000Y-60626504D01*
X154880000Y-60875000D01*
X155580000Y-60875000D01*
X155580000Y-61375000D01*
X154880000Y-61375000D01*
X154880000Y-61623495D01*
X154918427Y-61816681D01*
X154918430Y-61816693D01*
X154993807Y-61998671D01*
X154993814Y-61998684D01*
X155106286Y-62167009D01*
X155127164Y-62233686D01*
X155108680Y-62301067D01*
X155056701Y-62347757D01*
X155003184Y-62359900D01*
X153769760Y-62359900D01*
X153702721Y-62340215D01*
X153682079Y-62323581D01*
X153362775Y-62004277D01*
X153329290Y-61942954D01*
X153334274Y-61873262D01*
X153362775Y-61828915D01*
X153375009Y-61816681D01*
X153400340Y-61791350D01*
X153490908Y-61644516D01*
X153545174Y-61480753D01*
X153555500Y-61379677D01*
X153555499Y-60781324D01*
X153550886Y-60736169D01*
X153545174Y-60680247D01*
X153538273Y-60659422D01*
X153490908Y-60516484D01*
X153400340Y-60369650D01*
X153286017Y-60255327D01*
X153252532Y-60194004D01*
X153257516Y-60124312D01*
X153286017Y-60079964D01*
X153399948Y-59966033D01*
X153490448Y-59819311D01*
X153490453Y-59819300D01*
X153544680Y-59655652D01*
X153554999Y-59554654D01*
X153555000Y-59554641D01*
X153555000Y-59505500D01*
X151605001Y-59505500D01*
X151605001Y-59554654D01*
X151615319Y-59655652D01*
X151669546Y-59819300D01*
X151669551Y-59819311D01*
X151760052Y-59966034D01*
X151760055Y-59966038D01*
X151873982Y-60079965D01*
X151907467Y-60141288D01*
X151902483Y-60210980D01*
X151873983Y-60255327D01*
X151759659Y-60369651D01*
X151669093Y-60516481D01*
X151669092Y-60516484D01*
X151614826Y-60680247D01*
X151614826Y-60680248D01*
X151614825Y-60680248D01*
X151604500Y-60781315D01*
X151604500Y-61379669D01*
X151604501Y-61379687D01*
X151614825Y-61480752D01*
X151642576Y-61564496D01*
X151667859Y-61640796D01*
X151669092Y-61644515D01*
X151669093Y-61644518D01*
X151759661Y-61791351D01*
X151881650Y-61913340D01*
X151918996Y-61936375D01*
X151965721Y-61988323D01*
X151977900Y-62041914D01*
X151977900Y-62152268D01*
X152018933Y-62305402D01*
X152074087Y-62400933D01*
X152098200Y-62442698D01*
X152987200Y-63331698D01*
X153099302Y-63443800D01*
X153236598Y-63523067D01*
X153389732Y-63564100D01*
X153548268Y-63564100D01*
X155518570Y-63564100D01*
X155585609Y-63583785D01*
X155631364Y-63636589D01*
X155641308Y-63705747D01*
X155612283Y-63769303D01*
X155566022Y-63802661D01*
X155406328Y-63868807D01*
X155406315Y-63868814D01*
X155242537Y-63978248D01*
X155242533Y-63978251D01*
X155103251Y-64117533D01*
X155103248Y-64117537D01*
X154993814Y-64281315D01*
X154993807Y-64281328D01*
X154918430Y-64463306D01*
X154918427Y-64463318D01*
X154880000Y-64656504D01*
X154880000Y-65055000D01*
X155580000Y-65055000D01*
X155580000Y-65555000D01*
X154880000Y-65555000D01*
X154880000Y-65953495D01*
X154918427Y-66146681D01*
X154918430Y-66146693D01*
X154941193Y-66201648D01*
X154948662Y-66271118D01*
X154917386Y-66333597D01*
X154857297Y-66369248D01*
X154826632Y-66373100D01*
X154031745Y-66373100D01*
X153964706Y-66353415D01*
X153918951Y-66300611D01*
X153909007Y-66231453D01*
X153938032Y-66167897D01*
X153944064Y-66161419D01*
X154007444Y-66098038D01*
X154007447Y-66098034D01*
X154097948Y-65951311D01*
X154097953Y-65951300D01*
X154152180Y-65787652D01*
X154162499Y-65686654D01*
X154162500Y-65686641D01*
X154162500Y-65650000D01*
X153249000Y-65650000D01*
X153181961Y-65630315D01*
X153136206Y-65577511D01*
X153125000Y-65526000D01*
X153125000Y-65400000D01*
X152999000Y-65400000D01*
X152931961Y-65380315D01*
X152886206Y-65327511D01*
X152875000Y-65276000D01*
X152875000Y-65150000D01*
X153375000Y-65150000D01*
X154162499Y-65150000D01*
X154162499Y-65113360D01*
X154162498Y-65113345D01*
X154152180Y-65012347D01*
X154097953Y-64848699D01*
X154097948Y-64848688D01*
X154007447Y-64701965D01*
X154007444Y-64701961D01*
X153885538Y-64580055D01*
X153885534Y-64580052D01*
X153738811Y-64489551D01*
X153738800Y-64489546D01*
X153575152Y-64435319D01*
X153474154Y-64425000D01*
X153375000Y-64425000D01*
X153375000Y-65150000D01*
X152875000Y-65150000D01*
X152875000Y-64424999D01*
X152775860Y-64425000D01*
X152775844Y-64425001D01*
X152674847Y-64435319D01*
X152511199Y-64489546D01*
X152511188Y-64489551D01*
X152364465Y-64580052D01*
X152350532Y-64593985D01*
X152289208Y-64627468D01*
X152219516Y-64622482D01*
X152175172Y-64593982D01*
X152160851Y-64579661D01*
X152160850Y-64579660D01*
X152037534Y-64503598D01*
X152014018Y-64489093D01*
X152014013Y-64489091D01*
X151972829Y-64475444D01*
X151850253Y-64434826D01*
X151850251Y-64434825D01*
X151749178Y-64424500D01*
X151050830Y-64424500D01*
X151050812Y-64424501D01*
X150949747Y-64434825D01*
X150785984Y-64489092D01*
X150785981Y-64489093D01*
X150639151Y-64579659D01*
X150517161Y-64701648D01*
X150499531Y-64730230D01*
X150447581Y-64776953D01*
X150441448Y-64779691D01*
X150340736Y-64821407D01*
X150233797Y-64892861D01*
X150233796Y-64892862D01*
X149392863Y-65733794D01*
X149392857Y-65733801D01*
X149330458Y-65827188D01*
X149330459Y-65827189D01*
X149321408Y-65840734D01*
X149272192Y-65959554D01*
X149272189Y-65959561D01*
X149247100Y-66085692D01*
X149247100Y-67108652D01*
X149227415Y-67175691D01*
X149178195Y-67219740D01*
X149050704Y-67282969D01*
X148902278Y-67402277D01*
X148902277Y-67402278D01*
X148782969Y-67550704D01*
X148782967Y-67550707D01*
X148698360Y-67721302D01*
X148652400Y-67906107D01*
X148649500Y-67948879D01*
X148649500Y-69351122D01*
X148649501Y-69351125D01*
X148652399Y-69393886D01*
X148652399Y-69393887D01*
X148698360Y-69578696D01*
X148782967Y-69749292D01*
X148782969Y-69749295D01*
X148902277Y-69897721D01*
X148902278Y-69897722D01*
X149050704Y-70017030D01*
X149050707Y-70017032D01*
X149221302Y-70101639D01*
X149221303Y-70101639D01*
X149221307Y-70101641D01*
X149406111Y-70147600D01*
X149448877Y-70150500D01*
X150351122Y-70150499D01*
X150393889Y-70147600D01*
X150578693Y-70101641D01*
X150749296Y-70017030D01*
X150897722Y-69897722D01*
X150953353Y-69828514D01*
X151010696Y-69788595D01*
X151080518Y-69786015D01*
X151140651Y-69821594D01*
X151146647Y-69828514D01*
X151202277Y-69897721D01*
X151202278Y-69897722D01*
X151350704Y-70017030D01*
X151350707Y-70017032D01*
X151478194Y-70080259D01*
X151529507Y-70127680D01*
X151547100Y-70191347D01*
X151547100Y-73325500D01*
X151527415Y-73392539D01*
X151474611Y-73438294D01*
X151423100Y-73449500D01*
X150741971Y-73449500D01*
X150741965Y-73449500D01*
X150741964Y-73449501D01*
X150730316Y-73450536D01*
X150622584Y-73460113D01*
X150426954Y-73516089D01*
X150336772Y-73563196D01*
X150246593Y-73610302D01*
X150246591Y-73610303D01*
X150246590Y-73610304D01*
X150088890Y-73738890D01*
X149960304Y-73896590D01*
X149960302Y-73896593D01*
X149931720Y-73951311D01*
X149866089Y-74076954D01*
X149810114Y-74272583D01*
X149810113Y-74272586D01*
X149799500Y-74391966D01*
X149799500Y-75508028D01*
X149799501Y-75508034D01*
X149810113Y-75627415D01*
X149866089Y-75823045D01*
X149866090Y-75823046D01*
X149866091Y-75823049D01*
X149960302Y-76003407D01*
X149960304Y-76003409D01*
X150088890Y-76161109D01*
X150154977Y-76214995D01*
X150246593Y-76289698D01*
X150264769Y-76299192D01*
X150315075Y-76347678D01*
X150331182Y-76415666D01*
X150307975Y-76481569D01*
X150252823Y-76524464D01*
X150207356Y-76533100D01*
X149975693Y-76533100D01*
X149849561Y-76558189D01*
X149849555Y-76558191D01*
X149730737Y-76607407D01*
X149623797Y-76678861D01*
X149623796Y-76678862D01*
X149152863Y-77149794D01*
X149152862Y-77149795D01*
X149086205Y-77249557D01*
X149086204Y-77249559D01*
X149081406Y-77256738D01*
X149032191Y-77375555D01*
X149032189Y-77375561D01*
X149007100Y-77501692D01*
X149007100Y-79341868D01*
X148987415Y-79408907D01*
X148955985Y-79442186D01*
X148780214Y-79569890D01*
X148780209Y-79569894D01*
X148629890Y-79720213D01*
X148504951Y-79892179D01*
X148408444Y-80081585D01*
X148342753Y-80283760D01*
X148309500Y-80493713D01*
X148309500Y-80706286D01*
X148342561Y-80915029D01*
X148342754Y-80916243D01*
X148406604Y-81112753D01*
X148408444Y-81118414D01*
X148504951Y-81307820D01*
X148629890Y-81479786D01*
X148780213Y-81630109D01*
X148952179Y-81755048D01*
X148952181Y-81755049D01*
X148952184Y-81755051D01*
X149141588Y-81851557D01*
X149343757Y-81917246D01*
X149553713Y-81950500D01*
X149553714Y-81950500D01*
X149766286Y-81950500D01*
X149766287Y-81950500D01*
X149976243Y-81917246D01*
X149976243Y-81917245D01*
X149980883Y-81916511D01*
X150050176Y-81925466D01*
X150087962Y-81951303D01*
X151230381Y-83093721D01*
X151245084Y-83120648D01*
X151261677Y-83146467D01*
X151262568Y-83152667D01*
X151263866Y-83155044D01*
X151266700Y-83181402D01*
X151266700Y-83280817D01*
X151247015Y-83347856D01*
X151194211Y-83393611D01*
X151125053Y-83403555D01*
X151095248Y-83395378D01*
X150970948Y-83343892D01*
X150970938Y-83343889D01*
X150844807Y-83318800D01*
X150844805Y-83318800D01*
X150756457Y-83318800D01*
X150693336Y-83301532D01*
X150647228Y-83274264D01*
X150555398Y-83219956D01*
X150555397Y-83219955D01*
X150555396Y-83219955D01*
X150555393Y-83219954D01*
X150397573Y-83174102D01*
X150397567Y-83174101D01*
X150360701Y-83171200D01*
X150360694Y-83171200D01*
X149465174Y-83171200D01*
X149398135Y-83151515D01*
X149352380Y-83098711D01*
X149342436Y-83029553D01*
X149343557Y-83023009D01*
X149362923Y-82925647D01*
X149367300Y-82903642D01*
X149367300Y-82745958D01*
X149367300Y-82745955D01*
X149367299Y-82745953D01*
X149365876Y-82738797D01*
X149336537Y-82591303D01*
X149310208Y-82527738D01*
X149276197Y-82445627D01*
X149276190Y-82445614D01*
X149188589Y-82314511D01*
X149188586Y-82314507D01*
X149077092Y-82203013D01*
X149077088Y-82203010D01*
X148945985Y-82115409D01*
X148945972Y-82115402D01*
X148800301Y-82055064D01*
X148800289Y-82055061D01*
X148645645Y-82024300D01*
X148645642Y-82024300D01*
X148487958Y-82024300D01*
X148487955Y-82024300D01*
X148333310Y-82055061D01*
X148333298Y-82055064D01*
X148187627Y-82115402D01*
X148187614Y-82115409D01*
X148126538Y-82156220D01*
X148081839Y-82174735D01*
X147969961Y-82196989D01*
X147969955Y-82196991D01*
X147851137Y-82246207D01*
X147744197Y-82317661D01*
X147744196Y-82317662D01*
X147297663Y-82764194D01*
X147297662Y-82764195D01*
X147226207Y-82871137D01*
X147176991Y-82989955D01*
X147176989Y-82989961D01*
X147151900Y-83116092D01*
X147151900Y-84028249D01*
X147132215Y-84095288D01*
X147079411Y-84141043D01*
X147062495Y-84147325D01*
X146984606Y-84169953D01*
X146984603Y-84169955D01*
X146843137Y-84253617D01*
X146843129Y-84253623D01*
X146726923Y-84369829D01*
X146726917Y-84369837D01*
X146643255Y-84511303D01*
X146643254Y-84511306D01*
X146597402Y-84669126D01*
X146597401Y-84669132D01*
X146594500Y-84705998D01*
X146594500Y-85137402D01*
X146595977Y-85156164D01*
X146590523Y-85182124D01*
X146588774Y-85208595D01*
X146583451Y-85215785D01*
X146581612Y-85224542D01*
X146562986Y-85243434D01*
X146547206Y-85264755D01*
X146537090Y-85269702D01*
X146532560Y-85274298D01*
X146516321Y-85281837D01*
X146510481Y-85284051D01*
X146405715Y-85312123D01*
X146355595Y-85341060D01*
X146346929Y-85346062D01*
X146346924Y-85346065D01*
X146268786Y-85391178D01*
X146164537Y-85495427D01*
X146103214Y-85528911D01*
X146101048Y-85529362D01*
X145945708Y-85560261D01*
X145945698Y-85560264D01*
X145800027Y-85620602D01*
X145800014Y-85620609D01*
X145668911Y-85708210D01*
X145664201Y-85712076D01*
X145662626Y-85710157D01*
X145610858Y-85738425D01*
X145541166Y-85733441D01*
X145485233Y-85691569D01*
X145460816Y-85626105D01*
X145460500Y-85617259D01*
X145460500Y-58956345D01*
X151605000Y-58956345D01*
X151605000Y-59005500D01*
X152330000Y-59005500D01*
X152830000Y-59005500D01*
X153554999Y-59005500D01*
X153554999Y-58956361D01*
X153554998Y-58956345D01*
X166845000Y-58956345D01*
X166845000Y-59005500D01*
X167570000Y-59005500D01*
X168070000Y-59005500D01*
X168794999Y-59005500D01*
X168794999Y-58956360D01*
X168794998Y-58956345D01*
X168784680Y-58855347D01*
X168770848Y-58813603D01*
X168730453Y-58691699D01*
X168730448Y-58691688D01*
X168639947Y-58544965D01*
X168639944Y-58544961D01*
X168518038Y-58423055D01*
X168518034Y-58423052D01*
X168371311Y-58332551D01*
X168371300Y-58332546D01*
X168207652Y-58278319D01*
X168106654Y-58268000D01*
X168070000Y-58268000D01*
X168070000Y-59005500D01*
X167570000Y-59005500D01*
X167570000Y-58268000D01*
X167533361Y-58268000D01*
X167533343Y-58268001D01*
X167432347Y-58278319D01*
X167268699Y-58332546D01*
X167268688Y-58332551D01*
X167121965Y-58423052D01*
X167121961Y-58423055D01*
X167000055Y-58544961D01*
X167000052Y-58544965D01*
X166909551Y-58691688D01*
X166909546Y-58691699D01*
X166855319Y-58855347D01*
X166845000Y-58956345D01*
X153554998Y-58956345D01*
X153554998Y-58956344D01*
X153544680Y-58855347D01*
X153490453Y-58691699D01*
X153490448Y-58691688D01*
X153399947Y-58544965D01*
X153399944Y-58544961D01*
X153278038Y-58423055D01*
X153278034Y-58423052D01*
X153131311Y-58332551D01*
X153131300Y-58332546D01*
X152967652Y-58278319D01*
X152866654Y-58268000D01*
X152830000Y-58268000D01*
X152830000Y-59005500D01*
X152330000Y-59005500D01*
X152330000Y-58268000D01*
X152293361Y-58268000D01*
X152293343Y-58268001D01*
X152192347Y-58278319D01*
X152028699Y-58332546D01*
X152028688Y-58332551D01*
X151881965Y-58423052D01*
X151881961Y-58423055D01*
X151760055Y-58544961D01*
X151760052Y-58544965D01*
X151669551Y-58691688D01*
X151669546Y-58691699D01*
X151615319Y-58855347D01*
X151605000Y-58956345D01*
X145460500Y-58956345D01*
X145460500Y-57744500D01*
X145480185Y-57677461D01*
X145532989Y-57631706D01*
X145584500Y-57620500D01*
X184975500Y-57620500D01*
X185042539Y-57640185D01*
G37*
%TD.AperFunction*%
%TA.AperFunction,Conductor*%
G36*
X160254711Y-105722458D02*
G01*
X160306187Y-105769702D01*
X160317931Y-105795419D01*
X160338915Y-105860004D01*
X160338918Y-105860009D01*
X160426135Y-106031181D01*
X160539055Y-106186602D01*
X160539057Y-106186604D01*
X160674901Y-106322448D01*
X160765984Y-106388622D01*
X160808651Y-106443952D01*
X160817100Y-106488941D01*
X160817100Y-110904690D01*
X160797415Y-110971729D01*
X160776263Y-110995059D01*
X160776757Y-110995553D01*
X160649661Y-111122648D01*
X160559093Y-111269481D01*
X160559091Y-111269486D01*
X160535746Y-111339936D01*
X160504826Y-111433247D01*
X160504826Y-111433248D01*
X160504825Y-111433248D01*
X160494500Y-111534315D01*
X160494500Y-112132669D01*
X160494501Y-112132687D01*
X160504825Y-112233752D01*
X160541109Y-112343249D01*
X160559092Y-112397516D01*
X160634878Y-112520385D01*
X160649661Y-112544351D01*
X160763982Y-112658672D01*
X160797467Y-112719995D01*
X160792483Y-112789687D01*
X160763983Y-112834034D01*
X160650052Y-112947965D01*
X160559551Y-113094688D01*
X160559546Y-113094699D01*
X160505319Y-113258347D01*
X160495000Y-113359345D01*
X160495000Y-113408500D01*
X161346000Y-113408500D01*
X161413039Y-113428185D01*
X161458794Y-113480989D01*
X161470000Y-113532500D01*
X161470000Y-113658500D01*
X161596000Y-113658500D01*
X161663039Y-113678185D01*
X161708794Y-113730989D01*
X161720000Y-113782500D01*
X161720000Y-114645999D01*
X161756640Y-114645999D01*
X161756654Y-114645998D01*
X161857652Y-114635680D01*
X162021300Y-114581453D01*
X162021311Y-114581448D01*
X162168034Y-114490947D01*
X162168038Y-114490944D01*
X162289944Y-114369038D01*
X162289947Y-114369034D01*
X162380448Y-114222311D01*
X162380453Y-114222300D01*
X162434681Y-114058651D01*
X162445171Y-113955970D01*
X162471567Y-113891278D01*
X162528748Y-113851127D01*
X162598559Y-113848263D01*
X162656213Y-113880894D01*
X162720027Y-113944713D01*
X162720030Y-113944715D01*
X162866297Y-114042446D01*
X163028823Y-114109758D01*
X163201359Y-114144061D01*
X163263087Y-114144054D01*
X163330127Y-114163731D01*
X163375888Y-114216529D01*
X163387100Y-114268054D01*
X163387100Y-117541868D01*
X163367415Y-117608907D01*
X163335985Y-117642186D01*
X163160214Y-117769890D01*
X163160209Y-117769894D01*
X163009890Y-117920213D01*
X162884949Y-118092182D01*
X162880202Y-118101499D01*
X162832227Y-118152293D01*
X162764405Y-118169087D01*
X162698271Y-118146548D01*
X162659234Y-118101495D01*
X162654626Y-118092452D01*
X162615270Y-118038282D01*
X162615269Y-118038282D01*
X161982962Y-118670590D01*
X161965925Y-118607007D01*
X161900099Y-118492993D01*
X161807007Y-118399901D01*
X161692993Y-118334075D01*
X161629409Y-118317037D01*
X162261716Y-117684728D01*
X162207550Y-117645375D01*
X162018217Y-117548904D01*
X161816129Y-117483242D01*
X161606246Y-117450000D01*
X161393754Y-117450000D01*
X161183872Y-117483242D01*
X161183869Y-117483242D01*
X160981782Y-117548904D01*
X160792439Y-117645380D01*
X160738282Y-117684727D01*
X160738282Y-117684728D01*
X161370591Y-118317037D01*
X161307007Y-118334075D01*
X161192993Y-118399901D01*
X161099901Y-118492993D01*
X161034075Y-118607007D01*
X161017037Y-118670591D01*
X160384728Y-118038282D01*
X160384727Y-118038282D01*
X160345380Y-118092440D01*
X160345376Y-118092446D01*
X160340760Y-118101505D01*
X160292781Y-118152297D01*
X160224959Y-118169087D01*
X160158826Y-118146543D01*
X160119794Y-118101493D01*
X160115051Y-118092184D01*
X160115049Y-118092181D01*
X160115048Y-118092179D01*
X159990109Y-117920213D01*
X159839790Y-117769894D01*
X159839785Y-117769890D01*
X159664015Y-117642186D01*
X159621349Y-117586856D01*
X159612900Y-117541868D01*
X159612900Y-116674092D01*
X159587810Y-116547961D01*
X159587809Y-116547960D01*
X159587809Y-116547956D01*
X159563200Y-116488546D01*
X159538593Y-116429137D01*
X159498501Y-116369136D01*
X159498501Y-116369135D01*
X159467143Y-116322205D01*
X159467140Y-116322200D01*
X159280621Y-116135680D01*
X159247136Y-116074357D01*
X159252120Y-116004665D01*
X159280618Y-115960320D01*
X159437141Y-115803799D01*
X159508593Y-115696864D01*
X159535543Y-115631800D01*
X159546931Y-115604307D01*
X159546931Y-115604306D01*
X159550776Y-115595021D01*
X159557809Y-115578044D01*
X159582900Y-115451905D01*
X159582900Y-114587309D01*
X159602585Y-114520270D01*
X159623737Y-114496941D01*
X159623243Y-114496447D01*
X159628746Y-114490944D01*
X159750340Y-114369350D01*
X159840908Y-114222516D01*
X159895174Y-114058753D01*
X159905500Y-113957677D01*
X159905500Y-113957654D01*
X160495001Y-113957654D01*
X160505319Y-114058652D01*
X160559546Y-114222300D01*
X160559551Y-114222311D01*
X160650052Y-114369034D01*
X160650055Y-114369038D01*
X160771961Y-114490944D01*
X160771965Y-114490947D01*
X160918688Y-114581448D01*
X160918699Y-114581453D01*
X161082347Y-114635680D01*
X161183352Y-114645999D01*
X161220000Y-114645999D01*
X161220000Y-113908500D01*
X160495001Y-113908500D01*
X160495001Y-113957654D01*
X159905500Y-113957654D01*
X159905499Y-113658500D01*
X159905499Y-113359330D01*
X159905498Y-113359312D01*
X159895174Y-113258247D01*
X159889356Y-113240690D01*
X159840908Y-113094484D01*
X159750340Y-112947650D01*
X159636371Y-112833681D01*
X159602886Y-112772358D01*
X159607870Y-112702666D01*
X159636371Y-112658319D01*
X159690104Y-112604586D01*
X159750340Y-112544350D01*
X159840908Y-112397516D01*
X159895174Y-112233753D01*
X159905500Y-112132677D01*
X159905499Y-111534324D01*
X159895174Y-111433247D01*
X159840908Y-111269484D01*
X159750340Y-111122650D01*
X159628350Y-111000660D01*
X159623243Y-110995553D01*
X159624537Y-110994258D01*
X159589612Y-110944932D01*
X159582900Y-110904690D01*
X159582900Y-106488941D01*
X159602585Y-106421902D01*
X159634016Y-106388622D01*
X159725098Y-106322448D01*
X159725098Y-106322447D01*
X159725102Y-106322445D01*
X159860945Y-106186602D01*
X159973865Y-106031181D01*
X160061082Y-105860009D01*
X160061084Y-105860004D01*
X160082069Y-105795419D01*
X160121506Y-105737743D01*
X160185864Y-105710544D01*
X160254711Y-105722458D01*
G37*
%TD.AperFunction*%
%TA.AperFunction,Conductor*%
G36*
X170896434Y-108358621D02*
G01*
X170952367Y-108400493D01*
X170976784Y-108465957D01*
X170977100Y-108474803D01*
X170977100Y-110904690D01*
X170957415Y-110971729D01*
X170936263Y-110995059D01*
X170936757Y-110995553D01*
X170809661Y-111122648D01*
X170719093Y-111269481D01*
X170719091Y-111269486D01*
X170695746Y-111339936D01*
X170664826Y-111433247D01*
X170664826Y-111433248D01*
X170664825Y-111433248D01*
X170654500Y-111534315D01*
X170654500Y-112132669D01*
X170654501Y-112132687D01*
X170664825Y-112233752D01*
X170701109Y-112343249D01*
X170719092Y-112397516D01*
X170794878Y-112520385D01*
X170809661Y-112544351D01*
X170923629Y-112658319D01*
X170957114Y-112719642D01*
X170952130Y-112789334D01*
X170923629Y-112833681D01*
X170809661Y-112947648D01*
X170719093Y-113094481D01*
X170719091Y-113094486D01*
X170712259Y-113115105D01*
X170664826Y-113258247D01*
X170664826Y-113258248D01*
X170664825Y-113258248D01*
X170654500Y-113359315D01*
X170654500Y-113957669D01*
X170654501Y-113957687D01*
X170664825Y-114058752D01*
X170681727Y-114109757D01*
X170719092Y-114222516D01*
X170781426Y-114323576D01*
X170809661Y-114369351D01*
X170933572Y-114493262D01*
X170934303Y-114493596D01*
X170935016Y-114494706D01*
X170936757Y-114496447D01*
X170936378Y-114496825D01*
X170951741Y-114520730D01*
X170970382Y-114547049D01*
X170970987Y-114550679D01*
X170972077Y-114552374D01*
X170977100Y-114587309D01*
X170977100Y-114659396D01*
X170957415Y-114726435D01*
X170940781Y-114747077D01*
X169878263Y-115809594D01*
X169878262Y-115809595D01*
X169878259Y-115809600D01*
X169812401Y-115908165D01*
X169812400Y-115908165D01*
X169806808Y-115916534D01*
X169757591Y-116035355D01*
X169757589Y-116035361D01*
X169732500Y-116161492D01*
X169732500Y-117408342D01*
X169712815Y-117475381D01*
X169660011Y-117521136D01*
X169590853Y-117531080D01*
X169570182Y-117526273D01*
X169436240Y-117482753D01*
X169274957Y-117457208D01*
X169226287Y-117449500D01*
X169013713Y-117449500D01*
X168965042Y-117457208D01*
X168803760Y-117482753D01*
X168601585Y-117548444D01*
X168412179Y-117644951D01*
X168240213Y-117769890D01*
X168089890Y-117920213D01*
X167964949Y-118092182D01*
X167960484Y-118100946D01*
X167912509Y-118151742D01*
X167844688Y-118168536D01*
X167778553Y-118145998D01*
X167739516Y-118100946D01*
X167735050Y-118092182D01*
X167610109Y-117920213D01*
X167459790Y-117769894D01*
X167459785Y-117769890D01*
X167284015Y-117642186D01*
X167241349Y-117586856D01*
X167232900Y-117541868D01*
X167232900Y-111971001D01*
X167252585Y-111903962D01*
X167269214Y-111883325D01*
X170537390Y-108615148D01*
X170537395Y-108615145D01*
X170547598Y-108604941D01*
X170547600Y-108604941D01*
X170686584Y-108465957D01*
X170765419Y-108387122D01*
X170826742Y-108353637D01*
X170896434Y-108358621D01*
G37*
%TD.AperFunction*%
%TA.AperFunction,Conductor*%
G36*
X167874711Y-105722458D02*
G01*
X167926187Y-105769702D01*
X167937931Y-105795419D01*
X167958915Y-105860004D01*
X167958918Y-105860009D01*
X168046135Y-106031181D01*
X168159055Y-106186602D01*
X168294898Y-106322445D01*
X168450319Y-106435365D01*
X168621491Y-106522582D01*
X168621493Y-106522583D01*
X168635214Y-106527041D01*
X168804199Y-106581947D01*
X168993945Y-106612000D01*
X168993946Y-106612000D01*
X169186054Y-106612000D01*
X169186055Y-106612000D01*
X169375801Y-106581947D01*
X169544785Y-106527040D01*
X169614622Y-106525046D01*
X169674455Y-106561126D01*
X169705284Y-106623827D01*
X169707100Y-106644972D01*
X169707100Y-107547397D01*
X169698455Y-107576837D01*
X169691932Y-107606824D01*
X169688177Y-107611839D01*
X169687415Y-107614436D01*
X169670781Y-107635078D01*
X169624257Y-107681602D01*
X166072863Y-111232994D01*
X166072862Y-111232995D01*
X166072859Y-111233000D01*
X166016772Y-111316943D01*
X166010795Y-111325888D01*
X166001406Y-111339939D01*
X165952191Y-111458755D01*
X165952189Y-111458760D01*
X165928994Y-111575364D01*
X165928988Y-111575401D01*
X165927100Y-111584895D01*
X165927100Y-111588029D01*
X165927100Y-112407591D01*
X165907415Y-112474630D01*
X165854611Y-112520385D01*
X165785453Y-112530329D01*
X165721897Y-112501304D01*
X165684123Y-112442526D01*
X165681487Y-112431804D01*
X165649389Y-112270591D01*
X165641908Y-112252539D01*
X165582057Y-112108111D01*
X165549917Y-112060025D01*
X165529029Y-111993351D01*
X165547504Y-111925968D01*
X165549883Y-111922264D01*
X165582091Y-111874055D01*
X165649392Y-111711521D01*
X165683685Y-111538980D01*
X165683669Y-111451021D01*
X165683669Y-111450585D01*
X165683669Y-111411663D01*
X165683671Y-111404637D01*
X165683683Y-111404586D01*
X165683678Y-111382405D01*
X165683757Y-111382136D01*
X165683747Y-111331021D01*
X165683748Y-111331021D01*
X165683731Y-111243078D01*
X165649384Y-111070576D01*
X165582045Y-110908090D01*
X165582040Y-110908081D01*
X165484305Y-110761866D01*
X165484302Y-110761861D01*
X165484300Y-110761859D01*
X165484298Y-110761856D01*
X165359915Y-110637515D01*
X165359905Y-110637507D01*
X165213652Y-110539815D01*
X165213648Y-110539813D01*
X165051143Y-110472530D01*
X164878623Y-110438239D01*
X164816927Y-110438248D01*
X164808243Y-110435699D01*
X164799285Y-110436989D01*
X164775243Y-110426014D01*
X164749885Y-110418572D01*
X164743957Y-110411732D01*
X164735725Y-110407975D01*
X164721433Y-110385746D01*
X164704123Y-110365774D01*
X164701834Y-110355261D01*
X164697940Y-110349204D01*
X164692911Y-110314273D01*
X164692900Y-110251021D01*
X164692900Y-110040602D01*
X164712585Y-109973563D01*
X164729219Y-109952921D01*
X167057138Y-107625002D01*
X167057140Y-107625000D01*
X167128592Y-107518064D01*
X167177809Y-107399244D01*
X167186882Y-107353632D01*
X167202900Y-107273105D01*
X167202900Y-106488941D01*
X167222585Y-106421902D01*
X167254016Y-106388622D01*
X167345098Y-106322448D01*
X167345098Y-106322447D01*
X167345102Y-106322445D01*
X167480945Y-106186602D01*
X167593865Y-106031181D01*
X167681082Y-105860009D01*
X167681084Y-105860004D01*
X167702069Y-105795419D01*
X167741506Y-105737743D01*
X167805864Y-105710544D01*
X167874711Y-105722458D01*
G37*
%TD.AperFunction*%
%TA.AperFunction,Conductor*%
G36*
X165334711Y-105722458D02*
G01*
X165386187Y-105769702D01*
X165397931Y-105795419D01*
X165418915Y-105860004D01*
X165418918Y-105860009D01*
X165506135Y-106031181D01*
X165619055Y-106186602D01*
X165619057Y-106186604D01*
X165754901Y-106322448D01*
X165845984Y-106388622D01*
X165888651Y-106443952D01*
X165897100Y-106488941D01*
X165897100Y-106886996D01*
X165877415Y-106954035D01*
X165860781Y-106974677D01*
X163532863Y-109302594D01*
X163532862Y-109302595D01*
X163465883Y-109402839D01*
X163465881Y-109402841D01*
X163461410Y-109409531D01*
X163461407Y-109409537D01*
X163412191Y-109528355D01*
X163412189Y-109528361D01*
X163387100Y-109654492D01*
X163387100Y-109714252D01*
X163384576Y-109722846D01*
X163385865Y-109731711D01*
X163374885Y-109755851D01*
X163367415Y-109781291D01*
X163360646Y-109787156D01*
X163356937Y-109795311D01*
X163334649Y-109809682D01*
X163314611Y-109827046D01*
X163304194Y-109829320D01*
X163298217Y-109833175D01*
X163263662Y-109838170D01*
X163263290Y-109838252D01*
X163224926Y-109838252D01*
X163224626Y-109838311D01*
X163218339Y-109838321D01*
X163218309Y-109838312D01*
X163218133Y-109838321D01*
X163201383Y-109838318D01*
X163028880Y-109872607D01*
X162866387Y-109939886D01*
X162866383Y-109939887D01*
X162720144Y-110037568D01*
X162720138Y-110037573D01*
X162595763Y-110161907D01*
X162595759Y-110161912D01*
X162498027Y-110308123D01*
X162498023Y-110308130D01*
X162430692Y-110470598D01*
X162396347Y-110643088D01*
X162396344Y-110660894D01*
X162396343Y-110666784D01*
X162396331Y-110666847D01*
X162396331Y-110730666D01*
X162396331Y-110731044D01*
X162396316Y-110811436D01*
X162396331Y-110811701D01*
X162396331Y-110921325D01*
X162396334Y-110921408D01*
X162396333Y-110929297D01*
X162376640Y-110996334D01*
X162323830Y-111042082D01*
X162254670Y-111052017D01*
X162191118Y-111022984D01*
X162184652Y-111016962D01*
X162163243Y-110995553D01*
X162164537Y-110994258D01*
X162129612Y-110944932D01*
X162122900Y-110904690D01*
X162122900Y-106488941D01*
X162142585Y-106421902D01*
X162174016Y-106388622D01*
X162265098Y-106322448D01*
X162265098Y-106322447D01*
X162265102Y-106322445D01*
X162400945Y-106186602D01*
X162513865Y-106031181D01*
X162601082Y-105860009D01*
X162601084Y-105860004D01*
X162622069Y-105795419D01*
X162661506Y-105737743D01*
X162725864Y-105710544D01*
X162794711Y-105722458D01*
X162846187Y-105769702D01*
X162857931Y-105795419D01*
X162878915Y-105860004D01*
X162878918Y-105860009D01*
X162966135Y-106031181D01*
X163079055Y-106186602D01*
X163214898Y-106322445D01*
X163370319Y-106435365D01*
X163541491Y-106522582D01*
X163541493Y-106522583D01*
X163555214Y-106527041D01*
X163724199Y-106581947D01*
X163913945Y-106612000D01*
X163913946Y-106612000D01*
X164106054Y-106612000D01*
X164106055Y-106612000D01*
X164295801Y-106581947D01*
X164478509Y-106522582D01*
X164649681Y-106435365D01*
X164805102Y-106322445D01*
X164940945Y-106186602D01*
X165053865Y-106031181D01*
X165141082Y-105860009D01*
X165141084Y-105860004D01*
X165162069Y-105795419D01*
X165201506Y-105737743D01*
X165265864Y-105710544D01*
X165334711Y-105722458D01*
G37*
%TD.AperFunction*%
%TA.AperFunction,Conductor*%
G36*
X166800000Y-98967110D02*
G01*
X166835682Y-98961459D01*
X167004781Y-98906515D01*
X167074622Y-98904520D01*
X167134455Y-98940600D01*
X167165284Y-99003301D01*
X167167100Y-99024446D01*
X167167100Y-101857796D01*
X167147415Y-101924835D01*
X167130781Y-101945477D01*
X166291475Y-102784782D01*
X166230152Y-102818267D01*
X166160460Y-102813283D01*
X166104527Y-102771411D01*
X166083038Y-102716063D01*
X166081689Y-102716332D01*
X166051599Y-102565064D01*
X166049737Y-102555703D01*
X165989394Y-102410021D01*
X165953796Y-102356745D01*
X165932920Y-102290068D01*
X165932900Y-102287856D01*
X165932900Y-99024446D01*
X165952585Y-98957407D01*
X166005389Y-98911652D01*
X166074547Y-98901708D01*
X166095219Y-98906515D01*
X166264317Y-98961459D01*
X166299999Y-98967110D01*
X166300000Y-98967109D01*
X166300000Y-97924512D01*
X166357007Y-97957425D01*
X166484174Y-97991500D01*
X166615826Y-97991500D01*
X166742993Y-97957425D01*
X166800000Y-97924512D01*
X166800000Y-98967110D01*
G37*
%TD.AperFunction*%
%TA.AperFunction,Conductor*%
G36*
X156696139Y-67698585D02*
G01*
X156741894Y-67751389D01*
X156753100Y-67802900D01*
X156753100Y-71154309D01*
X156776788Y-71273396D01*
X156778189Y-71280439D01*
X156778192Y-71280448D01*
X156827405Y-71399260D01*
X156827408Y-71399264D01*
X156884316Y-71484435D01*
X156898862Y-71506204D01*
X156898863Y-71506205D01*
X157492394Y-72099735D01*
X157525879Y-72161058D01*
X157520895Y-72230749D01*
X157479024Y-72286683D01*
X157413559Y-72311100D01*
X157392111Y-72310774D01*
X157286656Y-72300000D01*
X157250000Y-72300000D01*
X157250000Y-73087500D01*
X157974999Y-73087500D01*
X157974999Y-72988360D01*
X157974998Y-72988345D01*
X157964680Y-72887347D01*
X157910453Y-72723699D01*
X157910450Y-72723692D01*
X157879014Y-72672728D01*
X157860573Y-72605336D01*
X157881495Y-72538672D01*
X157935136Y-72493902D01*
X158004467Y-72485240D01*
X158008744Y-72486013D01*
X158103692Y-72504900D01*
X158103695Y-72504900D01*
X158325500Y-72504900D01*
X158392539Y-72524585D01*
X158438294Y-72577389D01*
X158449500Y-72628900D01*
X158449500Y-73515701D01*
X158452401Y-73552567D01*
X158452402Y-73552573D01*
X158498254Y-73710393D01*
X158498255Y-73710396D01*
X158579832Y-73848336D01*
X158597100Y-73911457D01*
X158597100Y-77316305D01*
X158597100Y-77316307D01*
X158597099Y-77316307D01*
X158620816Y-77435531D01*
X158622190Y-77442441D01*
X158622192Y-77442447D01*
X158653333Y-77517629D01*
X158671408Y-77561264D01*
X158742859Y-77668200D01*
X158742862Y-77668204D01*
X158742863Y-77668205D01*
X158860440Y-77785781D01*
X159129714Y-78055055D01*
X159177580Y-78102920D01*
X159211065Y-78164243D01*
X159206081Y-78233934D01*
X159164210Y-78289868D01*
X159137438Y-78303851D01*
X159137740Y-78304497D01*
X159131188Y-78307551D01*
X158984465Y-78398052D01*
X158984461Y-78398055D01*
X158862554Y-78519962D01*
X158806738Y-78610453D01*
X158754789Y-78657177D01*
X158685827Y-78668398D01*
X158621745Y-78640554D01*
X158613519Y-78633036D01*
X158498038Y-78517555D01*
X158498034Y-78517552D01*
X158351311Y-78427051D01*
X158351300Y-78427046D01*
X158187652Y-78372819D01*
X158086654Y-78362500D01*
X158050000Y-78362500D01*
X158050000Y-79150000D01*
X158577500Y-79150000D01*
X158577500Y-79092000D01*
X158597185Y-79024961D01*
X158649989Y-78979206D01*
X158701500Y-78968000D01*
X159621000Y-78968000D01*
X159688039Y-78987685D01*
X159733794Y-79040489D01*
X159745000Y-79092000D01*
X159745000Y-79218000D01*
X159871000Y-79218000D01*
X159938039Y-79237685D01*
X159983794Y-79290489D01*
X159995000Y-79342000D01*
X159995000Y-82099999D01*
X160094140Y-82099999D01*
X160094154Y-82099998D01*
X160195152Y-82089680D01*
X160358800Y-82035453D01*
X160358811Y-82035448D01*
X160505535Y-81944947D01*
X160519460Y-81931021D01*
X160580782Y-81897533D01*
X160650473Y-81902514D01*
X160694827Y-81931017D01*
X160709150Y-81945340D01*
X160855984Y-82035908D01*
X161019747Y-82090174D01*
X161120823Y-82100500D01*
X161682797Y-82100499D01*
X161749836Y-82120183D01*
X161795591Y-82172987D01*
X161805535Y-82242146D01*
X161776510Y-82305702D01*
X161770478Y-82312180D01*
X161343861Y-82738797D01*
X161343855Y-82738805D01*
X161283413Y-82829262D01*
X161283414Y-82829263D01*
X161272408Y-82845734D01*
X161223191Y-82964555D01*
X161223189Y-82964561D01*
X161198100Y-83090692D01*
X161198100Y-83608613D01*
X161178415Y-83675652D01*
X161125611Y-83721407D01*
X161064383Y-83732232D01*
X161056351Y-83731600D01*
X160653200Y-83731600D01*
X160653200Y-85331600D01*
X161056334Y-85331600D01*
X161056347Y-85331599D01*
X161064371Y-85330968D01*
X161077981Y-85333827D01*
X161091747Y-85331848D01*
X161111498Y-85340868D01*
X161132748Y-85345332D01*
X161142652Y-85355095D01*
X161155303Y-85360873D01*
X161167042Y-85379139D01*
X161182505Y-85394383D01*
X161186331Y-85409154D01*
X161193077Y-85419651D01*
X161198100Y-85454586D01*
X161198100Y-85508109D01*
X161178415Y-85575148D01*
X161125611Y-85620903D01*
X161064382Y-85631728D01*
X161056401Y-85631100D01*
X161056394Y-85631100D01*
X159890200Y-85631100D01*
X159881514Y-85628549D01*
X159872553Y-85629838D01*
X159848512Y-85618859D01*
X159823161Y-85611415D01*
X159817233Y-85604574D01*
X159808997Y-85600813D01*
X159794707Y-85578578D01*
X159777406Y-85558611D01*
X159775118Y-85548096D01*
X159771223Y-85542035D01*
X159766200Y-85507100D01*
X159766200Y-85455600D01*
X159785885Y-85388561D01*
X159838689Y-85342806D01*
X159890200Y-85331600D01*
X160153200Y-85331600D01*
X160153200Y-84781600D01*
X159497515Y-84781600D01*
X159434394Y-84764332D01*
X159396117Y-84741695D01*
X159376098Y-84729856D01*
X159376097Y-84729855D01*
X159376096Y-84729855D01*
X159376093Y-84729854D01*
X159218273Y-84684002D01*
X159218267Y-84684001D01*
X159181401Y-84681100D01*
X159181394Y-84681100D01*
X157875006Y-84681100D01*
X157874997Y-84681100D01*
X157837276Y-84684069D01*
X157768899Y-84669704D01*
X157739867Y-84648132D01*
X157401818Y-84310083D01*
X157386264Y-84281598D01*
X159168404Y-84281598D01*
X159168405Y-84281600D01*
X160153200Y-84281600D01*
X160153200Y-83731600D01*
X159750050Y-83731600D01*
X159713210Y-83734499D01*
X159713204Y-83734500D01*
X159555506Y-83780316D01*
X159555503Y-83780317D01*
X159414147Y-83863914D01*
X159414138Y-83863921D01*
X159298021Y-83980038D01*
X159298014Y-83980047D01*
X159214418Y-84121401D01*
X159168599Y-84279113D01*
X159168404Y-84281598D01*
X157386264Y-84281598D01*
X157368333Y-84248760D01*
X157365499Y-84222402D01*
X157365499Y-83848330D01*
X157365498Y-83848313D01*
X157355174Y-83747247D01*
X157345436Y-83717859D01*
X157300908Y-83583484D01*
X157210340Y-83436650D01*
X157088350Y-83314660D01*
X156991397Y-83254859D01*
X156941518Y-83224093D01*
X156941513Y-83224091D01*
X156899303Y-83210104D01*
X156777753Y-83169826D01*
X156777751Y-83169825D01*
X156676678Y-83159500D01*
X156103330Y-83159500D01*
X156103312Y-83159501D01*
X156002247Y-83169825D01*
X155838484Y-83224092D01*
X155838481Y-83224093D01*
X155691648Y-83314661D01*
X155614081Y-83392229D01*
X155552758Y-83425714D01*
X155483066Y-83420730D01*
X155438719Y-83392229D01*
X155361151Y-83314661D01*
X155361150Y-83314660D01*
X155264197Y-83254859D01*
X155214318Y-83224093D01*
X155214313Y-83224091D01*
X155172103Y-83210104D01*
X155050553Y-83169826D01*
X155050551Y-83169825D01*
X154949478Y-83159500D01*
X154376130Y-83159500D01*
X154376112Y-83159501D01*
X154275047Y-83169825D01*
X154111284Y-83224092D01*
X154111281Y-83224093D01*
X153964448Y-83314661D01*
X153842461Y-83436648D01*
X153751893Y-83583481D01*
X153751891Y-83583486D01*
X153747545Y-83596602D01*
X153697626Y-83747247D01*
X153697626Y-83747248D01*
X153697625Y-83747248D01*
X153687300Y-83848315D01*
X153687300Y-84446669D01*
X153687301Y-84446687D01*
X153697625Y-84547752D01*
X153733909Y-84657249D01*
X153747906Y-84699488D01*
X153751892Y-84711515D01*
X153751893Y-84711518D01*
X153777722Y-84753393D01*
X153822683Y-84826287D01*
X153842461Y-84858351D01*
X153956429Y-84972319D01*
X153989914Y-85033642D01*
X153984930Y-85103334D01*
X153956429Y-85147681D01*
X153842461Y-85261648D01*
X153751893Y-85408481D01*
X153751891Y-85408486D01*
X153736615Y-85454586D01*
X153697626Y-85572247D01*
X153697626Y-85572248D01*
X153697625Y-85572248D01*
X153687300Y-85673315D01*
X153687300Y-86271669D01*
X153687301Y-86271687D01*
X153697625Y-86372752D01*
X153714465Y-86423570D01*
X153751892Y-86536516D01*
X153842460Y-86683350D01*
X153964450Y-86805340D01*
X154042143Y-86853262D01*
X154088867Y-86905209D01*
X154100090Y-86974172D01*
X154072246Y-87038254D01*
X154014177Y-87077110D01*
X153977046Y-87082800D01*
X153118298Y-87082800D01*
X153081432Y-87085701D01*
X153081426Y-87085702D01*
X152923606Y-87131554D01*
X152923599Y-87131557D01*
X152884796Y-87154505D01*
X152857198Y-87161506D01*
X152830522Y-87171457D01*
X152823770Y-87169988D01*
X152817072Y-87171688D01*
X152790064Y-87162656D01*
X152762249Y-87156605D01*
X152754398Y-87150728D01*
X152750810Y-87149528D01*
X152733995Y-87135454D01*
X152608819Y-87010278D01*
X152575334Y-86948955D01*
X152572500Y-86922597D01*
X152572500Y-82795292D01*
X152547410Y-82669161D01*
X152547409Y-82669160D01*
X152547409Y-82669156D01*
X152498192Y-82550336D01*
X152483092Y-82527737D01*
X152442774Y-82467397D01*
X152426739Y-82443398D01*
X152426736Y-82443395D01*
X152145521Y-82162181D01*
X152112036Y-82100858D01*
X152117020Y-82031167D01*
X152158891Y-81975233D01*
X152224356Y-81950816D01*
X152233202Y-81950500D01*
X152306286Y-81950500D01*
X152306287Y-81950500D01*
X152516243Y-81917246D01*
X152718412Y-81851557D01*
X152907816Y-81755051D01*
X152998523Y-81689149D01*
X153079784Y-81630110D01*
X153079784Y-81630109D01*
X153079792Y-81630104D01*
X153193329Y-81516566D01*
X153254648Y-81483084D01*
X153324340Y-81488068D01*
X153380274Y-81529939D01*
X153397189Y-81560917D01*
X153446202Y-81692328D01*
X153446206Y-81692335D01*
X153532452Y-81807544D01*
X153532455Y-81807547D01*
X153647664Y-81893793D01*
X153647671Y-81893797D01*
X153782517Y-81944091D01*
X153782516Y-81944091D01*
X153789444Y-81944835D01*
X153842127Y-81950500D01*
X155637872Y-81950499D01*
X155697483Y-81944091D01*
X155832331Y-81893796D01*
X155947546Y-81807546D01*
X156033796Y-81692331D01*
X156084091Y-81557483D01*
X156090500Y-81497873D01*
X156090499Y-80775815D01*
X156824500Y-80775815D01*
X156824500Y-81474169D01*
X156824501Y-81474187D01*
X156834825Y-81575252D01*
X156853004Y-81630110D01*
X156879735Y-81710780D01*
X156889092Y-81739015D01*
X156889093Y-81739018D01*
X156915898Y-81782476D01*
X156956831Y-81848839D01*
X156979661Y-81885851D01*
X157103572Y-82009762D01*
X157104303Y-82010096D01*
X157105016Y-82011206D01*
X157106757Y-82012947D01*
X157106378Y-82013325D01*
X157121741Y-82037230D01*
X157140382Y-82063549D01*
X157140987Y-82067179D01*
X157142077Y-82068874D01*
X157147100Y-82103809D01*
X157147100Y-82260028D01*
X157144717Y-82284220D01*
X157113500Y-82441155D01*
X157113500Y-82598846D01*
X157144261Y-82753489D01*
X157144264Y-82753501D01*
X157204602Y-82899172D01*
X157204609Y-82899185D01*
X157292210Y-83030288D01*
X157292213Y-83030292D01*
X157403707Y-83141786D01*
X157403711Y-83141789D01*
X157534814Y-83229390D01*
X157534827Y-83229397D01*
X157658968Y-83280817D01*
X157680503Y-83289737D01*
X157794940Y-83312500D01*
X157835153Y-83320499D01*
X157835156Y-83320500D01*
X157835158Y-83320500D01*
X157992844Y-83320500D01*
X157992845Y-83320499D01*
X158147497Y-83289737D01*
X158260166Y-83243067D01*
X158293172Y-83229397D01*
X158293172Y-83229396D01*
X158293179Y-83229394D01*
X158424289Y-83141789D01*
X158535789Y-83030289D01*
X158623394Y-82899179D01*
X158683737Y-82753497D01*
X158714500Y-82598842D01*
X158714500Y-82441158D01*
X158714500Y-82441155D01*
X158714499Y-82441153D01*
X158689935Y-82317662D01*
X158683737Y-82286503D01*
X158671660Y-82257347D01*
X158623397Y-82140827D01*
X158623387Y-82140809D01*
X158576581Y-82070758D01*
X158569579Y-82048398D01*
X158558422Y-82027787D01*
X158559332Y-82015672D01*
X158555703Y-82004081D01*
X158561902Y-81981483D01*
X158563659Y-81958113D01*
X158571756Y-81945562D01*
X158574188Y-81936701D01*
X158580686Y-81927198D01*
X158585885Y-81920304D01*
X158620340Y-81885850D01*
X158658331Y-81824255D01*
X158661823Y-81819627D01*
X158685397Y-81802112D01*
X158707229Y-81782476D01*
X158713118Y-81781517D01*
X158717908Y-81777959D01*
X158747204Y-81775970D01*
X158776191Y-81771253D01*
X158781664Y-81773631D01*
X158787617Y-81773227D01*
X158813339Y-81787393D01*
X158840273Y-81799096D01*
X158846850Y-81805850D01*
X158848819Y-81806934D01*
X158849960Y-81809043D01*
X158858086Y-81817386D01*
X158862555Y-81823038D01*
X158984461Y-81944944D01*
X158984465Y-81944947D01*
X159131188Y-82035448D01*
X159131199Y-82035453D01*
X159294847Y-82089680D01*
X159395851Y-82099999D01*
X159495000Y-82099998D01*
X159495000Y-79468000D01*
X158905000Y-79468000D01*
X158905000Y-79526000D01*
X158885315Y-79593039D01*
X158832511Y-79638794D01*
X158781000Y-79650000D01*
X156825001Y-79650000D01*
X156825001Y-79749154D01*
X156835319Y-79850152D01*
X156889546Y-80013800D01*
X156889551Y-80013811D01*
X156980052Y-80160534D01*
X156980055Y-80160538D01*
X156993982Y-80174465D01*
X157027467Y-80235788D01*
X157022483Y-80305480D01*
X156993984Y-80349825D01*
X156979661Y-80364148D01*
X156889093Y-80510981D01*
X156889092Y-80510984D01*
X156834826Y-80674747D01*
X156834826Y-80674748D01*
X156834825Y-80674748D01*
X156824500Y-80775815D01*
X156090499Y-80775815D01*
X156090499Y-80573484D01*
X156090499Y-79702129D01*
X156090498Y-79702123D01*
X156089097Y-79689092D01*
X156084091Y-79642517D01*
X156083152Y-79640000D01*
X156033797Y-79507671D01*
X156033793Y-79507664D01*
X155947547Y-79392455D01*
X155947544Y-79392452D01*
X155832335Y-79306206D01*
X155832328Y-79306202D01*
X155697482Y-79255908D01*
X155697483Y-79255908D01*
X155637883Y-79249501D01*
X155637881Y-79249500D01*
X155637873Y-79249500D01*
X155637864Y-79249500D01*
X153842129Y-79249500D01*
X153842123Y-79249501D01*
X153782516Y-79255908D01*
X153647671Y-79306202D01*
X153647664Y-79306206D01*
X153532455Y-79392452D01*
X153532452Y-79392455D01*
X153446206Y-79507664D01*
X153446203Y-79507669D01*
X153397189Y-79639083D01*
X153355317Y-79695016D01*
X153289853Y-79719433D01*
X153221580Y-79704581D01*
X153193326Y-79683430D01*
X153079786Y-79569890D01*
X152907820Y-79444951D01*
X152718414Y-79348444D01*
X152718413Y-79348443D01*
X152718412Y-79348443D01*
X152516243Y-79282754D01*
X152516241Y-79282753D01*
X152516240Y-79282753D01*
X152354957Y-79257208D01*
X152306287Y-79249500D01*
X152093713Y-79249500D01*
X152045042Y-79257208D01*
X151883760Y-79282753D01*
X151782672Y-79315598D01*
X151732844Y-79331789D01*
X151681585Y-79348444D01*
X151492179Y-79444951D01*
X151320213Y-79569890D01*
X151169890Y-79720213D01*
X151044949Y-79892182D01*
X151040484Y-79900946D01*
X150992509Y-79951742D01*
X150924688Y-79968536D01*
X150858553Y-79945998D01*
X150819516Y-79900946D01*
X150815050Y-79892182D01*
X150690109Y-79720213D01*
X150539790Y-79569894D01*
X150539785Y-79569890D01*
X150364015Y-79442186D01*
X150321349Y-79386856D01*
X150312900Y-79341868D01*
X150312900Y-79050845D01*
X156825000Y-79050845D01*
X156825000Y-79150000D01*
X157550000Y-79150000D01*
X157550000Y-78362500D01*
X157513361Y-78362500D01*
X157513343Y-78362501D01*
X157412347Y-78372819D01*
X157248699Y-78427046D01*
X157248688Y-78427051D01*
X157101965Y-78517552D01*
X157101961Y-78517555D01*
X156980055Y-78639461D01*
X156980052Y-78639465D01*
X156889551Y-78786188D01*
X156889546Y-78786199D01*
X156835319Y-78949847D01*
X156825000Y-79050845D01*
X150312900Y-79050845D01*
X150312900Y-77962900D01*
X150332585Y-77895861D01*
X150385389Y-77850106D01*
X150436900Y-77838900D01*
X156200307Y-77838900D01*
X156285165Y-77822019D01*
X156326444Y-77813809D01*
X156445264Y-77764592D01*
X156448432Y-77762474D01*
X156448449Y-77762469D01*
X156448447Y-77762465D01*
X156467851Y-77749500D01*
X156552200Y-77693141D01*
X157507141Y-76738199D01*
X157578593Y-76631263D01*
X157618259Y-76535500D01*
X157627809Y-76512444D01*
X157647795Y-76411968D01*
X157652900Y-76386307D01*
X157652900Y-76041309D01*
X157672585Y-75974270D01*
X157693737Y-75950941D01*
X157693243Y-75950447D01*
X157730137Y-75913553D01*
X157820340Y-75823350D01*
X157910908Y-75676516D01*
X157965174Y-75512753D01*
X157975500Y-75411677D01*
X157975499Y-74713324D01*
X157965174Y-74612247D01*
X157910908Y-74448484D01*
X157820340Y-74301650D01*
X157806017Y-74287327D01*
X157772532Y-74226004D01*
X157777516Y-74156312D01*
X157806021Y-74111960D01*
X157819947Y-74098035D01*
X157910448Y-73951311D01*
X157910453Y-73951300D01*
X157964680Y-73787652D01*
X157974999Y-73686654D01*
X157975000Y-73686641D01*
X157975000Y-73587500D01*
X156025001Y-73587500D01*
X156025001Y-73686654D01*
X156035319Y-73787652D01*
X156089546Y-73951300D01*
X156089551Y-73951311D01*
X156183846Y-74104185D01*
X156182222Y-74105186D01*
X156204734Y-74160984D01*
X156191694Y-74229626D01*
X156143613Y-74280322D01*
X156081327Y-74297100D01*
X154690397Y-74297100D01*
X154623358Y-74277415D01*
X154577603Y-74224611D01*
X154571181Y-74207212D01*
X154533909Y-74076951D01*
X154439698Y-73896593D01*
X154387684Y-73832803D01*
X154311109Y-73738890D01*
X154153409Y-73610304D01*
X154153410Y-73610304D01*
X154153407Y-73610302D01*
X153973049Y-73516091D01*
X153973048Y-73516090D01*
X153973045Y-73516089D01*
X153855829Y-73482550D01*
X153777418Y-73460114D01*
X153777415Y-73460113D01*
X153777413Y-73460113D01*
X153704631Y-73453642D01*
X153658037Y-73449500D01*
X153658033Y-73449500D01*
X152976900Y-73449500D01*
X152909861Y-73429815D01*
X152864106Y-73377011D01*
X152852900Y-73325500D01*
X152852900Y-72988345D01*
X156025000Y-72988345D01*
X156025000Y-73087500D01*
X156750000Y-73087500D01*
X156750000Y-72300000D01*
X156713361Y-72300000D01*
X156713343Y-72300001D01*
X156612347Y-72310319D01*
X156448699Y-72364546D01*
X156448688Y-72364551D01*
X156301965Y-72455052D01*
X156301961Y-72455055D01*
X156180055Y-72576961D01*
X156180052Y-72576965D01*
X156089551Y-72723688D01*
X156089546Y-72723699D01*
X156035319Y-72887347D01*
X156025000Y-72988345D01*
X152852900Y-72988345D01*
X152852900Y-70191347D01*
X152872585Y-70124308D01*
X152921806Y-70080259D01*
X153049292Y-70017032D01*
X153049292Y-70017031D01*
X153049296Y-70017030D01*
X153197722Y-69897722D01*
X153253675Y-69828112D01*
X153311015Y-69788196D01*
X153380837Y-69785616D01*
X153440970Y-69821194D01*
X153446967Y-69828115D01*
X153502632Y-69897366D01*
X153502633Y-69897367D01*
X153650974Y-70016607D01*
X153650977Y-70016609D01*
X153821476Y-70101168D01*
X154006175Y-70147102D01*
X154048903Y-70150000D01*
X154250000Y-70150000D01*
X154750000Y-70150000D01*
X154951097Y-70150000D01*
X154993824Y-70147102D01*
X155178523Y-70101168D01*
X155349022Y-70016609D01*
X155349025Y-70016607D01*
X155497366Y-69897367D01*
X155497367Y-69897366D01*
X155616607Y-69749025D01*
X155616609Y-69749022D01*
X155701168Y-69578523D01*
X155747102Y-69393824D01*
X155750000Y-69351096D01*
X155750000Y-68900000D01*
X154750000Y-68900000D01*
X154750000Y-70150000D01*
X154250000Y-70150000D01*
X154250000Y-68774000D01*
X154269685Y-68706961D01*
X154322489Y-68661206D01*
X154374000Y-68650000D01*
X154500000Y-68650000D01*
X154500000Y-68524000D01*
X154519685Y-68456961D01*
X154572489Y-68411206D01*
X154624000Y-68400000D01*
X155750000Y-68400000D01*
X155750000Y-67948903D01*
X155747102Y-67906173D01*
X155728861Y-67832826D01*
X155731785Y-67763018D01*
X155771985Y-67705872D01*
X155836700Y-67679531D01*
X155849196Y-67678900D01*
X156629100Y-67678900D01*
X156696139Y-67698585D01*
G37*
%TD.AperFunction*%
%TA.AperFunction,Conductor*%
G36*
X176602903Y-84959539D02*
G01*
X176609381Y-84965571D01*
X176701650Y-85057840D01*
X176848484Y-85148408D01*
X177012247Y-85202674D01*
X177113323Y-85213000D01*
X177686676Y-85212999D01*
X177686684Y-85212998D01*
X177686687Y-85212998D01*
X177742030Y-85207344D01*
X177787753Y-85202674D01*
X177926097Y-85156830D01*
X177995924Y-85154429D01*
X178055966Y-85190160D01*
X178087159Y-85252681D01*
X178089100Y-85274537D01*
X178089100Y-85631463D01*
X178069415Y-85698502D01*
X178016611Y-85744257D01*
X177947453Y-85754201D01*
X177926097Y-85749169D01*
X177808853Y-85710319D01*
X177707854Y-85700000D01*
X177671200Y-85700000D01*
X177671200Y-86563500D01*
X177651515Y-86630539D01*
X177598711Y-86676294D01*
X177547200Y-86687500D01*
X177295200Y-86687500D01*
X177228161Y-86667815D01*
X177182406Y-86615011D01*
X177171200Y-86563500D01*
X177171200Y-85700000D01*
X177134561Y-85700000D01*
X177134543Y-85700001D01*
X177033547Y-85710319D01*
X176869899Y-85764546D01*
X176869888Y-85764551D01*
X176723165Y-85855052D01*
X176723161Y-85855055D01*
X176637361Y-85940854D01*
X176629415Y-85945192D01*
X176623991Y-85952439D01*
X176599234Y-85961672D01*
X176576038Y-85974339D01*
X176567007Y-85973692D01*
X176558527Y-85976856D01*
X176532705Y-85971238D01*
X176506346Y-85969353D01*
X176497293Y-85963535D01*
X176490254Y-85962004D01*
X176462000Y-85940853D01*
X176434019Y-85912872D01*
X176400534Y-85851549D01*
X176397700Y-85825191D01*
X176397700Y-85053252D01*
X176417385Y-84986213D01*
X176470189Y-84940458D01*
X176539347Y-84930514D01*
X176602903Y-84959539D01*
G37*
%TD.AperFunction*%
%TA.AperFunction,Conductor*%
G36*
X172672236Y-84997585D02*
G01*
X172692878Y-85014219D01*
X172974981Y-85296321D01*
X173008466Y-85357644D01*
X173011300Y-85384002D01*
X173011300Y-85940356D01*
X172991615Y-86007395D01*
X172938811Y-86053150D01*
X172869653Y-86063094D01*
X172806097Y-86034069D01*
X172803260Y-86031428D01*
X172801858Y-86030277D01*
X172661850Y-85936726D01*
X172661848Y-85936725D01*
X172506289Y-85872291D01*
X172506277Y-85872288D01*
X172341140Y-85839440D01*
X172341136Y-85839440D01*
X172172752Y-85839440D01*
X172142676Y-85845422D01*
X172072509Y-85859379D01*
X172064605Y-85858671D01*
X172057171Y-85861445D01*
X172030301Y-85855601D01*
X172002918Y-85853150D01*
X171994912Y-85847904D01*
X171988898Y-85846596D01*
X171960641Y-85825446D01*
X171936996Y-85801803D01*
X171900678Y-85765488D01*
X171900677Y-85765487D01*
X171900676Y-85765485D01*
X171900674Y-85765484D01*
X171892885Y-85757695D01*
X171892883Y-85757692D01*
X171780012Y-85644821D01*
X171779978Y-85644790D01*
X171769409Y-85634220D01*
X171735927Y-85572895D01*
X171735474Y-85522370D01*
X171755433Y-85421961D01*
X171755403Y-85253539D01*
X171755232Y-85252681D01*
X171744486Y-85198716D01*
X171750698Y-85129123D01*
X171793550Y-85073937D01*
X171859434Y-85050678D01*
X171866098Y-85050499D01*
X171897871Y-85050499D01*
X171897872Y-85050499D01*
X171957483Y-85044091D01*
X172092331Y-84993796D01*
X172092333Y-84993793D01*
X172093663Y-84993069D01*
X172095621Y-84992569D01*
X172100641Y-84990697D01*
X172100842Y-84991236D01*
X172153092Y-84977900D01*
X172605197Y-84977900D01*
X172672236Y-84997585D01*
G37*
%TD.AperFunction*%
%TA.AperFunction,Conductor*%
G36*
X160440139Y-74120185D02*
G01*
X160485894Y-74172989D01*
X160497100Y-74224500D01*
X160497100Y-76214995D01*
X160497100Y-76214997D01*
X160497099Y-76214997D01*
X160521080Y-76335548D01*
X160521080Y-76335552D01*
X160521081Y-76335552D01*
X160522191Y-76341134D01*
X160567491Y-76450499D01*
X160571408Y-76459954D01*
X160642859Y-76566890D01*
X160642862Y-76566894D01*
X160642863Y-76566895D01*
X161159388Y-77083419D01*
X161192873Y-77144742D01*
X161187889Y-77214433D01*
X161146018Y-77270367D01*
X161080553Y-77294784D01*
X161071707Y-77295100D01*
X160267802Y-77295100D01*
X160200763Y-77275415D01*
X160180121Y-77258781D01*
X159939219Y-77017878D01*
X159905734Y-76956555D01*
X159902900Y-76930197D01*
X159902900Y-74224500D01*
X159922585Y-74157461D01*
X159975389Y-74111706D01*
X160026900Y-74100500D01*
X160373100Y-74100500D01*
X160440139Y-74120185D01*
G37*
%TD.AperFunction*%
%TA.AperFunction,Conductor*%
G36*
X164617329Y-67698585D02*
G01*
X164663084Y-67751389D01*
X164673028Y-67820547D01*
X164670625Y-67832826D01*
X164652400Y-67906106D01*
X164649500Y-67948879D01*
X164649500Y-69351122D01*
X164649501Y-69351125D01*
X164652399Y-69393886D01*
X164652399Y-69393887D01*
X164698360Y-69578696D01*
X164782967Y-69749292D01*
X164782969Y-69749295D01*
X164902277Y-69897721D01*
X164902278Y-69897722D01*
X165050704Y-70017030D01*
X165050707Y-70017032D01*
X165178194Y-70080259D01*
X165229507Y-70127680D01*
X165247100Y-70191347D01*
X165247100Y-70447459D01*
X165227415Y-70514498D01*
X165210781Y-70535140D01*
X165166213Y-70579707D01*
X165166210Y-70579711D01*
X165078609Y-70710814D01*
X165078602Y-70710827D01*
X165018264Y-70856498D01*
X165018261Y-70856510D01*
X164987500Y-71011153D01*
X164987500Y-71168846D01*
X165018261Y-71323489D01*
X165018264Y-71323501D01*
X165078602Y-71469172D01*
X165078609Y-71469185D01*
X165166210Y-71600288D01*
X165166213Y-71600292D01*
X165277707Y-71711786D01*
X165277711Y-71711789D01*
X165408814Y-71799390D01*
X165408827Y-71799397D01*
X165554498Y-71859735D01*
X165554503Y-71859737D01*
X165709153Y-71890499D01*
X165709156Y-71890500D01*
X165709158Y-71890500D01*
X165866844Y-71890500D01*
X165866845Y-71890499D01*
X166021497Y-71859737D01*
X166167179Y-71799394D01*
X166298289Y-71711789D01*
X166409789Y-71600289D01*
X166497394Y-71469179D01*
X166557737Y-71323497D01*
X166588500Y-71168842D01*
X166588500Y-71011158D01*
X166588500Y-71011155D01*
X166588499Y-71011153D01*
X166556549Y-70850528D01*
X166557090Y-70850420D01*
X166552900Y-70822163D01*
X166552900Y-70191347D01*
X166572585Y-70124308D01*
X166621806Y-70080259D01*
X166749292Y-70017032D01*
X166749292Y-70017031D01*
X166749296Y-70017030D01*
X166897722Y-69897722D01*
X166953353Y-69828514D01*
X167010696Y-69788595D01*
X167080518Y-69786015D01*
X167140651Y-69821594D01*
X167146647Y-69828514D01*
X167202277Y-69897721D01*
X167202278Y-69897722D01*
X167350704Y-70017030D01*
X167350707Y-70017032D01*
X167478194Y-70080259D01*
X167529507Y-70127680D01*
X167547100Y-70191347D01*
X167547100Y-73325500D01*
X167527415Y-73392539D01*
X167474611Y-73438294D01*
X167423100Y-73449500D01*
X166741971Y-73449500D01*
X166741965Y-73449500D01*
X166741964Y-73449501D01*
X166730316Y-73450536D01*
X166622584Y-73460113D01*
X166426954Y-73516089D01*
X166336772Y-73563196D01*
X166246593Y-73610302D01*
X166246591Y-73610303D01*
X166246590Y-73610304D01*
X166088890Y-73738890D01*
X165960304Y-73896590D01*
X165960302Y-73896593D01*
X165931720Y-73951311D01*
X165866090Y-74076953D01*
X165828819Y-74207212D01*
X165791452Y-74266249D01*
X165728098Y-74295713D01*
X165709603Y-74297100D01*
X164318673Y-74297100D01*
X164251634Y-74277415D01*
X164205879Y-74224611D01*
X164195935Y-74155453D01*
X164217589Y-74105070D01*
X164216154Y-74104185D01*
X164310448Y-73951311D01*
X164310453Y-73951300D01*
X164364680Y-73787652D01*
X164374999Y-73686654D01*
X164375000Y-73686641D01*
X164375000Y-73587500D01*
X162425001Y-73587500D01*
X162425001Y-73686654D01*
X162435319Y-73787652D01*
X162489546Y-73951300D01*
X162489551Y-73951311D01*
X162580052Y-74098034D01*
X162580055Y-74098038D01*
X162593982Y-74111965D01*
X162627467Y-74173288D01*
X162622483Y-74242980D01*
X162593984Y-74287325D01*
X162579661Y-74301648D01*
X162489093Y-74448481D01*
X162489092Y-74448484D01*
X162434826Y-74612247D01*
X162434826Y-74612248D01*
X162434825Y-74612248D01*
X162424500Y-74713315D01*
X162424500Y-75411669D01*
X162424501Y-75411687D01*
X162434825Y-75512752D01*
X162471046Y-75622058D01*
X162487155Y-75670672D01*
X162489092Y-75676515D01*
X162489093Y-75676518D01*
X162523395Y-75732129D01*
X162579474Y-75823049D01*
X162579661Y-75823351D01*
X162687434Y-75931124D01*
X162720919Y-75992447D01*
X162715935Y-76062139D01*
X162687435Y-76106486D01*
X162626210Y-76167711D01*
X162538609Y-76298814D01*
X162538604Y-76298823D01*
X162516737Y-76351617D01*
X162472896Y-76406020D01*
X162406602Y-76428085D01*
X162338903Y-76410806D01*
X162314495Y-76391845D01*
X162094528Y-76171878D01*
X161839219Y-75916568D01*
X161805734Y-75855245D01*
X161802900Y-75828887D01*
X161802900Y-73911457D01*
X161820168Y-73848336D01*
X161856056Y-73787652D01*
X161901744Y-73710398D01*
X161947598Y-73552569D01*
X161950500Y-73515694D01*
X161950500Y-72628900D01*
X161970185Y-72561861D01*
X162022989Y-72516106D01*
X162074500Y-72504900D01*
X162402328Y-72504900D01*
X162469367Y-72524585D01*
X162515122Y-72577389D01*
X162525066Y-72646547D01*
X162507866Y-72693998D01*
X162489549Y-72723692D01*
X162489546Y-72723699D01*
X162435319Y-72887347D01*
X162425000Y-72988345D01*
X162425000Y-73087500D01*
X163150000Y-73087500D01*
X163650000Y-73087500D01*
X164374999Y-73087500D01*
X164374999Y-72988360D01*
X164374998Y-72988345D01*
X164364680Y-72887347D01*
X164310453Y-72723699D01*
X164310448Y-72723688D01*
X164219947Y-72576965D01*
X164219944Y-72576961D01*
X164098038Y-72455055D01*
X164098034Y-72455052D01*
X163951311Y-72364551D01*
X163951300Y-72364546D01*
X163787652Y-72310319D01*
X163686654Y-72300000D01*
X163650000Y-72300000D01*
X163650000Y-73087500D01*
X163150000Y-73087500D01*
X163150000Y-72289702D01*
X163158644Y-72260261D01*
X163165168Y-72230275D01*
X163168922Y-72225259D01*
X163169685Y-72222663D01*
X163186315Y-72202024D01*
X163678142Y-71710198D01*
X163749594Y-71603262D01*
X163750826Y-71600289D01*
X163756806Y-71585848D01*
X163798810Y-71484442D01*
X163823901Y-71358304D01*
X163823901Y-71229694D01*
X163823901Y-67802900D01*
X163843586Y-67735861D01*
X163896390Y-67690106D01*
X163947901Y-67678900D01*
X164550290Y-67678900D01*
X164617329Y-67698585D01*
G37*
%TD.AperFunction*%
%TA.AperFunction,Conductor*%
G36*
X160461655Y-68361607D02*
G01*
X160519518Y-68400769D01*
X160547023Y-68464997D01*
X160547900Y-68479719D01*
X160547900Y-69376252D01*
X160528215Y-69443291D01*
X160475411Y-69489046D01*
X160462268Y-69491366D01*
X160450000Y-69502703D01*
X160450000Y-69768184D01*
X160432733Y-69831304D01*
X160398254Y-69889605D01*
X160398254Y-69889606D01*
X160352402Y-70047426D01*
X160352401Y-70047432D01*
X160349500Y-70084298D01*
X160349500Y-70538500D01*
X160346949Y-70547185D01*
X160348238Y-70556147D01*
X160337259Y-70580187D01*
X160329815Y-70605539D01*
X160322974Y-70611466D01*
X160319213Y-70619703D01*
X160296978Y-70633992D01*
X160277011Y-70651294D01*
X160266496Y-70653581D01*
X160260435Y-70657477D01*
X160225500Y-70662500D01*
X160174500Y-70662500D01*
X160107461Y-70642815D01*
X160061706Y-70590011D01*
X160050500Y-70538500D01*
X160050500Y-70084313D01*
X160050499Y-70084298D01*
X160050181Y-70080259D01*
X160047598Y-70047431D01*
X160040328Y-70022409D01*
X160001745Y-69889606D01*
X160001745Y-69889605D01*
X160001744Y-69889603D01*
X160001744Y-69889602D01*
X159967267Y-69831304D01*
X159950000Y-69768184D01*
X159950000Y-69502703D01*
X159935498Y-69489303D01*
X159917493Y-69485528D01*
X159867718Y-69436496D01*
X159852100Y-69376252D01*
X159852100Y-68514100D01*
X159871785Y-68447061D01*
X159924589Y-68401306D01*
X159976100Y-68390100D01*
X160279265Y-68390100D01*
X160279268Y-68390100D01*
X160391808Y-68359944D01*
X160461655Y-68361607D01*
G37*
%TD.AperFunction*%
%TA.AperFunction,Conductor*%
G36*
X156942539Y-65649685D02*
G01*
X156988294Y-65702489D01*
X156999500Y-65754000D01*
X156999500Y-66249100D01*
X156979815Y-66316139D01*
X156927011Y-66361894D01*
X156875500Y-66373100D01*
X156874000Y-66373100D01*
X156806961Y-66353415D01*
X156761206Y-66300611D01*
X156750000Y-66249100D01*
X156750000Y-66130000D01*
X156194000Y-66130000D01*
X156126961Y-66110315D01*
X156090745Y-66068519D01*
X156120060Y-66039205D01*
X156159556Y-65970796D01*
X156180000Y-65894496D01*
X156180000Y-65633045D01*
X156194000Y-65630000D01*
X156875500Y-65630000D01*
X156942539Y-65649685D01*
G37*
%TD.AperFunction*%
%TD*%
D38*
X185600000Y-123160000D02*
X144960000Y-123160000D01*
X185600000Y-57120000D02*
X185600000Y-123160000D01*
X144960000Y-57120000D02*
X185600000Y-57120000D01*
X144960000Y-123160000D02*
X144960000Y-57120000D01*
M02*
