%TF.GenerationSoftware,KiCad,Pcbnew,9.0.1*%
%TF.CreationDate,2025-10-02T09:28:13+08:00*%
%TF.ProjectId,M032FC1AE,4d303332-4643-4314-9145-2e6b69636164,rev?*%
%TF.SameCoordinates,Original*%
%TF.FileFunction,Paste,Top*%
%TF.FilePolarity,Positive*%
%FSLAX46Y46*%
G04 Gerber Fmt 4.6, Leading zero omitted, Abs format (unit mm)*
G04 Created by KiCad (PCBNEW 9.0.1) date 2025-10-02 09:28:13*
%MOMM*%
%LPD*%
G01*
G04 APERTURE LIST*
G04 Aperture macros list*
%AMRoundRect*
0 Rectangle with rounded corners*
0 $1 Rounding radius*
0 $2 $3 $4 $5 $6 $7 $8 $9 X,Y pos of 4 corners*
0 Add a 4 corners polygon primitive as box body*
4,1,4,$2,$3,$4,$5,$6,$7,$8,$9,$2,$3,0*
0 Add four circle primitives for the rounded corners*
1,1,$1+$1,$2,$3*
1,1,$1+$1,$4,$5*
1,1,$1+$1,$6,$7*
1,1,$1+$1,$8,$9*
0 Add four rect primitives between the rounded corners*
20,1,$1+$1,$2,$3,$4,$5,0*
20,1,$1+$1,$4,$5,$6,$7,0*
20,1,$1+$1,$6,$7,$8,$9,0*
20,1,$1+$1,$8,$9,$2,$3,0*%
G04 Aperture macros list end*
%ADD10RoundRect,0.237500X-0.237500X0.250000X-0.237500X-0.250000X0.237500X-0.250000X0.237500X0.250000X0*%
%ADD11RoundRect,0.150000X0.587500X0.150000X-0.587500X0.150000X-0.587500X-0.150000X0.587500X-0.150000X0*%
%ADD12RoundRect,0.237500X0.237500X-0.250000X0.237500X0.250000X-0.237500X0.250000X-0.237500X-0.250000X0*%
%ADD13RoundRect,0.150000X-0.150000X0.512500X-0.150000X-0.512500X0.150000X-0.512500X0.150000X0.512500X0*%
%ADD14RoundRect,0.375000X-0.375000X0.625000X-0.375000X-0.625000X0.375000X-0.625000X0.375000X0.625000X0*%
%ADD15RoundRect,0.500000X-1.400000X0.500000X-1.400000X-0.500000X1.400000X-0.500000X1.400000X0.500000X0*%
%ADD16RoundRect,0.237500X0.237500X-0.300000X0.237500X0.300000X-0.237500X0.300000X-0.237500X-0.300000X0*%
%ADD17RoundRect,0.237500X-0.300000X-0.237500X0.300000X-0.237500X0.300000X0.237500X-0.300000X0.237500X0*%
%ADD18RoundRect,0.237500X0.300000X0.237500X-0.300000X0.237500X-0.300000X-0.237500X0.300000X-0.237500X0*%
%ADD19R,1.450000X0.450000*%
%ADD20RoundRect,0.150000X0.150000X0.425000X-0.150000X0.425000X-0.150000X-0.425000X0.150000X-0.425000X0*%
%ADD21RoundRect,0.075000X0.075000X0.500000X-0.075000X0.500000X-0.075000X-0.500000X0.075000X-0.500000X0*%
%ADD22O,1.000000X2.100000*%
%ADD23O,1.000000X1.800000*%
%ADD24RoundRect,0.150000X-0.200000X0.150000X-0.200000X-0.150000X0.200000X-0.150000X0.200000X0.150000X0*%
%ADD25RoundRect,0.237500X0.250000X0.237500X-0.250000X0.237500X-0.250000X-0.237500X0.250000X-0.237500X0*%
%ADD26RoundRect,0.237500X-0.250000X-0.237500X0.250000X-0.237500X0.250000X0.237500X-0.250000X0.237500X0*%
%TA.AperFunction,Profile*%
%ADD27C,0.050000*%
%TD*%
G04 APERTURE END LIST*
D10*
%TO.C,R7*%
X171630000Y-111833500D03*
X171630000Y-113658500D03*
%TD*%
D11*
%TO.C,Q4*%
X153771500Y-89783300D03*
X153771500Y-87883300D03*
X151896500Y-88833300D03*
%TD*%
D12*
%TO.C,R4*%
X167820000Y-61080500D03*
X167820000Y-59255500D03*
%TD*%
%TO.C,R12*%
X158930000Y-113658500D03*
X158930000Y-111833500D03*
%TD*%
D13*
%TO.C,U3*%
X161150000Y-70662500D03*
X160200000Y-70662500D03*
X159250000Y-70662500D03*
X159250000Y-72937500D03*
X160200000Y-72937500D03*
X161150000Y-72937500D03*
%TD*%
D10*
%TO.C,R9*%
X161470000Y-88973500D03*
X161470000Y-90798500D03*
%TD*%
%TO.C,R11*%
X161470000Y-111833500D03*
X161470000Y-113658500D03*
%TD*%
D14*
%TO.C,LM1117_1V8*%
X170500000Y-68650000D03*
X168200000Y-68650000D03*
D15*
X168200000Y-74950000D03*
D14*
X165900000Y-68650000D03*
%TD*%
D10*
%TO.C,R6*%
X169090000Y-88973500D03*
X169090000Y-90798500D03*
%TD*%
D16*
%TO.C,C4*%
X157000000Y-75062500D03*
X157000000Y-73337500D03*
%TD*%
%TO.C,C2*%
X163400000Y-75062500D03*
X163400000Y-73337500D03*
%TD*%
D17*
%TO.C,C3*%
X151400000Y-65400000D03*
X153125000Y-65400000D03*
%TD*%
D12*
%TO.C,R17*%
X154662800Y-85972500D03*
X154662800Y-84147500D03*
%TD*%
D18*
%TO.C,C6*%
X161470000Y-81125000D03*
X159745000Y-81125000D03*
%TD*%
D17*
%TO.C,C1*%
X167275000Y-65400000D03*
X169000000Y-65400000D03*
%TD*%
D19*
%TO.C,IC1*%
X165275000Y-78475000D03*
X165275000Y-79125000D03*
X165275000Y-79775000D03*
X165275000Y-80425000D03*
X165275000Y-81075000D03*
X165275000Y-81725000D03*
X165275000Y-82375000D03*
X165275000Y-83025000D03*
X165275000Y-83675000D03*
X165275000Y-84325000D03*
X171125000Y-84325000D03*
X171125000Y-83675000D03*
X171125000Y-83025000D03*
X171125000Y-82375000D03*
X171125000Y-81725000D03*
X171125000Y-81075000D03*
X171125000Y-80425000D03*
X171125000Y-79775000D03*
X171125000Y-79125000D03*
X171125000Y-78475000D03*
%TD*%
D16*
%TO.C,C9*%
X157800000Y-81125000D03*
X157800000Y-79400000D03*
%TD*%
D20*
%TO.C,J4*%
X163400000Y-65880000D03*
X162600000Y-65880000D03*
D21*
X161450000Y-65880000D03*
X160450000Y-65880000D03*
X159950000Y-65880000D03*
X158950000Y-65880000D03*
D20*
X157800000Y-65880000D03*
X157000000Y-65880000D03*
X157000000Y-65880000D03*
X157800000Y-65880000D03*
D21*
X158450000Y-65880000D03*
X159450000Y-65880000D03*
X160950000Y-65880000D03*
X161950000Y-65880000D03*
D20*
X162600000Y-65880000D03*
X163400000Y-65880000D03*
D22*
X164520000Y-65305000D03*
D23*
X164520000Y-61125000D03*
D22*
X155880000Y-65305000D03*
D23*
X155880000Y-61125000D03*
%TD*%
D14*
%TO.C,LM1117_3V3*%
X154500000Y-68650000D03*
X152200000Y-68650000D03*
D15*
X152200000Y-74950000D03*
D14*
X149900000Y-68650000D03*
%TD*%
D18*
%TO.C,C7*%
X161470000Y-79218000D03*
X159745000Y-79218000D03*
%TD*%
D10*
%TO.C,R15*%
X177421200Y-86687500D03*
X177421200Y-88512500D03*
%TD*%
D12*
%TO.C,R5*%
X152580000Y-61080500D03*
X152580000Y-59255500D03*
%TD*%
D10*
%TO.C,R8*%
X164010000Y-88973500D03*
X164010000Y-90798500D03*
%TD*%
D24*
%TO.C,D3*%
X175744800Y-87893600D03*
X175744800Y-86493600D03*
%TD*%
D11*
%TO.C,Q2*%
X160403200Y-86431600D03*
X160403200Y-84531600D03*
X158528200Y-85481600D03*
%TD*%
D10*
%TO.C,R10*%
X158930000Y-88973500D03*
X158930000Y-90798500D03*
%TD*%
D25*
%TO.C,R16*%
X177825700Y-90851200D03*
X176000700Y-90851200D03*
%TD*%
D11*
%TO.C,Q3*%
X149707500Y-85871700D03*
X149707500Y-83971700D03*
X147832500Y-84921700D03*
%TD*%
D12*
%TO.C,R13*%
X156390000Y-113658500D03*
X156390000Y-111833500D03*
%TD*%
D10*
%TO.C,R14*%
X156390000Y-84147500D03*
X156390000Y-85972500D03*
%TD*%
D12*
%TO.C,R3*%
X177400000Y-84225000D03*
X177400000Y-82400000D03*
%TD*%
D26*
%TO.C,R18*%
X151972300Y-91918000D03*
X153797300Y-91918000D03*
%TD*%
D16*
%TO.C,C5*%
X177400000Y-80662500D03*
X177400000Y-78937500D03*
%TD*%
D27*
X185600000Y-123160000D02*
X144960000Y-123160000D01*
X185600000Y-57120000D02*
X185600000Y-123160000D01*
X144960000Y-57120000D02*
X185600000Y-57120000D01*
X144960000Y-123160000D02*
X144960000Y-57120000D01*
M02*
