%TF.GenerationSoftware,KiCad,Pcbnew,9.0.1*%
%TF.CreationDate,2025-10-02T09:28:13+08:00*%
%TF.ProjectId,M032FC1AE,4d303332-4643-4314-9145-2e6b69636164,rev?*%
%TF.SameCoordinates,Original*%
%TF.FileFunction,Copper,L2,Bot*%
%TF.FilePolarity,Positive*%
%FSLAX46Y46*%
G04 Gerber Fmt 4.6, Leading zero omitted, Abs format (unit mm)*
G04 Created by KiCad (PCBNEW 9.0.1) date 2025-10-02 09:28:13*
%MOMM*%
%LPD*%
G01*
G04 APERTURE LIST*
%TA.AperFunction,ComponentPad*%
%ADD10C,2.000000*%
%TD*%
%TA.AperFunction,ComponentPad*%
%ADD11R,1.700000X1.700000*%
%TD*%
%TA.AperFunction,ComponentPad*%
%ADD12C,1.700000*%
%TD*%
%TA.AperFunction,ComponentPad*%
%ADD13R,1.440000X2.000000*%
%TD*%
%TA.AperFunction,ComponentPad*%
%ADD14O,1.440000X2.000000*%
%TD*%
%TA.AperFunction,HeatsinkPad*%
%ADD15O,1.000000X2.100000*%
%TD*%
%TA.AperFunction,HeatsinkPad*%
%ADD16O,1.000000X1.800000*%
%TD*%
%TA.AperFunction,ComponentPad*%
%ADD17R,1.800000X1.800000*%
%TD*%
%TA.AperFunction,ComponentPad*%
%ADD18C,1.800000*%
%TD*%
%TA.AperFunction,ViaPad*%
%ADD19C,0.600000*%
%TD*%
%TA.AperFunction,Conductor*%
%ADD20C,0.304800*%
%TD*%
%TA.AperFunction,Conductor*%
%ADD21C,0.200000*%
%TD*%
%TA.AperFunction,Profile*%
%ADD22C,0.050000*%
%TD*%
G04 APERTURE END LIST*
D10*
%TO.P,ISP,1,1*%
%TO.N,GND*%
X174950000Y-69950000D03*
X181450000Y-69950000D03*
%TO.P,ISP,2,2*%
%TO.N,ISP*%
X174950000Y-74450000D03*
X181450000Y-74450000D03*
%TD*%
D11*
%TO.P,J5,1,Pin_1*%
%TO.N,Net-(J5-Pin_1)*%
X154740000Y-80600000D03*
D12*
%TO.P,J5,2,Pin_2*%
%TO.N,VCC*%
X152200000Y-80600000D03*
%TO.P,J5,3,Pin_3*%
%TO.N,+3.3V*%
X149660000Y-80600000D03*
%TD*%
D13*
%TO.P,J7,1,Pin_1*%
%TO.N,bus_spi_ss*%
X174170000Y-97491500D03*
D14*
%TO.P,J7,2,Pin_2*%
%TO.N,bus_spi_miso*%
X171630000Y-97491500D03*
%TO.P,J7,3,Pin_3*%
%TO.N,Net-(J7-Pin_3)*%
X169090000Y-97491500D03*
%TO.P,J7,4,Pin_4*%
%TO.N,GND*%
X166550000Y-97491500D03*
%TO.P,J7,5,Pin_5*%
%TO.N,Net-(J7-Pin_5)*%
X164010000Y-97491500D03*
%TO.P,J7,6,Pin_6*%
%TO.N,Net-(J7-Pin_6)*%
X161470000Y-97491500D03*
%TO.P,J7,7,Pin_7*%
%TO.N,Net-(J7-Pin_7)*%
X158930000Y-97491500D03*
%TO.P,J7,8,Pin_8*%
%TO.N,GND*%
X156390000Y-97491500D03*
%TO.P,J7,9,Pin_9*%
%TO.N,bus_usci1_data*%
X156390000Y-105111500D03*
%TO.P,J7,10,Pin_10*%
%TO.N,bus_usci1_clk*%
X158930000Y-105111500D03*
%TO.P,J7,11,Pin_11*%
%TO.N,Net-(J7-Pin_11)*%
X161470000Y-105111500D03*
%TO.P,J7,12,Pin_12*%
%TO.N,VCC_IO*%
X164010000Y-105111500D03*
%TO.P,J7,13,Pin_13*%
%TO.N,bus_spi_mosi*%
X166550000Y-105111500D03*
%TO.P,J7,14,Pin_14*%
%TO.N,bus_spi_clk*%
X169090000Y-105111500D03*
%TO.P,J7,15,Pin_15*%
%TO.N,Net-(J7-Pin_15)*%
X171630000Y-105111500D03*
%TO.P,J7,16,Pin_16*%
%TO.N,VCC_IO*%
X174170000Y-105111500D03*
%TD*%
D10*
%TO.P,RST,1,1*%
%TO.N,GND*%
X174950000Y-59950000D03*
X181450000Y-59950000D03*
%TO.P,RST,2,2*%
%TO.N,rst*%
X174950000Y-64450000D03*
X181450000Y-64450000D03*
%TD*%
D15*
%TO.P,J4,S1,SHIELD*%
%TO.N,GND*%
X164520000Y-65305000D03*
D16*
X164520000Y-61125000D03*
D15*
X155880000Y-65305000D03*
D16*
X155880000Y-61125000D03*
%TD*%
D17*
%TO.P,ISP/PRG,1,K*%
%TO.N,Net-(D2-K)*%
X148465200Y-90800400D03*
D18*
%TO.P,ISP/PRG,2,A*%
%TO.N,Net-(D2-A)*%
X148465200Y-88260400D03*
%TD*%
D11*
%TO.P,J6,1,Pin_1*%
%TO.N,VCC*%
X180520000Y-89800000D03*
D12*
%TO.P,J6,2,Pin_2*%
%TO.N,ice_dat*%
X180520000Y-87260000D03*
%TO.P,J6,3,Pin_3*%
%TO.N,ice_clk*%
X180520000Y-84720000D03*
%TO.P,J6,4,Pin_4*%
%TO.N,rst*%
X180520000Y-82180000D03*
%TO.P,J6,5,Pin_5*%
%TO.N,GND*%
X180520000Y-79640000D03*
%TD*%
D11*
%TO.P,J1,1,Pin_1*%
%TO.N,VCC_IO*%
X174200000Y-118800000D03*
D12*
%TO.P,J1,2,Pin_2*%
%TO.N,bus_spi_ss*%
X171660000Y-118800000D03*
%TO.P,J1,3,Pin_3*%
%TO.N,bus_spi_clk*%
X169120000Y-118800000D03*
%TO.P,J1,4,Pin_4*%
%TO.N,bus_spi_miso*%
X166580000Y-118800000D03*
%TO.P,J1,5,Pin_5*%
%TO.N,bus_spi_mosi*%
X164040000Y-118800000D03*
%TO.P,J1,6,Pin_6*%
%TO.N,GND*%
X161500000Y-118800000D03*
%TO.P,J1,7,Pin_7*%
%TO.N,VCC_IO*%
X158960000Y-118800000D03*
%TO.P,J1,8,Pin_8*%
%TO.N,bus_usci1_clk*%
X156420000Y-118800000D03*
%TO.P,J1,9,Pin_9*%
%TO.N,bus_usci1_data*%
X153880000Y-118800000D03*
%TO.P,J1,10,Pin_10*%
%TO.N,GND*%
X151340000Y-118800000D03*
%TD*%
D11*
%TO.P,J2,1,Pin_1*%
%TO.N,uart_rx*%
X180520000Y-113660000D03*
D12*
%TO.P,J2,2,Pin_2*%
%TO.N,uart_tx*%
X180520000Y-116200000D03*
%TO.P,J2,3,Pin_3*%
%TO.N,GND*%
X180520000Y-118740000D03*
%TD*%
D19*
%TO.N,GND*%
X154485000Y-70709000D03*
X170487000Y-66645000D03*
X160200000Y-74646000D03*
X160200000Y-107564400D03*
X180520000Y-77186000D03*
X178742000Y-79726000D03*
X166931000Y-80488000D03*
X170487000Y-70709000D03*
X164264000Y-107564400D03*
X168963000Y-63851000D03*
X154485000Y-65375000D03*
X166550000Y-99538000D03*
X169344000Y-59279000D03*
X180520000Y-121128000D03*
X162232000Y-73376000D03*
X172392000Y-68677000D03*
X177421200Y-85466400D03*
X167769200Y-117419600D03*
X151183000Y-59279000D03*
X167515200Y-107564400D03*
X172061800Y-85822000D03*
X170487000Y-65375000D03*
X156390000Y-68677000D03*
X153088000Y-64105000D03*
X160200000Y-69058000D03*
X163375000Y-72233000D03*
%TO.N,VBUS*%
X168836000Y-78710000D03*
X165788000Y-71090000D03*
%TO.N,Net-(J5-Pin_1)*%
X163248000Y-76678000D03*
%TO.N,VCC*%
X167312000Y-84044000D03*
X167312000Y-81758000D03*
X148566800Y-82824800D03*
X157914000Y-82520000D03*
%TO.N,bus_spi_clk*%
X165280000Y-102789200D03*
%TO.N,bus_usci1_clk*%
X170131400Y-101747800D03*
%TO.N,bus_spi_miso*%
X166423000Y-95347000D03*
%TO.N,ice_clk*%
X175490800Y-77186000D03*
%TO.N,ice_dat*%
X175033600Y-80742000D03*
%TO.N,bus_usci1_data*%
X172874600Y-100681000D03*
%TO.N,VCC_IO*%
X151259200Y-84450400D03*
X151259200Y-110815600D03*
X167515200Y-88971600D03*
%TO.N,Net-(Q2-B)*%
X174881200Y-91765600D03*
X162028800Y-87041200D03*
%TO.N,Net-(Q3-G)*%
X146179200Y-86330000D03*
X156644000Y-87244400D03*
%TD*%
D20*
%TO.N,VBUS*%
X165788000Y-75662000D02*
X168836000Y-78710000D01*
X165788000Y-71090000D02*
X165788000Y-75662000D01*
%TO.N,Net-(J5-Pin_1)*%
X154740000Y-77566000D02*
X154740000Y-80600000D01*
X163248000Y-76678000D02*
X155628000Y-76678000D01*
X155628000Y-76678000D02*
X154740000Y-77566000D01*
%TO.N,rst*%
X174950000Y-64450000D02*
X181450000Y-64450000D01*
%TO.N,VCC*%
X148566800Y-82824800D02*
X152529200Y-82824800D01*
X167312000Y-81758000D02*
X167312000Y-84044000D01*
X167312000Y-81758000D02*
X162994000Y-81758000D01*
X161978000Y-82774000D02*
X158168000Y-82774000D01*
X152200000Y-81886000D02*
X152834000Y-82520000D01*
X152529200Y-82824800D02*
X152834000Y-82520000D01*
X152200000Y-80600000D02*
X152200000Y-81886000D01*
X158168000Y-82774000D02*
X157914000Y-82520000D01*
X152834000Y-82520000D02*
X157914000Y-82520000D01*
X167285000Y-81785000D02*
X167312000Y-81758000D01*
X167312000Y-84044000D02*
X173068000Y-89800000D01*
X173068000Y-89800000D02*
X180520000Y-89800000D01*
X162994000Y-81758000D02*
X161978000Y-82774000D01*
%TO.N,+3.3V*%
X149600000Y-80660000D02*
X149660000Y-80600000D01*
%TO.N,bus_spi_clk*%
X168190544Y-115247697D02*
X168190544Y-115127697D01*
X169809456Y-114287697D02*
X169120000Y-114287697D01*
X170049456Y-115847697D02*
X170049456Y-115727697D01*
X169120000Y-112247697D02*
X169120000Y-112127697D01*
X168074000Y-102789200D02*
X169140800Y-103856000D01*
X168190555Y-112847697D02*
X168190555Y-112727697D01*
X169120000Y-114887697D02*
X169809456Y-114887697D01*
X168430544Y-114887697D02*
X169120000Y-114887697D01*
X170049456Y-114647697D02*
X170049456Y-114527697D01*
X168190550Y-114047697D02*
X168190550Y-113927697D01*
X169120000Y-114287697D02*
X168430550Y-114287697D01*
X169120000Y-115487697D02*
X168430544Y-115487697D01*
X169120000Y-111491443D02*
X169120000Y-105141500D01*
X170049449Y-113447697D02*
X170049449Y-113327697D01*
X169809456Y-115487697D02*
X169360000Y-115487697D01*
X169140800Y-105060700D02*
X169090000Y-105111500D01*
X169809449Y-113087697D02*
X169120000Y-113087697D01*
X169140800Y-103856000D02*
X169140800Y-105060700D01*
X169120000Y-113087697D02*
X168880000Y-113087697D01*
X168880000Y-113087697D02*
X168430555Y-113087697D01*
X169360000Y-115487697D02*
X169120000Y-115487697D01*
X168430550Y-113687697D02*
X169120000Y-113687697D01*
X165280000Y-102789200D02*
X168074000Y-102789200D01*
X168430555Y-112487697D02*
X168880000Y-112487697D01*
X169120000Y-118800000D02*
X169120000Y-116327697D01*
X169120000Y-105141500D02*
X169090000Y-105111500D01*
X169120000Y-112127697D02*
X169120000Y-111491443D01*
X169120000Y-113687697D02*
X169809449Y-113687697D01*
X169360000Y-116087697D02*
X169809456Y-116087697D01*
X170049456Y-115727697D02*
G75*
G03*
X169809456Y-115487744I-239956J-3D01*
G01*
X168880000Y-112487697D02*
G75*
G03*
X169119997Y-112247697I0J239997D01*
G01*
X168190555Y-112727697D02*
G75*
G02*
X168430555Y-112487655I240045J-3D01*
G01*
X169120000Y-116327697D02*
G75*
G02*
X169360000Y-116087700I240000J-3D01*
G01*
X168190544Y-115127697D02*
G75*
G02*
X168430544Y-114887744I239956J-3D01*
G01*
X169809456Y-114887697D02*
G75*
G03*
X170049497Y-114647697I44J239997D01*
G01*
X168430544Y-115487697D02*
G75*
G02*
X168190503Y-115247697I-44J239997D01*
G01*
X168190550Y-113927697D02*
G75*
G02*
X168430550Y-113687750I239950J-3D01*
G01*
X170049449Y-113327697D02*
G75*
G03*
X169809449Y-113087751I-239949J-3D01*
G01*
X169809449Y-113687697D02*
G75*
G03*
X170049497Y-113447697I51J239997D01*
G01*
X168430550Y-114287697D02*
G75*
G02*
X168190503Y-114047697I-50J239997D01*
G01*
X168430555Y-113087697D02*
G75*
G02*
X168190603Y-112847697I45J239997D01*
G01*
X170049456Y-114527697D02*
G75*
G03*
X169809456Y-114287744I-239956J-3D01*
G01*
X169809456Y-116087697D02*
G75*
G03*
X170049497Y-115847697I44J239997D01*
G01*
%TO.N,bus_usci1_clk*%
X162732200Y-101747800D02*
X162732200Y-102333108D01*
X162132200Y-101747800D02*
X162132200Y-101595400D01*
X156420000Y-114760908D02*
X156420000Y-108474200D01*
X164172200Y-102556008D02*
X164292200Y-102556008D01*
X162972200Y-102573108D02*
X163092200Y-102573108D01*
X158930000Y-105111500D02*
X158930000Y-104110000D01*
X156087494Y-116372453D02*
X156087494Y-116104959D01*
X163932200Y-101595400D02*
X163932200Y-101747800D01*
X156420000Y-115772453D02*
X156420000Y-115504959D01*
X164772200Y-101747800D02*
X164892200Y-101747800D01*
X162284600Y-101443000D02*
X162579800Y-101443000D01*
X163932200Y-101747800D02*
X163932200Y-101987800D01*
X165704376Y-101747800D02*
X170131400Y-101747800D01*
X162132200Y-101987800D02*
X162132200Y-101747800D01*
X158930000Y-104110000D02*
X161292200Y-101747800D01*
X162732200Y-101595400D02*
X162732200Y-101747800D01*
X163932200Y-101987800D02*
X163932200Y-102316008D01*
X163332200Y-102333108D02*
X163332200Y-101747800D01*
X162132200Y-102337372D02*
X162132200Y-101987800D01*
X156420000Y-108474200D02*
X158930000Y-105964200D01*
X163484600Y-101443000D02*
X163779800Y-101443000D01*
X164532200Y-102316008D02*
X164532200Y-101987800D01*
X156420000Y-115504959D02*
X156420000Y-114760908D01*
X156420000Y-118800000D02*
X156420000Y-116704959D01*
X158930000Y-105964200D02*
X158930000Y-105111500D01*
X164892200Y-101747800D02*
X165704376Y-101747800D01*
X161772200Y-102577372D02*
X161892200Y-102577372D01*
X161532200Y-101987800D02*
X161532200Y-102337372D01*
X163332200Y-101747800D02*
X163332200Y-101595400D01*
X164532200Y-101987800D02*
G75*
G02*
X164772200Y-101747800I240000J0D01*
G01*
X163092200Y-102573108D02*
G75*
G03*
X163332208Y-102333108I0J240008D01*
G01*
X164292200Y-102556008D02*
G75*
G03*
X164532208Y-102316008I0J240008D01*
G01*
X156087494Y-116104959D02*
G75*
G02*
X156253747Y-115938794I166206J-41D01*
G01*
X156420000Y-116704959D02*
G75*
G03*
X156253747Y-116538700I-166300J-41D01*
G01*
X162579800Y-101443000D02*
G75*
G02*
X162732200Y-101595400I0J-152400D01*
G01*
X162732200Y-102333108D02*
G75*
G03*
X162972200Y-102573100I240000J8D01*
G01*
X161532200Y-102337372D02*
G75*
G03*
X161772200Y-102577400I240000J-28D01*
G01*
X156253747Y-115938706D02*
G75*
G03*
X156419906Y-115772453I-47J166206D01*
G01*
X163779800Y-101443000D02*
G75*
G02*
X163932200Y-101595400I0J-152400D01*
G01*
X163332200Y-101595400D02*
G75*
G02*
X163484600Y-101443000I152400J0D01*
G01*
X163932200Y-102316008D02*
G75*
G03*
X164172200Y-102556000I240000J8D01*
G01*
X162132200Y-101595400D02*
G75*
G02*
X162284600Y-101443000I152400J0D01*
G01*
X161892200Y-102577372D02*
G75*
G03*
X162132172Y-102337372I0J239972D01*
G01*
X161292200Y-101747800D02*
G75*
G02*
X161532200Y-101987800I0J-240000D01*
G01*
X156253747Y-116538706D02*
G75*
G02*
X156087494Y-116372453I-47J166206D01*
G01*
%TO.N,bus_spi_miso*%
X169346491Y-94655251D02*
X169346491Y-94153200D01*
X170306491Y-94153200D02*
X170723942Y-94153200D01*
X170186491Y-94153200D02*
X170306491Y-94153200D01*
X170969600Y-94153200D02*
X171630000Y-94813600D01*
X166854800Y-94153200D02*
X167906491Y-94153200D01*
X168146491Y-93913200D02*
X168146491Y-93651152D01*
X168386491Y-93411152D02*
X168506491Y-93411152D01*
X169346491Y-94153200D02*
X169346491Y-93913200D01*
X166423000Y-95347000D02*
X166423000Y-94585000D01*
X169346491Y-93913200D02*
X169346491Y-93651154D01*
X166423000Y-94585000D02*
X166854800Y-94153200D01*
X168746491Y-93651152D02*
X168746491Y-93913200D01*
X168986491Y-94895251D02*
X169106491Y-94895251D01*
X169586491Y-93411154D02*
X169706491Y-93411154D01*
X170723942Y-94153200D02*
X170969600Y-94153200D01*
X168746491Y-93913200D02*
X168746491Y-94153200D01*
X171630000Y-94813600D02*
X171630000Y-97491500D01*
X168746491Y-94153200D02*
X168746491Y-94655251D01*
X169946491Y-93651154D02*
X169946491Y-93913200D01*
X169706491Y-93411154D02*
G75*
G02*
X169946546Y-93651154I9J-240046D01*
G01*
X168746491Y-94655251D02*
G75*
G03*
X168986491Y-94895309I240009J-49D01*
G01*
X167906491Y-94153200D02*
G75*
G03*
X168146500Y-93913200I9J240000D01*
G01*
X169106491Y-94895251D02*
G75*
G03*
X169346451Y-94655251I9J239951D01*
G01*
X168146491Y-93651152D02*
G75*
G02*
X168386491Y-93411191I240009J-48D01*
G01*
X168506491Y-93411152D02*
G75*
G02*
X168746548Y-93651152I9J-240048D01*
G01*
X169346491Y-93651154D02*
G75*
G02*
X169586491Y-93411191I240009J-46D01*
G01*
X169946491Y-93913200D02*
G75*
G03*
X170186491Y-94153209I240009J0D01*
G01*
%TO.N,ice_clk*%
X177573600Y-78387470D02*
X176372130Y-77186000D01*
X177843200Y-84720000D02*
X177573600Y-84450400D01*
X177573600Y-84450400D02*
X177573600Y-78387470D01*
X180520000Y-84720000D02*
X177843200Y-84720000D01*
X176372130Y-77186000D02*
X175490800Y-77186000D01*
%TO.N,ice_dat*%
X175084400Y-84958400D02*
X175084400Y-80792800D01*
X175084400Y-84958400D02*
X177386000Y-87260000D01*
X177386000Y-87260000D02*
X180520000Y-87260000D01*
X175084400Y-80792800D02*
X175033600Y-80742000D01*
%TO.N,bus_usci1_data*%
X172856200Y-100699400D02*
X172874600Y-100681000D01*
X153880000Y-107051800D02*
X155820300Y-105111500D01*
X171611600Y-100699400D02*
X160802100Y-100699400D01*
X155820300Y-105111500D02*
X156390000Y-105111500D01*
X160802100Y-100699400D02*
X156390000Y-105111500D01*
X153880000Y-118800000D02*
X153880000Y-107051800D01*
X171611600Y-100699400D02*
X172856200Y-100699400D01*
%TO.N,ISP*%
X174950000Y-74450000D02*
X181450000Y-74450000D01*
%TO.N,VCC_IO*%
X174170000Y-118770000D02*
X174200000Y-118800000D01*
X173814400Y-120518400D02*
X174200000Y-120132800D01*
X154205600Y-92070400D02*
X167312000Y-92070400D01*
X158960000Y-118800000D02*
X160678400Y-120518400D01*
X162816200Y-114943800D02*
X162816200Y-106305300D01*
X160678400Y-120518400D02*
X173814400Y-120518400D01*
X167515200Y-91867200D02*
X167515200Y-88971600D01*
X167312000Y-92070400D02*
X167515200Y-91867200D01*
X151259200Y-95016800D02*
X151259200Y-110815600D01*
X151259200Y-84450400D02*
X151259200Y-95016800D01*
X162816200Y-106305300D02*
X164010000Y-105111500D01*
X151259200Y-95016800D02*
X154205600Y-92070400D01*
X158960000Y-118800000D02*
X162816200Y-114943800D01*
X174200000Y-120132800D02*
X174200000Y-119305800D01*
D21*
%TO.N,Net-(Q2-B)*%
X162435200Y-86634800D02*
X162028800Y-87041200D01*
X174881200Y-91765600D02*
X172442800Y-91765600D01*
X162028800Y-87041200D02*
X161978000Y-86990400D01*
X172442800Y-91765600D02*
X167312000Y-86634800D01*
X167312000Y-86634800D02*
X162435200Y-86634800D01*
%TO.N,Net-(Q3-G)*%
X153037200Y-83637600D02*
X156644000Y-87244400D01*
X146179200Y-86330000D02*
X146179200Y-84806000D01*
X147347600Y-83637600D02*
X153037200Y-83637600D01*
X146179200Y-84806000D02*
X147347600Y-83637600D01*
%TD*%
%TA.AperFunction,Conductor*%
%TO.N,GND*%
G36*
X167874711Y-105722458D02*
G01*
X167926187Y-105769702D01*
X167937931Y-105795419D01*
X167958915Y-105860004D01*
X167958918Y-105860009D01*
X168046135Y-106031181D01*
X168159055Y-106186602D01*
X168294898Y-106322445D01*
X168415986Y-106410421D01*
X168458651Y-106465748D01*
X168467100Y-106510737D01*
X168467100Y-111710769D01*
X168447415Y-111777808D01*
X168394611Y-111823563D01*
X168348499Y-111833601D01*
X168348556Y-111834172D01*
X168343661Y-111834654D01*
X168343137Y-111834769D01*
X168342502Y-111834769D01*
X168342491Y-111834770D01*
X168170013Y-111869107D01*
X168110053Y-111893952D01*
X168007533Y-111936435D01*
X168007532Y-111936436D01*
X167861311Y-112034161D01*
X167736958Y-112158535D01*
X167639260Y-112304772D01*
X167571962Y-112467259D01*
X167538786Y-112634066D01*
X167537655Y-112639753D01*
X167537655Y-112727689D01*
X167537654Y-112801253D01*
X167537655Y-112801257D01*
X167537655Y-112917577D01*
X167537701Y-112918519D01*
X167537701Y-112935624D01*
X167572004Y-113108105D01*
X167572005Y-113108108D01*
X167639295Y-113270589D01*
X167639299Y-113270595D01*
X167671491Y-113318782D01*
X167692363Y-113385461D01*
X167673873Y-113452839D01*
X167671480Y-113456563D01*
X167639299Y-113504716D01*
X167639298Y-113504717D01*
X167571974Y-113667224D01*
X167571973Y-113667229D01*
X167537651Y-113839737D01*
X167537651Y-113859522D01*
X167537651Y-113863384D01*
X167537650Y-113863392D01*
X167537650Y-113918752D01*
X167537650Y-113927691D01*
X167537649Y-113996282D01*
X167537603Y-113996438D01*
X167537603Y-114135644D01*
X167571924Y-114308173D01*
X167571925Y-114308176D01*
X167639248Y-114470688D01*
X167639249Y-114470690D01*
X167671425Y-114518838D01*
X167692308Y-114585512D01*
X167673828Y-114652894D01*
X167671426Y-114656632D01*
X167639290Y-114704720D01*
X167571967Y-114867228D01*
X167537645Y-115039744D01*
X167537645Y-115059522D01*
X167537645Y-115063384D01*
X167537644Y-115063392D01*
X167537644Y-115110145D01*
X167537644Y-115127689D01*
X167537643Y-115196288D01*
X167537603Y-115196424D01*
X167537603Y-115247689D01*
X167537603Y-115335642D01*
X167568743Y-115492184D01*
X167571923Y-115508167D01*
X167571925Y-115508175D01*
X167639244Y-115670681D01*
X167736982Y-115816937D01*
X167736984Y-115816939D01*
X167861377Y-115941313D01*
X167934956Y-115990465D01*
X168007651Y-116039026D01*
X168170178Y-116106321D01*
X168318831Y-116135866D01*
X168342704Y-116140611D01*
X168342705Y-116140611D01*
X168342710Y-116140612D01*
X168343065Y-116140611D01*
X168343246Y-116140664D01*
X168348770Y-116141208D01*
X168348667Y-116142254D01*
X168351767Y-116143164D01*
X168360747Y-116141873D01*
X168384769Y-116152843D01*
X168410107Y-116160275D01*
X168416049Y-116167128D01*
X168424303Y-116170898D01*
X168438581Y-116193116D01*
X168455878Y-116213065D01*
X168458171Y-116223598D01*
X168462077Y-116229676D01*
X168467100Y-116264611D01*
X168467100Y-116327691D01*
X168467099Y-116408847D01*
X168467100Y-116408864D01*
X168467100Y-117541868D01*
X168447415Y-117608907D01*
X168415985Y-117642186D01*
X168240214Y-117769890D01*
X168240209Y-117769894D01*
X168089890Y-117920213D01*
X167964949Y-118092182D01*
X167960484Y-118100946D01*
X167912509Y-118151742D01*
X167844688Y-118168536D01*
X167778553Y-118145998D01*
X167739516Y-118100946D01*
X167735050Y-118092182D01*
X167610109Y-117920213D01*
X167459786Y-117769890D01*
X167287820Y-117644951D01*
X167098414Y-117548444D01*
X167098413Y-117548443D01*
X167098412Y-117548443D01*
X166896243Y-117482754D01*
X166896241Y-117482753D01*
X166896240Y-117482753D01*
X166734957Y-117457208D01*
X166686287Y-117449500D01*
X166473713Y-117449500D01*
X166425042Y-117457208D01*
X166263760Y-117482753D01*
X166061585Y-117548444D01*
X165872179Y-117644951D01*
X165700213Y-117769890D01*
X165549890Y-117920213D01*
X165424949Y-118092182D01*
X165420484Y-118100946D01*
X165372509Y-118151742D01*
X165304688Y-118168536D01*
X165238553Y-118145998D01*
X165199516Y-118100946D01*
X165195050Y-118092182D01*
X165070109Y-117920213D01*
X164919786Y-117769890D01*
X164747820Y-117644951D01*
X164558414Y-117548444D01*
X164558413Y-117548443D01*
X164558412Y-117548443D01*
X164356243Y-117482754D01*
X164356241Y-117482753D01*
X164356240Y-117482753D01*
X164194957Y-117457208D01*
X164146287Y-117449500D01*
X163933713Y-117449500D01*
X163885042Y-117457208D01*
X163723760Y-117482753D01*
X163521585Y-117548444D01*
X163332179Y-117644951D01*
X163160213Y-117769890D01*
X163009890Y-117920213D01*
X162884949Y-118092182D01*
X162880202Y-118101499D01*
X162832227Y-118152293D01*
X162764405Y-118169087D01*
X162698271Y-118146548D01*
X162659234Y-118101495D01*
X162654626Y-118092452D01*
X162615270Y-118038282D01*
X162615269Y-118038282D01*
X161982962Y-118670589D01*
X161965925Y-118607007D01*
X161900099Y-118492993D01*
X161807007Y-118399901D01*
X161692993Y-118334075D01*
X161629407Y-118317036D01*
X162261716Y-117684728D01*
X162207550Y-117645375D01*
X162018217Y-117548904D01*
X161816129Y-117483242D01*
X161606246Y-117450000D01*
X161532701Y-117450000D01*
X161465662Y-117430315D01*
X161419907Y-117377511D01*
X161409963Y-117308353D01*
X161438988Y-117244797D01*
X161445006Y-117238333D01*
X163323340Y-115360000D01*
X163394792Y-115253064D01*
X163444009Y-115134244D01*
X163454000Y-115084017D01*
X163458104Y-115063384D01*
X163469100Y-115008107D01*
X163469100Y-106669731D01*
X163488785Y-106602692D01*
X163541589Y-106556937D01*
X163610747Y-106546993D01*
X163631406Y-106551797D01*
X163724199Y-106581947D01*
X163913945Y-106612000D01*
X163913946Y-106612000D01*
X164106054Y-106612000D01*
X164106055Y-106612000D01*
X164295801Y-106581947D01*
X164478509Y-106522582D01*
X164649681Y-106435365D01*
X164805102Y-106322445D01*
X164940945Y-106186602D01*
X165053865Y-106031181D01*
X165141082Y-105860009D01*
X165141084Y-105860004D01*
X165162069Y-105795419D01*
X165201506Y-105737743D01*
X165265864Y-105710544D01*
X165334711Y-105722458D01*
X165386187Y-105769702D01*
X165397931Y-105795419D01*
X165418915Y-105860004D01*
X165418918Y-105860009D01*
X165506135Y-106031181D01*
X165619055Y-106186602D01*
X165754898Y-106322445D01*
X165910319Y-106435365D01*
X166036995Y-106499910D01*
X166081493Y-106522583D01*
X166156621Y-106546993D01*
X166264199Y-106581947D01*
X166453945Y-106612000D01*
X166453946Y-106612000D01*
X166646054Y-106612000D01*
X166646055Y-106612000D01*
X166835801Y-106581947D01*
X167018509Y-106522582D01*
X167189681Y-106435365D01*
X167345102Y-106322445D01*
X167480945Y-106186602D01*
X167593865Y-106031181D01*
X167681082Y-105860009D01*
X167681084Y-105860004D01*
X167702069Y-105795419D01*
X167741506Y-105737743D01*
X167805864Y-105710544D01*
X167874711Y-105722458D01*
G37*
%TD.AperFunction*%
%TA.AperFunction,Conductor*%
G36*
X160254711Y-105722458D02*
G01*
X160306187Y-105769702D01*
X160317931Y-105795419D01*
X160338915Y-105860004D01*
X160338918Y-105860009D01*
X160426135Y-106031181D01*
X160539055Y-106186602D01*
X160674898Y-106322445D01*
X160830319Y-106435365D01*
X160956995Y-106499910D01*
X161001493Y-106522583D01*
X161076621Y-106546993D01*
X161184199Y-106581947D01*
X161373945Y-106612000D01*
X161373946Y-106612000D01*
X161566054Y-106612000D01*
X161566055Y-106612000D01*
X161755801Y-106581947D01*
X161938509Y-106522582D01*
X161983005Y-106499909D01*
X162051674Y-106487014D01*
X162116414Y-106513290D01*
X162156672Y-106570396D01*
X162163300Y-106610395D01*
X162163300Y-114621996D01*
X162143615Y-114689035D01*
X162126981Y-114709677D01*
X159387961Y-117448696D01*
X159326638Y-117482181D01*
X159280882Y-117483488D01*
X159079274Y-117451557D01*
X159066287Y-117449500D01*
X158853713Y-117449500D01*
X158805042Y-117457208D01*
X158643760Y-117482753D01*
X158441585Y-117548444D01*
X158252179Y-117644951D01*
X158080213Y-117769890D01*
X157929890Y-117920213D01*
X157804949Y-118092182D01*
X157800484Y-118100946D01*
X157752509Y-118151742D01*
X157684688Y-118168536D01*
X157618553Y-118145998D01*
X157579516Y-118100946D01*
X157575050Y-118092182D01*
X157450109Y-117920213D01*
X157299790Y-117769894D01*
X157299785Y-117769890D01*
X157124015Y-117642186D01*
X157081349Y-117586856D01*
X157072900Y-117541868D01*
X157072900Y-116778440D01*
X157072918Y-116778362D01*
X157072900Y-116704798D01*
X157072900Y-116640654D01*
X157072900Y-116634696D01*
X157072878Y-116634288D01*
X157072877Y-116624142D01*
X157041378Y-116465934D01*
X157021066Y-116416913D01*
X156979631Y-116316911D01*
X156979628Y-116316906D01*
X156973428Y-116307628D01*
X156952547Y-116240951D01*
X156971029Y-116173570D01*
X156973408Y-116169866D01*
X156975237Y-116167128D01*
X156979775Y-116160332D01*
X157041486Y-116011229D01*
X157072923Y-115852953D01*
X157072900Y-115772268D01*
X157072900Y-115440654D01*
X157072900Y-114696603D01*
X157072900Y-108796002D01*
X157092585Y-108728963D01*
X157109219Y-108708321D01*
X157759546Y-108057994D01*
X159224069Y-106593470D01*
X159273431Y-106563222D01*
X159398503Y-106522584D01*
X159398509Y-106522582D01*
X159443005Y-106499910D01*
X159569681Y-106435365D01*
X159725102Y-106322445D01*
X159860945Y-106186602D01*
X159973865Y-106031181D01*
X160061082Y-105860009D01*
X160061084Y-105860004D01*
X160082069Y-105795419D01*
X160121506Y-105737743D01*
X160185864Y-105710544D01*
X160254711Y-105722458D01*
G37*
%TD.AperFunction*%
%TA.AperFunction,Conductor*%
G36*
X185042539Y-57640185D02*
G01*
X185088294Y-57692989D01*
X185099500Y-57744500D01*
X185099500Y-122535500D01*
X185079815Y-122602539D01*
X185027011Y-122648294D01*
X184975500Y-122659500D01*
X145584500Y-122659500D01*
X145517461Y-122639815D01*
X145471706Y-122587011D01*
X145460500Y-122535500D01*
X145460500Y-118693753D01*
X149990000Y-118693753D01*
X149990000Y-118906246D01*
X150023242Y-119116127D01*
X150023242Y-119116130D01*
X150088904Y-119318217D01*
X150185375Y-119507550D01*
X150224728Y-119561716D01*
X150857037Y-118929408D01*
X150874075Y-118992993D01*
X150939901Y-119107007D01*
X151032993Y-119200099D01*
X151147007Y-119265925D01*
X151210590Y-119282962D01*
X150578282Y-119915269D01*
X150578282Y-119915270D01*
X150632449Y-119954624D01*
X150821782Y-120051095D01*
X151023870Y-120116757D01*
X151233754Y-120150000D01*
X151446246Y-120150000D01*
X151656127Y-120116757D01*
X151656130Y-120116757D01*
X151858217Y-120051095D01*
X152047554Y-119954622D01*
X152101716Y-119915270D01*
X152101717Y-119915270D01*
X151469408Y-119282962D01*
X151532993Y-119265925D01*
X151647007Y-119200099D01*
X151740099Y-119107007D01*
X151805925Y-118992993D01*
X151822962Y-118929408D01*
X152455270Y-119561717D01*
X152455270Y-119561716D01*
X152494622Y-119507555D01*
X152499232Y-119498507D01*
X152547205Y-119447709D01*
X152615025Y-119430912D01*
X152681161Y-119453447D01*
X152720204Y-119498504D01*
X152724949Y-119507817D01*
X152849890Y-119679786D01*
X153000213Y-119830109D01*
X153172179Y-119955048D01*
X153172181Y-119955049D01*
X153172184Y-119955051D01*
X153361588Y-120051557D01*
X153563757Y-120117246D01*
X153773713Y-120150500D01*
X153773714Y-120150500D01*
X153986286Y-120150500D01*
X153986287Y-120150500D01*
X154196243Y-120117246D01*
X154398412Y-120051557D01*
X154587816Y-119955051D01*
X154642572Y-119915269D01*
X154759786Y-119830109D01*
X154759788Y-119830106D01*
X154759792Y-119830104D01*
X154910104Y-119679792D01*
X154910106Y-119679788D01*
X154910109Y-119679786D01*
X155035048Y-119507820D01*
X155035050Y-119507817D01*
X155035051Y-119507816D01*
X155039514Y-119499054D01*
X155087488Y-119448259D01*
X155155308Y-119431463D01*
X155221444Y-119453999D01*
X155260484Y-119499054D01*
X155264591Y-119507115D01*
X155264951Y-119507820D01*
X155389890Y-119679786D01*
X155540213Y-119830109D01*
X155712179Y-119955048D01*
X155712181Y-119955049D01*
X155712184Y-119955051D01*
X155901588Y-120051557D01*
X156103757Y-120117246D01*
X156313713Y-120150500D01*
X156313714Y-120150500D01*
X156526286Y-120150500D01*
X156526287Y-120150500D01*
X156736243Y-120117246D01*
X156938412Y-120051557D01*
X157127816Y-119955051D01*
X157182572Y-119915269D01*
X157299786Y-119830109D01*
X157299788Y-119830106D01*
X157299792Y-119830104D01*
X157450104Y-119679792D01*
X157450106Y-119679788D01*
X157450109Y-119679786D01*
X157575048Y-119507820D01*
X157575050Y-119507817D01*
X157575051Y-119507816D01*
X157579514Y-119499054D01*
X157627488Y-119448259D01*
X157695308Y-119431463D01*
X157761444Y-119453999D01*
X157800484Y-119499054D01*
X157804591Y-119507115D01*
X157804951Y-119507820D01*
X157929890Y-119679786D01*
X158080213Y-119830109D01*
X158252179Y-119955048D01*
X158252181Y-119955049D01*
X158252184Y-119955051D01*
X158441588Y-120051557D01*
X158643757Y-120117246D01*
X158853713Y-120150500D01*
X158853714Y-120150500D01*
X159066286Y-120150500D01*
X159066287Y-120150500D01*
X159276243Y-120117246D01*
X159276243Y-120117245D01*
X159280883Y-120116511D01*
X159350176Y-120125466D01*
X159387962Y-120151303D01*
X160262198Y-121025539D01*
X160262201Y-121025541D01*
X160369137Y-121096993D01*
X160438740Y-121125823D01*
X160487956Y-121146209D01*
X160487960Y-121146209D01*
X160487961Y-121146210D01*
X160614092Y-121171300D01*
X160614095Y-121171300D01*
X173878707Y-121171300D01*
X173963565Y-121154419D01*
X174004844Y-121146209D01*
X174123664Y-121096992D01*
X174230600Y-121025541D01*
X174707141Y-120548999D01*
X174778592Y-120442064D01*
X174827809Y-120323244D01*
X174830946Y-120307470D01*
X174842318Y-120250307D01*
X174874703Y-120188396D01*
X174935419Y-120153822D01*
X174963935Y-120150499D01*
X175097871Y-120150499D01*
X175097872Y-120150499D01*
X175157483Y-120144091D01*
X175292331Y-120093796D01*
X175407546Y-120007546D01*
X175493796Y-119892331D01*
X175517005Y-119830104D01*
X175541408Y-119764678D01*
X175544091Y-119757482D01*
X175546477Y-119735290D01*
X175550500Y-119697873D01*
X175550499Y-117902128D01*
X175544091Y-117842517D01*
X175542810Y-117839083D01*
X175493797Y-117707671D01*
X175493793Y-117707664D01*
X175407547Y-117592455D01*
X175407544Y-117592452D01*
X175292335Y-117506206D01*
X175292328Y-117506202D01*
X175157482Y-117455908D01*
X175157483Y-117455908D01*
X175097883Y-117449501D01*
X175097881Y-117449500D01*
X175097873Y-117449500D01*
X175097864Y-117449500D01*
X173302129Y-117449500D01*
X173302123Y-117449501D01*
X173242516Y-117455908D01*
X173107671Y-117506202D01*
X173107664Y-117506206D01*
X172992455Y-117592452D01*
X172992452Y-117592455D01*
X172906206Y-117707664D01*
X172906203Y-117707669D01*
X172857189Y-117839083D01*
X172815317Y-117895016D01*
X172749853Y-117919433D01*
X172681580Y-117904581D01*
X172653326Y-117883430D01*
X172539786Y-117769890D01*
X172367820Y-117644951D01*
X172178414Y-117548444D01*
X172178413Y-117548443D01*
X172178412Y-117548443D01*
X171976243Y-117482754D01*
X171976241Y-117482753D01*
X171976240Y-117482753D01*
X171814957Y-117457208D01*
X171766287Y-117449500D01*
X171553713Y-117449500D01*
X171505042Y-117457208D01*
X171343760Y-117482753D01*
X171141585Y-117548444D01*
X170952179Y-117644951D01*
X170780213Y-117769890D01*
X170629890Y-117920213D01*
X170504949Y-118092182D01*
X170500484Y-118100946D01*
X170452509Y-118151742D01*
X170384688Y-118168536D01*
X170318553Y-118145998D01*
X170279516Y-118100946D01*
X170275050Y-118092182D01*
X170150109Y-117920213D01*
X169999790Y-117769894D01*
X169999785Y-117769890D01*
X169824015Y-117642186D01*
X169781349Y-117586856D01*
X169772900Y-117541868D01*
X169772900Y-116864570D01*
X169792585Y-116797531D01*
X169845389Y-116751776D01*
X169891288Y-116741798D01*
X169891226Y-116741167D01*
X169896639Y-116740634D01*
X169896933Y-116740570D01*
X169897286Y-116740571D01*
X169897291Y-116740570D01*
X169897292Y-116740570D01*
X170008779Y-116718412D01*
X170069811Y-116706282D01*
X170232322Y-116638994D01*
X170232325Y-116638992D01*
X170232326Y-116638991D01*
X170232329Y-116638990D01*
X170378595Y-116541282D01*
X170502985Y-116416913D01*
X170600718Y-116270664D01*
X170668038Y-116108157D01*
X170702356Y-115935638D01*
X170702356Y-115847689D01*
X170702356Y-115814223D01*
X170702356Y-115801257D01*
X170702357Y-115801253D01*
X170702356Y-115779093D01*
X170702403Y-115778932D01*
X170702402Y-115727689D01*
X170702403Y-115727689D01*
X170702401Y-115639736D01*
X170668077Y-115467212D01*
X170600752Y-115304700D01*
X170568576Y-115256553D01*
X170547694Y-115189880D01*
X170566173Y-115122499D01*
X170568550Y-115118798D01*
X170600718Y-115070664D01*
X170668038Y-114908157D01*
X170702356Y-114735638D01*
X170702356Y-114647689D01*
X170702356Y-114616947D01*
X170702356Y-114601257D01*
X170702357Y-114601253D01*
X170702356Y-114579093D01*
X170702403Y-114578932D01*
X170702402Y-114527689D01*
X170702403Y-114527689D01*
X170702401Y-114439736D01*
X170668077Y-114267212D01*
X170600752Y-114104700D01*
X170568572Y-114056546D01*
X170547690Y-113989874D01*
X170566169Y-113922493D01*
X170568543Y-113918797D01*
X170600708Y-113870668D01*
X170668029Y-113708160D01*
X170702349Y-113535639D01*
X170702349Y-113447689D01*
X170702349Y-113416827D01*
X170702349Y-113401257D01*
X170702350Y-113401253D01*
X170702349Y-113379100D01*
X170702404Y-113378912D01*
X170702402Y-113318782D01*
X170702400Y-113239734D01*
X170668076Y-113067207D01*
X170668074Y-113067202D01*
X170600747Y-112904690D01*
X170600745Y-112904687D01*
X170549299Y-112827707D01*
X170549298Y-112827706D01*
X170527554Y-112795171D01*
X170505477Y-112762135D01*
X179169500Y-112762135D01*
X179169500Y-114557870D01*
X179169501Y-114557876D01*
X179175908Y-114617483D01*
X179226202Y-114752328D01*
X179226206Y-114752335D01*
X179312452Y-114867544D01*
X179312455Y-114867547D01*
X179427664Y-114953793D01*
X179427671Y-114953797D01*
X179559082Y-115002810D01*
X179615016Y-115044681D01*
X179639433Y-115110145D01*
X179624582Y-115178418D01*
X179603431Y-115206673D01*
X179489889Y-115320215D01*
X179364951Y-115492179D01*
X179268444Y-115681585D01*
X179202753Y-115883760D01*
X179177904Y-116040654D01*
X179169500Y-116093713D01*
X179169500Y-116306287D01*
X179171182Y-116316906D01*
X179187021Y-116416913D01*
X179202754Y-116516243D01*
X179242638Y-116638994D01*
X179268444Y-116718414D01*
X179364951Y-116907820D01*
X179489890Y-117079786D01*
X179640213Y-117230109D01*
X179812179Y-117355048D01*
X179812181Y-117355049D01*
X179812184Y-117355051D01*
X179821493Y-117359794D01*
X179872290Y-117407766D01*
X179889087Y-117475587D01*
X179866552Y-117541722D01*
X179821505Y-117580760D01*
X179812446Y-117585376D01*
X179812440Y-117585380D01*
X179758282Y-117624727D01*
X179758282Y-117624728D01*
X180390591Y-118257037D01*
X180327007Y-118274075D01*
X180212993Y-118339901D01*
X180119901Y-118432993D01*
X180054075Y-118547007D01*
X180037037Y-118610591D01*
X179404728Y-117978282D01*
X179404727Y-117978282D01*
X179365380Y-118032439D01*
X179268904Y-118221782D01*
X179203242Y-118423869D01*
X179203242Y-118423872D01*
X179170000Y-118633753D01*
X179170000Y-118846246D01*
X179203242Y-119056127D01*
X179203242Y-119056130D01*
X179268904Y-119258217D01*
X179365375Y-119447550D01*
X179404728Y-119501716D01*
X180037037Y-118869408D01*
X180054075Y-118932993D01*
X180119901Y-119047007D01*
X180212993Y-119140099D01*
X180327007Y-119205925D01*
X180390590Y-119222962D01*
X179758282Y-119855269D01*
X179758282Y-119855270D01*
X179812449Y-119894624D01*
X180001782Y-119991095D01*
X180203870Y-120056757D01*
X180413754Y-120090000D01*
X180626246Y-120090000D01*
X180836127Y-120056757D01*
X180836130Y-120056757D01*
X181038217Y-119991095D01*
X181227554Y-119894622D01*
X181281716Y-119855270D01*
X181281717Y-119855270D01*
X180649408Y-119222962D01*
X180712993Y-119205925D01*
X180827007Y-119140099D01*
X180920099Y-119047007D01*
X180985925Y-118932993D01*
X181002962Y-118869408D01*
X181635270Y-119501717D01*
X181635270Y-119501716D01*
X181674622Y-119447554D01*
X181771095Y-119258217D01*
X181836757Y-119056130D01*
X181836757Y-119056127D01*
X181870000Y-118846246D01*
X181870000Y-118633753D01*
X181836757Y-118423872D01*
X181836757Y-118423869D01*
X181771095Y-118221782D01*
X181674624Y-118032449D01*
X181635270Y-117978282D01*
X181635269Y-117978282D01*
X181002962Y-118610590D01*
X180985925Y-118547007D01*
X180920099Y-118432993D01*
X180827007Y-118339901D01*
X180712993Y-118274075D01*
X180649409Y-118257037D01*
X181281716Y-117624728D01*
X181227547Y-117585373D01*
X181227547Y-117585372D01*
X181218500Y-117580763D01*
X181167706Y-117532788D01*
X181150912Y-117464966D01*
X181173451Y-117398832D01*
X181218508Y-117359793D01*
X181227816Y-117355051D01*
X181379569Y-117244797D01*
X181399786Y-117230109D01*
X181399788Y-117230106D01*
X181399792Y-117230104D01*
X181550104Y-117079792D01*
X181550106Y-117079788D01*
X181550109Y-117079786D01*
X181675048Y-116907820D01*
X181675047Y-116907820D01*
X181675051Y-116907816D01*
X181771557Y-116718412D01*
X181837246Y-116516243D01*
X181870500Y-116306287D01*
X181870500Y-116093713D01*
X181837246Y-115883757D01*
X181771557Y-115681588D01*
X181675051Y-115492184D01*
X181675049Y-115492181D01*
X181675048Y-115492179D01*
X181550109Y-115320213D01*
X181436569Y-115206673D01*
X181403084Y-115145350D01*
X181408068Y-115075658D01*
X181449940Y-115019725D01*
X181480915Y-115002810D01*
X181612331Y-114953796D01*
X181727546Y-114867546D01*
X181813796Y-114752331D01*
X181864091Y-114617483D01*
X181870500Y-114557873D01*
X181870499Y-112762128D01*
X181864091Y-112702517D01*
X181838560Y-112634066D01*
X181813797Y-112567671D01*
X181813793Y-112567664D01*
X181727547Y-112452455D01*
X181727544Y-112452452D01*
X181612335Y-112366206D01*
X181612328Y-112366202D01*
X181477482Y-112315908D01*
X181477483Y-112315908D01*
X181417883Y-112309501D01*
X181417881Y-112309500D01*
X181417873Y-112309500D01*
X181417864Y-112309500D01*
X179622129Y-112309500D01*
X179622123Y-112309501D01*
X179562516Y-112315908D01*
X179427671Y-112366202D01*
X179427664Y-112366206D01*
X179312455Y-112452452D01*
X179312452Y-112452455D01*
X179226206Y-112567664D01*
X179226202Y-112567671D01*
X179175908Y-112702517D01*
X179169896Y-112758440D01*
X179169501Y-112762123D01*
X179169500Y-112762135D01*
X170505477Y-112762135D01*
X170503006Y-112758438D01*
X170378606Y-112634066D01*
X170232329Y-112536357D01*
X170069800Y-112469066D01*
X169986195Y-112452452D01*
X169897261Y-112434779D01*
X169896919Y-112434780D01*
X169896745Y-112434729D01*
X169891201Y-112434184D01*
X169891304Y-112433132D01*
X169829877Y-112415106D01*
X169784114Y-112362309D01*
X169772900Y-112310783D01*
X169772900Y-112247689D01*
X169772900Y-112220557D01*
X169772900Y-112063392D01*
X169772900Y-111427138D01*
X169772900Y-106467145D01*
X169792585Y-106400106D01*
X169824016Y-106366826D01*
X169857287Y-106342654D01*
X169885102Y-106322445D01*
X170020945Y-106186602D01*
X170133865Y-106031181D01*
X170221082Y-105860009D01*
X170221084Y-105860004D01*
X170242069Y-105795419D01*
X170281506Y-105737743D01*
X170345864Y-105710544D01*
X170414711Y-105722458D01*
X170466187Y-105769702D01*
X170477931Y-105795419D01*
X170498915Y-105860004D01*
X170498918Y-105860009D01*
X170586135Y-106031181D01*
X170699055Y-106186602D01*
X170834898Y-106322445D01*
X170990319Y-106435365D01*
X171116995Y-106499910D01*
X171161493Y-106522583D01*
X171236621Y-106546993D01*
X171344199Y-106581947D01*
X171533945Y-106612000D01*
X171533946Y-106612000D01*
X171726054Y-106612000D01*
X171726055Y-106612000D01*
X171915801Y-106581947D01*
X172098509Y-106522582D01*
X172269681Y-106435365D01*
X172425102Y-106322445D01*
X172560945Y-106186602D01*
X172673865Y-106031181D01*
X172761082Y-105860009D01*
X172761084Y-105860004D01*
X172782069Y-105795419D01*
X172821506Y-105737743D01*
X172885864Y-105710544D01*
X172954711Y-105722458D01*
X173006187Y-105769702D01*
X173017931Y-105795419D01*
X173038915Y-105860004D01*
X173038918Y-105860009D01*
X173126135Y-106031181D01*
X173239055Y-106186602D01*
X173374898Y-106322445D01*
X173530319Y-106435365D01*
X173656995Y-106499910D01*
X173701493Y-106522583D01*
X173776621Y-106546993D01*
X173884199Y-106581947D01*
X174073945Y-106612000D01*
X174073946Y-106612000D01*
X174266054Y-106612000D01*
X174266055Y-106612000D01*
X174455801Y-106581947D01*
X174638509Y-106522582D01*
X174809681Y-106435365D01*
X174965102Y-106322445D01*
X175100945Y-106186602D01*
X175213865Y-106031181D01*
X175301082Y-105860009D01*
X175360447Y-105677301D01*
X175390500Y-105487555D01*
X175390500Y-104735445D01*
X175360447Y-104545699D01*
X175330424Y-104453297D01*
X175301083Y-104362993D01*
X175213864Y-104191818D01*
X175213861Y-104191814D01*
X175100945Y-104036398D01*
X174965102Y-103900555D01*
X174809681Y-103787635D01*
X174638506Y-103700416D01*
X174455802Y-103641053D01*
X174360928Y-103626026D01*
X174266055Y-103611000D01*
X174073945Y-103611000D01*
X174010696Y-103621017D01*
X173884197Y-103641053D01*
X173701493Y-103700416D01*
X173530318Y-103787635D01*
X173441645Y-103852060D01*
X173374898Y-103900555D01*
X173374896Y-103900557D01*
X173374895Y-103900557D01*
X173239057Y-104036395D01*
X173239057Y-104036396D01*
X173239055Y-104036398D01*
X173239054Y-104036400D01*
X173126135Y-104191818D01*
X173038916Y-104362993D01*
X173017931Y-104427581D01*
X172978494Y-104485256D01*
X172914135Y-104512455D01*
X172845289Y-104500541D01*
X172793813Y-104453297D01*
X172782069Y-104427581D01*
X172761083Y-104362993D01*
X172673864Y-104191818D01*
X172673861Y-104191814D01*
X172560945Y-104036398D01*
X172425102Y-103900555D01*
X172269681Y-103787635D01*
X172098506Y-103700416D01*
X171915802Y-103641053D01*
X171820928Y-103626026D01*
X171726055Y-103611000D01*
X171533945Y-103611000D01*
X171470696Y-103621017D01*
X171344197Y-103641053D01*
X171161493Y-103700416D01*
X170990318Y-103787635D01*
X170901645Y-103852060D01*
X170834898Y-103900555D01*
X170834896Y-103900557D01*
X170834895Y-103900557D01*
X170699057Y-104036395D01*
X170699057Y-104036396D01*
X170699055Y-104036398D01*
X170699054Y-104036400D01*
X170586135Y-104191818D01*
X170498916Y-104362993D01*
X170477931Y-104427581D01*
X170438494Y-104485256D01*
X170374135Y-104512455D01*
X170305289Y-104500541D01*
X170253813Y-104453297D01*
X170242069Y-104427581D01*
X170221083Y-104362993D01*
X170133864Y-104191818D01*
X170133861Y-104191814D01*
X170020945Y-104036398D01*
X169885102Y-103900555D01*
X169885101Y-103900554D01*
X169842833Y-103869844D01*
X169800168Y-103814513D01*
X169794103Y-103793719D01*
X169768610Y-103665561D01*
X169768609Y-103665560D01*
X169768609Y-103665556D01*
X169719392Y-103546736D01*
X169709150Y-103531408D01*
X169647940Y-103439800D01*
X169647937Y-103439796D01*
X168820522Y-102612381D01*
X168787037Y-102551058D01*
X168792021Y-102481366D01*
X168833893Y-102425433D01*
X168899357Y-102401016D01*
X168908203Y-102400700D01*
X169630057Y-102400700D01*
X169697096Y-102420385D01*
X169698898Y-102421564D01*
X169752221Y-102457194D01*
X169752223Y-102457195D01*
X169752227Y-102457197D01*
X169897898Y-102517535D01*
X169897903Y-102517537D01*
X170052553Y-102548299D01*
X170052556Y-102548300D01*
X170052558Y-102548300D01*
X170210244Y-102548300D01*
X170210245Y-102548299D01*
X170364897Y-102517537D01*
X170510579Y-102457194D01*
X170641689Y-102369589D01*
X170753189Y-102258089D01*
X170840794Y-102126979D01*
X170901137Y-101981297D01*
X170931900Y-101826642D01*
X170931900Y-101668958D01*
X170931900Y-101668955D01*
X170931899Y-101668953D01*
X170901139Y-101514315D01*
X170901137Y-101514303D01*
X170901130Y-101514288D01*
X170900530Y-101512305D01*
X170900520Y-101511198D01*
X170899949Y-101508328D01*
X170900493Y-101508219D01*
X170899901Y-101442438D01*
X170937145Y-101383322D01*
X171000437Y-101353726D01*
X171019188Y-101352300D01*
X171547295Y-101352300D01*
X172400795Y-101352300D01*
X172467834Y-101371985D01*
X172469599Y-101373140D01*
X172495421Y-101390394D01*
X172641103Y-101450737D01*
X172795753Y-101481499D01*
X172795756Y-101481500D01*
X172795758Y-101481500D01*
X172953444Y-101481500D01*
X172953445Y-101481499D01*
X173108097Y-101450737D01*
X173253779Y-101390394D01*
X173384889Y-101302789D01*
X173496389Y-101191289D01*
X173583994Y-101060179D01*
X173644337Y-100914497D01*
X173675100Y-100759842D01*
X173675100Y-100602158D01*
X173675100Y-100602155D01*
X173675099Y-100602153D01*
X173644338Y-100447510D01*
X173644337Y-100447503D01*
X173644335Y-100447498D01*
X173583997Y-100301827D01*
X173583990Y-100301814D01*
X173496389Y-100170711D01*
X173496386Y-100170707D01*
X173384892Y-100059213D01*
X173384888Y-100059210D01*
X173253785Y-99971609D01*
X173253772Y-99971602D01*
X173108101Y-99911264D01*
X173108089Y-99911261D01*
X172953445Y-99880500D01*
X172953442Y-99880500D01*
X172795758Y-99880500D01*
X172795755Y-99880500D01*
X172641110Y-99911261D01*
X172641098Y-99911264D01*
X172495423Y-99971604D01*
X172414610Y-100025602D01*
X172347932Y-100046480D01*
X172345719Y-100046500D01*
X160737793Y-100046500D01*
X160611661Y-100071589D01*
X160611655Y-100071591D01*
X160492836Y-100120807D01*
X160385898Y-100192260D01*
X160385895Y-100192263D01*
X156926755Y-103651402D01*
X156865432Y-103684887D01*
X156800757Y-103681652D01*
X156675803Y-103641053D01*
X156675804Y-103641053D01*
X156533491Y-103618513D01*
X156486055Y-103611000D01*
X156293945Y-103611000D01*
X156230696Y-103621017D01*
X156104197Y-103641053D01*
X155921493Y-103700416D01*
X155750318Y-103787635D01*
X155661645Y-103852060D01*
X155594898Y-103900555D01*
X155594896Y-103900557D01*
X155594895Y-103900557D01*
X155459057Y-104036395D01*
X155459057Y-104036396D01*
X155459055Y-104036398D01*
X155459054Y-104036400D01*
X155346135Y-104191818D01*
X155258916Y-104362993D01*
X155199553Y-104545697D01*
X155169500Y-104735445D01*
X155169500Y-104787597D01*
X155149815Y-104854636D01*
X155133181Y-104875278D01*
X153372858Y-106635600D01*
X153372854Y-106635605D01*
X153315465Y-106721498D01*
X153315464Y-106721499D01*
X153301409Y-106742533D01*
X153301407Y-106742537D01*
X153252191Y-106861355D01*
X153252189Y-106861361D01*
X153227100Y-106987492D01*
X153227100Y-117541868D01*
X153207415Y-117608907D01*
X153175985Y-117642186D01*
X153000214Y-117769890D01*
X153000209Y-117769894D01*
X152849890Y-117920213D01*
X152724949Y-118092182D01*
X152720202Y-118101499D01*
X152672227Y-118152293D01*
X152604405Y-118169087D01*
X152538271Y-118146548D01*
X152499234Y-118101495D01*
X152494626Y-118092452D01*
X152455270Y-118038282D01*
X152455269Y-118038282D01*
X151822962Y-118670590D01*
X151805925Y-118607007D01*
X151740099Y-118492993D01*
X151647007Y-118399901D01*
X151532993Y-118334075D01*
X151469409Y-118317037D01*
X152101716Y-117684728D01*
X152047550Y-117645375D01*
X151858217Y-117548904D01*
X151656129Y-117483242D01*
X151446246Y-117450000D01*
X151233754Y-117450000D01*
X151023872Y-117483242D01*
X151023869Y-117483242D01*
X150821782Y-117548904D01*
X150632439Y-117645380D01*
X150578282Y-117684727D01*
X150578282Y-117684728D01*
X151210591Y-118317037D01*
X151147007Y-118334075D01*
X151032993Y-118399901D01*
X150939901Y-118492993D01*
X150874075Y-118607007D01*
X150857037Y-118670591D01*
X150224728Y-118038282D01*
X150224727Y-118038282D01*
X150185380Y-118092439D01*
X150088904Y-118281782D01*
X150023242Y-118483869D01*
X150023242Y-118483872D01*
X149990000Y-118693753D01*
X145460500Y-118693753D01*
X145460500Y-88150178D01*
X147064700Y-88150178D01*
X147064700Y-88370621D01*
X147099185Y-88588352D01*
X147167303Y-88798003D01*
X147167304Y-88798006D01*
X147267387Y-88994425D01*
X147396952Y-89172758D01*
X147396956Y-89172763D01*
X147447128Y-89222935D01*
X147480613Y-89284258D01*
X147475629Y-89353950D01*
X147433757Y-89409883D01*
X147402781Y-89426798D01*
X147322869Y-89456603D01*
X147322864Y-89456606D01*
X147207655Y-89542852D01*
X147207652Y-89542855D01*
X147121406Y-89658064D01*
X147121402Y-89658071D01*
X147071108Y-89792917D01*
X147064701Y-89852516D01*
X147064701Y-89852523D01*
X147064700Y-89852535D01*
X147064700Y-91748270D01*
X147064701Y-91748276D01*
X147071108Y-91807883D01*
X147121402Y-91942728D01*
X147121406Y-91942735D01*
X147207652Y-92057944D01*
X147207655Y-92057947D01*
X147322864Y-92144193D01*
X147322871Y-92144197D01*
X147457717Y-92194491D01*
X147457716Y-92194491D01*
X147464644Y-92195235D01*
X147517327Y-92200900D01*
X149413072Y-92200899D01*
X149472683Y-92194491D01*
X149607531Y-92144196D01*
X149722746Y-92057946D01*
X149808996Y-91942731D01*
X149859291Y-91807883D01*
X149865700Y-91748273D01*
X149865699Y-89852528D01*
X149859291Y-89792917D01*
X149808996Y-89658069D01*
X149808995Y-89658068D01*
X149808993Y-89658064D01*
X149722747Y-89542855D01*
X149722744Y-89542852D01*
X149607535Y-89456606D01*
X149607528Y-89456602D01*
X149527619Y-89426798D01*
X149471685Y-89384927D01*
X149447268Y-89319462D01*
X149462120Y-89251189D01*
X149483269Y-89222937D01*
X149533442Y-89172765D01*
X149663015Y-88994422D01*
X149763095Y-88798006D01*
X149831215Y-88588351D01*
X149865700Y-88370622D01*
X149865700Y-88150178D01*
X149831215Y-87932449D01*
X149777504Y-87767141D01*
X149763096Y-87722796D01*
X149763095Y-87722793D01*
X149712538Y-87623572D01*
X149663015Y-87526378D01*
X149546703Y-87366287D01*
X149533447Y-87348041D01*
X149533443Y-87348036D01*
X149377563Y-87192156D01*
X149377558Y-87192152D01*
X149199225Y-87062587D01*
X149199224Y-87062586D01*
X149199222Y-87062585D01*
X149136296Y-87030522D01*
X149002806Y-86962504D01*
X149002803Y-86962503D01*
X148793152Y-86894385D01*
X148609017Y-86865221D01*
X148575422Y-86859900D01*
X148354978Y-86859900D01*
X148321427Y-86865214D01*
X148137247Y-86894385D01*
X147927596Y-86962503D01*
X147927593Y-86962504D01*
X147731174Y-87062587D01*
X147552841Y-87192152D01*
X147552836Y-87192156D01*
X147396956Y-87348036D01*
X147396952Y-87348041D01*
X147267387Y-87526374D01*
X147167304Y-87722793D01*
X147167303Y-87722796D01*
X147099185Y-87932447D01*
X147064700Y-88150178D01*
X145460500Y-88150178D01*
X145460500Y-87042741D01*
X145480185Y-86975702D01*
X145532989Y-86929947D01*
X145602147Y-86920003D01*
X145663951Y-86948228D01*
X145664201Y-86947924D01*
X145665349Y-86948866D01*
X145665703Y-86949028D01*
X145666867Y-86950112D01*
X145668911Y-86951789D01*
X145800014Y-87039390D01*
X145800027Y-87039397D01*
X145945698Y-87099735D01*
X145945703Y-87099737D01*
X146047803Y-87120046D01*
X146100353Y-87130499D01*
X146100356Y-87130500D01*
X146100358Y-87130500D01*
X146258044Y-87130500D01*
X146258045Y-87130499D01*
X146412697Y-87099737D01*
X146558379Y-87039394D01*
X146689489Y-86951789D01*
X146800989Y-86840289D01*
X146888594Y-86709179D01*
X146948937Y-86563497D01*
X146979700Y-86408842D01*
X146979700Y-86251158D01*
X146979700Y-86251155D01*
X146979699Y-86251153D01*
X146975471Y-86229896D01*
X146948937Y-86096503D01*
X146940123Y-86075223D01*
X146888597Y-85950827D01*
X146888590Y-85950814D01*
X146800598Y-85819125D01*
X146779720Y-85752447D01*
X146779700Y-85750234D01*
X146779700Y-85106097D01*
X146799385Y-85039058D01*
X146816019Y-85018416D01*
X147560016Y-84274419D01*
X147621339Y-84240934D01*
X147647697Y-84238100D01*
X150335031Y-84238100D01*
X150402070Y-84257785D01*
X150447825Y-84310589D01*
X150456974Y-84365466D01*
X150458700Y-84365466D01*
X150458700Y-84529246D01*
X150489461Y-84683889D01*
X150489464Y-84683901D01*
X150549802Y-84829572D01*
X150549806Y-84829579D01*
X150585402Y-84882852D01*
X150606280Y-84949529D01*
X150606300Y-84951743D01*
X150606300Y-110314256D01*
X150586615Y-110381295D01*
X150585403Y-110383146D01*
X150549808Y-110436417D01*
X150549802Y-110436428D01*
X150489464Y-110582098D01*
X150489461Y-110582110D01*
X150458700Y-110736753D01*
X150458700Y-110894446D01*
X150489461Y-111049089D01*
X150489464Y-111049101D01*
X150549802Y-111194772D01*
X150549809Y-111194785D01*
X150637410Y-111325888D01*
X150637413Y-111325892D01*
X150748907Y-111437386D01*
X150748911Y-111437389D01*
X150880014Y-111524990D01*
X150880027Y-111524997D01*
X151025698Y-111585335D01*
X151025703Y-111585337D01*
X151180353Y-111616099D01*
X151180356Y-111616100D01*
X151180358Y-111616100D01*
X151338044Y-111616100D01*
X151338045Y-111616099D01*
X151492697Y-111585337D01*
X151638379Y-111524994D01*
X151769489Y-111437389D01*
X151880989Y-111325889D01*
X151968594Y-111194779D01*
X152028937Y-111049097D01*
X152059700Y-110894442D01*
X152059700Y-110736758D01*
X152059700Y-110736755D01*
X152059699Y-110736753D01*
X152028938Y-110582110D01*
X152028937Y-110582103D01*
X151968594Y-110436421D01*
X151932996Y-110383145D01*
X151912120Y-110316468D01*
X151912100Y-110314256D01*
X151912100Y-97115484D01*
X155170000Y-97115484D01*
X155170000Y-97241500D01*
X155956988Y-97241500D01*
X155924075Y-97298507D01*
X155890000Y-97425674D01*
X155890000Y-97557326D01*
X155924075Y-97684493D01*
X155956988Y-97741500D01*
X155170000Y-97741500D01*
X155170000Y-97867515D01*
X155200040Y-98057184D01*
X155259383Y-98239821D01*
X155346565Y-98410922D01*
X155459430Y-98566269D01*
X155459434Y-98566274D01*
X155595225Y-98702065D01*
X155595230Y-98702069D01*
X155750577Y-98814934D01*
X155921680Y-98902116D01*
X156104315Y-98961459D01*
X156139999Y-98967110D01*
X156140000Y-98967109D01*
X156140000Y-97924512D01*
X156197007Y-97957425D01*
X156324174Y-97991500D01*
X156455826Y-97991500D01*
X156582993Y-97957425D01*
X156640000Y-97924512D01*
X156640000Y-98967110D01*
X156675684Y-98961459D01*
X156858319Y-98902116D01*
X157029422Y-98814934D01*
X157184769Y-98702069D01*
X157184774Y-98702065D01*
X157320565Y-98566274D01*
X157320569Y-98566269D01*
X157433434Y-98410922D01*
X157520616Y-98239819D01*
X157541805Y-98174608D01*
X157581242Y-98116933D01*
X157645600Y-98089734D01*
X157714447Y-98101648D01*
X157765923Y-98148892D01*
X157777667Y-98174608D01*
X157798916Y-98240005D01*
X157798917Y-98240008D01*
X157798918Y-98240009D01*
X157886135Y-98411181D01*
X157999055Y-98566602D01*
X158134898Y-98702445D01*
X158290319Y-98815365D01*
X158460576Y-98902116D01*
X158461493Y-98902583D01*
X158552845Y-98932264D01*
X158644199Y-98961947D01*
X158833945Y-98992000D01*
X158833946Y-98992000D01*
X159026054Y-98992000D01*
X159026055Y-98992000D01*
X159215801Y-98961947D01*
X159398509Y-98902582D01*
X159569681Y-98815365D01*
X159725102Y-98702445D01*
X159860945Y-98566602D01*
X159973865Y-98411181D01*
X160061082Y-98240009D01*
X160061144Y-98239819D01*
X160082069Y-98175419D01*
X160121506Y-98117743D01*
X160185864Y-98090544D01*
X160254711Y-98102458D01*
X160306187Y-98149702D01*
X160317931Y-98175419D01*
X160338915Y-98240004D01*
X160413667Y-98386712D01*
X160426135Y-98411181D01*
X160539055Y-98566602D01*
X160674898Y-98702445D01*
X160830319Y-98815365D01*
X161000576Y-98902116D01*
X161001493Y-98902583D01*
X161092845Y-98932264D01*
X161184199Y-98961947D01*
X161373945Y-98992000D01*
X161373946Y-98992000D01*
X161566054Y-98992000D01*
X161566055Y-98992000D01*
X161755801Y-98961947D01*
X161938509Y-98902582D01*
X162109681Y-98815365D01*
X162265102Y-98702445D01*
X162400945Y-98566602D01*
X162513865Y-98411181D01*
X162601082Y-98240009D01*
X162601144Y-98239819D01*
X162622069Y-98175419D01*
X162661506Y-98117743D01*
X162725864Y-98090544D01*
X162794711Y-98102458D01*
X162846187Y-98149702D01*
X162857931Y-98175419D01*
X162878915Y-98240004D01*
X162953667Y-98386712D01*
X162966135Y-98411181D01*
X163079055Y-98566602D01*
X163214898Y-98702445D01*
X163370319Y-98815365D01*
X163540576Y-98902116D01*
X163541493Y-98902583D01*
X163632845Y-98932264D01*
X163724199Y-98961947D01*
X163913945Y-98992000D01*
X163913946Y-98992000D01*
X164106054Y-98992000D01*
X164106055Y-98992000D01*
X164295801Y-98961947D01*
X164478509Y-98902582D01*
X164649681Y-98815365D01*
X164805102Y-98702445D01*
X164940945Y-98566602D01*
X165053865Y-98411181D01*
X165141082Y-98240009D01*
X165141144Y-98239819D01*
X165162332Y-98174609D01*
X165201769Y-98116933D01*
X165266127Y-98089734D01*
X165334973Y-98101648D01*
X165386450Y-98148892D01*
X165398194Y-98174607D01*
X165419383Y-98239821D01*
X165506565Y-98410922D01*
X165619430Y-98566269D01*
X165619434Y-98566274D01*
X165755225Y-98702065D01*
X165755230Y-98702069D01*
X165910577Y-98814934D01*
X166081680Y-98902116D01*
X166264315Y-98961459D01*
X166299999Y-98967110D01*
X166300000Y-98967109D01*
X166300000Y-97924512D01*
X166357007Y-97957425D01*
X166484174Y-97991500D01*
X166615826Y-97991500D01*
X166742993Y-97957425D01*
X166800000Y-97924512D01*
X166800000Y-98967110D01*
X166835684Y-98961459D01*
X167018319Y-98902116D01*
X167189422Y-98814934D01*
X167344769Y-98702069D01*
X167344774Y-98702065D01*
X167480565Y-98566274D01*
X167480569Y-98566269D01*
X167593434Y-98410922D01*
X167680616Y-98239819D01*
X167701805Y-98174608D01*
X167741242Y-98116933D01*
X167805600Y-98089734D01*
X167874447Y-98101648D01*
X167925923Y-98148892D01*
X167937667Y-98174608D01*
X167958916Y-98240005D01*
X167958917Y-98240008D01*
X167958918Y-98240009D01*
X168046135Y-98411181D01*
X168159055Y-98566602D01*
X168294898Y-98702445D01*
X168450319Y-98815365D01*
X168620576Y-98902116D01*
X168621493Y-98902583D01*
X168712845Y-98932264D01*
X168804199Y-98961947D01*
X168993945Y-98992000D01*
X168993946Y-98992000D01*
X169186054Y-98992000D01*
X169186055Y-98992000D01*
X169375801Y-98961947D01*
X169558509Y-98902582D01*
X169729681Y-98815365D01*
X169885102Y-98702445D01*
X170020945Y-98566602D01*
X170133865Y-98411181D01*
X170221082Y-98240009D01*
X170221144Y-98239819D01*
X170242069Y-98175419D01*
X170281506Y-98117743D01*
X170345864Y-98090544D01*
X170414711Y-98102458D01*
X170466187Y-98149702D01*
X170477931Y-98175419D01*
X170498915Y-98240004D01*
X170573667Y-98386712D01*
X170586135Y-98411181D01*
X170699055Y-98566602D01*
X170834898Y-98702445D01*
X170990319Y-98815365D01*
X171160576Y-98902116D01*
X171161493Y-98902583D01*
X171252845Y-98932264D01*
X171344199Y-98961947D01*
X171533945Y-98992000D01*
X171533946Y-98992000D01*
X171726054Y-98992000D01*
X171726055Y-98992000D01*
X171915801Y-98961947D01*
X172098509Y-98902582D01*
X172269681Y-98815365D01*
X172425102Y-98702445D01*
X172560945Y-98566602D01*
X172673865Y-98411181D01*
X172715016Y-98330417D01*
X172762989Y-98279623D01*
X172830810Y-98262827D01*
X172896945Y-98285364D01*
X172940397Y-98340079D01*
X172949500Y-98386712D01*
X172949500Y-98539370D01*
X172949501Y-98539376D01*
X172955908Y-98598983D01*
X173006202Y-98733828D01*
X173006206Y-98733835D01*
X173092452Y-98849044D01*
X173092455Y-98849047D01*
X173207664Y-98935293D01*
X173207671Y-98935297D01*
X173342517Y-98985591D01*
X173342516Y-98985591D01*
X173349444Y-98986335D01*
X173402127Y-98992000D01*
X174937872Y-98991999D01*
X174997483Y-98985591D01*
X175132331Y-98935296D01*
X175247546Y-98849046D01*
X175333796Y-98733831D01*
X175384091Y-98598983D01*
X175390500Y-98539373D01*
X175390499Y-96443628D01*
X175384091Y-96384017D01*
X175333796Y-96249169D01*
X175333795Y-96249168D01*
X175333793Y-96249164D01*
X175247547Y-96133955D01*
X175247544Y-96133952D01*
X175132335Y-96047706D01*
X175132328Y-96047702D01*
X174997482Y-95997408D01*
X174997483Y-95997408D01*
X174937883Y-95991001D01*
X174937881Y-95991000D01*
X174937873Y-95991000D01*
X174937864Y-95991000D01*
X173402129Y-95991000D01*
X173402123Y-95991001D01*
X173342516Y-95997408D01*
X173207671Y-96047702D01*
X173207664Y-96047706D01*
X173092455Y-96133952D01*
X173092452Y-96133955D01*
X173006206Y-96249164D01*
X173006202Y-96249171D01*
X172955908Y-96384017D01*
X172949501Y-96443616D01*
X172949501Y-96443623D01*
X172949500Y-96443635D01*
X172949500Y-96596285D01*
X172929815Y-96663324D01*
X172877011Y-96709079D01*
X172807853Y-96719023D01*
X172744297Y-96689998D01*
X172715015Y-96652580D01*
X172673864Y-96571818D01*
X172560945Y-96416398D01*
X172425102Y-96280555D01*
X172334013Y-96214375D01*
X172291349Y-96159046D01*
X172282900Y-96114058D01*
X172282900Y-94749292D01*
X172257810Y-94623161D01*
X172257809Y-94623160D01*
X172257809Y-94623156D01*
X172240577Y-94581554D01*
X172208593Y-94504336D01*
X172137141Y-94397401D01*
X172137138Y-94397397D01*
X171385805Y-93646063D01*
X171385804Y-93646062D01*
X171385800Y-93646059D01*
X171278864Y-93574608D01*
X171160044Y-93525391D01*
X171160038Y-93525389D01*
X171033907Y-93500300D01*
X171033905Y-93500300D01*
X170788247Y-93500300D01*
X170688676Y-93500300D01*
X170621637Y-93480615D01*
X170575882Y-93427811D01*
X170567063Y-93400511D01*
X170566228Y-93396322D01*
X170565089Y-93390597D01*
X170497758Y-93228118D01*
X170400026Y-93081894D01*
X170400024Y-93081891D01*
X170400021Y-93081888D01*
X170275652Y-92957547D01*
X170275649Y-92957544D01*
X170181215Y-92894459D01*
X170129401Y-92859845D01*
X169966906Y-92792552D01*
X169966904Y-92792551D01*
X169966903Y-92792551D01*
X169794405Y-92758249D01*
X169706467Y-92758254D01*
X169666832Y-92758254D01*
X169666795Y-92758252D01*
X169660031Y-92758252D01*
X169586467Y-92758254D01*
X169516585Y-92758254D01*
X169515796Y-92758292D01*
X169498539Y-92758292D01*
X169498535Y-92758293D01*
X169326055Y-92792603D01*
X169326053Y-92792604D01*
X169163576Y-92859900D01*
X169163573Y-92859901D01*
X169163573Y-92859902D01*
X169115417Y-92892075D01*
X169048739Y-92912948D01*
X168981360Y-92894459D01*
X168977683Y-92892097D01*
X168929400Y-92859842D01*
X168766905Y-92792549D01*
X168766903Y-92792548D01*
X168766902Y-92792548D01*
X168594405Y-92758247D01*
X168506467Y-92758252D01*
X168466832Y-92758252D01*
X168466795Y-92758250D01*
X168460031Y-92758250D01*
X168386467Y-92758252D01*
X168316601Y-92758252D01*
X168315769Y-92758292D01*
X168298540Y-92758292D01*
X168298536Y-92758293D01*
X168126055Y-92792603D01*
X168126052Y-92792604D01*
X167963582Y-92859897D01*
X167963578Y-92859899D01*
X167817347Y-92957597D01*
X167817344Y-92957599D01*
X167692991Y-93081932D01*
X167692987Y-93081936D01*
X167595266Y-93228152D01*
X167595264Y-93228156D01*
X167527946Y-93390612D01*
X167525975Y-93400515D01*
X167493577Y-93462420D01*
X167432855Y-93496982D01*
X167404362Y-93500300D01*
X166790493Y-93500300D01*
X166664361Y-93525389D01*
X166664355Y-93525391D01*
X166545537Y-93574607D01*
X166438597Y-93646061D01*
X166438596Y-93646062D01*
X165915863Y-94168794D01*
X165915862Y-94168795D01*
X165866715Y-94242351D01*
X165844407Y-94275737D01*
X165795191Y-94394555D01*
X165795189Y-94394561D01*
X165770100Y-94520692D01*
X165770100Y-94845656D01*
X165750415Y-94912695D01*
X165749203Y-94914546D01*
X165713608Y-94967817D01*
X165713602Y-94967828D01*
X165653264Y-95113498D01*
X165653261Y-95113510D01*
X165622500Y-95268153D01*
X165622500Y-95425846D01*
X165653261Y-95580489D01*
X165653264Y-95580501D01*
X165713602Y-95726172D01*
X165713609Y-95726185D01*
X165801210Y-95857288D01*
X165801213Y-95857292D01*
X165912704Y-95968783D01*
X165916430Y-95971841D01*
X165955764Y-96029588D01*
X165957633Y-96099432D01*
X165921446Y-96159200D01*
X165910649Y-96168012D01*
X165755230Y-96280930D01*
X165755225Y-96280934D01*
X165619434Y-96416725D01*
X165619430Y-96416730D01*
X165506565Y-96572077D01*
X165419384Y-96743177D01*
X165398194Y-96808393D01*
X165358755Y-96866068D01*
X165294396Y-96893265D01*
X165225550Y-96881350D01*
X165174075Y-96834105D01*
X165162332Y-96808390D01*
X165141084Y-96742995D01*
X165123803Y-96709079D01*
X165053865Y-96571819D01*
X164940945Y-96416398D01*
X164805102Y-96280555D01*
X164649681Y-96167635D01*
X164478506Y-96080416D01*
X164295802Y-96021053D01*
X164200928Y-96006026D01*
X164106055Y-95991000D01*
X163913945Y-95991000D01*
X163850696Y-96001017D01*
X163724197Y-96021053D01*
X163541493Y-96080416D01*
X163370318Y-96167635D01*
X163281645Y-96232060D01*
X163214898Y-96280555D01*
X163214896Y-96280557D01*
X163214895Y-96280557D01*
X163079057Y-96416395D01*
X163079057Y-96416396D01*
X163079055Y-96416398D01*
X163059271Y-96443629D01*
X162966135Y-96571818D01*
X162878916Y-96742993D01*
X162857931Y-96807581D01*
X162818494Y-96865256D01*
X162754135Y-96892455D01*
X162685289Y-96880541D01*
X162633813Y-96833297D01*
X162622069Y-96807581D01*
X162601083Y-96742993D01*
X162583803Y-96709079D01*
X162513865Y-96571819D01*
X162400945Y-96416398D01*
X162265102Y-96280555D01*
X162109681Y-96167635D01*
X161938506Y-96080416D01*
X161755802Y-96021053D01*
X161660928Y-96006026D01*
X161566055Y-95991000D01*
X161373945Y-95991000D01*
X161310696Y-96001017D01*
X161184197Y-96021053D01*
X161001493Y-96080416D01*
X160830318Y-96167635D01*
X160741645Y-96232060D01*
X160674898Y-96280555D01*
X160674896Y-96280557D01*
X160674895Y-96280557D01*
X160539057Y-96416395D01*
X160539057Y-96416396D01*
X160539055Y-96416398D01*
X160519271Y-96443629D01*
X160426135Y-96571818D01*
X160338916Y-96742993D01*
X160317931Y-96807581D01*
X160278494Y-96865256D01*
X160214135Y-96892455D01*
X160145289Y-96880541D01*
X160093813Y-96833297D01*
X160082069Y-96807581D01*
X160061083Y-96742993D01*
X160043803Y-96709079D01*
X159973865Y-96571819D01*
X159860945Y-96416398D01*
X159725102Y-96280555D01*
X159569681Y-96167635D01*
X159398506Y-96080416D01*
X159215802Y-96021053D01*
X159120928Y-96006026D01*
X159026055Y-95991000D01*
X158833945Y-95991000D01*
X158770696Y-96001017D01*
X158644197Y-96021053D01*
X158461493Y-96080416D01*
X158290318Y-96167635D01*
X158201645Y-96232060D01*
X158134898Y-96280555D01*
X158134896Y-96280557D01*
X158134895Y-96280557D01*
X157999057Y-96416395D01*
X157999057Y-96416396D01*
X157999055Y-96416398D01*
X157979271Y-96443629D01*
X157886135Y-96571818D01*
X157798917Y-96742992D01*
X157777667Y-96808392D01*
X157738229Y-96866067D01*
X157673870Y-96893265D01*
X157605024Y-96881350D01*
X157553548Y-96834105D01*
X157541805Y-96808391D01*
X157520616Y-96743180D01*
X157433434Y-96572077D01*
X157320569Y-96416730D01*
X157320565Y-96416725D01*
X157184774Y-96280934D01*
X157184769Y-96280930D01*
X157029422Y-96168065D01*
X156858319Y-96080883D01*
X156675681Y-96021540D01*
X156675682Y-96021540D01*
X156640000Y-96015889D01*
X156640000Y-97058488D01*
X156582993Y-97025575D01*
X156455826Y-96991500D01*
X156324174Y-96991500D01*
X156197007Y-97025575D01*
X156140000Y-97058488D01*
X156140000Y-96015889D01*
X156104318Y-96021540D01*
X155921680Y-96080883D01*
X155750577Y-96168065D01*
X155595230Y-96280930D01*
X155595225Y-96280934D01*
X155459434Y-96416725D01*
X155459430Y-96416730D01*
X155346565Y-96572077D01*
X155259383Y-96743178D01*
X155200040Y-96925815D01*
X155170000Y-97115484D01*
X151912100Y-97115484D01*
X151912100Y-95338602D01*
X151931785Y-95271563D01*
X151948419Y-95250921D01*
X154439721Y-92759619D01*
X154501044Y-92726134D01*
X154527402Y-92723300D01*
X167376307Y-92723300D01*
X167461165Y-92706419D01*
X167502444Y-92698209D01*
X167621264Y-92648992D01*
X167728200Y-92577541D01*
X168022340Y-92283400D01*
X168093792Y-92176464D01*
X168143009Y-92057644D01*
X168154655Y-91999097D01*
X168168100Y-91931507D01*
X168168100Y-89472943D01*
X168187785Y-89405904D01*
X168188964Y-89404101D01*
X168224594Y-89350779D01*
X168284937Y-89205097D01*
X168315700Y-89050442D01*
X168315700Y-88892758D01*
X168315700Y-88892755D01*
X168297997Y-88803760D01*
X168294879Y-88788084D01*
X168301106Y-88718493D01*
X168343969Y-88663316D01*
X168409858Y-88640071D01*
X168477855Y-88656138D01*
X168504177Y-88676212D01*
X171957939Y-92129974D01*
X171957949Y-92129985D01*
X171962279Y-92134315D01*
X171962280Y-92134316D01*
X172074084Y-92246120D01*
X172125645Y-92275888D01*
X172160895Y-92296239D01*
X172160897Y-92296241D01*
X172198951Y-92318211D01*
X172211015Y-92325177D01*
X172363743Y-92366101D01*
X172363746Y-92366101D01*
X172529453Y-92366101D01*
X172529469Y-92366100D01*
X174301434Y-92366100D01*
X174368473Y-92385785D01*
X174370325Y-92386998D01*
X174502014Y-92474990D01*
X174502027Y-92474997D01*
X174647698Y-92535335D01*
X174647703Y-92535337D01*
X174802353Y-92566099D01*
X174802356Y-92566100D01*
X174802358Y-92566100D01*
X174960044Y-92566100D01*
X174960045Y-92566099D01*
X175114697Y-92535337D01*
X175260379Y-92474994D01*
X175391489Y-92387389D01*
X175502989Y-92275889D01*
X175590594Y-92144779D01*
X175590836Y-92144196D01*
X175650935Y-91999101D01*
X175650937Y-91999097D01*
X175681700Y-91844442D01*
X175681700Y-91686758D01*
X175681700Y-91686755D01*
X175681699Y-91686753D01*
X175657135Y-91563263D01*
X175650937Y-91532103D01*
X175650935Y-91532098D01*
X175590597Y-91386427D01*
X175590590Y-91386414D01*
X175502989Y-91255311D01*
X175502986Y-91255307D01*
X175391492Y-91143813D01*
X175391488Y-91143810D01*
X175260385Y-91056209D01*
X175260372Y-91056202D01*
X175114701Y-90995864D01*
X175114689Y-90995861D01*
X174960045Y-90965100D01*
X174960042Y-90965100D01*
X174802358Y-90965100D01*
X174802355Y-90965100D01*
X174647710Y-90995861D01*
X174647698Y-90995864D01*
X174502027Y-91056202D01*
X174502014Y-91056209D01*
X174370325Y-91144202D01*
X174303647Y-91165080D01*
X174301434Y-91165100D01*
X172742897Y-91165100D01*
X172675858Y-91145415D01*
X172655216Y-91128781D01*
X167799590Y-86273155D01*
X167799588Y-86273152D01*
X167680717Y-86154281D01*
X167680716Y-86154280D01*
X167593904Y-86104160D01*
X167593904Y-86104159D01*
X167593900Y-86104158D01*
X167543785Y-86075223D01*
X167391057Y-86034299D01*
X167232943Y-86034299D01*
X167225347Y-86034299D01*
X167225331Y-86034300D01*
X162356139Y-86034300D01*
X162345147Y-86037245D01*
X162345148Y-86037246D01*
X162203414Y-86075223D01*
X162203409Y-86075226D01*
X162066490Y-86154275D01*
X162066482Y-86154281D01*
X162014136Y-86206627D01*
X161952813Y-86240111D01*
X161950648Y-86240562D01*
X161795308Y-86271461D01*
X161795298Y-86271464D01*
X161649627Y-86331802D01*
X161649614Y-86331809D01*
X161518511Y-86419410D01*
X161518507Y-86419413D01*
X161407013Y-86530907D01*
X161407010Y-86530911D01*
X161319409Y-86662014D01*
X161319402Y-86662027D01*
X161259064Y-86807698D01*
X161259061Y-86807710D01*
X161228300Y-86962353D01*
X161228300Y-87120046D01*
X161259061Y-87274689D01*
X161259064Y-87274701D01*
X161319402Y-87420372D01*
X161319409Y-87420385D01*
X161407010Y-87551488D01*
X161407013Y-87551492D01*
X161518507Y-87662986D01*
X161518511Y-87662989D01*
X161649614Y-87750590D01*
X161649627Y-87750597D01*
X161795298Y-87810935D01*
X161795303Y-87810937D01*
X161934333Y-87838592D01*
X161949953Y-87841699D01*
X161949956Y-87841700D01*
X161949958Y-87841700D01*
X162107644Y-87841700D01*
X162107645Y-87841699D01*
X162262297Y-87810937D01*
X162374966Y-87764267D01*
X162407972Y-87750597D01*
X162407972Y-87750596D01*
X162407979Y-87750594D01*
X162539089Y-87662989D01*
X162650589Y-87551489D01*
X162738194Y-87420379D01*
X162738197Y-87420372D01*
X162783149Y-87311848D01*
X162826990Y-87257444D01*
X162893284Y-87235379D01*
X162897710Y-87235300D01*
X167011903Y-87235300D01*
X167078942Y-87254985D01*
X167099584Y-87271619D01*
X167810587Y-87982622D01*
X167844072Y-88043945D01*
X167839088Y-88113637D01*
X167797216Y-88169570D01*
X167731752Y-88193987D01*
X167698715Y-88191920D01*
X167594046Y-88171100D01*
X167594042Y-88171100D01*
X167436358Y-88171100D01*
X167436355Y-88171100D01*
X167281710Y-88201861D01*
X167281698Y-88201864D01*
X167136027Y-88262202D01*
X167136014Y-88262209D01*
X167004911Y-88349810D01*
X167004907Y-88349813D01*
X166893413Y-88461307D01*
X166893410Y-88461311D01*
X166805809Y-88592414D01*
X166805802Y-88592427D01*
X166745464Y-88738098D01*
X166745461Y-88738110D01*
X166714700Y-88892753D01*
X166714700Y-89050446D01*
X166745461Y-89205089D01*
X166745464Y-89205101D01*
X166805802Y-89350772D01*
X166805806Y-89350779D01*
X166841402Y-89404052D01*
X166862280Y-89470729D01*
X166862300Y-89472943D01*
X166862300Y-91293500D01*
X166842615Y-91360539D01*
X166789811Y-91406294D01*
X166738300Y-91417500D01*
X154141293Y-91417500D01*
X154015161Y-91442589D01*
X154015155Y-91442591D01*
X153896336Y-91491807D01*
X153789398Y-91563260D01*
X153789395Y-91563263D01*
X152123781Y-93228878D01*
X152062458Y-93262363D01*
X151992766Y-93257379D01*
X151936833Y-93215507D01*
X151912416Y-93150043D01*
X151912100Y-93141197D01*
X151912100Y-84951743D01*
X151931785Y-84884704D01*
X151932964Y-84882901D01*
X151968594Y-84829579D01*
X152028937Y-84683897D01*
X152059700Y-84529242D01*
X152059700Y-84371558D01*
X152059700Y-84365466D01*
X152061629Y-84365466D01*
X152072994Y-84305591D01*
X152121066Y-84254888D01*
X152183369Y-84238100D01*
X152737103Y-84238100D01*
X152804142Y-84257785D01*
X152824784Y-84274419D01*
X155809425Y-87259060D01*
X155842910Y-87320383D01*
X155843361Y-87322549D01*
X155874261Y-87477891D01*
X155874264Y-87477901D01*
X155934602Y-87623572D01*
X155934609Y-87623585D01*
X156022210Y-87754688D01*
X156022213Y-87754692D01*
X156133707Y-87866186D01*
X156133711Y-87866189D01*
X156264814Y-87953790D01*
X156264827Y-87953797D01*
X156334418Y-87982622D01*
X156410503Y-88014137D01*
X156560357Y-88043945D01*
X156565153Y-88044899D01*
X156565156Y-88044900D01*
X156565158Y-88044900D01*
X156722844Y-88044900D01*
X156722845Y-88044899D01*
X156877497Y-88014137D01*
X157023179Y-87953794D01*
X157154289Y-87866189D01*
X157265789Y-87754689D01*
X157353394Y-87623579D01*
X157413737Y-87477897D01*
X157444500Y-87323242D01*
X157444500Y-87165558D01*
X157444500Y-87165555D01*
X157444499Y-87165553D01*
X157431407Y-87099735D01*
X157413737Y-87010903D01*
X157413735Y-87010898D01*
X157353397Y-86865227D01*
X157353390Y-86865214D01*
X157265789Y-86734111D01*
X157265786Y-86734107D01*
X157154292Y-86622613D01*
X157154288Y-86622610D01*
X157023185Y-86535009D01*
X157023172Y-86535002D01*
X156877501Y-86474664D01*
X156877491Y-86474661D01*
X156722149Y-86443761D01*
X156660238Y-86411376D01*
X156658660Y-86409825D01*
X153633416Y-83384581D01*
X153599931Y-83323258D01*
X153604915Y-83253566D01*
X153646787Y-83197633D01*
X153712251Y-83173216D01*
X153721097Y-83172900D01*
X157412657Y-83172900D01*
X157479696Y-83192585D01*
X157481498Y-83193764D01*
X157534821Y-83229394D01*
X157534823Y-83229395D01*
X157534827Y-83229397D01*
X157622230Y-83265599D01*
X157680503Y-83289737D01*
X157776155Y-83308763D01*
X157820850Y-83327277D01*
X157831818Y-83334606D01*
X157831822Y-83334609D01*
X157858728Y-83352587D01*
X157858733Y-83352590D01*
X157858736Y-83352592D01*
X157977556Y-83401809D01*
X157977560Y-83401809D01*
X157977561Y-83401810D01*
X158103692Y-83426900D01*
X158103695Y-83426900D01*
X162042307Y-83426900D01*
X162127165Y-83410019D01*
X162168444Y-83401809D01*
X162287264Y-83352592D01*
X162394200Y-83281141D01*
X163228122Y-82447219D01*
X163289445Y-82413734D01*
X163315803Y-82410900D01*
X166535100Y-82410900D01*
X166602139Y-82430585D01*
X166647894Y-82483389D01*
X166659100Y-82534900D01*
X166659100Y-83542656D01*
X166639415Y-83609695D01*
X166638203Y-83611546D01*
X166602608Y-83664817D01*
X166602602Y-83664828D01*
X166542264Y-83810498D01*
X166542261Y-83810510D01*
X166511500Y-83965153D01*
X166511500Y-84122846D01*
X166542261Y-84277489D01*
X166542264Y-84277501D01*
X166602602Y-84423172D01*
X166602609Y-84423185D01*
X166690210Y-84554288D01*
X166690213Y-84554292D01*
X166801707Y-84665786D01*
X166801711Y-84665789D01*
X166932814Y-84753390D01*
X166932827Y-84753397D01*
X167020230Y-84789599D01*
X167078503Y-84813737D01*
X167141342Y-84826236D01*
X167203252Y-84858620D01*
X167204831Y-84860172D01*
X172651796Y-90307137D01*
X172651804Y-90307143D01*
X172716198Y-90350170D01*
X172716199Y-90350170D01*
X172758736Y-90378592D01*
X172877556Y-90427809D01*
X172877560Y-90427809D01*
X172877561Y-90427810D01*
X173003692Y-90452900D01*
X173003695Y-90452900D01*
X179045501Y-90452900D01*
X179112540Y-90472585D01*
X179158295Y-90525389D01*
X179169501Y-90576900D01*
X179169501Y-90697876D01*
X179175908Y-90757483D01*
X179226202Y-90892328D01*
X179226206Y-90892335D01*
X179312452Y-91007544D01*
X179312455Y-91007547D01*
X179427664Y-91093793D01*
X179427671Y-91093797D01*
X179562517Y-91144091D01*
X179562516Y-91144091D01*
X179563549Y-91144202D01*
X179622127Y-91150500D01*
X181417872Y-91150499D01*
X181477483Y-91144091D01*
X181612331Y-91093796D01*
X181727546Y-91007546D01*
X181813796Y-90892331D01*
X181864091Y-90757483D01*
X181870500Y-90697873D01*
X181870499Y-88902128D01*
X181864091Y-88842517D01*
X181847489Y-88798006D01*
X181813797Y-88707671D01*
X181813793Y-88707664D01*
X181727547Y-88592455D01*
X181727544Y-88592452D01*
X181612335Y-88506206D01*
X181612328Y-88506202D01*
X181480917Y-88457189D01*
X181424983Y-88415318D01*
X181400566Y-88349853D01*
X181415418Y-88281580D01*
X181436563Y-88253332D01*
X181550104Y-88139792D01*
X181675051Y-87967816D01*
X181771557Y-87778412D01*
X181837246Y-87576243D01*
X181870500Y-87366287D01*
X181870500Y-87153713D01*
X181837246Y-86943757D01*
X181771557Y-86741588D01*
X181675051Y-86552184D01*
X181675049Y-86552181D01*
X181675048Y-86552179D01*
X181550109Y-86380213D01*
X181399786Y-86229890D01*
X181227820Y-86104951D01*
X181226267Y-86104160D01*
X181219054Y-86100485D01*
X181168259Y-86052512D01*
X181151463Y-85984692D01*
X181173999Y-85918556D01*
X181219054Y-85879515D01*
X181227816Y-85875051D01*
X181333288Y-85798422D01*
X181399786Y-85750109D01*
X181399788Y-85750106D01*
X181399792Y-85750104D01*
X181550104Y-85599792D01*
X181550106Y-85599788D01*
X181550109Y-85599786D01*
X181675048Y-85427820D01*
X181675047Y-85427820D01*
X181675051Y-85427816D01*
X181771557Y-85238412D01*
X181837246Y-85036243D01*
X181870500Y-84826287D01*
X181870500Y-84613713D01*
X181837246Y-84403757D01*
X181771557Y-84201588D01*
X181675051Y-84012184D01*
X181675049Y-84012181D01*
X181675048Y-84012179D01*
X181550109Y-83840213D01*
X181399786Y-83689890D01*
X181227820Y-83564951D01*
X181227115Y-83564591D01*
X181219054Y-83560485D01*
X181168259Y-83512512D01*
X181151463Y-83444692D01*
X181173999Y-83378556D01*
X181219054Y-83339515D01*
X181227816Y-83335051D01*
X181290189Y-83289735D01*
X181399786Y-83210109D01*
X181399788Y-83210106D01*
X181399792Y-83210104D01*
X181550104Y-83059792D01*
X181550106Y-83059788D01*
X181550109Y-83059786D01*
X181675048Y-82887820D01*
X181675047Y-82887820D01*
X181675051Y-82887816D01*
X181771557Y-82698412D01*
X181837246Y-82496243D01*
X181870500Y-82286287D01*
X181870500Y-82073713D01*
X181837246Y-81863757D01*
X181771557Y-81661588D01*
X181675051Y-81472184D01*
X181675049Y-81472181D01*
X181675048Y-81472179D01*
X181550109Y-81300213D01*
X181399786Y-81149890D01*
X181227817Y-81024949D01*
X181218504Y-81020204D01*
X181167707Y-80972230D01*
X181150912Y-80904409D01*
X181173449Y-80838274D01*
X181218507Y-80799232D01*
X181227555Y-80794622D01*
X181281716Y-80755270D01*
X181281717Y-80755270D01*
X180649408Y-80122962D01*
X180712993Y-80105925D01*
X180827007Y-80040099D01*
X180920099Y-79947007D01*
X180985925Y-79832993D01*
X181002962Y-79769408D01*
X181635270Y-80401717D01*
X181635270Y-80401716D01*
X181674622Y-80347554D01*
X181771095Y-80158217D01*
X181836757Y-79956130D01*
X181836757Y-79956127D01*
X181870000Y-79746246D01*
X181870000Y-79533753D01*
X181836757Y-79323872D01*
X181836757Y-79323869D01*
X181771095Y-79121782D01*
X181674624Y-78932449D01*
X181635270Y-78878282D01*
X181635269Y-78878282D01*
X181002962Y-79510590D01*
X180985925Y-79447007D01*
X180920099Y-79332993D01*
X180827007Y-79239901D01*
X180712993Y-79174075D01*
X180649409Y-79157037D01*
X181281716Y-78524728D01*
X181227550Y-78485375D01*
X181038217Y-78388904D01*
X180836129Y-78323242D01*
X180626246Y-78290000D01*
X180413754Y-78290000D01*
X180203872Y-78323242D01*
X180203869Y-78323242D01*
X180001782Y-78388904D01*
X179812439Y-78485380D01*
X179758282Y-78524727D01*
X179758282Y-78524728D01*
X180390591Y-79157037D01*
X180327007Y-79174075D01*
X180212993Y-79239901D01*
X180119901Y-79332993D01*
X180054075Y-79447007D01*
X180037037Y-79510591D01*
X179404728Y-78878282D01*
X179404727Y-78878282D01*
X179365380Y-78932439D01*
X179268904Y-79121782D01*
X179203242Y-79323869D01*
X179203242Y-79323872D01*
X179170000Y-79533753D01*
X179170000Y-79746246D01*
X179203242Y-79956127D01*
X179203242Y-79956130D01*
X179268904Y-80158217D01*
X179365375Y-80347550D01*
X179404728Y-80401716D01*
X180037037Y-79769408D01*
X180054075Y-79832993D01*
X180119901Y-79947007D01*
X180212993Y-80040099D01*
X180327007Y-80105925D01*
X180390590Y-80122962D01*
X179758282Y-80755269D01*
X179758282Y-80755270D01*
X179812452Y-80794626D01*
X179812451Y-80794626D01*
X179821495Y-80799234D01*
X179872292Y-80847208D01*
X179889087Y-80915029D01*
X179866550Y-80981164D01*
X179821499Y-81020202D01*
X179812182Y-81024949D01*
X179640213Y-81149890D01*
X179489890Y-81300213D01*
X179364951Y-81472179D01*
X179268444Y-81661585D01*
X179202753Y-81863760D01*
X179172454Y-82055061D01*
X179169500Y-82073713D01*
X179169500Y-82286287D01*
X179202754Y-82496243D01*
X179233643Y-82591310D01*
X179268444Y-82698414D01*
X179364951Y-82887820D01*
X179489890Y-83059786D01*
X179640213Y-83210109D01*
X179812182Y-83335050D01*
X179820946Y-83339516D01*
X179871742Y-83387491D01*
X179888536Y-83455312D01*
X179865998Y-83521447D01*
X179820946Y-83560484D01*
X179812182Y-83564949D01*
X179640213Y-83689890D01*
X179489896Y-83840207D01*
X179489892Y-83840213D01*
X179364949Y-84012184D01*
X179364947Y-84012186D01*
X179362188Y-84015985D01*
X179306858Y-84058651D01*
X179261869Y-84067100D01*
X178350500Y-84067100D01*
X178283461Y-84047415D01*
X178237706Y-83994611D01*
X178226500Y-83943100D01*
X178226500Y-78323162D01*
X178201410Y-78197031D01*
X178201409Y-78197030D01*
X178201409Y-78197026D01*
X178152192Y-78078206D01*
X178139693Y-78059500D01*
X178080740Y-77971270D01*
X178080737Y-77971266D01*
X176788335Y-76678863D01*
X176788334Y-76678862D01*
X176788330Y-76678859D01*
X176681394Y-76607408D01*
X176562574Y-76558191D01*
X176562568Y-76558189D01*
X176436437Y-76533100D01*
X176436435Y-76533100D01*
X175992143Y-76533100D01*
X175925104Y-76513415D01*
X175923301Y-76512235D01*
X175869979Y-76476606D01*
X175869972Y-76476602D01*
X175724301Y-76416264D01*
X175724289Y-76416261D01*
X175569645Y-76385500D01*
X175569642Y-76385500D01*
X175411958Y-76385500D01*
X175411955Y-76385500D01*
X175257310Y-76416261D01*
X175257298Y-76416264D01*
X175111627Y-76476602D01*
X175111614Y-76476609D01*
X174980511Y-76564210D01*
X174980507Y-76564213D01*
X174869013Y-76675707D01*
X174869010Y-76675711D01*
X174781409Y-76806814D01*
X174781402Y-76806827D01*
X174721064Y-76952498D01*
X174721061Y-76952510D01*
X174690300Y-77107153D01*
X174690300Y-77264846D01*
X174721061Y-77419489D01*
X174721064Y-77419501D01*
X174781402Y-77565172D01*
X174781409Y-77565185D01*
X174869010Y-77696288D01*
X174869013Y-77696292D01*
X174980507Y-77807786D01*
X174980511Y-77807789D01*
X175111614Y-77895390D01*
X175111627Y-77895397D01*
X175219940Y-77940261D01*
X175257303Y-77955737D01*
X175411953Y-77986499D01*
X175411956Y-77986500D01*
X175411958Y-77986500D01*
X175569644Y-77986500D01*
X175569645Y-77986499D01*
X175724297Y-77955737D01*
X175869979Y-77895394D01*
X175923252Y-77859797D01*
X175941299Y-77854146D01*
X175957208Y-77843923D01*
X175988167Y-77839471D01*
X175989929Y-77838920D01*
X175992143Y-77838900D01*
X176050327Y-77838900D01*
X176117366Y-77858585D01*
X176138008Y-77875219D01*
X176884381Y-78621591D01*
X176917866Y-78682914D01*
X176920700Y-78709272D01*
X176920700Y-84514705D01*
X176920700Y-84514707D01*
X176920699Y-84514707D01*
X176945652Y-84640144D01*
X176945661Y-84640190D01*
X176945789Y-84640837D01*
X176945793Y-84640849D01*
X176995005Y-84759660D01*
X176995008Y-84759664D01*
X177039488Y-84826235D01*
X177066462Y-84866604D01*
X177066463Y-84866605D01*
X177426995Y-85227136D01*
X177426998Y-85227139D01*
X177427001Y-85227141D01*
X177533936Y-85298592D01*
X177652756Y-85347809D01*
X177652760Y-85347809D01*
X177652761Y-85347810D01*
X177778892Y-85372900D01*
X177778895Y-85372900D01*
X179261869Y-85372900D01*
X179328908Y-85392585D01*
X179362188Y-85424015D01*
X179364947Y-85427813D01*
X179364949Y-85427816D01*
X179364952Y-85427820D01*
X179489896Y-85599792D01*
X179640213Y-85750109D01*
X179812182Y-85875050D01*
X179820946Y-85879516D01*
X179871742Y-85927491D01*
X179888536Y-85995312D01*
X179865998Y-86061447D01*
X179820946Y-86100484D01*
X179812182Y-86104949D01*
X179640213Y-86229890D01*
X179489896Y-86380207D01*
X179461412Y-86419413D01*
X179364949Y-86552184D01*
X179364947Y-86552186D01*
X179362188Y-86555985D01*
X179306858Y-86598651D01*
X179261869Y-86607100D01*
X177707802Y-86607100D01*
X177640763Y-86587415D01*
X177620121Y-86570781D01*
X175773619Y-84724278D01*
X175740134Y-84662955D01*
X175737300Y-84636597D01*
X175737300Y-81159591D01*
X175746739Y-81112139D01*
X175798050Y-80988261D01*
X175803337Y-80975497D01*
X175834100Y-80820842D01*
X175834100Y-80663158D01*
X175834100Y-80663155D01*
X175834099Y-80663153D01*
X175803338Y-80508510D01*
X175803337Y-80508503D01*
X175797211Y-80493713D01*
X175742997Y-80362827D01*
X175742990Y-80362814D01*
X175655389Y-80231711D01*
X175655386Y-80231707D01*
X175543892Y-80120213D01*
X175543888Y-80120210D01*
X175412785Y-80032609D01*
X175412772Y-80032602D01*
X175267101Y-79972264D01*
X175267089Y-79972261D01*
X175112445Y-79941500D01*
X175112442Y-79941500D01*
X174954758Y-79941500D01*
X174954755Y-79941500D01*
X174800110Y-79972261D01*
X174800098Y-79972264D01*
X174654427Y-80032602D01*
X174654414Y-80032609D01*
X174523311Y-80120210D01*
X174523307Y-80120213D01*
X174411813Y-80231707D01*
X174411810Y-80231711D01*
X174324209Y-80362814D01*
X174324202Y-80362827D01*
X174263864Y-80508498D01*
X174263861Y-80508510D01*
X174233100Y-80663153D01*
X174233100Y-80820846D01*
X174263861Y-80975489D01*
X174263864Y-80975501D01*
X174324202Y-81121172D01*
X174324209Y-81121185D01*
X174410602Y-81250480D01*
X174431480Y-81317157D01*
X174431500Y-81319371D01*
X174431500Y-85022705D01*
X174431500Y-85022707D01*
X174431499Y-85022707D01*
X174447531Y-85103298D01*
X174447531Y-85103299D01*
X174456589Y-85148837D01*
X174456590Y-85148841D01*
X174456591Y-85148844D01*
X174505808Y-85267664D01*
X174559358Y-85347809D01*
X174577262Y-85374604D01*
X174577263Y-85374605D01*
X176969795Y-87767136D01*
X176969798Y-87767139D01*
X176969801Y-87767141D01*
X177076736Y-87838592D01*
X177195556Y-87887809D01*
X177195560Y-87887809D01*
X177195561Y-87887810D01*
X177321692Y-87912900D01*
X177321695Y-87912900D01*
X179261869Y-87912900D01*
X179328908Y-87932585D01*
X179362188Y-87964015D01*
X179364947Y-87967813D01*
X179364949Y-87967816D01*
X179470893Y-88113637D01*
X179489896Y-88139792D01*
X179603430Y-88253326D01*
X179636915Y-88314649D01*
X179631931Y-88384341D01*
X179590059Y-88440274D01*
X179559083Y-88457189D01*
X179427669Y-88506203D01*
X179427664Y-88506206D01*
X179312455Y-88592452D01*
X179312452Y-88592455D01*
X179226206Y-88707664D01*
X179226202Y-88707671D01*
X179175908Y-88842517D01*
X179170507Y-88892758D01*
X179169501Y-88902123D01*
X179169500Y-88902135D01*
X179169500Y-89023100D01*
X179149815Y-89090139D01*
X179097011Y-89135894D01*
X179045500Y-89147100D01*
X173389802Y-89147100D01*
X173322763Y-89127415D01*
X173302121Y-89110781D01*
X168128172Y-83936831D01*
X168094687Y-83875508D01*
X168094250Y-83873415D01*
X168081737Y-83810503D01*
X168021394Y-83664821D01*
X167985796Y-83611545D01*
X167964920Y-83544868D01*
X167964900Y-83542656D01*
X167964900Y-82259343D01*
X167984585Y-82192304D01*
X167985764Y-82190501D01*
X168021394Y-82137179D01*
X168081737Y-81991497D01*
X168112500Y-81836842D01*
X168112500Y-81679158D01*
X168112500Y-81679155D01*
X168112499Y-81679153D01*
X168081738Y-81524510D01*
X168081737Y-81524503D01*
X168060064Y-81472179D01*
X168021397Y-81378827D01*
X168021390Y-81378814D01*
X167933789Y-81247711D01*
X167933786Y-81247707D01*
X167822292Y-81136213D01*
X167822288Y-81136210D01*
X167691185Y-81048609D01*
X167691172Y-81048602D01*
X167545501Y-80988264D01*
X167545489Y-80988261D01*
X167390845Y-80957500D01*
X167390842Y-80957500D01*
X167233158Y-80957500D01*
X167233155Y-80957500D01*
X167078510Y-80988261D01*
X167078498Y-80988264D01*
X166932827Y-81048602D01*
X166932820Y-81048606D01*
X166913299Y-81061650D01*
X166879547Y-81084202D01*
X166812871Y-81105080D01*
X166810657Y-81105100D01*
X162929693Y-81105100D01*
X162803561Y-81130189D01*
X162803555Y-81130191D01*
X162684737Y-81179407D01*
X162577795Y-81250862D01*
X162577794Y-81250863D01*
X161743878Y-82084781D01*
X161682555Y-82118266D01*
X161656197Y-82121100D01*
X158676496Y-82121100D01*
X158609457Y-82101415D01*
X158573394Y-82065991D01*
X158535789Y-82009711D01*
X158535787Y-82009708D01*
X158424292Y-81898213D01*
X158424288Y-81898210D01*
X158293185Y-81810609D01*
X158293172Y-81810602D01*
X158147501Y-81750264D01*
X158147489Y-81750261D01*
X157992845Y-81719500D01*
X157992842Y-81719500D01*
X157835158Y-81719500D01*
X157835155Y-81719500D01*
X157680510Y-81750261D01*
X157680498Y-81750264D01*
X157534827Y-81810602D01*
X157534820Y-81810606D01*
X157529602Y-81814093D01*
X157481547Y-81846202D01*
X157414871Y-81867080D01*
X157412657Y-81867100D01*
X156147205Y-81867100D01*
X156080166Y-81847415D01*
X156034411Y-81794611D01*
X156024467Y-81725453D01*
X156031023Y-81699767D01*
X156084091Y-81557482D01*
X156087636Y-81524510D01*
X156090500Y-81497873D01*
X156090499Y-79702128D01*
X156084091Y-79642517D01*
X156083152Y-79640000D01*
X156033797Y-79507671D01*
X156033793Y-79507664D01*
X155947547Y-79392455D01*
X155947544Y-79392452D01*
X155832335Y-79306206D01*
X155832328Y-79306202D01*
X155697482Y-79255908D01*
X155697483Y-79255908D01*
X155637883Y-79249501D01*
X155637881Y-79249500D01*
X155637873Y-79249500D01*
X155637865Y-79249500D01*
X155516900Y-79249500D01*
X155449861Y-79229815D01*
X155404106Y-79177011D01*
X155392900Y-79125500D01*
X155392900Y-77887802D01*
X155412585Y-77820763D01*
X155429219Y-77800121D01*
X155862121Y-77367219D01*
X155923444Y-77333734D01*
X155949802Y-77330900D01*
X162746657Y-77330900D01*
X162813696Y-77350585D01*
X162815498Y-77351764D01*
X162868821Y-77387394D01*
X162868823Y-77387395D01*
X162868827Y-77387397D01*
X163014498Y-77447735D01*
X163014503Y-77447737D01*
X163169153Y-77478499D01*
X163169156Y-77478500D01*
X163169158Y-77478500D01*
X163326844Y-77478500D01*
X163326845Y-77478499D01*
X163481497Y-77447737D01*
X163627179Y-77387394D01*
X163758289Y-77299789D01*
X163869789Y-77188289D01*
X163957394Y-77057179D01*
X164017737Y-76911497D01*
X164048500Y-76756842D01*
X164048500Y-76599158D01*
X164048500Y-76599155D01*
X164048499Y-76599153D01*
X164041549Y-76564213D01*
X164017737Y-76444503D01*
X164006039Y-76416261D01*
X163957397Y-76298827D01*
X163957390Y-76298814D01*
X163869789Y-76167711D01*
X163869786Y-76167707D01*
X163758292Y-76056213D01*
X163758288Y-76056210D01*
X163627185Y-75968609D01*
X163627172Y-75968602D01*
X163481501Y-75908264D01*
X163481489Y-75908261D01*
X163326845Y-75877500D01*
X163326842Y-75877500D01*
X163169158Y-75877500D01*
X163169155Y-75877500D01*
X163014510Y-75908261D01*
X163014498Y-75908264D01*
X162868827Y-75968602D01*
X162868820Y-75968606D01*
X162842497Y-75986195D01*
X162815547Y-76004202D01*
X162748871Y-76025080D01*
X162746657Y-76025100D01*
X155563693Y-76025100D01*
X155437561Y-76050189D01*
X155437555Y-76050191D01*
X155318736Y-76099407D01*
X155211798Y-76170860D01*
X155211795Y-76170863D01*
X154232863Y-77149794D01*
X154232862Y-77149795D01*
X154165863Y-77250069D01*
X154161404Y-77256741D01*
X154112192Y-77375551D01*
X154112189Y-77375561D01*
X154087100Y-77501692D01*
X154087100Y-79125500D01*
X154067415Y-79192539D01*
X154014611Y-79238294D01*
X153963101Y-79249500D01*
X153842130Y-79249500D01*
X153842123Y-79249501D01*
X153782516Y-79255908D01*
X153647671Y-79306202D01*
X153647664Y-79306206D01*
X153532455Y-79392452D01*
X153532452Y-79392455D01*
X153446206Y-79507664D01*
X153446203Y-79507669D01*
X153397189Y-79639083D01*
X153355317Y-79695016D01*
X153289853Y-79719433D01*
X153221580Y-79704581D01*
X153193326Y-79683430D01*
X153079786Y-79569890D01*
X152907820Y-79444951D01*
X152718414Y-79348444D01*
X152718413Y-79348443D01*
X152718412Y-79348443D01*
X152516243Y-79282754D01*
X152516241Y-79282753D01*
X152516240Y-79282753D01*
X152354957Y-79257208D01*
X152306287Y-79249500D01*
X152093713Y-79249500D01*
X152045042Y-79257208D01*
X151883760Y-79282753D01*
X151782672Y-79315598D01*
X151732844Y-79331789D01*
X151681585Y-79348444D01*
X151492179Y-79444951D01*
X151320213Y-79569890D01*
X151169890Y-79720213D01*
X151044949Y-79892182D01*
X151040484Y-79900946D01*
X150992509Y-79951742D01*
X150924688Y-79968536D01*
X150858553Y-79945998D01*
X150819516Y-79900946D01*
X150815050Y-79892182D01*
X150690109Y-79720213D01*
X150539786Y-79569890D01*
X150367820Y-79444951D01*
X150178414Y-79348444D01*
X150178413Y-79348443D01*
X150178412Y-79348443D01*
X149976243Y-79282754D01*
X149976241Y-79282753D01*
X149976240Y-79282753D01*
X149814957Y-79257208D01*
X149766287Y-79249500D01*
X149553713Y-79249500D01*
X149505042Y-79257208D01*
X149343760Y-79282753D01*
X149242672Y-79315598D01*
X149192844Y-79331789D01*
X149141585Y-79348444D01*
X148952179Y-79444951D01*
X148780213Y-79569890D01*
X148629890Y-79720213D01*
X148504951Y-79892179D01*
X148408444Y-80081585D01*
X148342753Y-80283760D01*
X148309500Y-80493713D01*
X148309500Y-80706286D01*
X148342561Y-80915029D01*
X148342754Y-80916243D01*
X148397327Y-81084202D01*
X148408444Y-81118414D01*
X148504951Y-81307820D01*
X148629890Y-81479786D01*
X148780213Y-81630109D01*
X148952179Y-81755048D01*
X148952181Y-81755049D01*
X148952184Y-81755051D01*
X149141588Y-81851557D01*
X149343757Y-81917246D01*
X149386201Y-81923968D01*
X149395409Y-81925427D01*
X149458544Y-81955356D01*
X149495475Y-82014668D01*
X149494477Y-82084530D01*
X149455867Y-82142763D01*
X149391904Y-82170877D01*
X149376011Y-82171900D01*
X149068143Y-82171900D01*
X149001104Y-82152215D01*
X148999301Y-82151035D01*
X148945979Y-82115406D01*
X148945972Y-82115402D01*
X148800301Y-82055064D01*
X148800289Y-82055061D01*
X148645645Y-82024300D01*
X148645642Y-82024300D01*
X148487958Y-82024300D01*
X148487955Y-82024300D01*
X148333310Y-82055061D01*
X148333298Y-82055064D01*
X148187627Y-82115402D01*
X148187614Y-82115409D01*
X148056511Y-82203010D01*
X148056507Y-82203013D01*
X147945013Y-82314507D01*
X147945010Y-82314511D01*
X147857409Y-82445614D01*
X147857402Y-82445627D01*
X147797064Y-82591298D01*
X147797061Y-82591310D01*
X147766300Y-82745953D01*
X147766300Y-82909734D01*
X147764371Y-82909734D01*
X147753006Y-82969609D01*
X147704934Y-83020312D01*
X147642631Y-83037100D01*
X147268543Y-83037100D01*
X147115813Y-83078023D01*
X147083873Y-83096465D01*
X147083872Y-83096465D01*
X146978887Y-83157077D01*
X146978882Y-83157081D01*
X145812165Y-84323798D01*
X145812152Y-84323811D01*
X145810486Y-84325478D01*
X145810484Y-84325480D01*
X145698680Y-84437284D01*
X145685450Y-84460200D01*
X145684922Y-84461114D01*
X145675454Y-84471332D01*
X145656929Y-84482382D01*
X145641320Y-84497266D01*
X145627519Y-84499925D01*
X145615449Y-84507126D01*
X145593890Y-84506406D01*
X145572713Y-84510488D01*
X145559665Y-84505264D01*
X145545618Y-84504796D01*
X145527871Y-84492536D01*
X145507848Y-84484520D01*
X145499695Y-84473071D01*
X145488132Y-84465083D01*
X145479830Y-84445175D01*
X145467320Y-84427606D01*
X145463815Y-84406767D01*
X145461242Y-84400595D01*
X145462031Y-84396158D01*
X145460500Y-84387050D01*
X145460500Y-71011153D01*
X164987500Y-71011153D01*
X164987500Y-71168846D01*
X165018261Y-71323489D01*
X165018264Y-71323501D01*
X165078602Y-71469172D01*
X165078606Y-71469179D01*
X165114202Y-71522452D01*
X165135080Y-71589129D01*
X165135100Y-71591343D01*
X165135100Y-75726307D01*
X165157828Y-75840563D01*
X165157828Y-75840565D01*
X165160191Y-75852445D01*
X165209406Y-75971262D01*
X165280862Y-76078204D01*
X165280863Y-76078205D01*
X168019826Y-78817167D01*
X168053311Y-78878490D01*
X168053762Y-78880656D01*
X168066261Y-78943491D01*
X168066263Y-78943499D01*
X168126602Y-79089172D01*
X168126609Y-79089185D01*
X168214210Y-79220288D01*
X168214213Y-79220292D01*
X168325707Y-79331786D01*
X168325711Y-79331789D01*
X168456814Y-79419390D01*
X168456827Y-79419397D01*
X168602498Y-79479735D01*
X168602503Y-79479737D01*
X168742901Y-79507664D01*
X168757153Y-79510499D01*
X168757156Y-79510500D01*
X168757158Y-79510500D01*
X168914844Y-79510500D01*
X168914845Y-79510499D01*
X169069497Y-79479737D01*
X169215179Y-79419394D01*
X169346289Y-79331789D01*
X169457789Y-79220289D01*
X169545394Y-79089179D01*
X169605737Y-78943497D01*
X169636500Y-78788842D01*
X169636500Y-78631158D01*
X169636500Y-78631155D01*
X169636499Y-78631153D01*
X169634597Y-78621591D01*
X169605737Y-78476503D01*
X169569453Y-78388904D01*
X169545397Y-78330827D01*
X169545390Y-78330814D01*
X169457789Y-78199711D01*
X169457786Y-78199707D01*
X169346292Y-78088213D01*
X169346288Y-78088210D01*
X169215185Y-78000609D01*
X169215172Y-78000602D01*
X169069499Y-77940263D01*
X169069491Y-77940261D01*
X169006656Y-77927762D01*
X168944745Y-77895377D01*
X168943167Y-77893826D01*
X166477219Y-75427878D01*
X166443734Y-75366555D01*
X166440900Y-75340197D01*
X166440900Y-74331902D01*
X173449500Y-74331902D01*
X173449500Y-74568097D01*
X173486446Y-74801368D01*
X173559433Y-75025996D01*
X173633116Y-75170605D01*
X173666657Y-75236433D01*
X173805483Y-75427510D01*
X173972490Y-75594517D01*
X174163567Y-75733343D01*
X174262991Y-75784002D01*
X174374003Y-75840566D01*
X174374005Y-75840566D01*
X174374008Y-75840568D01*
X174410562Y-75852445D01*
X174598631Y-75913553D01*
X174831903Y-75950500D01*
X174831908Y-75950500D01*
X175068097Y-75950500D01*
X175301368Y-75913553D01*
X175317655Y-75908261D01*
X175525992Y-75840568D01*
X175736433Y-75733343D01*
X175927510Y-75594517D01*
X176094517Y-75427510D01*
X176233343Y-75236433D01*
X176266884Y-75170605D01*
X176314859Y-75119809D01*
X176377369Y-75102900D01*
X180022631Y-75102900D01*
X180089670Y-75122585D01*
X180133116Y-75170605D01*
X180166657Y-75236433D01*
X180305483Y-75427510D01*
X180472490Y-75594517D01*
X180663567Y-75733343D01*
X180762991Y-75784002D01*
X180874003Y-75840566D01*
X180874005Y-75840566D01*
X180874008Y-75840568D01*
X180910562Y-75852445D01*
X181098631Y-75913553D01*
X181331903Y-75950500D01*
X181331908Y-75950500D01*
X181568097Y-75950500D01*
X181801368Y-75913553D01*
X181817655Y-75908261D01*
X182025992Y-75840568D01*
X182236433Y-75733343D01*
X182427510Y-75594517D01*
X182594517Y-75427510D01*
X182733343Y-75236433D01*
X182840568Y-75025992D01*
X182913553Y-74801368D01*
X182950500Y-74568097D01*
X182950500Y-74331902D01*
X182913553Y-74098631D01*
X182840566Y-73874003D01*
X182733342Y-73663566D01*
X182594517Y-73472490D01*
X182427510Y-73305483D01*
X182236433Y-73166657D01*
X182025996Y-73059433D01*
X181801368Y-72986446D01*
X181568097Y-72949500D01*
X181568092Y-72949500D01*
X181331908Y-72949500D01*
X181331903Y-72949500D01*
X181098631Y-72986446D01*
X180874003Y-73059433D01*
X180663566Y-73166657D01*
X180554550Y-73245862D01*
X180472490Y-73305483D01*
X180472488Y-73305485D01*
X180472487Y-73305485D01*
X180305485Y-73472487D01*
X180305485Y-73472488D01*
X180305483Y-73472490D01*
X180245862Y-73554550D01*
X180166657Y-73663566D01*
X180133116Y-73729395D01*
X180085141Y-73780191D01*
X180022631Y-73797100D01*
X176377369Y-73797100D01*
X176310330Y-73777415D01*
X176266884Y-73729395D01*
X176233342Y-73663566D01*
X176094517Y-73472490D01*
X175927510Y-73305483D01*
X175736433Y-73166657D01*
X175525996Y-73059433D01*
X175301368Y-72986446D01*
X175068097Y-72949500D01*
X175068092Y-72949500D01*
X174831908Y-72949500D01*
X174831903Y-72949500D01*
X174598631Y-72986446D01*
X174374003Y-73059433D01*
X174163566Y-73166657D01*
X174054550Y-73245862D01*
X173972490Y-73305483D01*
X173972488Y-73305485D01*
X173972487Y-73305485D01*
X173805485Y-73472487D01*
X173805485Y-73472488D01*
X173805483Y-73472490D01*
X173745862Y-73554550D01*
X173666657Y-73663566D01*
X173559433Y-73874003D01*
X173486446Y-74098631D01*
X173449500Y-74331902D01*
X166440900Y-74331902D01*
X166440900Y-71591343D01*
X166460585Y-71524304D01*
X166461764Y-71522501D01*
X166497394Y-71469179D01*
X166557737Y-71323497D01*
X166588500Y-71168842D01*
X166588500Y-71011158D01*
X166588500Y-71011155D01*
X166588499Y-71011153D01*
X166557738Y-70856510D01*
X166557737Y-70856503D01*
X166557735Y-70856498D01*
X166497397Y-70710827D01*
X166497390Y-70710814D01*
X166409789Y-70579711D01*
X166409786Y-70579707D01*
X166298292Y-70468213D01*
X166298288Y-70468210D01*
X166167185Y-70380609D01*
X166167172Y-70380602D01*
X166021501Y-70320264D01*
X166021489Y-70320261D01*
X165866845Y-70289500D01*
X165866842Y-70289500D01*
X165709158Y-70289500D01*
X165709155Y-70289500D01*
X165554510Y-70320261D01*
X165554498Y-70320264D01*
X165408827Y-70380602D01*
X165408814Y-70380609D01*
X165277711Y-70468210D01*
X165277707Y-70468213D01*
X165166213Y-70579707D01*
X165166210Y-70579711D01*
X165078609Y-70710814D01*
X165078602Y-70710827D01*
X165018264Y-70856498D01*
X165018261Y-70856510D01*
X164987500Y-71011153D01*
X145460500Y-71011153D01*
X145460500Y-69831947D01*
X173450000Y-69831947D01*
X173450000Y-70068052D01*
X173486934Y-70301247D01*
X173559897Y-70525802D01*
X173667087Y-70736174D01*
X173727338Y-70819104D01*
X173727340Y-70819105D01*
X174426212Y-70120233D01*
X174437482Y-70162292D01*
X174509890Y-70287708D01*
X174612292Y-70390110D01*
X174737708Y-70462518D01*
X174779765Y-70473787D01*
X174080893Y-71172658D01*
X174163828Y-71232914D01*
X174374197Y-71340102D01*
X174598752Y-71413065D01*
X174598751Y-71413065D01*
X174831948Y-71450000D01*
X175068052Y-71450000D01*
X175301247Y-71413065D01*
X175525802Y-71340102D01*
X175736163Y-71232918D01*
X175736169Y-71232914D01*
X175819104Y-71172658D01*
X175819105Y-71172658D01*
X175120233Y-70473787D01*
X175162292Y-70462518D01*
X175287708Y-70390110D01*
X175390110Y-70287708D01*
X175462518Y-70162292D01*
X175473787Y-70120233D01*
X176172658Y-70819105D01*
X176172658Y-70819104D01*
X176232914Y-70736169D01*
X176232918Y-70736163D01*
X176340102Y-70525802D01*
X176413065Y-70301247D01*
X176450000Y-70068052D01*
X176450000Y-69831947D01*
X179950000Y-69831947D01*
X179950000Y-70068052D01*
X179986934Y-70301247D01*
X180059897Y-70525802D01*
X180167087Y-70736174D01*
X180227338Y-70819104D01*
X180227340Y-70819105D01*
X180926212Y-70120233D01*
X180937482Y-70162292D01*
X181009890Y-70287708D01*
X181112292Y-70390110D01*
X181237708Y-70462518D01*
X181279765Y-70473787D01*
X180580893Y-71172658D01*
X180663828Y-71232914D01*
X180874197Y-71340102D01*
X181098752Y-71413065D01*
X181098751Y-71413065D01*
X181331948Y-71450000D01*
X181568052Y-71450000D01*
X181801247Y-71413065D01*
X182025802Y-71340102D01*
X182236163Y-71232918D01*
X182236169Y-71232914D01*
X182319104Y-71172658D01*
X182319105Y-71172658D01*
X181620233Y-70473787D01*
X181662292Y-70462518D01*
X181787708Y-70390110D01*
X181890110Y-70287708D01*
X181962518Y-70162292D01*
X181973787Y-70120234D01*
X182672658Y-70819105D01*
X182672658Y-70819104D01*
X182732914Y-70736169D01*
X182732918Y-70736163D01*
X182840102Y-70525802D01*
X182913065Y-70301247D01*
X182950000Y-70068052D01*
X182950000Y-69831947D01*
X182913065Y-69598752D01*
X182840102Y-69374197D01*
X182732914Y-69163828D01*
X182672658Y-69080894D01*
X182672658Y-69080893D01*
X181973787Y-69779765D01*
X181962518Y-69737708D01*
X181890110Y-69612292D01*
X181787708Y-69509890D01*
X181662292Y-69437482D01*
X181620234Y-69426212D01*
X182319105Y-68727340D01*
X182319104Y-68727338D01*
X182236174Y-68667087D01*
X182025802Y-68559897D01*
X181801247Y-68486934D01*
X181801248Y-68486934D01*
X181568052Y-68450000D01*
X181331948Y-68450000D01*
X181098752Y-68486934D01*
X180874197Y-68559897D01*
X180663830Y-68667084D01*
X180580894Y-68727340D01*
X181279766Y-69426212D01*
X181237708Y-69437482D01*
X181112292Y-69509890D01*
X181009890Y-69612292D01*
X180937482Y-69737708D01*
X180926212Y-69779766D01*
X180227340Y-69080894D01*
X180167084Y-69163830D01*
X180059897Y-69374197D01*
X179986934Y-69598752D01*
X179950000Y-69831947D01*
X176450000Y-69831947D01*
X176413065Y-69598752D01*
X176340102Y-69374197D01*
X176232914Y-69163828D01*
X176172658Y-69080894D01*
X176172658Y-69080893D01*
X175473787Y-69779765D01*
X175462518Y-69737708D01*
X175390110Y-69612292D01*
X175287708Y-69509890D01*
X175162292Y-69437482D01*
X175120234Y-69426212D01*
X175819105Y-68727340D01*
X175819104Y-68727339D01*
X175736174Y-68667087D01*
X175525802Y-68559897D01*
X175301247Y-68486934D01*
X175301248Y-68486934D01*
X175068052Y-68450000D01*
X174831948Y-68450000D01*
X174598752Y-68486934D01*
X174374197Y-68559897D01*
X174163830Y-68667084D01*
X174080894Y-68727340D01*
X174779766Y-69426212D01*
X174737708Y-69437482D01*
X174612292Y-69509890D01*
X174509890Y-69612292D01*
X174437482Y-69737708D01*
X174426212Y-69779766D01*
X173727340Y-69080894D01*
X173667084Y-69163830D01*
X173559897Y-69374197D01*
X173486934Y-69598752D01*
X173450000Y-69831947D01*
X145460500Y-69831947D01*
X145460500Y-64656504D01*
X154880000Y-64656504D01*
X154880000Y-65055000D01*
X155580000Y-65055000D01*
X155580000Y-65555000D01*
X154880000Y-65555000D01*
X154880000Y-65953495D01*
X154918427Y-66146681D01*
X154918430Y-66146693D01*
X154993807Y-66328671D01*
X154993814Y-66328684D01*
X155103248Y-66492462D01*
X155103251Y-66492466D01*
X155242533Y-66631748D01*
X155242537Y-66631751D01*
X155406315Y-66741185D01*
X155406328Y-66741192D01*
X155588308Y-66816569D01*
X155630000Y-66824862D01*
X155630000Y-66021988D01*
X155639940Y-66039205D01*
X155695795Y-66095060D01*
X155764204Y-66134556D01*
X155840504Y-66155000D01*
X155919496Y-66155000D01*
X155995796Y-66134556D01*
X156064205Y-66095060D01*
X156120060Y-66039205D01*
X156130000Y-66021988D01*
X156130000Y-66824862D01*
X156171690Y-66816569D01*
X156171692Y-66816569D01*
X156353671Y-66741192D01*
X156353684Y-66741185D01*
X156517462Y-66631751D01*
X156517466Y-66631748D01*
X156656748Y-66492466D01*
X156656751Y-66492462D01*
X156766185Y-66328684D01*
X156766192Y-66328671D01*
X156841569Y-66146693D01*
X156841572Y-66146681D01*
X156879999Y-65953495D01*
X156880000Y-65953492D01*
X156880000Y-65555000D01*
X156180000Y-65555000D01*
X156180000Y-65055000D01*
X156718216Y-65055000D01*
X156785255Y-65074685D01*
X156825602Y-65116999D01*
X156849485Y-65158365D01*
X156956635Y-65265515D01*
X157087865Y-65341281D01*
X157234234Y-65380500D01*
X157234236Y-65380500D01*
X157385764Y-65380500D01*
X157385766Y-65380500D01*
X157532135Y-65341281D01*
X157663365Y-65265515D01*
X157770515Y-65158365D01*
X157846281Y-65027135D01*
X157885500Y-64880766D01*
X157885500Y-64729234D01*
X162514500Y-64729234D01*
X162514500Y-64880765D01*
X162553719Y-65027136D01*
X162569807Y-65055000D01*
X162629485Y-65158365D01*
X162736635Y-65265515D01*
X162867865Y-65341281D01*
X163014234Y-65380500D01*
X163014236Y-65380500D01*
X163165763Y-65380500D01*
X163165766Y-65380500D01*
X163312135Y-65341281D01*
X163443365Y-65265515D01*
X163550515Y-65158365D01*
X163574397Y-65116999D01*
X163624964Y-65068784D01*
X163681784Y-65055000D01*
X164220000Y-65055000D01*
X164220000Y-65555000D01*
X163520000Y-65555000D01*
X163520000Y-65953495D01*
X163558427Y-66146681D01*
X163558430Y-66146693D01*
X163633807Y-66328671D01*
X163633814Y-66328684D01*
X163743248Y-66492462D01*
X163743251Y-66492466D01*
X163882533Y-66631748D01*
X163882537Y-66631751D01*
X164046315Y-66741185D01*
X164046328Y-66741192D01*
X164228308Y-66816569D01*
X164270000Y-66824862D01*
X164270000Y-66021988D01*
X164279940Y-66039205D01*
X164335795Y-66095060D01*
X164404204Y-66134556D01*
X164480504Y-66155000D01*
X164559496Y-66155000D01*
X164635796Y-66134556D01*
X164704205Y-66095060D01*
X164760060Y-66039205D01*
X164770000Y-66021988D01*
X164770000Y-66824862D01*
X164811690Y-66816569D01*
X164811692Y-66816569D01*
X164993671Y-66741192D01*
X164993684Y-66741185D01*
X165157462Y-66631751D01*
X165157466Y-66631748D01*
X165296748Y-66492466D01*
X165296751Y-66492462D01*
X165406185Y-66328684D01*
X165406192Y-66328671D01*
X165481569Y-66146693D01*
X165481572Y-66146681D01*
X165519999Y-65953495D01*
X165520000Y-65953492D01*
X165520000Y-65555000D01*
X164820000Y-65555000D01*
X164820000Y-65055000D01*
X165520000Y-65055000D01*
X165520000Y-64656508D01*
X165519999Y-64656504D01*
X165481572Y-64463318D01*
X165481569Y-64463306D01*
X165444780Y-64374488D01*
X165427140Y-64331902D01*
X173449500Y-64331902D01*
X173449500Y-64568097D01*
X173486446Y-64801368D01*
X173559433Y-65025996D01*
X173626879Y-65158365D01*
X173666657Y-65236433D01*
X173805483Y-65427510D01*
X173972490Y-65594517D01*
X174163567Y-65733343D01*
X174262991Y-65784002D01*
X174374003Y-65840566D01*
X174374005Y-65840566D01*
X174374008Y-65840568D01*
X174494412Y-65879689D01*
X174598631Y-65913553D01*
X174831903Y-65950500D01*
X174831908Y-65950500D01*
X175068097Y-65950500D01*
X175301368Y-65913553D01*
X175360019Y-65894496D01*
X175525992Y-65840568D01*
X175736433Y-65733343D01*
X175927510Y-65594517D01*
X176094517Y-65427510D01*
X176233343Y-65236433D01*
X176266884Y-65170605D01*
X176314859Y-65119809D01*
X176377369Y-65102900D01*
X180022631Y-65102900D01*
X180089670Y-65122585D01*
X180133116Y-65170605D01*
X180166657Y-65236433D01*
X180305483Y-65427510D01*
X180472490Y-65594517D01*
X180663567Y-65733343D01*
X180762991Y-65784002D01*
X180874003Y-65840566D01*
X180874005Y-65840566D01*
X180874008Y-65840568D01*
X180994412Y-65879689D01*
X181098631Y-65913553D01*
X181331903Y-65950500D01*
X181331908Y-65950500D01*
X181568097Y-65950500D01*
X181801368Y-65913553D01*
X181860019Y-65894496D01*
X182025992Y-65840568D01*
X182236433Y-65733343D01*
X182427510Y-65594517D01*
X182594517Y-65427510D01*
X182733343Y-65236433D01*
X182840568Y-65025992D01*
X182913553Y-64801368D01*
X182950500Y-64568097D01*
X182950500Y-64331902D01*
X182913553Y-64098631D01*
X182840566Y-63874003D01*
X182733342Y-63663566D01*
X182594517Y-63472490D01*
X182427510Y-63305483D01*
X182236433Y-63166657D01*
X182025996Y-63059433D01*
X181801368Y-62986446D01*
X181568097Y-62949500D01*
X181568092Y-62949500D01*
X181331908Y-62949500D01*
X181331903Y-62949500D01*
X181098631Y-62986446D01*
X180874003Y-63059433D01*
X180663566Y-63166657D01*
X180554550Y-63245862D01*
X180472490Y-63305483D01*
X180472488Y-63305485D01*
X180472487Y-63305485D01*
X180305485Y-63472487D01*
X180305485Y-63472488D01*
X180305483Y-63472490D01*
X180245862Y-63554550D01*
X180166657Y-63663566D01*
X180133116Y-63729395D01*
X180085141Y-63780191D01*
X180022631Y-63797100D01*
X176377369Y-63797100D01*
X176310330Y-63777415D01*
X176266884Y-63729395D01*
X176233342Y-63663566D01*
X176094517Y-63472490D01*
X175927510Y-63305483D01*
X175736433Y-63166657D01*
X175525996Y-63059433D01*
X175301368Y-62986446D01*
X175068097Y-62949500D01*
X175068092Y-62949500D01*
X174831908Y-62949500D01*
X174831903Y-62949500D01*
X174598631Y-62986446D01*
X174374003Y-63059433D01*
X174163566Y-63166657D01*
X174054550Y-63245862D01*
X173972490Y-63305483D01*
X173972488Y-63305485D01*
X173972487Y-63305485D01*
X173805485Y-63472487D01*
X173805485Y-63472488D01*
X173805483Y-63472490D01*
X173745862Y-63554550D01*
X173666657Y-63663566D01*
X173559433Y-63874003D01*
X173486446Y-64098631D01*
X173449500Y-64331902D01*
X165427140Y-64331902D01*
X165406190Y-64281324D01*
X165406185Y-64281315D01*
X165296751Y-64117537D01*
X165296748Y-64117533D01*
X165157466Y-63978251D01*
X165157462Y-63978248D01*
X164993684Y-63868814D01*
X164993671Y-63868807D01*
X164811691Y-63793429D01*
X164811683Y-63793427D01*
X164770000Y-63785135D01*
X164770000Y-64588011D01*
X164760060Y-64570795D01*
X164704205Y-64514940D01*
X164635796Y-64475444D01*
X164559496Y-64455000D01*
X164480504Y-64455000D01*
X164404204Y-64475444D01*
X164335795Y-64514940D01*
X164279940Y-64570795D01*
X164270000Y-64588011D01*
X164270000Y-63785136D01*
X164269999Y-63785135D01*
X164228316Y-63793427D01*
X164228308Y-63793429D01*
X164046328Y-63868807D01*
X164046315Y-63868814D01*
X163882537Y-63978248D01*
X163882533Y-63978251D01*
X163743251Y-64117533D01*
X163743248Y-64117537D01*
X163633814Y-64281315D01*
X163633809Y-64281324D01*
X163629866Y-64290845D01*
X163586023Y-64345247D01*
X163519728Y-64367310D01*
X163452030Y-64350029D01*
X163446597Y-64346351D01*
X163312136Y-64268719D01*
X163238950Y-64249109D01*
X163165766Y-64229500D01*
X163014234Y-64229500D01*
X162867863Y-64268719D01*
X162736635Y-64344485D01*
X162736632Y-64344487D01*
X162629487Y-64451632D01*
X162629485Y-64451635D01*
X162553719Y-64582863D01*
X162514500Y-64729234D01*
X157885500Y-64729234D01*
X157846281Y-64582865D01*
X157770515Y-64451635D01*
X157663365Y-64344485D01*
X157593406Y-64304094D01*
X157532136Y-64268719D01*
X157458950Y-64249109D01*
X157385766Y-64229500D01*
X157234234Y-64229500D01*
X157087863Y-64268719D01*
X156996428Y-64321510D01*
X156956635Y-64344485D01*
X156956633Y-64344486D01*
X156949597Y-64348549D01*
X156948327Y-64346349D01*
X156894995Y-64366960D01*
X156826552Y-64352914D01*
X156776568Y-64304094D01*
X156770131Y-64290838D01*
X156766192Y-64281328D01*
X156766185Y-64281315D01*
X156656751Y-64117537D01*
X156656748Y-64117533D01*
X156517466Y-63978251D01*
X156517462Y-63978248D01*
X156353684Y-63868814D01*
X156353671Y-63868807D01*
X156171691Y-63793429D01*
X156171683Y-63793427D01*
X156130000Y-63785135D01*
X156130000Y-64588011D01*
X156120060Y-64570795D01*
X156064205Y-64514940D01*
X155995796Y-64475444D01*
X155919496Y-64455000D01*
X155840504Y-64455000D01*
X155764204Y-64475444D01*
X155695795Y-64514940D01*
X155639940Y-64570795D01*
X155630000Y-64588011D01*
X155630000Y-63785136D01*
X155629999Y-63785135D01*
X155588316Y-63793427D01*
X155588308Y-63793429D01*
X155406328Y-63868807D01*
X155406315Y-63868814D01*
X155242537Y-63978248D01*
X155242533Y-63978251D01*
X155103251Y-64117533D01*
X155103248Y-64117537D01*
X154993814Y-64281315D01*
X154993807Y-64281328D01*
X154918430Y-64463306D01*
X154918427Y-64463318D01*
X154880000Y-64656504D01*
X145460500Y-64656504D01*
X145460500Y-60626504D01*
X154880000Y-60626504D01*
X154880000Y-60875000D01*
X155580000Y-60875000D01*
X155580000Y-61375000D01*
X154880000Y-61375000D01*
X154880000Y-61623495D01*
X154918427Y-61816681D01*
X154918430Y-61816693D01*
X154993807Y-61998671D01*
X154993814Y-61998684D01*
X155103248Y-62162462D01*
X155103251Y-62162466D01*
X155242533Y-62301748D01*
X155242537Y-62301751D01*
X155406315Y-62411185D01*
X155406328Y-62411192D01*
X155588308Y-62486569D01*
X155630000Y-62494862D01*
X155630000Y-61691988D01*
X155639940Y-61709205D01*
X155695795Y-61765060D01*
X155764204Y-61804556D01*
X155840504Y-61825000D01*
X155919496Y-61825000D01*
X155995796Y-61804556D01*
X156064205Y-61765060D01*
X156120060Y-61709205D01*
X156130000Y-61691988D01*
X156130000Y-62494862D01*
X156171690Y-62486569D01*
X156171692Y-62486569D01*
X156353671Y-62411192D01*
X156353684Y-62411185D01*
X156517462Y-62301751D01*
X156517466Y-62301748D01*
X156656748Y-62162466D01*
X156656751Y-62162462D01*
X156766185Y-61998684D01*
X156766192Y-61998671D01*
X156841569Y-61816693D01*
X156841572Y-61816681D01*
X156879999Y-61623495D01*
X156880000Y-61623492D01*
X156880000Y-61375000D01*
X156180000Y-61375000D01*
X156180000Y-60875000D01*
X156880000Y-60875000D01*
X156880000Y-60626508D01*
X156879999Y-60626504D01*
X163520000Y-60626504D01*
X163520000Y-60875000D01*
X164220000Y-60875000D01*
X164220000Y-61375000D01*
X163520000Y-61375000D01*
X163520000Y-61623495D01*
X163558427Y-61816681D01*
X163558430Y-61816693D01*
X163633807Y-61998671D01*
X163633814Y-61998684D01*
X163743248Y-62162462D01*
X163743251Y-62162466D01*
X163882533Y-62301748D01*
X163882537Y-62301751D01*
X164046315Y-62411185D01*
X164046328Y-62411192D01*
X164228308Y-62486569D01*
X164270000Y-62494862D01*
X164270000Y-61691988D01*
X164279940Y-61709205D01*
X164335795Y-61765060D01*
X164404204Y-61804556D01*
X164480504Y-61825000D01*
X164559496Y-61825000D01*
X164635796Y-61804556D01*
X164704205Y-61765060D01*
X164760060Y-61709205D01*
X164770000Y-61691988D01*
X164770000Y-62494862D01*
X164811690Y-62486569D01*
X164811692Y-62486569D01*
X164993671Y-62411192D01*
X164993684Y-62411185D01*
X165157462Y-62301751D01*
X165157466Y-62301748D01*
X165296748Y-62162466D01*
X165296751Y-62162462D01*
X165406185Y-61998684D01*
X165406192Y-61998671D01*
X165481569Y-61816693D01*
X165481572Y-61816681D01*
X165519999Y-61623495D01*
X165520000Y-61623492D01*
X165520000Y-61375000D01*
X164820000Y-61375000D01*
X164820000Y-60875000D01*
X165520000Y-60875000D01*
X165520000Y-60626508D01*
X165519999Y-60626504D01*
X165481572Y-60433318D01*
X165481569Y-60433306D01*
X165406192Y-60251328D01*
X165406185Y-60251315D01*
X165296751Y-60087537D01*
X165296748Y-60087533D01*
X165157466Y-59948251D01*
X165157462Y-59948248D01*
X165130417Y-59930177D01*
X164993684Y-59838814D01*
X164993671Y-59838807D01*
X164977109Y-59831947D01*
X173450000Y-59831947D01*
X173450000Y-60068052D01*
X173486934Y-60301247D01*
X173559897Y-60525802D01*
X173667087Y-60736174D01*
X173727338Y-60819104D01*
X173727340Y-60819105D01*
X174426212Y-60120233D01*
X174437482Y-60162292D01*
X174509890Y-60287708D01*
X174612292Y-60390110D01*
X174737708Y-60462518D01*
X174779765Y-60473787D01*
X174080893Y-61172658D01*
X174163828Y-61232914D01*
X174374197Y-61340102D01*
X174598752Y-61413065D01*
X174598751Y-61413065D01*
X174831948Y-61450000D01*
X175068052Y-61450000D01*
X175301247Y-61413065D01*
X175525802Y-61340102D01*
X175736163Y-61232918D01*
X175736169Y-61232914D01*
X175819104Y-61172658D01*
X175819105Y-61172658D01*
X175120233Y-60473787D01*
X175162292Y-60462518D01*
X175287708Y-60390110D01*
X175390110Y-60287708D01*
X175462518Y-60162292D01*
X175473787Y-60120233D01*
X176172658Y-60819105D01*
X176172658Y-60819104D01*
X176232914Y-60736169D01*
X176232918Y-60736163D01*
X176340102Y-60525802D01*
X176413065Y-60301247D01*
X176450000Y-60068052D01*
X176450000Y-59831947D01*
X179950000Y-59831947D01*
X179950000Y-60068052D01*
X179986934Y-60301247D01*
X180059897Y-60525802D01*
X180167087Y-60736174D01*
X180227338Y-60819104D01*
X180227340Y-60819105D01*
X180926212Y-60120233D01*
X180937482Y-60162292D01*
X181009890Y-60287708D01*
X181112292Y-60390110D01*
X181237708Y-60462518D01*
X181279765Y-60473787D01*
X180580893Y-61172658D01*
X180663828Y-61232914D01*
X180874197Y-61340102D01*
X181098752Y-61413065D01*
X181098751Y-61413065D01*
X181331948Y-61450000D01*
X181568052Y-61450000D01*
X181801247Y-61413065D01*
X182025802Y-61340102D01*
X182236163Y-61232918D01*
X182236169Y-61232914D01*
X182319104Y-61172658D01*
X182319105Y-61172658D01*
X181620233Y-60473787D01*
X181662292Y-60462518D01*
X181787708Y-60390110D01*
X181890110Y-60287708D01*
X181962518Y-60162292D01*
X181973787Y-60120234D01*
X182672658Y-60819105D01*
X182672658Y-60819104D01*
X182732914Y-60736169D01*
X182732918Y-60736163D01*
X182840102Y-60525802D01*
X182913065Y-60301247D01*
X182950000Y-60068052D01*
X182950000Y-59831947D01*
X182913065Y-59598752D01*
X182840102Y-59374197D01*
X182732914Y-59163828D01*
X182672658Y-59080894D01*
X182672658Y-59080893D01*
X181973787Y-59779765D01*
X181962518Y-59737708D01*
X181890110Y-59612292D01*
X181787708Y-59509890D01*
X181662292Y-59437482D01*
X181620234Y-59426212D01*
X182319105Y-58727340D01*
X182319104Y-58727338D01*
X182236174Y-58667087D01*
X182025802Y-58559897D01*
X181801247Y-58486934D01*
X181801248Y-58486934D01*
X181568052Y-58450000D01*
X181331948Y-58450000D01*
X181098752Y-58486934D01*
X180874197Y-58559897D01*
X180663830Y-58667084D01*
X180580894Y-58727340D01*
X181279766Y-59426212D01*
X181237708Y-59437482D01*
X181112292Y-59509890D01*
X181009890Y-59612292D01*
X180937482Y-59737708D01*
X180926212Y-59779766D01*
X180227340Y-59080894D01*
X180167084Y-59163830D01*
X180059897Y-59374197D01*
X179986934Y-59598752D01*
X179950000Y-59831947D01*
X176450000Y-59831947D01*
X176413065Y-59598752D01*
X176340102Y-59374197D01*
X176232914Y-59163828D01*
X176172658Y-59080894D01*
X176172658Y-59080893D01*
X175473787Y-59779765D01*
X175462518Y-59737708D01*
X175390110Y-59612292D01*
X175287708Y-59509890D01*
X175162292Y-59437482D01*
X175120234Y-59426212D01*
X175819105Y-58727340D01*
X175819104Y-58727339D01*
X175736174Y-58667087D01*
X175525802Y-58559897D01*
X175301247Y-58486934D01*
X175301248Y-58486934D01*
X175068052Y-58450000D01*
X174831948Y-58450000D01*
X174598752Y-58486934D01*
X174374197Y-58559897D01*
X174163830Y-58667084D01*
X174080894Y-58727340D01*
X174779766Y-59426212D01*
X174737708Y-59437482D01*
X174612292Y-59509890D01*
X174509890Y-59612292D01*
X174437482Y-59737708D01*
X174426212Y-59779766D01*
X173727340Y-59080894D01*
X173667084Y-59163830D01*
X173559897Y-59374197D01*
X173486934Y-59598752D01*
X173450000Y-59831947D01*
X164977109Y-59831947D01*
X164811691Y-59763429D01*
X164811683Y-59763427D01*
X164770000Y-59755135D01*
X164770000Y-60558011D01*
X164760060Y-60540795D01*
X164704205Y-60484940D01*
X164635796Y-60445444D01*
X164559496Y-60425000D01*
X164480504Y-60425000D01*
X164404204Y-60445444D01*
X164335795Y-60484940D01*
X164279940Y-60540795D01*
X164270000Y-60558011D01*
X164270000Y-59755136D01*
X164269999Y-59755135D01*
X164228316Y-59763427D01*
X164228308Y-59763429D01*
X164046328Y-59838807D01*
X164046315Y-59838814D01*
X163882537Y-59948248D01*
X163882533Y-59948251D01*
X163743251Y-60087533D01*
X163743248Y-60087537D01*
X163633814Y-60251315D01*
X163633807Y-60251328D01*
X163558430Y-60433306D01*
X163558427Y-60433318D01*
X163520000Y-60626504D01*
X156879999Y-60626504D01*
X156841572Y-60433318D01*
X156841569Y-60433306D01*
X156766192Y-60251328D01*
X156766185Y-60251315D01*
X156656751Y-60087537D01*
X156656748Y-60087533D01*
X156517466Y-59948251D01*
X156517462Y-59948248D01*
X156353684Y-59838814D01*
X156353671Y-59838807D01*
X156171691Y-59763429D01*
X156171683Y-59763427D01*
X156130000Y-59755135D01*
X156130000Y-60558011D01*
X156120060Y-60540795D01*
X156064205Y-60484940D01*
X155995796Y-60445444D01*
X155919496Y-60425000D01*
X155840504Y-60425000D01*
X155764204Y-60445444D01*
X155695795Y-60484940D01*
X155639940Y-60540795D01*
X155630000Y-60558011D01*
X155630000Y-59755136D01*
X155629999Y-59755135D01*
X155588316Y-59763427D01*
X155588308Y-59763429D01*
X155406328Y-59838807D01*
X155406315Y-59838814D01*
X155242537Y-59948248D01*
X155242533Y-59948251D01*
X155103251Y-60087533D01*
X155103248Y-60087537D01*
X154993814Y-60251315D01*
X154993807Y-60251328D01*
X154918430Y-60433306D01*
X154918427Y-60433318D01*
X154880000Y-60626504D01*
X145460500Y-60626504D01*
X145460500Y-57744500D01*
X145480185Y-57677461D01*
X145532989Y-57631706D01*
X145584500Y-57620500D01*
X184975500Y-57620500D01*
X185042539Y-57640185D01*
G37*
%TD.AperFunction*%
%TD*%
D22*
X185600000Y-123160000D02*
X144960000Y-123160000D01*
X185600000Y-57120000D02*
X185600000Y-123160000D01*
X144960000Y-57120000D02*
X185600000Y-57120000D01*
X144960000Y-123160000D02*
X144960000Y-57120000D01*
M02*
