%TF.GenerationSoftware,KiCad,Pcbnew,9.0.1*%
%TF.CreationDate,2025-10-02T09:28:13+08:00*%
%TF.ProjectId,M032FC1AE,4d303332-4643-4314-9145-2e6b69636164,rev?*%
%TF.SameCoordinates,Original*%
%TF.FileFunction,Legend,Top*%
%TF.FilePolarity,Positive*%
%FSLAX46Y46*%
G04 Gerber Fmt 4.6, Leading zero omitted, Abs format (unit mm)*
G04 Created by KiCad (PCBNEW 9.0.1) date 2025-10-02 09:28:13*
%MOMM*%
%LPD*%
G01*
G04 APERTURE LIST*
%ADD10C,0.150000*%
%ADD11C,0.100000*%
%ADD12C,0.200000*%
%ADD13C,0.254000*%
%ADD14C,0.120000*%
%TA.AperFunction,Profile*%
%ADD15C,0.050000*%
%TD*%
G04 APERTURE END LIST*
D10*
X146928275Y-121959620D02*
X145928275Y-121959620D01*
X145928275Y-121959620D02*
X146642560Y-121626287D01*
X146642560Y-121626287D02*
X145928275Y-121292954D01*
X145928275Y-121292954D02*
X146928275Y-121292954D01*
X145928275Y-120626287D02*
X145928275Y-120531049D01*
X145928275Y-120531049D02*
X145975894Y-120435811D01*
X145975894Y-120435811D02*
X146023513Y-120388192D01*
X146023513Y-120388192D02*
X146118751Y-120340573D01*
X146118751Y-120340573D02*
X146309227Y-120292954D01*
X146309227Y-120292954D02*
X146547322Y-120292954D01*
X146547322Y-120292954D02*
X146737798Y-120340573D01*
X146737798Y-120340573D02*
X146833036Y-120388192D01*
X146833036Y-120388192D02*
X146880656Y-120435811D01*
X146880656Y-120435811D02*
X146928275Y-120531049D01*
X146928275Y-120531049D02*
X146928275Y-120626287D01*
X146928275Y-120626287D02*
X146880656Y-120721525D01*
X146880656Y-120721525D02*
X146833036Y-120769144D01*
X146833036Y-120769144D02*
X146737798Y-120816763D01*
X146737798Y-120816763D02*
X146547322Y-120864382D01*
X146547322Y-120864382D02*
X146309227Y-120864382D01*
X146309227Y-120864382D02*
X146118751Y-120816763D01*
X146118751Y-120816763D02*
X146023513Y-120769144D01*
X146023513Y-120769144D02*
X145975894Y-120721525D01*
X145975894Y-120721525D02*
X145928275Y-120626287D01*
X145928275Y-119959620D02*
X145928275Y-119340573D01*
X145928275Y-119340573D02*
X146309227Y-119673906D01*
X146309227Y-119673906D02*
X146309227Y-119531049D01*
X146309227Y-119531049D02*
X146356846Y-119435811D01*
X146356846Y-119435811D02*
X146404465Y-119388192D01*
X146404465Y-119388192D02*
X146499703Y-119340573D01*
X146499703Y-119340573D02*
X146737798Y-119340573D01*
X146737798Y-119340573D02*
X146833036Y-119388192D01*
X146833036Y-119388192D02*
X146880656Y-119435811D01*
X146880656Y-119435811D02*
X146928275Y-119531049D01*
X146928275Y-119531049D02*
X146928275Y-119816763D01*
X146928275Y-119816763D02*
X146880656Y-119912001D01*
X146880656Y-119912001D02*
X146833036Y-119959620D01*
X146023513Y-118959620D02*
X145975894Y-118912001D01*
X145975894Y-118912001D02*
X145928275Y-118816763D01*
X145928275Y-118816763D02*
X145928275Y-118578668D01*
X145928275Y-118578668D02*
X145975894Y-118483430D01*
X145975894Y-118483430D02*
X146023513Y-118435811D01*
X146023513Y-118435811D02*
X146118751Y-118388192D01*
X146118751Y-118388192D02*
X146213989Y-118388192D01*
X146213989Y-118388192D02*
X146356846Y-118435811D01*
X146356846Y-118435811D02*
X146928275Y-119007239D01*
X146928275Y-119007239D02*
X146928275Y-118388192D01*
X146404465Y-117626287D02*
X146404465Y-117959620D01*
X146928275Y-117959620D02*
X145928275Y-117959620D01*
X145928275Y-117959620D02*
X145928275Y-117483430D01*
X146833036Y-116531049D02*
X146880656Y-116578668D01*
X146880656Y-116578668D02*
X146928275Y-116721525D01*
X146928275Y-116721525D02*
X146928275Y-116816763D01*
X146928275Y-116816763D02*
X146880656Y-116959620D01*
X146880656Y-116959620D02*
X146785417Y-117054858D01*
X146785417Y-117054858D02*
X146690179Y-117102477D01*
X146690179Y-117102477D02*
X146499703Y-117150096D01*
X146499703Y-117150096D02*
X146356846Y-117150096D01*
X146356846Y-117150096D02*
X146166370Y-117102477D01*
X146166370Y-117102477D02*
X146071132Y-117054858D01*
X146071132Y-117054858D02*
X145975894Y-116959620D01*
X145975894Y-116959620D02*
X145928275Y-116816763D01*
X145928275Y-116816763D02*
X145928275Y-116721525D01*
X145928275Y-116721525D02*
X145975894Y-116578668D01*
X145975894Y-116578668D02*
X146023513Y-116531049D01*
X146928275Y-115578668D02*
X146928275Y-116150096D01*
X146928275Y-115864382D02*
X145928275Y-115864382D01*
X145928275Y-115864382D02*
X146071132Y-115959620D01*
X146071132Y-115959620D02*
X146166370Y-116054858D01*
X146166370Y-116054858D02*
X146213989Y-116150096D01*
X146642560Y-115197715D02*
X146642560Y-114721525D01*
X146928275Y-115292953D02*
X145928275Y-114959620D01*
X145928275Y-114959620D02*
X146928275Y-114626287D01*
X146404465Y-114292953D02*
X146404465Y-113959620D01*
X146928275Y-113816763D02*
X146928275Y-114292953D01*
X146928275Y-114292953D02*
X145928275Y-114292953D01*
X145928275Y-114292953D02*
X145928275Y-113816763D01*
X148538219Y-121388192D02*
X148062028Y-121721525D01*
X148538219Y-121959620D02*
X147538219Y-121959620D01*
X147538219Y-121959620D02*
X147538219Y-121578668D01*
X147538219Y-121578668D02*
X147585838Y-121483430D01*
X147585838Y-121483430D02*
X147633457Y-121435811D01*
X147633457Y-121435811D02*
X147728695Y-121388192D01*
X147728695Y-121388192D02*
X147871552Y-121388192D01*
X147871552Y-121388192D02*
X147966790Y-121435811D01*
X147966790Y-121435811D02*
X148014409Y-121483430D01*
X148014409Y-121483430D02*
X148062028Y-121578668D01*
X148062028Y-121578668D02*
X148062028Y-121959620D01*
X148538219Y-120816763D02*
X148490600Y-120912001D01*
X148490600Y-120912001D02*
X148442980Y-120959620D01*
X148442980Y-120959620D02*
X148347742Y-121007239D01*
X148347742Y-121007239D02*
X148062028Y-121007239D01*
X148062028Y-121007239D02*
X147966790Y-120959620D01*
X147966790Y-120959620D02*
X147919171Y-120912001D01*
X147919171Y-120912001D02*
X147871552Y-120816763D01*
X147871552Y-120816763D02*
X147871552Y-120673906D01*
X147871552Y-120673906D02*
X147919171Y-120578668D01*
X147919171Y-120578668D02*
X147966790Y-120531049D01*
X147966790Y-120531049D02*
X148062028Y-120483430D01*
X148062028Y-120483430D02*
X148347742Y-120483430D01*
X148347742Y-120483430D02*
X148442980Y-120531049D01*
X148442980Y-120531049D02*
X148490600Y-120578668D01*
X148490600Y-120578668D02*
X148538219Y-120673906D01*
X148538219Y-120673906D02*
X148538219Y-120816763D01*
X148538219Y-120054858D02*
X147871552Y-120054858D01*
X147966790Y-120054858D02*
X147919171Y-120007239D01*
X147919171Y-120007239D02*
X147871552Y-119912001D01*
X147871552Y-119912001D02*
X147871552Y-119769144D01*
X147871552Y-119769144D02*
X147919171Y-119673906D01*
X147919171Y-119673906D02*
X148014409Y-119626287D01*
X148014409Y-119626287D02*
X148538219Y-119626287D01*
X148014409Y-119626287D02*
X147919171Y-119578668D01*
X147919171Y-119578668D02*
X147871552Y-119483430D01*
X147871552Y-119483430D02*
X147871552Y-119340573D01*
X147871552Y-119340573D02*
X147919171Y-119245334D01*
X147919171Y-119245334D02*
X148014409Y-119197715D01*
X148014409Y-119197715D02*
X148538219Y-119197715D01*
X148538219Y-117959620D02*
X147538219Y-117959620D01*
X147538219Y-117959620D02*
X147538219Y-117578668D01*
X147538219Y-117578668D02*
X147585838Y-117483430D01*
X147585838Y-117483430D02*
X147633457Y-117435811D01*
X147633457Y-117435811D02*
X147728695Y-117388192D01*
X147728695Y-117388192D02*
X147871552Y-117388192D01*
X147871552Y-117388192D02*
X147966790Y-117435811D01*
X147966790Y-117435811D02*
X148014409Y-117483430D01*
X148014409Y-117483430D02*
X148062028Y-117578668D01*
X148062028Y-117578668D02*
X148062028Y-117959620D01*
X148538219Y-116959620D02*
X147871552Y-116959620D01*
X148062028Y-116959620D02*
X147966790Y-116912001D01*
X147966790Y-116912001D02*
X147919171Y-116864382D01*
X147919171Y-116864382D02*
X147871552Y-116769144D01*
X147871552Y-116769144D02*
X147871552Y-116673906D01*
X148538219Y-116197715D02*
X148490600Y-116292953D01*
X148490600Y-116292953D02*
X148442980Y-116340572D01*
X148442980Y-116340572D02*
X148347742Y-116388191D01*
X148347742Y-116388191D02*
X148062028Y-116388191D01*
X148062028Y-116388191D02*
X147966790Y-116340572D01*
X147966790Y-116340572D02*
X147919171Y-116292953D01*
X147919171Y-116292953D02*
X147871552Y-116197715D01*
X147871552Y-116197715D02*
X147871552Y-116054858D01*
X147871552Y-116054858D02*
X147919171Y-115959620D01*
X147919171Y-115959620D02*
X147966790Y-115912001D01*
X147966790Y-115912001D02*
X148062028Y-115864382D01*
X148062028Y-115864382D02*
X148347742Y-115864382D01*
X148347742Y-115864382D02*
X148442980Y-115912001D01*
X148442980Y-115912001D02*
X148490600Y-115959620D01*
X148490600Y-115959620D02*
X148538219Y-116054858D01*
X148538219Y-116054858D02*
X148538219Y-116197715D01*
X147871552Y-115007239D02*
X148681076Y-115007239D01*
X148681076Y-115007239D02*
X148776314Y-115054858D01*
X148776314Y-115054858D02*
X148823933Y-115102477D01*
X148823933Y-115102477D02*
X148871552Y-115197715D01*
X148871552Y-115197715D02*
X148871552Y-115340572D01*
X148871552Y-115340572D02*
X148823933Y-115435810D01*
X148490600Y-115007239D02*
X148538219Y-115102477D01*
X148538219Y-115102477D02*
X148538219Y-115292953D01*
X148538219Y-115292953D02*
X148490600Y-115388191D01*
X148490600Y-115388191D02*
X148442980Y-115435810D01*
X148442980Y-115435810D02*
X148347742Y-115483429D01*
X148347742Y-115483429D02*
X148062028Y-115483429D01*
X148062028Y-115483429D02*
X147966790Y-115435810D01*
X147966790Y-115435810D02*
X147919171Y-115388191D01*
X147919171Y-115388191D02*
X147871552Y-115292953D01*
X147871552Y-115292953D02*
X147871552Y-115102477D01*
X147871552Y-115102477D02*
X147919171Y-115007239D01*
X148538219Y-114531048D02*
X147871552Y-114531048D01*
X148062028Y-114531048D02*
X147966790Y-114483429D01*
X147966790Y-114483429D02*
X147919171Y-114435810D01*
X147919171Y-114435810D02*
X147871552Y-114340572D01*
X147871552Y-114340572D02*
X147871552Y-114245334D01*
X148538219Y-113483429D02*
X148014409Y-113483429D01*
X148014409Y-113483429D02*
X147919171Y-113531048D01*
X147919171Y-113531048D02*
X147871552Y-113626286D01*
X147871552Y-113626286D02*
X147871552Y-113816762D01*
X147871552Y-113816762D02*
X147919171Y-113912000D01*
X148490600Y-113483429D02*
X148538219Y-113578667D01*
X148538219Y-113578667D02*
X148538219Y-113816762D01*
X148538219Y-113816762D02*
X148490600Y-113912000D01*
X148490600Y-113912000D02*
X148395361Y-113959619D01*
X148395361Y-113959619D02*
X148300123Y-113959619D01*
X148300123Y-113959619D02*
X148204885Y-113912000D01*
X148204885Y-113912000D02*
X148157266Y-113816762D01*
X148157266Y-113816762D02*
X148157266Y-113578667D01*
X148157266Y-113578667D02*
X148109647Y-113483429D01*
X148538219Y-113007238D02*
X147871552Y-113007238D01*
X147966790Y-113007238D02*
X147919171Y-112959619D01*
X147919171Y-112959619D02*
X147871552Y-112864381D01*
X147871552Y-112864381D02*
X147871552Y-112721524D01*
X147871552Y-112721524D02*
X147919171Y-112626286D01*
X147919171Y-112626286D02*
X148014409Y-112578667D01*
X148014409Y-112578667D02*
X148538219Y-112578667D01*
X148014409Y-112578667D02*
X147919171Y-112531048D01*
X147919171Y-112531048D02*
X147871552Y-112435810D01*
X147871552Y-112435810D02*
X147871552Y-112292953D01*
X147871552Y-112292953D02*
X147919171Y-112197714D01*
X147919171Y-112197714D02*
X148014409Y-112150095D01*
X148014409Y-112150095D02*
X148538219Y-112150095D01*
X148490600Y-111292953D02*
X148538219Y-111388191D01*
X148538219Y-111388191D02*
X148538219Y-111578667D01*
X148538219Y-111578667D02*
X148490600Y-111673905D01*
X148490600Y-111673905D02*
X148395361Y-111721524D01*
X148395361Y-111721524D02*
X148014409Y-111721524D01*
X148014409Y-111721524D02*
X147919171Y-111673905D01*
X147919171Y-111673905D02*
X147871552Y-111578667D01*
X147871552Y-111578667D02*
X147871552Y-111388191D01*
X147871552Y-111388191D02*
X147919171Y-111292953D01*
X147919171Y-111292953D02*
X148014409Y-111245334D01*
X148014409Y-111245334D02*
X148109647Y-111245334D01*
X148109647Y-111245334D02*
X148204885Y-111721524D01*
X148538219Y-110816762D02*
X147871552Y-110816762D01*
X148062028Y-110816762D02*
X147966790Y-110769143D01*
X147966790Y-110769143D02*
X147919171Y-110721524D01*
X147919171Y-110721524D02*
X147871552Y-110626286D01*
X147871552Y-110626286D02*
X147871552Y-110531048D01*
X147538219Y-109578666D02*
X148538219Y-109245333D01*
X148538219Y-109245333D02*
X147538219Y-108912000D01*
X147538219Y-108388190D02*
X147538219Y-108292952D01*
X147538219Y-108292952D02*
X147585838Y-108197714D01*
X147585838Y-108197714D02*
X147633457Y-108150095D01*
X147633457Y-108150095D02*
X147728695Y-108102476D01*
X147728695Y-108102476D02*
X147919171Y-108054857D01*
X147919171Y-108054857D02*
X148157266Y-108054857D01*
X148157266Y-108054857D02*
X148347742Y-108102476D01*
X148347742Y-108102476D02*
X148442980Y-108150095D01*
X148442980Y-108150095D02*
X148490600Y-108197714D01*
X148490600Y-108197714D02*
X148538219Y-108292952D01*
X148538219Y-108292952D02*
X148538219Y-108388190D01*
X148538219Y-108388190D02*
X148490600Y-108483428D01*
X148490600Y-108483428D02*
X148442980Y-108531047D01*
X148442980Y-108531047D02*
X148347742Y-108578666D01*
X148347742Y-108578666D02*
X148157266Y-108626285D01*
X148157266Y-108626285D02*
X147919171Y-108626285D01*
X147919171Y-108626285D02*
X147728695Y-108578666D01*
X147728695Y-108578666D02*
X147633457Y-108531047D01*
X147633457Y-108531047D02*
X147585838Y-108483428D01*
X147585838Y-108483428D02*
X147538219Y-108388190D01*
X148442980Y-107626285D02*
X148490600Y-107578666D01*
X148490600Y-107578666D02*
X148538219Y-107626285D01*
X148538219Y-107626285D02*
X148490600Y-107673904D01*
X148490600Y-107673904D02*
X148442980Y-107626285D01*
X148442980Y-107626285D02*
X148538219Y-107626285D01*
X148538219Y-106626286D02*
X148538219Y-107197714D01*
X148538219Y-106912000D02*
X147538219Y-106912000D01*
X147538219Y-106912000D02*
X147681076Y-107007238D01*
X147681076Y-107007238D02*
X147776314Y-107102476D01*
X147776314Y-107102476D02*
X147823933Y-107197714D01*
D11*
X152580000Y-110460000D02*
X152580000Y-116810000D01*
X165280000Y-92883200D02*
X165280000Y-88260400D01*
X155170800Y-92832400D02*
X155170800Y-88260400D01*
X165280000Y-110460000D02*
X165280000Y-116810000D01*
D12*
G36*
X178118986Y-115812240D02*
G01*
X178186059Y-115879313D01*
X178221511Y-115950218D01*
X178263482Y-116118099D01*
X178263482Y-116236337D01*
X178221511Y-116404218D01*
X178186058Y-116475124D01*
X178118987Y-116542197D01*
X178013922Y-116577219D01*
X177892054Y-116577219D01*
X177892054Y-115777219D01*
X178013922Y-115777219D01*
X178118986Y-115812240D01*
G37*
G36*
X176256627Y-115807024D02*
G01*
X176281296Y-115831692D01*
X176311101Y-115891302D01*
X176311101Y-115986945D01*
X176281296Y-116046554D01*
X176256627Y-116071222D01*
X176197018Y-116101028D01*
X175939673Y-116101028D01*
X175939673Y-115777219D01*
X176197018Y-115777219D01*
X176256627Y-115807024D01*
G37*
G36*
X178574593Y-116888330D02*
G01*
X175628562Y-116888330D01*
X175628562Y-115677219D01*
X175739673Y-115677219D01*
X175739673Y-116677219D01*
X175741594Y-116696728D01*
X175756526Y-116732776D01*
X175784116Y-116760366D01*
X175820164Y-116775298D01*
X175859182Y-116775298D01*
X175895230Y-116760366D01*
X175922820Y-116732776D01*
X175937752Y-116696728D01*
X175939673Y-116677219D01*
X175939673Y-116301028D01*
X176025703Y-116301028D01*
X176329178Y-116734565D01*
X176341939Y-116749446D01*
X176374844Y-116770415D01*
X176413269Y-116777196D01*
X176451363Y-116768756D01*
X176483328Y-116746381D01*
X176504297Y-116713476D01*
X176511078Y-116675052D01*
X176502638Y-116636957D01*
X176493024Y-116619873D01*
X176263056Y-116291347D01*
X176265346Y-116290471D01*
X176360584Y-116242852D01*
X176368980Y-116237566D01*
X176371420Y-116236556D01*
X176374166Y-116234302D01*
X176377174Y-116232409D01*
X176378903Y-116230414D01*
X176386574Y-116224120D01*
X176434192Y-116176501D01*
X176440484Y-116168834D01*
X176442482Y-116167102D01*
X176444375Y-116164093D01*
X176446629Y-116161348D01*
X176447639Y-116158907D01*
X176452925Y-116150511D01*
X176500544Y-116055274D01*
X176507550Y-116036965D01*
X176507804Y-116033381D01*
X176509180Y-116030061D01*
X176511101Y-116010552D01*
X176511101Y-115867695D01*
X176509180Y-115848186D01*
X176507804Y-115844865D01*
X176507550Y-115841282D01*
X176500544Y-115822973D01*
X176452925Y-115727736D01*
X176447639Y-115719339D01*
X176446629Y-115716899D01*
X176444375Y-115714153D01*
X176442482Y-115711145D01*
X176440484Y-115709412D01*
X176434192Y-115701746D01*
X176409561Y-115677114D01*
X176644435Y-115677114D01*
X176652007Y-115715391D01*
X176661230Y-115732689D01*
X176957583Y-116177219D01*
X176661230Y-116621749D01*
X176652007Y-116639047D01*
X176644435Y-116677324D01*
X176652087Y-116715584D01*
X176673798Y-116748004D01*
X176706263Y-116769647D01*
X176744540Y-116777219D01*
X176782800Y-116769567D01*
X176815220Y-116747856D01*
X176827640Y-116732689D01*
X177077768Y-116357496D01*
X177327896Y-116732689D01*
X177340316Y-116747856D01*
X177372736Y-116769567D01*
X177410996Y-116777219D01*
X177449273Y-116769647D01*
X177481738Y-116748004D01*
X177503449Y-116715584D01*
X177511101Y-116677324D01*
X177503529Y-116639047D01*
X177494306Y-116621749D01*
X177197952Y-116177219D01*
X177494306Y-115732689D01*
X177503529Y-115715391D01*
X177511080Y-115677219D01*
X177692054Y-115677219D01*
X177692054Y-116677219D01*
X177693975Y-116696728D01*
X177708907Y-116732776D01*
X177736497Y-116760366D01*
X177772545Y-116775298D01*
X177792054Y-116777219D01*
X178030149Y-116777219D01*
X178040022Y-116776246D01*
X178042656Y-116776434D01*
X178046119Y-116775646D01*
X178049658Y-116775298D01*
X178052100Y-116774286D01*
X178061772Y-116772087D01*
X178204628Y-116724468D01*
X178222529Y-116716477D01*
X178225244Y-116714122D01*
X178228564Y-116712747D01*
X178243717Y-116700310D01*
X178338955Y-116605071D01*
X178345247Y-116597404D01*
X178347244Y-116595673D01*
X178349137Y-116592665D01*
X178351392Y-116589918D01*
X178352403Y-116587476D01*
X178357687Y-116579082D01*
X178405306Y-116483845D01*
X178405852Y-116482416D01*
X178406282Y-116481837D01*
X178409203Y-116473660D01*
X178412312Y-116465536D01*
X178412363Y-116464815D01*
X178412877Y-116463377D01*
X178460496Y-116272901D01*
X178460996Y-116269519D01*
X178461561Y-116268156D01*
X178462284Y-116260805D01*
X178463364Y-116253508D01*
X178463146Y-116252049D01*
X178463482Y-116248647D01*
X178463482Y-116105790D01*
X178463146Y-116102387D01*
X178463364Y-116100929D01*
X178462284Y-116093631D01*
X178461561Y-116086281D01*
X178460996Y-116084917D01*
X178460496Y-116081536D01*
X178412877Y-115891060D01*
X178412363Y-115889621D01*
X178412312Y-115888901D01*
X178409203Y-115880776D01*
X178406282Y-115872600D01*
X178405852Y-115872020D01*
X178405306Y-115870592D01*
X178357687Y-115775355D01*
X178352400Y-115766956D01*
X178351391Y-115764519D01*
X178349139Y-115761775D01*
X178347244Y-115758764D01*
X178345246Y-115757031D01*
X178338955Y-115749365D01*
X178243717Y-115654127D01*
X178228563Y-115641691D01*
X178225244Y-115640316D01*
X178222529Y-115637961D01*
X178204628Y-115629970D01*
X178061772Y-115582351D01*
X178052100Y-115580151D01*
X178049658Y-115579140D01*
X178046119Y-115578791D01*
X178042656Y-115578004D01*
X178040022Y-115578191D01*
X178030149Y-115577219D01*
X177792054Y-115577219D01*
X177772545Y-115579140D01*
X177736497Y-115594072D01*
X177708907Y-115621662D01*
X177693975Y-115657710D01*
X177692054Y-115677219D01*
X177511080Y-115677219D01*
X177511101Y-115677114D01*
X177503449Y-115638854D01*
X177481738Y-115606434D01*
X177449273Y-115584791D01*
X177410996Y-115577219D01*
X177372736Y-115584871D01*
X177340316Y-115606582D01*
X177327896Y-115621749D01*
X177077768Y-115996941D01*
X176827640Y-115621749D01*
X176815220Y-115606582D01*
X176782800Y-115584871D01*
X176744540Y-115577219D01*
X176706263Y-115584791D01*
X176673798Y-115606434D01*
X176652087Y-115638854D01*
X176644435Y-115677114D01*
X176409561Y-115677114D01*
X176386574Y-115654127D01*
X176378903Y-115647832D01*
X176377174Y-115645838D01*
X176374166Y-115643944D01*
X176371420Y-115641691D01*
X176368980Y-115640680D01*
X176360584Y-115635395D01*
X176265346Y-115587776D01*
X176247038Y-115580770D01*
X176243454Y-115580515D01*
X176240134Y-115579140D01*
X176220625Y-115577219D01*
X175839673Y-115577219D01*
X175820164Y-115579140D01*
X175784116Y-115594072D01*
X175756526Y-115621662D01*
X175741594Y-115657710D01*
X175739673Y-115677219D01*
X175628562Y-115677219D01*
X175628562Y-115466108D01*
X178574593Y-115466108D01*
X178574593Y-116888330D01*
G37*
G36*
X153149034Y-78280330D02*
G01*
X150158090Y-78280330D01*
X150158090Y-77081726D01*
X150269201Y-77081726D01*
X150273548Y-77100842D01*
X150606881Y-78100841D01*
X150614872Y-78118742D01*
X150619555Y-78124141D01*
X150622750Y-78130531D01*
X150632221Y-78138746D01*
X150640437Y-78148218D01*
X150646825Y-78151412D01*
X150652226Y-78156096D01*
X150664127Y-78160063D01*
X150675336Y-78165667D01*
X150682460Y-78166173D01*
X150689242Y-78168434D01*
X150701751Y-78167544D01*
X150714256Y-78168434D01*
X150721034Y-78166174D01*
X150728162Y-78165668D01*
X150739378Y-78160059D01*
X150751272Y-78156095D01*
X150756669Y-78151414D01*
X150763061Y-78148218D01*
X150771279Y-78138742D01*
X150780748Y-78130530D01*
X150783941Y-78124143D01*
X150788626Y-78118742D01*
X150796617Y-78100842D01*
X150997634Y-77497790D01*
X151220797Y-77497790D01*
X151220797Y-77640647D01*
X151221132Y-77644049D01*
X151220915Y-77645508D01*
X151221994Y-77652805D01*
X151222718Y-77660156D01*
X151223282Y-77661519D01*
X151223783Y-77664901D01*
X151271402Y-77855376D01*
X151271915Y-77856813D01*
X151271967Y-77857536D01*
X151275075Y-77865660D01*
X151277997Y-77873837D01*
X151278427Y-77874417D01*
X151278973Y-77875844D01*
X151326592Y-77971082D01*
X151331874Y-77979474D01*
X151332887Y-77981918D01*
X151335143Y-77984667D01*
X151337035Y-77987672D01*
X151339029Y-77989401D01*
X151345324Y-77997071D01*
X151440562Y-78092311D01*
X151455715Y-78104747D01*
X151459034Y-78106122D01*
X151461750Y-78108477D01*
X151479650Y-78116468D01*
X151622507Y-78164087D01*
X151632179Y-78166286D01*
X151634621Y-78167298D01*
X151638158Y-78167646D01*
X151641622Y-78168434D01*
X151644256Y-78168246D01*
X151654130Y-78169219D01*
X151749368Y-78169219D01*
X151759241Y-78168246D01*
X151761875Y-78168434D01*
X151765338Y-78167646D01*
X151768877Y-78167298D01*
X151771319Y-78166286D01*
X151780991Y-78164087D01*
X151923847Y-78116468D01*
X151941748Y-78108477D01*
X151944463Y-78106122D01*
X151947783Y-78104747D01*
X151962936Y-78092310D01*
X152010555Y-78044690D01*
X152022992Y-78029537D01*
X152037923Y-77993488D01*
X152037922Y-77954470D01*
X152022991Y-77918422D01*
X151995400Y-77890832D01*
X151959352Y-77875901D01*
X151920334Y-77875902D01*
X151884286Y-77890833D01*
X151869132Y-77903270D01*
X151838205Y-77934197D01*
X151733141Y-77969219D01*
X151670356Y-77969219D01*
X151565291Y-77934197D01*
X151498221Y-77867127D01*
X151462767Y-77796218D01*
X151420797Y-77628337D01*
X151420797Y-77510100D01*
X151423874Y-77497790D01*
X152220797Y-77497790D01*
X152220797Y-77640647D01*
X152221132Y-77644049D01*
X152220915Y-77645508D01*
X152221994Y-77652805D01*
X152222718Y-77660156D01*
X152223282Y-77661519D01*
X152223783Y-77664901D01*
X152271402Y-77855376D01*
X152271915Y-77856813D01*
X152271967Y-77857536D01*
X152275075Y-77865660D01*
X152277997Y-77873837D01*
X152278427Y-77874417D01*
X152278973Y-77875844D01*
X152326592Y-77971082D01*
X152331874Y-77979474D01*
X152332887Y-77981918D01*
X152335143Y-77984667D01*
X152337035Y-77987672D01*
X152339029Y-77989401D01*
X152345324Y-77997071D01*
X152440562Y-78092311D01*
X152455715Y-78104747D01*
X152459034Y-78106122D01*
X152461750Y-78108477D01*
X152479650Y-78116468D01*
X152622507Y-78164087D01*
X152632179Y-78166286D01*
X152634621Y-78167298D01*
X152638158Y-78167646D01*
X152641622Y-78168434D01*
X152644256Y-78168246D01*
X152654130Y-78169219D01*
X152749368Y-78169219D01*
X152759241Y-78168246D01*
X152761875Y-78168434D01*
X152765338Y-78167646D01*
X152768877Y-78167298D01*
X152771319Y-78166286D01*
X152780991Y-78164087D01*
X152923847Y-78116468D01*
X152941748Y-78108477D01*
X152944463Y-78106122D01*
X152947783Y-78104747D01*
X152962936Y-78092310D01*
X153010555Y-78044690D01*
X153022992Y-78029537D01*
X153037923Y-77993488D01*
X153037922Y-77954470D01*
X153022991Y-77918422D01*
X152995400Y-77890832D01*
X152959352Y-77875901D01*
X152920334Y-77875902D01*
X152884286Y-77890833D01*
X152869132Y-77903270D01*
X152838205Y-77934197D01*
X152733141Y-77969219D01*
X152670356Y-77969219D01*
X152565291Y-77934197D01*
X152498221Y-77867127D01*
X152462767Y-77796218D01*
X152420797Y-77628337D01*
X152420797Y-77510100D01*
X152462767Y-77342218D01*
X152498220Y-77271312D01*
X152565292Y-77204240D01*
X152670356Y-77169219D01*
X152733141Y-77169219D01*
X152838206Y-77204240D01*
X152869133Y-77235167D01*
X152884286Y-77247604D01*
X152920335Y-77262535D01*
X152959353Y-77262535D01*
X152995401Y-77247604D01*
X153022991Y-77220014D01*
X153037922Y-77183966D01*
X153037922Y-77144948D01*
X153022991Y-77108899D01*
X153010554Y-77093746D01*
X152962936Y-77046127D01*
X152947782Y-77033691D01*
X152944463Y-77032316D01*
X152941748Y-77029961D01*
X152923847Y-77021970D01*
X152780991Y-76974351D01*
X152771319Y-76972151D01*
X152768877Y-76971140D01*
X152765338Y-76970791D01*
X152761875Y-76970004D01*
X152759241Y-76970191D01*
X152749368Y-76969219D01*
X152654130Y-76969219D01*
X152644256Y-76970191D01*
X152641622Y-76970004D01*
X152638158Y-76970791D01*
X152634621Y-76971140D01*
X152632179Y-76972151D01*
X152622507Y-76974351D01*
X152479650Y-77021970D01*
X152461750Y-77029961D01*
X152459034Y-77032316D01*
X152455716Y-77033691D01*
X152440562Y-77046127D01*
X152345324Y-77141365D01*
X152339029Y-77149035D01*
X152337035Y-77150765D01*
X152335141Y-77153772D01*
X152332888Y-77156519D01*
X152331877Y-77158958D01*
X152326592Y-77167355D01*
X152278973Y-77262593D01*
X152278427Y-77264019D01*
X152277997Y-77264600D01*
X152275075Y-77272776D01*
X152271967Y-77280901D01*
X152271915Y-77281623D01*
X152271402Y-77283061D01*
X152223783Y-77473536D01*
X152223282Y-77476917D01*
X152222718Y-77478281D01*
X152221994Y-77485631D01*
X152220915Y-77492929D01*
X152221132Y-77494387D01*
X152220797Y-77497790D01*
X151423874Y-77497790D01*
X151462767Y-77342218D01*
X151498220Y-77271312D01*
X151565292Y-77204240D01*
X151670356Y-77169219D01*
X151733141Y-77169219D01*
X151838206Y-77204240D01*
X151869133Y-77235167D01*
X151884286Y-77247604D01*
X151920335Y-77262535D01*
X151959353Y-77262535D01*
X151995401Y-77247604D01*
X152022991Y-77220014D01*
X152037922Y-77183966D01*
X152037922Y-77144948D01*
X152022991Y-77108899D01*
X152010554Y-77093746D01*
X151962936Y-77046127D01*
X151947782Y-77033691D01*
X151944463Y-77032316D01*
X151941748Y-77029961D01*
X151923847Y-77021970D01*
X151780991Y-76974351D01*
X151771319Y-76972151D01*
X151768877Y-76971140D01*
X151765338Y-76970791D01*
X151761875Y-76970004D01*
X151759241Y-76970191D01*
X151749368Y-76969219D01*
X151654130Y-76969219D01*
X151644256Y-76970191D01*
X151641622Y-76970004D01*
X151638158Y-76970791D01*
X151634621Y-76971140D01*
X151632179Y-76972151D01*
X151622507Y-76974351D01*
X151479650Y-77021970D01*
X151461750Y-77029961D01*
X151459034Y-77032316D01*
X151455716Y-77033691D01*
X151440562Y-77046127D01*
X151345324Y-77141365D01*
X151339029Y-77149035D01*
X151337035Y-77150765D01*
X151335141Y-77153772D01*
X151332888Y-77156519D01*
X151331877Y-77158958D01*
X151326592Y-77167355D01*
X151278973Y-77262593D01*
X151278427Y-77264019D01*
X151277997Y-77264600D01*
X151275075Y-77272776D01*
X151271967Y-77280901D01*
X151271915Y-77281623D01*
X151271402Y-77283061D01*
X151223783Y-77473536D01*
X151223282Y-77476917D01*
X151222718Y-77478281D01*
X151221994Y-77485631D01*
X151220915Y-77492929D01*
X151221132Y-77494387D01*
X151220797Y-77497790D01*
X150997634Y-77497790D01*
X151129950Y-77100842D01*
X151134297Y-77081727D01*
X151131531Y-77042807D01*
X151114081Y-77007908D01*
X151084605Y-76982343D01*
X151047589Y-76970004D01*
X151008669Y-76972771D01*
X150973770Y-76990220D01*
X150948205Y-77019696D01*
X150940214Y-77037597D01*
X150701749Y-77752991D01*
X150463284Y-77037596D01*
X150455293Y-77019696D01*
X150429728Y-76990220D01*
X150394829Y-76972770D01*
X150355909Y-76970004D01*
X150318893Y-76982342D01*
X150289417Y-77007907D01*
X150271967Y-77042806D01*
X150269201Y-77081726D01*
X150158090Y-77081726D01*
X150158090Y-76858108D01*
X153149034Y-76858108D01*
X153149034Y-78280330D01*
G37*
G36*
X149296517Y-78280330D02*
G01*
X146447645Y-78280330D01*
X146447645Y-77049710D01*
X146558756Y-77049710D01*
X146558756Y-77088728D01*
X146573688Y-77124776D01*
X146601278Y-77152366D01*
X146637326Y-77167298D01*
X146656835Y-77169219D01*
X147055505Y-77169219D01*
X146867291Y-77384321D01*
X146861261Y-77392754D01*
X146859402Y-77394614D01*
X146858671Y-77396377D01*
X146855890Y-77400268D01*
X146850685Y-77415656D01*
X146844470Y-77430662D01*
X146844470Y-77434035D01*
X146843390Y-77437229D01*
X146844470Y-77453431D01*
X146844470Y-77469680D01*
X146845760Y-77472795D01*
X146845985Y-77476161D01*
X146853185Y-77490721D01*
X146859402Y-77505728D01*
X146861786Y-77508112D01*
X146863282Y-77511136D01*
X146875507Y-77521833D01*
X146886992Y-77533318D01*
X146890106Y-77534608D01*
X146892646Y-77536830D01*
X146908034Y-77542034D01*
X146923040Y-77548250D01*
X146927799Y-77548718D01*
X146929607Y-77549330D01*
X146932231Y-77549155D01*
X146942549Y-77550171D01*
X147061799Y-77550171D01*
X147121408Y-77579976D01*
X147146077Y-77604644D01*
X147175882Y-77664254D01*
X147175882Y-77855135D01*
X147146077Y-77914743D01*
X147121408Y-77939413D01*
X147061799Y-77969219D01*
X146823299Y-77969219D01*
X146763689Y-77939414D01*
X146727546Y-77903270D01*
X146712393Y-77890833D01*
X146676345Y-77875902D01*
X146637327Y-77875901D01*
X146601278Y-77890832D01*
X146573688Y-77918422D01*
X146558757Y-77954470D01*
X146558756Y-77993488D01*
X146573687Y-78029537D01*
X146586124Y-78044690D01*
X146633742Y-78092310D01*
X146641410Y-78098603D01*
X146643142Y-78100600D01*
X146646150Y-78102493D01*
X146648896Y-78104747D01*
X146651336Y-78105757D01*
X146659733Y-78111043D01*
X146754970Y-78158662D01*
X146773279Y-78165668D01*
X146776862Y-78165922D01*
X146780183Y-78167298D01*
X146799692Y-78169219D01*
X147085406Y-78169219D01*
X147104915Y-78167298D01*
X147108235Y-78165922D01*
X147111819Y-78165668D01*
X147130127Y-78158662D01*
X147225365Y-78111043D01*
X147233760Y-78105758D01*
X147236202Y-78104747D01*
X147238949Y-78102491D01*
X147241955Y-78100600D01*
X147243685Y-78098605D01*
X147251355Y-78092310D01*
X147298974Y-78044690D01*
X147305266Y-78037023D01*
X147307263Y-78035292D01*
X147309156Y-78032284D01*
X147311411Y-78029537D01*
X147312422Y-78027095D01*
X147317706Y-78018701D01*
X147365325Y-77923464D01*
X147372331Y-77905155D01*
X147372585Y-77901571D01*
X147373961Y-77898251D01*
X147375882Y-77878742D01*
X147375882Y-77640647D01*
X147373961Y-77621138D01*
X147372585Y-77617817D01*
X147372331Y-77614234D01*
X147365325Y-77595925D01*
X147317706Y-77500688D01*
X147312420Y-77492291D01*
X147311410Y-77489851D01*
X147309156Y-77487105D01*
X147307263Y-77484097D01*
X147305265Y-77482364D01*
X147298973Y-77474698D01*
X147251355Y-77427079D01*
X147243684Y-77420784D01*
X147241955Y-77418790D01*
X147238947Y-77416896D01*
X147236201Y-77414643D01*
X147233761Y-77413632D01*
X147225365Y-77408347D01*
X147146517Y-77368923D01*
X147351140Y-77135069D01*
X147357169Y-77126635D01*
X147359029Y-77124776D01*
X147359759Y-77123012D01*
X147362541Y-77119122D01*
X147367745Y-77103733D01*
X147373961Y-77088728D01*
X147373961Y-77085354D01*
X147375041Y-77082161D01*
X147375012Y-77081726D01*
X147462382Y-77081726D01*
X147466729Y-77100842D01*
X147800062Y-78100841D01*
X147808053Y-78118742D01*
X147812736Y-78124141D01*
X147815931Y-78130531D01*
X147825402Y-78138746D01*
X147833618Y-78148218D01*
X147840006Y-78151412D01*
X147845407Y-78156096D01*
X147857308Y-78160063D01*
X147868517Y-78165667D01*
X147875641Y-78166173D01*
X147882423Y-78168434D01*
X147894932Y-78167544D01*
X147907437Y-78168434D01*
X147914215Y-78166174D01*
X147921343Y-78165668D01*
X147932559Y-78160059D01*
X147944453Y-78156095D01*
X147949850Y-78151414D01*
X147956242Y-78148218D01*
X147964460Y-78138742D01*
X147973929Y-78130530D01*
X147977122Y-78124143D01*
X147981807Y-78118742D01*
X147989798Y-78100842D01*
X148323131Y-77100842D01*
X148327478Y-77081727D01*
X148325203Y-77049710D01*
X148368280Y-77049710D01*
X148368280Y-77088728D01*
X148383212Y-77124776D01*
X148410802Y-77152366D01*
X148446850Y-77167298D01*
X148466359Y-77169219D01*
X148865029Y-77169219D01*
X148676815Y-77384321D01*
X148670785Y-77392754D01*
X148668926Y-77394614D01*
X148668195Y-77396377D01*
X148665414Y-77400268D01*
X148660209Y-77415656D01*
X148653994Y-77430662D01*
X148653994Y-77434035D01*
X148652914Y-77437229D01*
X148653994Y-77453431D01*
X148653994Y-77469680D01*
X148655284Y-77472795D01*
X148655509Y-77476161D01*
X148662709Y-77490721D01*
X148668926Y-77505728D01*
X148671310Y-77508112D01*
X148672806Y-77511136D01*
X148685031Y-77521833D01*
X148696516Y-77533318D01*
X148699630Y-77534608D01*
X148702170Y-77536830D01*
X148717558Y-77542034D01*
X148732564Y-77548250D01*
X148737323Y-77548718D01*
X148739131Y-77549330D01*
X148741755Y-77549155D01*
X148752073Y-77550171D01*
X148871323Y-77550171D01*
X148930932Y-77579976D01*
X148955601Y-77604644D01*
X148985406Y-77664254D01*
X148985406Y-77855135D01*
X148955601Y-77914743D01*
X148930932Y-77939413D01*
X148871323Y-77969219D01*
X148632823Y-77969219D01*
X148573213Y-77939414D01*
X148537070Y-77903270D01*
X148521917Y-77890833D01*
X148485869Y-77875902D01*
X148446851Y-77875901D01*
X148410802Y-77890832D01*
X148383212Y-77918422D01*
X148368281Y-77954470D01*
X148368280Y-77993488D01*
X148383211Y-78029537D01*
X148395648Y-78044690D01*
X148443266Y-78092310D01*
X148450934Y-78098603D01*
X148452666Y-78100600D01*
X148455674Y-78102493D01*
X148458420Y-78104747D01*
X148460860Y-78105757D01*
X148469257Y-78111043D01*
X148564494Y-78158662D01*
X148582803Y-78165668D01*
X148586386Y-78165922D01*
X148589707Y-78167298D01*
X148609216Y-78169219D01*
X148894930Y-78169219D01*
X148914439Y-78167298D01*
X148917759Y-78165922D01*
X148921343Y-78165668D01*
X148939651Y-78158662D01*
X149034889Y-78111043D01*
X149043284Y-78105758D01*
X149045726Y-78104747D01*
X149048473Y-78102491D01*
X149051479Y-78100600D01*
X149053209Y-78098605D01*
X149060879Y-78092310D01*
X149108498Y-78044690D01*
X149114790Y-78037023D01*
X149116787Y-78035292D01*
X149118680Y-78032284D01*
X149120935Y-78029537D01*
X149121946Y-78027095D01*
X149127230Y-78018701D01*
X149174849Y-77923464D01*
X149181855Y-77905155D01*
X149182109Y-77901571D01*
X149183485Y-77898251D01*
X149185406Y-77878742D01*
X149185406Y-77640647D01*
X149183485Y-77621138D01*
X149182109Y-77617817D01*
X149181855Y-77614234D01*
X149174849Y-77595925D01*
X149127230Y-77500688D01*
X149121944Y-77492291D01*
X149120934Y-77489851D01*
X149118680Y-77487105D01*
X149116787Y-77484097D01*
X149114789Y-77482364D01*
X149108497Y-77474698D01*
X149060879Y-77427079D01*
X149053208Y-77420784D01*
X149051479Y-77418790D01*
X149048471Y-77416896D01*
X149045725Y-77414643D01*
X149043285Y-77413632D01*
X149034889Y-77408347D01*
X148956041Y-77368923D01*
X149160664Y-77135069D01*
X149166693Y-77126635D01*
X149168553Y-77124776D01*
X149169283Y-77123012D01*
X149172065Y-77119122D01*
X149177269Y-77103733D01*
X149183485Y-77088728D01*
X149183485Y-77085354D01*
X149184565Y-77082161D01*
X149183485Y-77065958D01*
X149183485Y-77049710D01*
X149182194Y-77046594D01*
X149181970Y-77043229D01*
X149174767Y-77028663D01*
X149168553Y-77013662D01*
X149166169Y-77011278D01*
X149164674Y-77008254D01*
X149152440Y-76997549D01*
X149140963Y-76986072D01*
X149137849Y-76984782D01*
X149135310Y-76982560D01*
X149119918Y-76977354D01*
X149104915Y-76971140D01*
X149100155Y-76970671D01*
X149098348Y-76970060D01*
X149095723Y-76970234D01*
X149085406Y-76969219D01*
X148466359Y-76969219D01*
X148446850Y-76971140D01*
X148410802Y-76986072D01*
X148383212Y-77013662D01*
X148368280Y-77049710D01*
X148325203Y-77049710D01*
X148324712Y-77042807D01*
X148307262Y-77007908D01*
X148277786Y-76982343D01*
X148240770Y-76970004D01*
X148201850Y-76972771D01*
X148166951Y-76990220D01*
X148141386Y-77019696D01*
X148133395Y-77037597D01*
X147894930Y-77752991D01*
X147656465Y-77037596D01*
X147648474Y-77019696D01*
X147622909Y-76990220D01*
X147588010Y-76972770D01*
X147549090Y-76970004D01*
X147512074Y-76982342D01*
X147482598Y-77007907D01*
X147465148Y-77042806D01*
X147462382Y-77081726D01*
X147375012Y-77081726D01*
X147373961Y-77065958D01*
X147373961Y-77049710D01*
X147372670Y-77046594D01*
X147372446Y-77043229D01*
X147365243Y-77028663D01*
X147359029Y-77013662D01*
X147356645Y-77011278D01*
X147355150Y-77008254D01*
X147342916Y-76997549D01*
X147331439Y-76986072D01*
X147328325Y-76984782D01*
X147325786Y-76982560D01*
X147310394Y-76977354D01*
X147295391Y-76971140D01*
X147290631Y-76970671D01*
X147288824Y-76970060D01*
X147286199Y-76970234D01*
X147275882Y-76969219D01*
X146656835Y-76969219D01*
X146637326Y-76971140D01*
X146601278Y-76986072D01*
X146573688Y-77013662D01*
X146558756Y-77049710D01*
X146447645Y-77049710D01*
X146447645Y-76858108D01*
X149296517Y-76858108D01*
X149296517Y-78280330D01*
G37*
G36*
X178214224Y-118428440D02*
G01*
X178281297Y-118495513D01*
X178316749Y-118566418D01*
X178358720Y-118734299D01*
X178358720Y-118852537D01*
X178316749Y-119020418D01*
X178281296Y-119091324D01*
X178214225Y-119158397D01*
X178109160Y-119193419D01*
X177987292Y-119193419D01*
X177987292Y-118393419D01*
X178109160Y-118393419D01*
X178214224Y-118428440D01*
G37*
G36*
X178669831Y-119504530D02*
G01*
X175580943Y-119504530D01*
X175580943Y-118721990D01*
X175692054Y-118721990D01*
X175692054Y-118864847D01*
X175692389Y-118868249D01*
X175692172Y-118869708D01*
X175693251Y-118877005D01*
X175693975Y-118884356D01*
X175694539Y-118885719D01*
X175695040Y-118889101D01*
X175742659Y-119079576D01*
X175743172Y-119081013D01*
X175743224Y-119081736D01*
X175746332Y-119089860D01*
X175749254Y-119098037D01*
X175749684Y-119098617D01*
X175750230Y-119100044D01*
X175797849Y-119195282D01*
X175803131Y-119203674D01*
X175804144Y-119206118D01*
X175806400Y-119208867D01*
X175808292Y-119211872D01*
X175810286Y-119213601D01*
X175816581Y-119221271D01*
X175911819Y-119316511D01*
X175926972Y-119328947D01*
X175930291Y-119330322D01*
X175933007Y-119332677D01*
X175950907Y-119340668D01*
X176093764Y-119388287D01*
X176103436Y-119390486D01*
X176105878Y-119391498D01*
X176109415Y-119391846D01*
X176112879Y-119392634D01*
X176115513Y-119392446D01*
X176125387Y-119393419D01*
X176220625Y-119393419D01*
X176230498Y-119392446D01*
X176233132Y-119392634D01*
X176236595Y-119391846D01*
X176240134Y-119391498D01*
X176242576Y-119390486D01*
X176252248Y-119388287D01*
X176395104Y-119340668D01*
X176413005Y-119332677D01*
X176415720Y-119330322D01*
X176419040Y-119328947D01*
X176434193Y-119316510D01*
X176481812Y-119268890D01*
X176494249Y-119253737D01*
X176509180Y-119217688D01*
X176511101Y-119198180D01*
X176511101Y-118864847D01*
X176509180Y-118845338D01*
X176494248Y-118809290D01*
X176466658Y-118781700D01*
X176430610Y-118766768D01*
X176411101Y-118764847D01*
X176220625Y-118764847D01*
X176201116Y-118766768D01*
X176165068Y-118781700D01*
X176137478Y-118809290D01*
X176122546Y-118845338D01*
X176122546Y-118884356D01*
X176137478Y-118920404D01*
X176165068Y-118947994D01*
X176201116Y-118962926D01*
X176220625Y-118964847D01*
X176311101Y-118964847D01*
X176311101Y-119156759D01*
X176309462Y-119158397D01*
X176204398Y-119193419D01*
X176141613Y-119193419D01*
X176036548Y-119158397D01*
X175969478Y-119091327D01*
X175934024Y-119020418D01*
X175892054Y-118852537D01*
X175892054Y-118734300D01*
X175934024Y-118566418D01*
X175969477Y-118495512D01*
X176036549Y-118428440D01*
X176141613Y-118393419D01*
X176244637Y-118393419D01*
X176318760Y-118430481D01*
X176337069Y-118437487D01*
X176375989Y-118440253D01*
X176413005Y-118427914D01*
X176442482Y-118402349D01*
X176459931Y-118367451D01*
X176462696Y-118328531D01*
X176450993Y-118293419D01*
X176739673Y-118293419D01*
X176739673Y-119293419D01*
X176741594Y-119312928D01*
X176756526Y-119348976D01*
X176784116Y-119376566D01*
X176820164Y-119391498D01*
X176859182Y-119391498D01*
X176895230Y-119376566D01*
X176922820Y-119348976D01*
X176937752Y-119312928D01*
X176939673Y-119293419D01*
X176939673Y-118669975D01*
X177324277Y-119343033D01*
X177327195Y-119347143D01*
X177327954Y-119348976D01*
X177329820Y-119350842D01*
X177335624Y-119359018D01*
X177346140Y-119367162D01*
X177355544Y-119376566D01*
X177361431Y-119379004D01*
X177366473Y-119382909D01*
X177379305Y-119386408D01*
X177391592Y-119391498D01*
X177397968Y-119391498D01*
X177404117Y-119393175D01*
X177417310Y-119391498D01*
X177430610Y-119391498D01*
X177436498Y-119389058D01*
X177442823Y-119388255D01*
X177454372Y-119381654D01*
X177466658Y-119376566D01*
X177471165Y-119372058D01*
X177476700Y-119368896D01*
X177484844Y-119358379D01*
X177494248Y-119348976D01*
X177496686Y-119343088D01*
X177500591Y-119338047D01*
X177504090Y-119325214D01*
X177509180Y-119312928D01*
X177510162Y-119302950D01*
X177510857Y-119300404D01*
X177510606Y-119298436D01*
X177511101Y-119293419D01*
X177511101Y-118293419D01*
X177787292Y-118293419D01*
X177787292Y-119293419D01*
X177789213Y-119312928D01*
X177804145Y-119348976D01*
X177831735Y-119376566D01*
X177867783Y-119391498D01*
X177887292Y-119393419D01*
X178125387Y-119393419D01*
X178135260Y-119392446D01*
X178137894Y-119392634D01*
X178141357Y-119391846D01*
X178144896Y-119391498D01*
X178147338Y-119390486D01*
X178157010Y-119388287D01*
X178299866Y-119340668D01*
X178317767Y-119332677D01*
X178320482Y-119330322D01*
X178323802Y-119328947D01*
X178338955Y-119316510D01*
X178434193Y-119221271D01*
X178440485Y-119213604D01*
X178442482Y-119211873D01*
X178444375Y-119208865D01*
X178446630Y-119206118D01*
X178447641Y-119203676D01*
X178452925Y-119195282D01*
X178500544Y-119100045D01*
X178501090Y-119098616D01*
X178501520Y-119098037D01*
X178504441Y-119089860D01*
X178507550Y-119081736D01*
X178507601Y-119081015D01*
X178508115Y-119079577D01*
X178555734Y-118889101D01*
X178556234Y-118885719D01*
X178556799Y-118884356D01*
X178557522Y-118877005D01*
X178558602Y-118869708D01*
X178558384Y-118868249D01*
X178558720Y-118864847D01*
X178558720Y-118721990D01*
X178558384Y-118718587D01*
X178558602Y-118717129D01*
X178557522Y-118709831D01*
X178556799Y-118702481D01*
X178556234Y-118701117D01*
X178555734Y-118697736D01*
X178508115Y-118507260D01*
X178507601Y-118505821D01*
X178507550Y-118505101D01*
X178504441Y-118496976D01*
X178501520Y-118488800D01*
X178501090Y-118488220D01*
X178500544Y-118486792D01*
X178452925Y-118391555D01*
X178447638Y-118383156D01*
X178446629Y-118380719D01*
X178444377Y-118377975D01*
X178442482Y-118374964D01*
X178440484Y-118373231D01*
X178434193Y-118365565D01*
X178338955Y-118270327D01*
X178323801Y-118257891D01*
X178320482Y-118256516D01*
X178317767Y-118254161D01*
X178299866Y-118246170D01*
X178157010Y-118198551D01*
X178147338Y-118196351D01*
X178144896Y-118195340D01*
X178141357Y-118194991D01*
X178137894Y-118194204D01*
X178135260Y-118194391D01*
X178125387Y-118193419D01*
X177887292Y-118193419D01*
X177867783Y-118195340D01*
X177831735Y-118210272D01*
X177804145Y-118237862D01*
X177789213Y-118273910D01*
X177787292Y-118293419D01*
X177511101Y-118293419D01*
X177509180Y-118273910D01*
X177494248Y-118237862D01*
X177466658Y-118210272D01*
X177430610Y-118195340D01*
X177391592Y-118195340D01*
X177355544Y-118210272D01*
X177327954Y-118237862D01*
X177313022Y-118273910D01*
X177311101Y-118293419D01*
X177311101Y-118916862D01*
X176926497Y-118243805D01*
X176923578Y-118239694D01*
X176922820Y-118237862D01*
X176920953Y-118235995D01*
X176915150Y-118227820D01*
X176904635Y-118219677D01*
X176895230Y-118210272D01*
X176889339Y-118207832D01*
X176884301Y-118203930D01*
X176871472Y-118200431D01*
X176859182Y-118195340D01*
X176852807Y-118195340D01*
X176846658Y-118193663D01*
X176833465Y-118195340D01*
X176820164Y-118195340D01*
X176814275Y-118197779D01*
X176807951Y-118198583D01*
X176796401Y-118205183D01*
X176784116Y-118210272D01*
X176779608Y-118214779D01*
X176774074Y-118217942D01*
X176765931Y-118228456D01*
X176756526Y-118237862D01*
X176754086Y-118243752D01*
X176750184Y-118248791D01*
X176746685Y-118261619D01*
X176741594Y-118273910D01*
X176740611Y-118283887D01*
X176739917Y-118286434D01*
X176740167Y-118288401D01*
X176739673Y-118293419D01*
X176450993Y-118293419D01*
X176450358Y-118291515D01*
X176424793Y-118262038D01*
X176408203Y-118251595D01*
X176312965Y-118203976D01*
X176294657Y-118196970D01*
X176291073Y-118196715D01*
X176287753Y-118195340D01*
X176268244Y-118193419D01*
X176125387Y-118193419D01*
X176115513Y-118194391D01*
X176112879Y-118194204D01*
X176109415Y-118194991D01*
X176105878Y-118195340D01*
X176103436Y-118196351D01*
X176093764Y-118198551D01*
X175950907Y-118246170D01*
X175933007Y-118254161D01*
X175930291Y-118256516D01*
X175926973Y-118257891D01*
X175911819Y-118270327D01*
X175816581Y-118365565D01*
X175810286Y-118373235D01*
X175808292Y-118374965D01*
X175806398Y-118377972D01*
X175804145Y-118380719D01*
X175803134Y-118383158D01*
X175797849Y-118391555D01*
X175750230Y-118486793D01*
X175749684Y-118488219D01*
X175749254Y-118488800D01*
X175746332Y-118496976D01*
X175743224Y-118505101D01*
X175743172Y-118505823D01*
X175742659Y-118507261D01*
X175695040Y-118697736D01*
X175694539Y-118701117D01*
X175693975Y-118702481D01*
X175693251Y-118709831D01*
X175692172Y-118717129D01*
X175692389Y-118718587D01*
X175692054Y-118721990D01*
X175580943Y-118721990D01*
X175580943Y-118082308D01*
X178669831Y-118082308D01*
X178669831Y-119504530D01*
G37*
G36*
X178079491Y-113297640D02*
G01*
X178146564Y-113364713D01*
X178182016Y-113435618D01*
X178223987Y-113603499D01*
X178223987Y-113721737D01*
X178182016Y-113889618D01*
X178146563Y-113960524D01*
X178079492Y-114027597D01*
X177974427Y-114062619D01*
X177852559Y-114062619D01*
X177852559Y-113262619D01*
X177974427Y-113262619D01*
X178079491Y-113297640D01*
G37*
G36*
X178535098Y-114373730D02*
G01*
X175686226Y-114373730D01*
X175686226Y-113143110D01*
X175797337Y-113143110D01*
X175797337Y-113182128D01*
X175812269Y-113218176D01*
X175839859Y-113245766D01*
X175875907Y-113260698D01*
X175895416Y-113262619D01*
X176081130Y-113262619D01*
X176081130Y-114162619D01*
X176083051Y-114182128D01*
X176097983Y-114218176D01*
X176125573Y-114245766D01*
X176161621Y-114260698D01*
X176200639Y-114260698D01*
X176236687Y-114245766D01*
X176264277Y-114218176D01*
X176279209Y-114182128D01*
X176281130Y-114162619D01*
X176281130Y-113262619D01*
X176466844Y-113262619D01*
X176486353Y-113260698D01*
X176522401Y-113245766D01*
X176549991Y-113218176D01*
X176564923Y-113182128D01*
X176564923Y-113162514D01*
X176604940Y-113162514D01*
X176612512Y-113200791D01*
X176621735Y-113218089D01*
X176918088Y-113662619D01*
X176621735Y-114107149D01*
X176612512Y-114124447D01*
X176604940Y-114162724D01*
X176612592Y-114200984D01*
X176634303Y-114233404D01*
X176666768Y-114255047D01*
X176705045Y-114262619D01*
X176743305Y-114254967D01*
X176775725Y-114233256D01*
X176788145Y-114218089D01*
X177038273Y-113842896D01*
X177288401Y-114218089D01*
X177300821Y-114233256D01*
X177333241Y-114254967D01*
X177371501Y-114262619D01*
X177409778Y-114255047D01*
X177442243Y-114233404D01*
X177463954Y-114200984D01*
X177471606Y-114162724D01*
X177464034Y-114124447D01*
X177454811Y-114107149D01*
X177158457Y-113662619D01*
X177454811Y-113218089D01*
X177464034Y-113200791D01*
X177471585Y-113162619D01*
X177652559Y-113162619D01*
X177652559Y-114162619D01*
X177654480Y-114182128D01*
X177669412Y-114218176D01*
X177697002Y-114245766D01*
X177733050Y-114260698D01*
X177752559Y-114262619D01*
X177990654Y-114262619D01*
X178000527Y-114261646D01*
X178003161Y-114261834D01*
X178006624Y-114261046D01*
X178010163Y-114260698D01*
X178012605Y-114259686D01*
X178022277Y-114257487D01*
X178165133Y-114209868D01*
X178183034Y-114201877D01*
X178185749Y-114199522D01*
X178189069Y-114198147D01*
X178204222Y-114185710D01*
X178299460Y-114090471D01*
X178305752Y-114082804D01*
X178307749Y-114081073D01*
X178309642Y-114078065D01*
X178311897Y-114075318D01*
X178312908Y-114072876D01*
X178318192Y-114064482D01*
X178365811Y-113969245D01*
X178366357Y-113967816D01*
X178366787Y-113967237D01*
X178369708Y-113959060D01*
X178372817Y-113950936D01*
X178372868Y-113950215D01*
X178373382Y-113948777D01*
X178421001Y-113758301D01*
X178421501Y-113754919D01*
X178422066Y-113753556D01*
X178422789Y-113746205D01*
X178423869Y-113738908D01*
X178423651Y-113737449D01*
X178423987Y-113734047D01*
X178423987Y-113591190D01*
X178423651Y-113587787D01*
X178423869Y-113586329D01*
X178422789Y-113579031D01*
X178422066Y-113571681D01*
X178421501Y-113570317D01*
X178421001Y-113566936D01*
X178373382Y-113376460D01*
X178372868Y-113375021D01*
X178372817Y-113374301D01*
X178369708Y-113366176D01*
X178366787Y-113358000D01*
X178366357Y-113357420D01*
X178365811Y-113355992D01*
X178318192Y-113260755D01*
X178312905Y-113252356D01*
X178311896Y-113249919D01*
X178309644Y-113247175D01*
X178307749Y-113244164D01*
X178305751Y-113242431D01*
X178299460Y-113234765D01*
X178204222Y-113139527D01*
X178189068Y-113127091D01*
X178185749Y-113125716D01*
X178183034Y-113123361D01*
X178165133Y-113115370D01*
X178022277Y-113067751D01*
X178012605Y-113065551D01*
X178010163Y-113064540D01*
X178006624Y-113064191D01*
X178003161Y-113063404D01*
X178000527Y-113063591D01*
X177990654Y-113062619D01*
X177752559Y-113062619D01*
X177733050Y-113064540D01*
X177697002Y-113079472D01*
X177669412Y-113107062D01*
X177654480Y-113143110D01*
X177652559Y-113162619D01*
X177471585Y-113162619D01*
X177471606Y-113162514D01*
X177463954Y-113124254D01*
X177442243Y-113091834D01*
X177409778Y-113070191D01*
X177371501Y-113062619D01*
X177333241Y-113070271D01*
X177300821Y-113091982D01*
X177288401Y-113107149D01*
X177038273Y-113482341D01*
X176788145Y-113107149D01*
X176775725Y-113091982D01*
X176743305Y-113070271D01*
X176705045Y-113062619D01*
X176666768Y-113070191D01*
X176634303Y-113091834D01*
X176612592Y-113124254D01*
X176604940Y-113162514D01*
X176564923Y-113162514D01*
X176564923Y-113143110D01*
X176549991Y-113107062D01*
X176522401Y-113079472D01*
X176486353Y-113064540D01*
X176466844Y-113062619D01*
X175895416Y-113062619D01*
X175875907Y-113064540D01*
X175839859Y-113079472D01*
X175812269Y-113107062D01*
X175797337Y-113143110D01*
X175686226Y-113143110D01*
X175686226Y-112951508D01*
X178535098Y-112951508D01*
X178535098Y-114373730D01*
G37*
G36*
X156246132Y-77627595D02*
G01*
X156270801Y-77652263D01*
X156300606Y-77711873D01*
X156300606Y-77855135D01*
X156270801Y-77914743D01*
X156246132Y-77939413D01*
X156186523Y-77969219D01*
X156043261Y-77969219D01*
X155983651Y-77939414D01*
X155958984Y-77914746D01*
X155929178Y-77855134D01*
X155929178Y-77711873D01*
X155958983Y-77652263D01*
X155983651Y-77627594D01*
X156043261Y-77597790D01*
X156186523Y-77597790D01*
X156246132Y-77627595D01*
G37*
G36*
X156246132Y-77199024D02*
G01*
X156270801Y-77223692D01*
X156300606Y-77283302D01*
X156300606Y-77283707D01*
X156270801Y-77343316D01*
X156246132Y-77367984D01*
X156186523Y-77397790D01*
X156043261Y-77397790D01*
X155983651Y-77367985D01*
X155958983Y-77343316D01*
X155929178Y-77283706D01*
X155929178Y-77283302D01*
X155958983Y-77223692D01*
X155983651Y-77199023D01*
X156043261Y-77169219D01*
X156186523Y-77169219D01*
X156246132Y-77199024D01*
G37*
G36*
X156611717Y-78280330D02*
G01*
X153809328Y-78280330D01*
X153809328Y-77342426D01*
X153920439Y-77342426D01*
X153923205Y-77381346D01*
X153940654Y-77416245D01*
X153970131Y-77441809D01*
X154007147Y-77454148D01*
X154046067Y-77451382D01*
X154064375Y-77444376D01*
X154159613Y-77396757D01*
X154168009Y-77391471D01*
X154170449Y-77390461D01*
X154173195Y-77388207D01*
X154176203Y-77386314D01*
X154177932Y-77384319D01*
X154185603Y-77378025D01*
X154205368Y-77358260D01*
X154205368Y-77969219D01*
X154019654Y-77969219D01*
X154000145Y-77971140D01*
X153964097Y-77986072D01*
X153936507Y-78013662D01*
X153921575Y-78049710D01*
X153921575Y-78088728D01*
X153936507Y-78124776D01*
X153964097Y-78152366D01*
X154000145Y-78167298D01*
X154019654Y-78169219D01*
X154591082Y-78169219D01*
X154610591Y-78167298D01*
X154646639Y-78152366D01*
X154674229Y-78124776D01*
X154689161Y-78088728D01*
X154689161Y-78049710D01*
X154674229Y-78013662D01*
X154646639Y-77986072D01*
X154610591Y-77971140D01*
X154591082Y-77969219D01*
X154405368Y-77969219D01*
X154405368Y-77081726D01*
X154777582Y-77081726D01*
X154781929Y-77100842D01*
X155115262Y-78100841D01*
X155123253Y-78118742D01*
X155127936Y-78124141D01*
X155131131Y-78130531D01*
X155140602Y-78138746D01*
X155148818Y-78148218D01*
X155155206Y-78151412D01*
X155160607Y-78156096D01*
X155172508Y-78160063D01*
X155183717Y-78165667D01*
X155190841Y-78166173D01*
X155197623Y-78168434D01*
X155210132Y-78167544D01*
X155222637Y-78168434D01*
X155229415Y-78166174D01*
X155236543Y-78165668D01*
X155247759Y-78160059D01*
X155259653Y-78156095D01*
X155265050Y-78151414D01*
X155271442Y-78148218D01*
X155279660Y-78138742D01*
X155289129Y-78130530D01*
X155292322Y-78124143D01*
X155297007Y-78118742D01*
X155304998Y-78100842D01*
X155585380Y-77259695D01*
X155729178Y-77259695D01*
X155729178Y-77307314D01*
X155731099Y-77326823D01*
X155732474Y-77330143D01*
X155732729Y-77333727D01*
X155739735Y-77352035D01*
X155787354Y-77447273D01*
X155792639Y-77455669D01*
X155793650Y-77458109D01*
X155795903Y-77460855D01*
X155797797Y-77463863D01*
X155799791Y-77465592D01*
X155806086Y-77473263D01*
X155830613Y-77497790D01*
X155806086Y-77522317D01*
X155799791Y-77529987D01*
X155797797Y-77531717D01*
X155795903Y-77534724D01*
X155793650Y-77537471D01*
X155792639Y-77539910D01*
X155787354Y-77548307D01*
X155739735Y-77643545D01*
X155732729Y-77661853D01*
X155732474Y-77665436D01*
X155731099Y-77668757D01*
X155729178Y-77688266D01*
X155729178Y-77878742D01*
X155731099Y-77898251D01*
X155732474Y-77901571D01*
X155732729Y-77905155D01*
X155739735Y-77923463D01*
X155787354Y-78018701D01*
X155792637Y-78027093D01*
X155793649Y-78029537D01*
X155795905Y-78032286D01*
X155797797Y-78035291D01*
X155799791Y-78037020D01*
X155806086Y-78044690D01*
X155853704Y-78092310D01*
X155861372Y-78098603D01*
X155863104Y-78100600D01*
X155866112Y-78102493D01*
X155868858Y-78104747D01*
X155871298Y-78105757D01*
X155879695Y-78111043D01*
X155974932Y-78158662D01*
X155993241Y-78165668D01*
X155996824Y-78165922D01*
X156000145Y-78167298D01*
X156019654Y-78169219D01*
X156210130Y-78169219D01*
X156229639Y-78167298D01*
X156232959Y-78165922D01*
X156236543Y-78165668D01*
X156254851Y-78158662D01*
X156350089Y-78111043D01*
X156358484Y-78105758D01*
X156360926Y-78104747D01*
X156363673Y-78102491D01*
X156366679Y-78100600D01*
X156368409Y-78098605D01*
X156376079Y-78092310D01*
X156423698Y-78044690D01*
X156429990Y-78037023D01*
X156431987Y-78035292D01*
X156433880Y-78032284D01*
X156436135Y-78029537D01*
X156437146Y-78027095D01*
X156442430Y-78018701D01*
X156490049Y-77923464D01*
X156497055Y-77905155D01*
X156497309Y-77901571D01*
X156498685Y-77898251D01*
X156500606Y-77878742D01*
X156500606Y-77688266D01*
X156498685Y-77668757D01*
X156497309Y-77665436D01*
X156497055Y-77661853D01*
X156490049Y-77643544D01*
X156442430Y-77548307D01*
X156437144Y-77539910D01*
X156436134Y-77537470D01*
X156433880Y-77534724D01*
X156431987Y-77531716D01*
X156429989Y-77529983D01*
X156423697Y-77522317D01*
X156399170Y-77497790D01*
X156423697Y-77473263D01*
X156429989Y-77465596D01*
X156431987Y-77463864D01*
X156433880Y-77460855D01*
X156436134Y-77458110D01*
X156437144Y-77455669D01*
X156442430Y-77447273D01*
X156490049Y-77352036D01*
X156497055Y-77333727D01*
X156497309Y-77330143D01*
X156498685Y-77326823D01*
X156500606Y-77307314D01*
X156500606Y-77259695D01*
X156498685Y-77240186D01*
X156497309Y-77236865D01*
X156497055Y-77233282D01*
X156490049Y-77214973D01*
X156442430Y-77119736D01*
X156437144Y-77111339D01*
X156436134Y-77108899D01*
X156433880Y-77106153D01*
X156431987Y-77103145D01*
X156429989Y-77101412D01*
X156423697Y-77093746D01*
X156376079Y-77046127D01*
X156368408Y-77039832D01*
X156366679Y-77037838D01*
X156363671Y-77035944D01*
X156360925Y-77033691D01*
X156358485Y-77032680D01*
X156350089Y-77027395D01*
X156254851Y-76979776D01*
X156236543Y-76972770D01*
X156232959Y-76972515D01*
X156229639Y-76971140D01*
X156210130Y-76969219D01*
X156019654Y-76969219D01*
X156000145Y-76971140D01*
X155996824Y-76972515D01*
X155993241Y-76972770D01*
X155974932Y-76979776D01*
X155879695Y-77027395D01*
X155871298Y-77032680D01*
X155868858Y-77033691D01*
X155866112Y-77035944D01*
X155863104Y-77037838D01*
X155861371Y-77039835D01*
X155853705Y-77046128D01*
X155806086Y-77093746D01*
X155799791Y-77101416D01*
X155797797Y-77103146D01*
X155795903Y-77106153D01*
X155793650Y-77108900D01*
X155792639Y-77111339D01*
X155787354Y-77119736D01*
X155739735Y-77214974D01*
X155732729Y-77233282D01*
X155732474Y-77236865D01*
X155731099Y-77240186D01*
X155729178Y-77259695D01*
X155585380Y-77259695D01*
X155638331Y-77100842D01*
X155642678Y-77081727D01*
X155639912Y-77042807D01*
X155622462Y-77007908D01*
X155592986Y-76982343D01*
X155555970Y-76970004D01*
X155517050Y-76972771D01*
X155482151Y-76990220D01*
X155456586Y-77019696D01*
X155448595Y-77037597D01*
X155210130Y-77752991D01*
X154971665Y-77037596D01*
X154963674Y-77019696D01*
X154938109Y-76990220D01*
X154903210Y-76972770D01*
X154864290Y-76970004D01*
X154827274Y-76982342D01*
X154797798Y-77007907D01*
X154780348Y-77042806D01*
X154777582Y-77081726D01*
X154405368Y-77081726D01*
X154405368Y-77069219D01*
X154405361Y-77069148D01*
X154405368Y-77069114D01*
X154405347Y-77069012D01*
X154403447Y-77049710D01*
X154399657Y-77040561D01*
X154397716Y-77030854D01*
X154392264Y-77022713D01*
X154388515Y-77013662D01*
X154381515Y-77006662D01*
X154376005Y-76998434D01*
X154367850Y-76992997D01*
X154360925Y-76986072D01*
X154351781Y-76982284D01*
X154343540Y-76976790D01*
X154333926Y-76974888D01*
X154324877Y-76971140D01*
X154314976Y-76971140D01*
X154305264Y-76969219D01*
X154295659Y-76971140D01*
X154285859Y-76971140D01*
X154276710Y-76974929D01*
X154267003Y-76976871D01*
X154258862Y-76982322D01*
X154249811Y-76986072D01*
X154242811Y-76993071D01*
X154234583Y-76998582D01*
X154222294Y-77013588D01*
X154222221Y-77013662D01*
X154222207Y-77013694D01*
X154222163Y-77013749D01*
X154132419Y-77148365D01*
X154055655Y-77225128D01*
X153974933Y-77265490D01*
X153958342Y-77275933D01*
X153932778Y-77305410D01*
X153920439Y-77342426D01*
X153809328Y-77342426D01*
X153809328Y-76858108D01*
X156611717Y-76858108D01*
X156611717Y-78280330D01*
G37*
G36*
X166827091Y-115453345D02*
G01*
X165404869Y-115453345D01*
X165404869Y-114711037D01*
X165516276Y-114711037D01*
X165520925Y-114749777D01*
X165540044Y-114783789D01*
X165554198Y-114797353D01*
X165787454Y-114980625D01*
X165554198Y-115163898D01*
X165540044Y-115177462D01*
X165520925Y-115211474D01*
X165516276Y-115250214D01*
X165526806Y-115287785D01*
X165550912Y-115318466D01*
X165584924Y-115337585D01*
X165623664Y-115342234D01*
X165661235Y-115331704D01*
X165677762Y-115321162D01*
X165949313Y-115107800D01*
X166220865Y-115321162D01*
X166237392Y-115331704D01*
X166274963Y-115342234D01*
X166313703Y-115337585D01*
X166347715Y-115318466D01*
X166371821Y-115287785D01*
X166382351Y-115250214D01*
X166377702Y-115211474D01*
X166358583Y-115177462D01*
X166344429Y-115163898D01*
X166111172Y-114980625D01*
X166344429Y-114797353D01*
X166358583Y-114783789D01*
X166377702Y-114749777D01*
X166382351Y-114711037D01*
X166371821Y-114673466D01*
X166347715Y-114642785D01*
X166313703Y-114623666D01*
X166274963Y-114619017D01*
X166237392Y-114629547D01*
X166220865Y-114640089D01*
X165949313Y-114853450D01*
X165677762Y-114640089D01*
X165661235Y-114629547D01*
X165623664Y-114619017D01*
X165584924Y-114623666D01*
X165550912Y-114642785D01*
X165526806Y-114673466D01*
X165516276Y-114711037D01*
X165404869Y-114711037D01*
X165404869Y-113901513D01*
X165516276Y-113901513D01*
X165520925Y-113940253D01*
X165540044Y-113974265D01*
X165554198Y-113987829D01*
X165787454Y-114171101D01*
X165554198Y-114354374D01*
X165540044Y-114367938D01*
X165520925Y-114401950D01*
X165516276Y-114440690D01*
X165526806Y-114478261D01*
X165550912Y-114508942D01*
X165584924Y-114528061D01*
X165623664Y-114532710D01*
X165661235Y-114522180D01*
X165677762Y-114511638D01*
X165949313Y-114298276D01*
X166220865Y-114511638D01*
X166237392Y-114522180D01*
X166274963Y-114532710D01*
X166313703Y-114528061D01*
X166347715Y-114508942D01*
X166371821Y-114478261D01*
X166382351Y-114440690D01*
X166377702Y-114401950D01*
X166358583Y-114367938D01*
X166344429Y-114354374D01*
X166111172Y-114171101D01*
X166344429Y-113987829D01*
X166358583Y-113974265D01*
X166377702Y-113940253D01*
X166382351Y-113901513D01*
X166371821Y-113863942D01*
X166347715Y-113833261D01*
X166313703Y-113814142D01*
X166274963Y-113809493D01*
X166237392Y-113820023D01*
X166220865Y-113830565D01*
X165949313Y-114043926D01*
X165677762Y-113830565D01*
X165661235Y-113820023D01*
X165623664Y-113809493D01*
X165584924Y-113814142D01*
X165550912Y-113833261D01*
X165526806Y-113863942D01*
X165516276Y-113901513D01*
X165404869Y-113901513D01*
X165404869Y-113147292D01*
X165515980Y-113147292D01*
X165515980Y-113385387D01*
X165517901Y-113404896D01*
X165519276Y-113408215D01*
X165519531Y-113411801D01*
X165526538Y-113430109D01*
X165574158Y-113525347D01*
X165579442Y-113533742D01*
X165580453Y-113536182D01*
X165582706Y-113538927D01*
X165584601Y-113541938D01*
X165586597Y-113543669D01*
X165592889Y-113551336D01*
X165640508Y-113598954D01*
X165648174Y-113605246D01*
X165649907Y-113607244D01*
X165652915Y-113609137D01*
X165655661Y-113611391D01*
X165658101Y-113612401D01*
X165666498Y-113617687D01*
X165761735Y-113665306D01*
X165780044Y-113672312D01*
X165783627Y-113672566D01*
X165786948Y-113673942D01*
X165806457Y-113675863D01*
X166044552Y-113675863D01*
X166064061Y-113673942D01*
X166067381Y-113672566D01*
X166070965Y-113672312D01*
X166089273Y-113665306D01*
X166184511Y-113617687D01*
X166192907Y-113612401D01*
X166195347Y-113611391D01*
X166198093Y-113609137D01*
X166201101Y-113607244D01*
X166202830Y-113605249D01*
X166210501Y-113598955D01*
X166258119Y-113551336D01*
X166264411Y-113543669D01*
X166266409Y-113541937D01*
X166268302Y-113538928D01*
X166270556Y-113536183D01*
X166271566Y-113533742D01*
X166276852Y-113525346D01*
X166324471Y-113430109D01*
X166331477Y-113411800D01*
X166331731Y-113408216D01*
X166333107Y-113404896D01*
X166335028Y-113385387D01*
X166335028Y-113147292D01*
X166333107Y-113127783D01*
X166331731Y-113124462D01*
X166331707Y-113124125D01*
X166515980Y-113142553D01*
X166515980Y-113528244D01*
X166517901Y-113547753D01*
X166532833Y-113583801D01*
X166560423Y-113611391D01*
X166596471Y-113626323D01*
X166635489Y-113626323D01*
X166671537Y-113611391D01*
X166699127Y-113583801D01*
X166714059Y-113547753D01*
X166715980Y-113528244D01*
X166715980Y-113052054D01*
X166715269Y-113044837D01*
X166715513Y-113042401D01*
X166714795Y-113040022D01*
X166714059Y-113032545D01*
X166708462Y-113019035D01*
X166704242Y-113005046D01*
X166701054Y-113001149D01*
X166699127Y-112996497D01*
X166688790Y-112986160D01*
X166679535Y-112974848D01*
X166675097Y-112972467D01*
X166671537Y-112968907D01*
X166658031Y-112963312D01*
X166645151Y-112956403D01*
X166637786Y-112954926D01*
X166635489Y-112953975D01*
X166633039Y-112953975D01*
X166625930Y-112952550D01*
X166149740Y-112904931D01*
X166130137Y-112904902D01*
X166125318Y-112906356D01*
X166120281Y-112906356D01*
X166106771Y-112911952D01*
X166092782Y-112916173D01*
X166088885Y-112919360D01*
X166084233Y-112921288D01*
X166073896Y-112931624D01*
X166062584Y-112940880D01*
X166060203Y-112945317D01*
X166056643Y-112948878D01*
X166051048Y-112962383D01*
X166044139Y-112975264D01*
X166043638Y-112980273D01*
X166041711Y-112984926D01*
X166041711Y-112999546D01*
X166040257Y-113014088D01*
X166041711Y-113018906D01*
X166041711Y-113023944D01*
X166047307Y-113037453D01*
X166051528Y-113051443D01*
X166054715Y-113055339D01*
X166056643Y-113059992D01*
X166069079Y-113075146D01*
X166105223Y-113111289D01*
X166135028Y-113170899D01*
X166135028Y-113361780D01*
X166105223Y-113421389D01*
X166080554Y-113446057D01*
X166020945Y-113475863D01*
X165830064Y-113475863D01*
X165770454Y-113446058D01*
X165745783Y-113421387D01*
X165715980Y-113361780D01*
X165715980Y-113170898D01*
X165745783Y-113111291D01*
X165781929Y-113075146D01*
X165794366Y-113059993D01*
X165809297Y-113023944D01*
X165809297Y-112984926D01*
X165794366Y-112948878D01*
X165766776Y-112921288D01*
X165730728Y-112906357D01*
X165691710Y-112906357D01*
X165655661Y-112921288D01*
X165640508Y-112933725D01*
X165592889Y-112981343D01*
X165586597Y-112989009D01*
X165584601Y-112990741D01*
X165582706Y-112993751D01*
X165580453Y-112996497D01*
X165579442Y-112998936D01*
X165574158Y-113007332D01*
X165526538Y-113102570D01*
X165519531Y-113120878D01*
X165519276Y-113124463D01*
X165517901Y-113127783D01*
X165515980Y-113147292D01*
X165404869Y-113147292D01*
X165404869Y-112004435D01*
X165515980Y-112004435D01*
X165515980Y-112623482D01*
X165517901Y-112642991D01*
X165532833Y-112679039D01*
X165560423Y-112706629D01*
X165596471Y-112721561D01*
X165635489Y-112721561D01*
X165671537Y-112706629D01*
X165699127Y-112679039D01*
X165714059Y-112642991D01*
X165715980Y-112623482D01*
X165715980Y-112245856D01*
X166116698Y-112646574D01*
X166131852Y-112659010D01*
X166135170Y-112660384D01*
X166137886Y-112662740D01*
X166155786Y-112670731D01*
X166298643Y-112718350D01*
X166308315Y-112720549D01*
X166310757Y-112721561D01*
X166314294Y-112721909D01*
X166317758Y-112722697D01*
X166320392Y-112722509D01*
X166330266Y-112723482D01*
X166425504Y-112723482D01*
X166445013Y-112721561D01*
X166448333Y-112720185D01*
X166451917Y-112719931D01*
X166470225Y-112712925D01*
X166565463Y-112665306D01*
X166573859Y-112660020D01*
X166576299Y-112659010D01*
X166579045Y-112656756D01*
X166582053Y-112654863D01*
X166583782Y-112652868D01*
X166591453Y-112646574D01*
X166639071Y-112598955D01*
X166645363Y-112591288D01*
X166647361Y-112589556D01*
X166649254Y-112586547D01*
X166651508Y-112583802D01*
X166652518Y-112581361D01*
X166657804Y-112572965D01*
X166705423Y-112477728D01*
X166712429Y-112459419D01*
X166712683Y-112455835D01*
X166714059Y-112452515D01*
X166715980Y-112433006D01*
X166715980Y-112194911D01*
X166714059Y-112175402D01*
X166712683Y-112172081D01*
X166712429Y-112168498D01*
X166705423Y-112150189D01*
X166657804Y-112054952D01*
X166652518Y-112046555D01*
X166651508Y-112044115D01*
X166649254Y-112041369D01*
X166647361Y-112038361D01*
X166645363Y-112036628D01*
X166639071Y-112028962D01*
X166591453Y-111981343D01*
X166576299Y-111968907D01*
X166540251Y-111953975D01*
X166501233Y-111953975D01*
X166465185Y-111968907D01*
X166437595Y-111996497D01*
X166422663Y-112032545D01*
X166422663Y-112071563D01*
X166437595Y-112107611D01*
X166450031Y-112122765D01*
X166486175Y-112158908D01*
X166515980Y-112218518D01*
X166515980Y-112409399D01*
X166486175Y-112469008D01*
X166461506Y-112493676D01*
X166401897Y-112523482D01*
X166346492Y-112523482D01*
X166241428Y-112488460D01*
X165686691Y-111933724D01*
X165671537Y-111921288D01*
X165635489Y-111906356D01*
X165596471Y-111906356D01*
X165560423Y-111921288D01*
X165532833Y-111948878D01*
X165517901Y-111984926D01*
X165515980Y-112004435D01*
X165404869Y-112004435D01*
X165404869Y-111795245D01*
X166827091Y-111795245D01*
X166827091Y-115453345D01*
G37*
G36*
X156768691Y-90839262D02*
G01*
X155346469Y-90839262D01*
X155346469Y-90344358D01*
X155457580Y-90344358D01*
X155457580Y-90439596D01*
X155458552Y-90449469D01*
X155458365Y-90452104D01*
X155459152Y-90455567D01*
X155459501Y-90459105D01*
X155460512Y-90461546D01*
X155462712Y-90471219D01*
X155510332Y-90614077D01*
X155518324Y-90631977D01*
X155520678Y-90634691D01*
X155522053Y-90638010D01*
X155534489Y-90653164D01*
X155582108Y-90700782D01*
X155597261Y-90713219D01*
X155633310Y-90728150D01*
X155672328Y-90728150D01*
X155708376Y-90713219D01*
X155735966Y-90685629D01*
X155750897Y-90649581D01*
X155750897Y-90610563D01*
X155735966Y-90574514D01*
X155723529Y-90559361D01*
X155692602Y-90528433D01*
X155657580Y-90423368D01*
X155657580Y-90360585D01*
X155692602Y-90255520D01*
X155759675Y-90188448D01*
X155830580Y-90152995D01*
X155998461Y-90111025D01*
X156116699Y-90111025D01*
X156284580Y-90152995D01*
X156355486Y-90188448D01*
X156422558Y-90255520D01*
X156457580Y-90360584D01*
X156457580Y-90423369D01*
X156422558Y-90528434D01*
X156391631Y-90559361D01*
X156379195Y-90574515D01*
X156364263Y-90610563D01*
X156364263Y-90649581D01*
X156379195Y-90685629D01*
X156406785Y-90713219D01*
X156442833Y-90728151D01*
X156481851Y-90728151D01*
X156517899Y-90713219D01*
X156533053Y-90700783D01*
X156580671Y-90653164D01*
X156593108Y-90638011D01*
X156594482Y-90634691D01*
X156596838Y-90631976D01*
X156604829Y-90614076D01*
X156652448Y-90471219D01*
X156654647Y-90461546D01*
X156655659Y-90459105D01*
X156656007Y-90455567D01*
X156656795Y-90452104D01*
X156656607Y-90449469D01*
X156657580Y-90439596D01*
X156657580Y-90344358D01*
X156656607Y-90334484D01*
X156656795Y-90331850D01*
X156656007Y-90328386D01*
X156655659Y-90324849D01*
X156654647Y-90322407D01*
X156652448Y-90312735D01*
X156604829Y-90169878D01*
X156596838Y-90151978D01*
X156594482Y-90149262D01*
X156593108Y-90145944D01*
X156580672Y-90130790D01*
X156485434Y-90035552D01*
X156477763Y-90029257D01*
X156476034Y-90027263D01*
X156473026Y-90025369D01*
X156470280Y-90023116D01*
X156467840Y-90022105D01*
X156459444Y-90016820D01*
X156364206Y-89969201D01*
X156362779Y-89968655D01*
X156362199Y-89968225D01*
X156354022Y-89965303D01*
X156345898Y-89962195D01*
X156345175Y-89962143D01*
X156343738Y-89961630D01*
X156153263Y-89914011D01*
X156149881Y-89913510D01*
X156148518Y-89912946D01*
X156141167Y-89912222D01*
X156133870Y-89911143D01*
X156132411Y-89911360D01*
X156129009Y-89911025D01*
X155986152Y-89911025D01*
X155982749Y-89911360D01*
X155981291Y-89911143D01*
X155973993Y-89912222D01*
X155966643Y-89912946D01*
X155965279Y-89913510D01*
X155961898Y-89914011D01*
X155771422Y-89961630D01*
X155769983Y-89962143D01*
X155769263Y-89962195D01*
X155761138Y-89965303D01*
X155752962Y-89968225D01*
X155752382Y-89968654D01*
X155750954Y-89969201D01*
X155655717Y-90016820D01*
X155647318Y-90022106D01*
X155644881Y-90023116D01*
X155642137Y-90025367D01*
X155639126Y-90027263D01*
X155637393Y-90029260D01*
X155629727Y-90035552D01*
X155534489Y-90130790D01*
X155522053Y-90145944D01*
X155520678Y-90149262D01*
X155518324Y-90151977D01*
X155510332Y-90169877D01*
X155462712Y-90312735D01*
X155460512Y-90322407D01*
X155459501Y-90324849D01*
X155459152Y-90328386D01*
X155458365Y-90331850D01*
X155458552Y-90334484D01*
X155457580Y-90344358D01*
X155346469Y-90344358D01*
X155346469Y-89011025D01*
X155457580Y-89011025D01*
X155457580Y-89630072D01*
X155459501Y-89649581D01*
X155474433Y-89685629D01*
X155502023Y-89713219D01*
X155538071Y-89728151D01*
X155577089Y-89728151D01*
X155613137Y-89713219D01*
X155640727Y-89685629D01*
X155655659Y-89649581D01*
X155657580Y-89630072D01*
X155657580Y-89252446D01*
X156058298Y-89653164D01*
X156073452Y-89665600D01*
X156076770Y-89666974D01*
X156079486Y-89669330D01*
X156097386Y-89677321D01*
X156240243Y-89724940D01*
X156249915Y-89727139D01*
X156252357Y-89728151D01*
X156255894Y-89728499D01*
X156259358Y-89729287D01*
X156261992Y-89729099D01*
X156271866Y-89730072D01*
X156367104Y-89730072D01*
X156386613Y-89728151D01*
X156389933Y-89726775D01*
X156393517Y-89726521D01*
X156411825Y-89719515D01*
X156507063Y-89671896D01*
X156515459Y-89666610D01*
X156517899Y-89665600D01*
X156520645Y-89663346D01*
X156523653Y-89661453D01*
X156525382Y-89659458D01*
X156533053Y-89653164D01*
X156580671Y-89605545D01*
X156586963Y-89597878D01*
X156588961Y-89596146D01*
X156590854Y-89593137D01*
X156593108Y-89590392D01*
X156594118Y-89587951D01*
X156599404Y-89579555D01*
X156647023Y-89484318D01*
X156654029Y-89466009D01*
X156654283Y-89462425D01*
X156655659Y-89459105D01*
X156657580Y-89439596D01*
X156657580Y-89201501D01*
X156655659Y-89181992D01*
X156654283Y-89178671D01*
X156654029Y-89175088D01*
X156647023Y-89156779D01*
X156599404Y-89061542D01*
X156594118Y-89053145D01*
X156593108Y-89050705D01*
X156590854Y-89047959D01*
X156588961Y-89044951D01*
X156586963Y-89043218D01*
X156580671Y-89035552D01*
X156533053Y-88987933D01*
X156517899Y-88975497D01*
X156481851Y-88960565D01*
X156442833Y-88960565D01*
X156406785Y-88975497D01*
X156379195Y-89003087D01*
X156364263Y-89039135D01*
X156364263Y-89078153D01*
X156379195Y-89114201D01*
X156391631Y-89129355D01*
X156427775Y-89165498D01*
X156457580Y-89225108D01*
X156457580Y-89415989D01*
X156427775Y-89475598D01*
X156403106Y-89500266D01*
X156343497Y-89530072D01*
X156288092Y-89530072D01*
X156183028Y-89495050D01*
X155628291Y-88940314D01*
X155613137Y-88927878D01*
X155577089Y-88912946D01*
X155538071Y-88912946D01*
X155502023Y-88927878D01*
X155474433Y-88955468D01*
X155459501Y-88991516D01*
X155457580Y-89011025D01*
X155346469Y-89011025D01*
X155346469Y-88610564D01*
X155459501Y-88610564D01*
X155459501Y-88649582D01*
X155474433Y-88685630D01*
X155502023Y-88713220D01*
X155538071Y-88728152D01*
X155557580Y-88730073D01*
X156557580Y-88730073D01*
X156577089Y-88728152D01*
X156613137Y-88713220D01*
X156640727Y-88685630D01*
X156655659Y-88649582D01*
X156655659Y-88610564D01*
X156640727Y-88574516D01*
X156613137Y-88546926D01*
X156577089Y-88531994D01*
X156557580Y-88530073D01*
X155557580Y-88530073D01*
X155538071Y-88531994D01*
X155502023Y-88546926D01*
X155474433Y-88574516D01*
X155459501Y-88610564D01*
X155346469Y-88610564D01*
X155346469Y-88418962D01*
X156768691Y-88418962D01*
X156768691Y-90839262D01*
G37*
G36*
X166617580Y-89939799D02*
G01*
X166587775Y-89999408D01*
X166563106Y-90024076D01*
X166503497Y-90053882D01*
X166407854Y-90053882D01*
X166348244Y-90024077D01*
X166323576Y-89999408D01*
X166293771Y-89939798D01*
X166293771Y-89682454D01*
X166617580Y-89682454D01*
X166617580Y-89939799D01*
G37*
G36*
X166928691Y-90793565D02*
G01*
X165506469Y-90793565D01*
X165506469Y-90562945D01*
X165619501Y-90562945D01*
X165619501Y-90601963D01*
X165634433Y-90638011D01*
X165662023Y-90665601D01*
X165698071Y-90680533D01*
X165717580Y-90682454D01*
X166717580Y-90682454D01*
X166737089Y-90680533D01*
X166773137Y-90665601D01*
X166800727Y-90638011D01*
X166815659Y-90601963D01*
X166815659Y-90562945D01*
X166800727Y-90526897D01*
X166773137Y-90499307D01*
X166737089Y-90484375D01*
X166717580Y-90482454D01*
X165717580Y-90482454D01*
X165698071Y-90484375D01*
X165662023Y-90499307D01*
X165634433Y-90526897D01*
X165619501Y-90562945D01*
X165506469Y-90562945D01*
X165506469Y-89562945D01*
X165619501Y-89562945D01*
X165619501Y-89601963D01*
X165634433Y-89638011D01*
X165662023Y-89665601D01*
X165698071Y-89680533D01*
X165717580Y-89682454D01*
X166093771Y-89682454D01*
X166093771Y-89963406D01*
X166095692Y-89982915D01*
X166097067Y-89986235D01*
X166097322Y-89989819D01*
X166104328Y-90008127D01*
X166151947Y-90103365D01*
X166157232Y-90111761D01*
X166158243Y-90114201D01*
X166160496Y-90116947D01*
X166162390Y-90119955D01*
X166164384Y-90121684D01*
X166170679Y-90129355D01*
X166218298Y-90176973D01*
X166225964Y-90183265D01*
X166227697Y-90185263D01*
X166230705Y-90187156D01*
X166233451Y-90189410D01*
X166235891Y-90190420D01*
X166244288Y-90195706D01*
X166339525Y-90243325D01*
X166357834Y-90250331D01*
X166361417Y-90250585D01*
X166364738Y-90251961D01*
X166384247Y-90253882D01*
X166527104Y-90253882D01*
X166546613Y-90251961D01*
X166549933Y-90250585D01*
X166553517Y-90250331D01*
X166571825Y-90243325D01*
X166667063Y-90195706D01*
X166675459Y-90190420D01*
X166677899Y-90189410D01*
X166680645Y-90187156D01*
X166683653Y-90185263D01*
X166685382Y-90183268D01*
X166693053Y-90176974D01*
X166740671Y-90129355D01*
X166746963Y-90121688D01*
X166748961Y-90119956D01*
X166750854Y-90116947D01*
X166753108Y-90114202D01*
X166754118Y-90111761D01*
X166759404Y-90103365D01*
X166807023Y-90008128D01*
X166814029Y-89989819D01*
X166814283Y-89986235D01*
X166815659Y-89982915D01*
X166817580Y-89963406D01*
X166817580Y-89582454D01*
X166815659Y-89562945D01*
X166800727Y-89526897D01*
X166773137Y-89499307D01*
X166737089Y-89484375D01*
X166717580Y-89482454D01*
X165717580Y-89482454D01*
X165698071Y-89484375D01*
X165662023Y-89499307D01*
X165634433Y-89526897D01*
X165619501Y-89562945D01*
X165506469Y-89562945D01*
X165506469Y-88725311D01*
X165617580Y-88725311D01*
X165617580Y-88963406D01*
X165619501Y-88982915D01*
X165620876Y-88986234D01*
X165621131Y-88989820D01*
X165628138Y-89008128D01*
X165675758Y-89103366D01*
X165681042Y-89111761D01*
X165682053Y-89114201D01*
X165684306Y-89116946D01*
X165686201Y-89119957D01*
X165688197Y-89121688D01*
X165694489Y-89129355D01*
X165742108Y-89176973D01*
X165749774Y-89183265D01*
X165751507Y-89185263D01*
X165754515Y-89187156D01*
X165757261Y-89189410D01*
X165759701Y-89190420D01*
X165768098Y-89195706D01*
X165863335Y-89243325D01*
X165881644Y-89250331D01*
X165885227Y-89250585D01*
X165888548Y-89251961D01*
X165908057Y-89253882D01*
X166003295Y-89253882D01*
X166022804Y-89251961D01*
X166026124Y-89250585D01*
X166029708Y-89250331D01*
X166048016Y-89243325D01*
X166143254Y-89195706D01*
X166151650Y-89190420D01*
X166154090Y-89189410D01*
X166156836Y-89187156D01*
X166159844Y-89185263D01*
X166161573Y-89183268D01*
X166169244Y-89176974D01*
X166216862Y-89129355D01*
X166223154Y-89121688D01*
X166225152Y-89119956D01*
X166227045Y-89116947D01*
X166229299Y-89114202D01*
X166230309Y-89111761D01*
X166235595Y-89103365D01*
X166283214Y-89008128D01*
X166283760Y-89006699D01*
X166284190Y-89006120D01*
X166287111Y-88997943D01*
X166290220Y-88989819D01*
X166290271Y-88989098D01*
X166290785Y-88987660D01*
X166335741Y-88807834D01*
X166371195Y-88736927D01*
X166395863Y-88712258D01*
X166455473Y-88682454D01*
X166503497Y-88682454D01*
X166563106Y-88712259D01*
X166587775Y-88736927D01*
X166617580Y-88796537D01*
X166617580Y-88994798D01*
X166575093Y-89122259D01*
X166570746Y-89141375D01*
X166573512Y-89180295D01*
X166590962Y-89215194D01*
X166620438Y-89240759D01*
X166657454Y-89253097D01*
X166696374Y-89250331D01*
X166731273Y-89232881D01*
X166756838Y-89203405D01*
X166764829Y-89185505D01*
X166812448Y-89042648D01*
X166814647Y-89032975D01*
X166815659Y-89030534D01*
X166816007Y-89026996D01*
X166816795Y-89023533D01*
X166816607Y-89020898D01*
X166817580Y-89011025D01*
X166817580Y-88772930D01*
X166815659Y-88753421D01*
X166814283Y-88750100D01*
X166814029Y-88746517D01*
X166807023Y-88728208D01*
X166759404Y-88632971D01*
X166754118Y-88624574D01*
X166753108Y-88622134D01*
X166750854Y-88619388D01*
X166748961Y-88616380D01*
X166746963Y-88614647D01*
X166740671Y-88606981D01*
X166693053Y-88559362D01*
X166685382Y-88553067D01*
X166683653Y-88551073D01*
X166680645Y-88549179D01*
X166677899Y-88546926D01*
X166675459Y-88545915D01*
X166667063Y-88540630D01*
X166571825Y-88493011D01*
X166553517Y-88486005D01*
X166549933Y-88485750D01*
X166546613Y-88484375D01*
X166527104Y-88482454D01*
X166431866Y-88482454D01*
X166412357Y-88484375D01*
X166409036Y-88485750D01*
X166405453Y-88486005D01*
X166387144Y-88493011D01*
X166291907Y-88540630D01*
X166283510Y-88545915D01*
X166281070Y-88546926D01*
X166278324Y-88549179D01*
X166275316Y-88551073D01*
X166273583Y-88553070D01*
X166265917Y-88559363D01*
X166218298Y-88606981D01*
X166212003Y-88614651D01*
X166210009Y-88616381D01*
X166208115Y-88619388D01*
X166205862Y-88622135D01*
X166204851Y-88624574D01*
X166199566Y-88632971D01*
X166151947Y-88728209D01*
X166151401Y-88729635D01*
X166150971Y-88730216D01*
X166148049Y-88738392D01*
X166144941Y-88746517D01*
X166144889Y-88747239D01*
X166144376Y-88748677D01*
X166099419Y-88928501D01*
X166063966Y-88999408D01*
X166039297Y-89024076D01*
X165979688Y-89053882D01*
X165931664Y-89053882D01*
X165872054Y-89024077D01*
X165847383Y-88999406D01*
X165817580Y-88939799D01*
X165817580Y-88741538D01*
X165860068Y-88614077D01*
X165864415Y-88594962D01*
X165861649Y-88556042D01*
X165844200Y-88521143D01*
X165814724Y-88495578D01*
X165777708Y-88483239D01*
X165738788Y-88486005D01*
X165703889Y-88503454D01*
X165678324Y-88532930D01*
X165670332Y-88550830D01*
X165622712Y-88693688D01*
X165620512Y-88703360D01*
X165619501Y-88705802D01*
X165619152Y-88709339D01*
X165618365Y-88712803D01*
X165618552Y-88715437D01*
X165617580Y-88725311D01*
X165506469Y-88725311D01*
X165506469Y-88371343D01*
X166928691Y-88371343D01*
X166928691Y-90793565D01*
G37*
G36*
X154173926Y-115453345D02*
G01*
X152704869Y-115453345D01*
X152704869Y-114711037D01*
X152816276Y-114711037D01*
X152820925Y-114749777D01*
X152840044Y-114783789D01*
X152854198Y-114797353D01*
X153087454Y-114980625D01*
X152854198Y-115163898D01*
X152840044Y-115177462D01*
X152820925Y-115211474D01*
X152816276Y-115250214D01*
X152826806Y-115287785D01*
X152850912Y-115318466D01*
X152884924Y-115337585D01*
X152923664Y-115342234D01*
X152961235Y-115331704D01*
X152977762Y-115321162D01*
X153249313Y-115107800D01*
X153520865Y-115321162D01*
X153537392Y-115331704D01*
X153574963Y-115342234D01*
X153613703Y-115337585D01*
X153647715Y-115318466D01*
X153671821Y-115287785D01*
X153682351Y-115250214D01*
X153677702Y-115211474D01*
X153658583Y-115177462D01*
X153644429Y-115163898D01*
X153411172Y-114980625D01*
X153644429Y-114797353D01*
X153658583Y-114783789D01*
X153677702Y-114749777D01*
X153682351Y-114711037D01*
X153671821Y-114673466D01*
X153647715Y-114642785D01*
X153613703Y-114623666D01*
X153574963Y-114619017D01*
X153537392Y-114629547D01*
X153520865Y-114640089D01*
X153249313Y-114853450D01*
X152977762Y-114640089D01*
X152961235Y-114629547D01*
X152923664Y-114619017D01*
X152884924Y-114623666D01*
X152850912Y-114642785D01*
X152826806Y-114673466D01*
X152816276Y-114711037D01*
X152704869Y-114711037D01*
X152704869Y-113901513D01*
X152816276Y-113901513D01*
X152820925Y-113940253D01*
X152840044Y-113974265D01*
X152854198Y-113987829D01*
X153087454Y-114171101D01*
X152854198Y-114354374D01*
X152840044Y-114367938D01*
X152820925Y-114401950D01*
X152816276Y-114440690D01*
X152826806Y-114478261D01*
X152850912Y-114508942D01*
X152884924Y-114528061D01*
X152923664Y-114532710D01*
X152961235Y-114522180D01*
X152977762Y-114511638D01*
X153249313Y-114298276D01*
X153520865Y-114511638D01*
X153537392Y-114522180D01*
X153574963Y-114532710D01*
X153613703Y-114528061D01*
X153647715Y-114508942D01*
X153671821Y-114478261D01*
X153682351Y-114440690D01*
X153677702Y-114401950D01*
X153658583Y-114367938D01*
X153644429Y-114354374D01*
X153411172Y-114171101D01*
X153644429Y-113987829D01*
X153658583Y-113974265D01*
X153677702Y-113940253D01*
X153682351Y-113901513D01*
X153671821Y-113863942D01*
X153647715Y-113833261D01*
X153613703Y-113814142D01*
X153574963Y-113809493D01*
X153537392Y-113820023D01*
X153520865Y-113830565D01*
X153249313Y-114043926D01*
X152977762Y-113830565D01*
X152961235Y-113820023D01*
X152923664Y-113809493D01*
X152884924Y-113814142D01*
X152850912Y-113833261D01*
X152826806Y-113863942D01*
X152816276Y-113901513D01*
X152704869Y-113901513D01*
X152704869Y-113461116D01*
X152817901Y-113461116D01*
X152817901Y-113500134D01*
X152832833Y-113536182D01*
X152860423Y-113563772D01*
X152896471Y-113578704D01*
X152915980Y-113580625D01*
X153149314Y-113580625D01*
X153149314Y-113623482D01*
X153151235Y-113642991D01*
X153166167Y-113679039D01*
X153193757Y-113706629D01*
X153229805Y-113721561D01*
X153268823Y-113721561D01*
X153304871Y-113706629D01*
X153332461Y-113679039D01*
X153347393Y-113642991D01*
X153349314Y-113623482D01*
X153349314Y-113580625D01*
X153582647Y-113580625D01*
X153602156Y-113578704D01*
X153638204Y-113563772D01*
X153665794Y-113536182D01*
X153680726Y-113500134D01*
X153680726Y-113461116D01*
X153665794Y-113425068D01*
X153638204Y-113397478D01*
X153602156Y-113382546D01*
X153582647Y-113380625D01*
X153349314Y-113380625D01*
X153349314Y-113143177D01*
X153931977Y-113337398D01*
X153951092Y-113341745D01*
X153990012Y-113338979D01*
X154024911Y-113321529D01*
X154050476Y-113292053D01*
X154062815Y-113255037D01*
X154060048Y-113216117D01*
X154042599Y-113181218D01*
X154013123Y-113155653D01*
X153995222Y-113147662D01*
X153280937Y-112909567D01*
X153271265Y-112907367D01*
X153268823Y-112906356D01*
X153266817Y-112906356D01*
X153261821Y-112905220D01*
X153245837Y-112906356D01*
X153229805Y-112906356D01*
X153226484Y-112907731D01*
X153222901Y-112907986D01*
X153208565Y-112915153D01*
X153193757Y-112921288D01*
X153191216Y-112923828D01*
X153188002Y-112925436D01*
X153177497Y-112937547D01*
X153166167Y-112948878D01*
X153164792Y-112952196D01*
X153162437Y-112954912D01*
X153157367Y-112970121D01*
X153151235Y-112984926D01*
X153150732Y-112990026D01*
X153150099Y-112991928D01*
X153150286Y-112994561D01*
X153149314Y-113004435D01*
X153149314Y-113380625D01*
X152915980Y-113380625D01*
X152896471Y-113382546D01*
X152860423Y-113397478D01*
X152832833Y-113425068D01*
X152817901Y-113461116D01*
X152704869Y-113461116D01*
X152704869Y-112004435D01*
X152815980Y-112004435D01*
X152815980Y-112623482D01*
X152817901Y-112642991D01*
X152832833Y-112679039D01*
X152860423Y-112706629D01*
X152896471Y-112721561D01*
X152935489Y-112721561D01*
X152971537Y-112706629D01*
X152999127Y-112679039D01*
X153014059Y-112642991D01*
X153015980Y-112623482D01*
X153015980Y-112245856D01*
X153416698Y-112646574D01*
X153431852Y-112659010D01*
X153435170Y-112660384D01*
X153437886Y-112662740D01*
X153455786Y-112670731D01*
X153598643Y-112718350D01*
X153608315Y-112720549D01*
X153610757Y-112721561D01*
X153614294Y-112721909D01*
X153617758Y-112722697D01*
X153620392Y-112722509D01*
X153630266Y-112723482D01*
X153725504Y-112723482D01*
X153745013Y-112721561D01*
X153748333Y-112720185D01*
X153751917Y-112719931D01*
X153770225Y-112712925D01*
X153865463Y-112665306D01*
X153873859Y-112660020D01*
X153876299Y-112659010D01*
X153879045Y-112656756D01*
X153882053Y-112654863D01*
X153883782Y-112652868D01*
X153891453Y-112646574D01*
X153939071Y-112598955D01*
X153945363Y-112591288D01*
X153947361Y-112589556D01*
X153949254Y-112586547D01*
X153951508Y-112583802D01*
X153952518Y-112581361D01*
X153957804Y-112572965D01*
X154005423Y-112477728D01*
X154012429Y-112459419D01*
X154012683Y-112455835D01*
X154014059Y-112452515D01*
X154015980Y-112433006D01*
X154015980Y-112194911D01*
X154014059Y-112175402D01*
X154012683Y-112172081D01*
X154012429Y-112168498D01*
X154005423Y-112150189D01*
X153957804Y-112054952D01*
X153952518Y-112046555D01*
X153951508Y-112044115D01*
X153949254Y-112041369D01*
X153947361Y-112038361D01*
X153945363Y-112036628D01*
X153939071Y-112028962D01*
X153891453Y-111981343D01*
X153876299Y-111968907D01*
X153840251Y-111953975D01*
X153801233Y-111953975D01*
X153765185Y-111968907D01*
X153737595Y-111996497D01*
X153722663Y-112032545D01*
X153722663Y-112071563D01*
X153737595Y-112107611D01*
X153750031Y-112122765D01*
X153786175Y-112158908D01*
X153815980Y-112218518D01*
X153815980Y-112409399D01*
X153786175Y-112469008D01*
X153761506Y-112493676D01*
X153701897Y-112523482D01*
X153646492Y-112523482D01*
X153541428Y-112488460D01*
X152986691Y-111933724D01*
X152971537Y-111921288D01*
X152935489Y-111906356D01*
X152896471Y-111906356D01*
X152860423Y-111921288D01*
X152832833Y-111948878D01*
X152817901Y-111984926D01*
X152815980Y-112004435D01*
X152704869Y-112004435D01*
X152704869Y-111795245D01*
X154173926Y-111795245D01*
X154173926Y-115453345D01*
G37*
D10*
X170814819Y-113166666D02*
X170338628Y-113499999D01*
X170814819Y-113738094D02*
X169814819Y-113738094D01*
X169814819Y-113738094D02*
X169814819Y-113357142D01*
X169814819Y-113357142D02*
X169862438Y-113261904D01*
X169862438Y-113261904D02*
X169910057Y-113214285D01*
X169910057Y-113214285D02*
X170005295Y-113166666D01*
X170005295Y-113166666D02*
X170148152Y-113166666D01*
X170148152Y-113166666D02*
X170243390Y-113214285D01*
X170243390Y-113214285D02*
X170291009Y-113261904D01*
X170291009Y-113261904D02*
X170338628Y-113357142D01*
X170338628Y-113357142D02*
X170338628Y-113738094D01*
X169814819Y-112833332D02*
X169814819Y-112166666D01*
X169814819Y-112166666D02*
X170814819Y-112595237D01*
X152114057Y-86120438D02*
X152066438Y-86215676D01*
X152066438Y-86215676D02*
X151971200Y-86310914D01*
X151971200Y-86310914D02*
X151828342Y-86453771D01*
X151828342Y-86453771D02*
X151780723Y-86549009D01*
X151780723Y-86549009D02*
X151780723Y-86644247D01*
X152018819Y-86596628D02*
X151971200Y-86691866D01*
X151971200Y-86691866D02*
X151875961Y-86787104D01*
X151875961Y-86787104D02*
X151685485Y-86834723D01*
X151685485Y-86834723D02*
X151352152Y-86834723D01*
X151352152Y-86834723D02*
X151161676Y-86787104D01*
X151161676Y-86787104D02*
X151066438Y-86691866D01*
X151066438Y-86691866D02*
X151018819Y-86596628D01*
X151018819Y-86596628D02*
X151018819Y-86406152D01*
X151018819Y-86406152D02*
X151066438Y-86310914D01*
X151066438Y-86310914D02*
X151161676Y-86215676D01*
X151161676Y-86215676D02*
X151352152Y-86168057D01*
X151352152Y-86168057D02*
X151685485Y-86168057D01*
X151685485Y-86168057D02*
X151875961Y-86215676D01*
X151875961Y-86215676D02*
X151971200Y-86310914D01*
X151971200Y-86310914D02*
X152018819Y-86406152D01*
X152018819Y-86406152D02*
X152018819Y-86596628D01*
X151352152Y-85310914D02*
X152018819Y-85310914D01*
X150971200Y-85549009D02*
X151685485Y-85787104D01*
X151685485Y-85787104D02*
X151685485Y-85168057D01*
X170052819Y-61096666D02*
X169576628Y-61429999D01*
X170052819Y-61668094D02*
X169052819Y-61668094D01*
X169052819Y-61668094D02*
X169052819Y-61287142D01*
X169052819Y-61287142D02*
X169100438Y-61191904D01*
X169100438Y-61191904D02*
X169148057Y-61144285D01*
X169148057Y-61144285D02*
X169243295Y-61096666D01*
X169243295Y-61096666D02*
X169386152Y-61096666D01*
X169386152Y-61096666D02*
X169481390Y-61144285D01*
X169481390Y-61144285D02*
X169529009Y-61191904D01*
X169529009Y-61191904D02*
X169576628Y-61287142D01*
X169576628Y-61287142D02*
X169576628Y-61668094D01*
X169386152Y-60239523D02*
X170052819Y-60239523D01*
X169005200Y-60477618D02*
X169719485Y-60715713D01*
X169719485Y-60715713D02*
X169719485Y-60096666D01*
X158114819Y-113642857D02*
X157638628Y-113976190D01*
X158114819Y-114214285D02*
X157114819Y-114214285D01*
X157114819Y-114214285D02*
X157114819Y-113833333D01*
X157114819Y-113833333D02*
X157162438Y-113738095D01*
X157162438Y-113738095D02*
X157210057Y-113690476D01*
X157210057Y-113690476D02*
X157305295Y-113642857D01*
X157305295Y-113642857D02*
X157448152Y-113642857D01*
X157448152Y-113642857D02*
X157543390Y-113690476D01*
X157543390Y-113690476D02*
X157591009Y-113738095D01*
X157591009Y-113738095D02*
X157638628Y-113833333D01*
X157638628Y-113833333D02*
X157638628Y-114214285D01*
X158114819Y-112690476D02*
X158114819Y-113261904D01*
X158114819Y-112976190D02*
X157114819Y-112976190D01*
X157114819Y-112976190D02*
X157257676Y-113071428D01*
X157257676Y-113071428D02*
X157352914Y-113166666D01*
X157352914Y-113166666D02*
X157400533Y-113261904D01*
X157210057Y-112309523D02*
X157162438Y-112261904D01*
X157162438Y-112261904D02*
X157114819Y-112166666D01*
X157114819Y-112166666D02*
X157114819Y-111928571D01*
X157114819Y-111928571D02*
X157162438Y-111833333D01*
X157162438Y-111833333D02*
X157210057Y-111785714D01*
X157210057Y-111785714D02*
X157305295Y-111738095D01*
X157305295Y-111738095D02*
X157400533Y-111738095D01*
X157400533Y-111738095D02*
X157543390Y-111785714D01*
X157543390Y-111785714D02*
X158114819Y-112357142D01*
X158114819Y-112357142D02*
X158114819Y-111738095D01*
X161089095Y-68385819D02*
X161089095Y-69195342D01*
X161089095Y-69195342D02*
X161136714Y-69290580D01*
X161136714Y-69290580D02*
X161184333Y-69338200D01*
X161184333Y-69338200D02*
X161279571Y-69385819D01*
X161279571Y-69385819D02*
X161470047Y-69385819D01*
X161470047Y-69385819D02*
X161565285Y-69338200D01*
X161565285Y-69338200D02*
X161612904Y-69290580D01*
X161612904Y-69290580D02*
X161660523Y-69195342D01*
X161660523Y-69195342D02*
X161660523Y-68385819D01*
X162041476Y-68385819D02*
X162660523Y-68385819D01*
X162660523Y-68385819D02*
X162327190Y-68766771D01*
X162327190Y-68766771D02*
X162470047Y-68766771D01*
X162470047Y-68766771D02*
X162565285Y-68814390D01*
X162565285Y-68814390D02*
X162612904Y-68862009D01*
X162612904Y-68862009D02*
X162660523Y-68957247D01*
X162660523Y-68957247D02*
X162660523Y-69195342D01*
X162660523Y-69195342D02*
X162612904Y-69290580D01*
X162612904Y-69290580D02*
X162565285Y-69338200D01*
X162565285Y-69338200D02*
X162470047Y-69385819D01*
X162470047Y-69385819D02*
X162184333Y-69385819D01*
X162184333Y-69385819D02*
X162089095Y-69338200D01*
X162089095Y-69338200D02*
X162041476Y-69290580D01*
X160756419Y-90916266D02*
X160280228Y-91249599D01*
X160756419Y-91487694D02*
X159756419Y-91487694D01*
X159756419Y-91487694D02*
X159756419Y-91106742D01*
X159756419Y-91106742D02*
X159804038Y-91011504D01*
X159804038Y-91011504D02*
X159851657Y-90963885D01*
X159851657Y-90963885D02*
X159946895Y-90916266D01*
X159946895Y-90916266D02*
X160089752Y-90916266D01*
X160089752Y-90916266D02*
X160184990Y-90963885D01*
X160184990Y-90963885D02*
X160232609Y-91011504D01*
X160232609Y-91011504D02*
X160280228Y-91106742D01*
X160280228Y-91106742D02*
X160280228Y-91487694D01*
X160756419Y-90440075D02*
X160756419Y-90249599D01*
X160756419Y-90249599D02*
X160708800Y-90154361D01*
X160708800Y-90154361D02*
X160661180Y-90106742D01*
X160661180Y-90106742D02*
X160518323Y-90011504D01*
X160518323Y-90011504D02*
X160327847Y-89963885D01*
X160327847Y-89963885D02*
X159946895Y-89963885D01*
X159946895Y-89963885D02*
X159851657Y-90011504D01*
X159851657Y-90011504D02*
X159804038Y-90059123D01*
X159804038Y-90059123D02*
X159756419Y-90154361D01*
X159756419Y-90154361D02*
X159756419Y-90344837D01*
X159756419Y-90344837D02*
X159804038Y-90440075D01*
X159804038Y-90440075D02*
X159851657Y-90487694D01*
X159851657Y-90487694D02*
X159946895Y-90535313D01*
X159946895Y-90535313D02*
X160184990Y-90535313D01*
X160184990Y-90535313D02*
X160280228Y-90487694D01*
X160280228Y-90487694D02*
X160327847Y-90440075D01*
X160327847Y-90440075D02*
X160375466Y-90344837D01*
X160375466Y-90344837D02*
X160375466Y-90154361D01*
X160375466Y-90154361D02*
X160327847Y-90059123D01*
X160327847Y-90059123D02*
X160280228Y-90011504D01*
X160280228Y-90011504D02*
X160184990Y-89963885D01*
X160654819Y-113642857D02*
X160178628Y-113976190D01*
X160654819Y-114214285D02*
X159654819Y-114214285D01*
X159654819Y-114214285D02*
X159654819Y-113833333D01*
X159654819Y-113833333D02*
X159702438Y-113738095D01*
X159702438Y-113738095D02*
X159750057Y-113690476D01*
X159750057Y-113690476D02*
X159845295Y-113642857D01*
X159845295Y-113642857D02*
X159988152Y-113642857D01*
X159988152Y-113642857D02*
X160083390Y-113690476D01*
X160083390Y-113690476D02*
X160131009Y-113738095D01*
X160131009Y-113738095D02*
X160178628Y-113833333D01*
X160178628Y-113833333D02*
X160178628Y-114214285D01*
X160654819Y-112690476D02*
X160654819Y-113261904D01*
X160654819Y-112976190D02*
X159654819Y-112976190D01*
X159654819Y-112976190D02*
X159797676Y-113071428D01*
X159797676Y-113071428D02*
X159892914Y-113166666D01*
X159892914Y-113166666D02*
X159940533Y-113261904D01*
X160654819Y-111738095D02*
X160654819Y-112309523D01*
X160654819Y-112023809D02*
X159654819Y-112023809D01*
X159654819Y-112023809D02*
X159797676Y-112119047D01*
X159797676Y-112119047D02*
X159892914Y-112214285D01*
X159892914Y-112214285D02*
X159940533Y-112309523D01*
X173050019Y-74104171D02*
X173050019Y-74580361D01*
X173050019Y-74580361D02*
X172050019Y-74580361D01*
X173050019Y-73770837D02*
X172050019Y-73770837D01*
X172050019Y-73770837D02*
X172764304Y-73437504D01*
X172764304Y-73437504D02*
X172050019Y-73104171D01*
X172050019Y-73104171D02*
X173050019Y-73104171D01*
X173050019Y-72104171D02*
X173050019Y-72675599D01*
X173050019Y-72389885D02*
X172050019Y-72389885D01*
X172050019Y-72389885D02*
X172192876Y-72485123D01*
X172192876Y-72485123D02*
X172288114Y-72580361D01*
X172288114Y-72580361D02*
X172335733Y-72675599D01*
X173050019Y-71151790D02*
X173050019Y-71723218D01*
X173050019Y-71437504D02*
X172050019Y-71437504D01*
X172050019Y-71437504D02*
X172192876Y-71532742D01*
X172192876Y-71532742D02*
X172288114Y-71627980D01*
X172288114Y-71627980D02*
X172335733Y-71723218D01*
X173050019Y-70199409D02*
X173050019Y-70770837D01*
X173050019Y-70485123D02*
X172050019Y-70485123D01*
X172050019Y-70485123D02*
X172192876Y-70580361D01*
X172192876Y-70580361D02*
X172288114Y-70675599D01*
X172288114Y-70675599D02*
X172335733Y-70770837D01*
X172050019Y-69866075D02*
X172050019Y-69199409D01*
X172050019Y-69199409D02*
X173050019Y-69627980D01*
X173145257Y-69056552D02*
X173145257Y-68294647D01*
X173050019Y-67532742D02*
X173050019Y-68104170D01*
X173050019Y-67818456D02*
X172050019Y-67818456D01*
X172050019Y-67818456D02*
X172192876Y-67913694D01*
X172192876Y-67913694D02*
X172288114Y-68008932D01*
X172288114Y-68008932D02*
X172335733Y-68104170D01*
X172050019Y-67247027D02*
X173050019Y-66913694D01*
X173050019Y-66913694D02*
X172050019Y-66580361D01*
X172478590Y-66104170D02*
X172430971Y-66199408D01*
X172430971Y-66199408D02*
X172383352Y-66247027D01*
X172383352Y-66247027D02*
X172288114Y-66294646D01*
X172288114Y-66294646D02*
X172240495Y-66294646D01*
X172240495Y-66294646D02*
X172145257Y-66247027D01*
X172145257Y-66247027D02*
X172097638Y-66199408D01*
X172097638Y-66199408D02*
X172050019Y-66104170D01*
X172050019Y-66104170D02*
X172050019Y-65913694D01*
X172050019Y-65913694D02*
X172097638Y-65818456D01*
X172097638Y-65818456D02*
X172145257Y-65770837D01*
X172145257Y-65770837D02*
X172240495Y-65723218D01*
X172240495Y-65723218D02*
X172288114Y-65723218D01*
X172288114Y-65723218D02*
X172383352Y-65770837D01*
X172383352Y-65770837D02*
X172430971Y-65818456D01*
X172430971Y-65818456D02*
X172478590Y-65913694D01*
X172478590Y-65913694D02*
X172478590Y-66104170D01*
X172478590Y-66104170D02*
X172526209Y-66199408D01*
X172526209Y-66199408D02*
X172573828Y-66247027D01*
X172573828Y-66247027D02*
X172669066Y-66294646D01*
X172669066Y-66294646D02*
X172859542Y-66294646D01*
X172859542Y-66294646D02*
X172954780Y-66247027D01*
X172954780Y-66247027D02*
X173002400Y-66199408D01*
X173002400Y-66199408D02*
X173050019Y-66104170D01*
X173050019Y-66104170D02*
X173050019Y-65913694D01*
X173050019Y-65913694D02*
X173002400Y-65818456D01*
X173002400Y-65818456D02*
X172954780Y-65770837D01*
X172954780Y-65770837D02*
X172859542Y-65723218D01*
X172859542Y-65723218D02*
X172669066Y-65723218D01*
X172669066Y-65723218D02*
X172573828Y-65770837D01*
X172573828Y-65770837D02*
X172526209Y-65818456D01*
X172526209Y-65818456D02*
X172478590Y-65913694D01*
X170814819Y-89798666D02*
X170338628Y-90131999D01*
X170814819Y-90370094D02*
X169814819Y-90370094D01*
X169814819Y-90370094D02*
X169814819Y-89989142D01*
X169814819Y-89989142D02*
X169862438Y-89893904D01*
X169862438Y-89893904D02*
X169910057Y-89846285D01*
X169910057Y-89846285D02*
X170005295Y-89798666D01*
X170005295Y-89798666D02*
X170148152Y-89798666D01*
X170148152Y-89798666D02*
X170243390Y-89846285D01*
X170243390Y-89846285D02*
X170291009Y-89893904D01*
X170291009Y-89893904D02*
X170338628Y-89989142D01*
X170338628Y-89989142D02*
X170338628Y-90370094D01*
X169814819Y-88941523D02*
X169814819Y-89131999D01*
X169814819Y-89131999D02*
X169862438Y-89227237D01*
X169862438Y-89227237D02*
X169910057Y-89274856D01*
X169910057Y-89274856D02*
X170052914Y-89370094D01*
X170052914Y-89370094D02*
X170243390Y-89417713D01*
X170243390Y-89417713D02*
X170624342Y-89417713D01*
X170624342Y-89417713D02*
X170719580Y-89370094D01*
X170719580Y-89370094D02*
X170767200Y-89322475D01*
X170767200Y-89322475D02*
X170814819Y-89227237D01*
X170814819Y-89227237D02*
X170814819Y-89036761D01*
X170814819Y-89036761D02*
X170767200Y-88941523D01*
X170767200Y-88941523D02*
X170719580Y-88893904D01*
X170719580Y-88893904D02*
X170624342Y-88846285D01*
X170624342Y-88846285D02*
X170386247Y-88846285D01*
X170386247Y-88846285D02*
X170291009Y-88893904D01*
X170291009Y-88893904D02*
X170243390Y-88941523D01*
X170243390Y-88941523D02*
X170195771Y-89036761D01*
X170195771Y-89036761D02*
X170195771Y-89227237D01*
X170195771Y-89227237D02*
X170243390Y-89322475D01*
X170243390Y-89322475D02*
X170291009Y-89370094D01*
X170291009Y-89370094D02*
X170386247Y-89417713D01*
X159035580Y-75320666D02*
X159083200Y-75368285D01*
X159083200Y-75368285D02*
X159130819Y-75511142D01*
X159130819Y-75511142D02*
X159130819Y-75606380D01*
X159130819Y-75606380D02*
X159083200Y-75749237D01*
X159083200Y-75749237D02*
X158987961Y-75844475D01*
X158987961Y-75844475D02*
X158892723Y-75892094D01*
X158892723Y-75892094D02*
X158702247Y-75939713D01*
X158702247Y-75939713D02*
X158559390Y-75939713D01*
X158559390Y-75939713D02*
X158368914Y-75892094D01*
X158368914Y-75892094D02*
X158273676Y-75844475D01*
X158273676Y-75844475D02*
X158178438Y-75749237D01*
X158178438Y-75749237D02*
X158130819Y-75606380D01*
X158130819Y-75606380D02*
X158130819Y-75511142D01*
X158130819Y-75511142D02*
X158178438Y-75368285D01*
X158178438Y-75368285D02*
X158226057Y-75320666D01*
X158464152Y-74463523D02*
X159130819Y-74463523D01*
X158083200Y-74701618D02*
X158797485Y-74939713D01*
X158797485Y-74939713D02*
X158797485Y-74320666D01*
D12*
G36*
X183999154Y-71305995D02*
G01*
X184023823Y-71330663D01*
X184053628Y-71390273D01*
X184053628Y-71647618D01*
X183729819Y-71647618D01*
X183729819Y-71390273D01*
X183759624Y-71330663D01*
X183784292Y-71305994D01*
X183843902Y-71276190D01*
X183939545Y-71276190D01*
X183999154Y-71305995D01*
G37*
G36*
X184840930Y-73387300D02*
G01*
X183418708Y-73387300D01*
X183418708Y-73156680D01*
X183531740Y-73156680D01*
X183531740Y-73195698D01*
X183546672Y-73231746D01*
X183574262Y-73259336D01*
X183610310Y-73274268D01*
X183629819Y-73276189D01*
X184629819Y-73276189D01*
X184649328Y-73274268D01*
X184685376Y-73259336D01*
X184712966Y-73231746D01*
X184727898Y-73195698D01*
X184727898Y-73156680D01*
X184712966Y-73120632D01*
X184685376Y-73093042D01*
X184649328Y-73078110D01*
X184629819Y-73076189D01*
X183629819Y-73076189D01*
X183610310Y-73078110D01*
X183574262Y-73093042D01*
X183546672Y-73120632D01*
X183531740Y-73156680D01*
X183418708Y-73156680D01*
X183418708Y-72319047D01*
X183529819Y-72319047D01*
X183529819Y-72557142D01*
X183531740Y-72576651D01*
X183533115Y-72579971D01*
X183533370Y-72583555D01*
X183540376Y-72601863D01*
X183587995Y-72697101D01*
X183593280Y-72705497D01*
X183594291Y-72707937D01*
X183596544Y-72710683D01*
X183598438Y-72713691D01*
X183600432Y-72715420D01*
X183606727Y-72723091D01*
X183654346Y-72770709D01*
X183662012Y-72777001D01*
X183663745Y-72778999D01*
X183666753Y-72780892D01*
X183669499Y-72783146D01*
X183671939Y-72784156D01*
X183680336Y-72789442D01*
X183775573Y-72837061D01*
X183793882Y-72844067D01*
X183797465Y-72844321D01*
X183800786Y-72845697D01*
X183820295Y-72847618D01*
X183915533Y-72847618D01*
X183935042Y-72845697D01*
X183938362Y-72844321D01*
X183941946Y-72844067D01*
X183960254Y-72837061D01*
X184055492Y-72789442D01*
X184063888Y-72784156D01*
X184066328Y-72783146D01*
X184069074Y-72780892D01*
X184072082Y-72778999D01*
X184073811Y-72777004D01*
X184081482Y-72770710D01*
X184129100Y-72723091D01*
X184135392Y-72715424D01*
X184137390Y-72713692D01*
X184139283Y-72710683D01*
X184141537Y-72707938D01*
X184142547Y-72705497D01*
X184147833Y-72697101D01*
X184195452Y-72601864D01*
X184195998Y-72600435D01*
X184196428Y-72599856D01*
X184199349Y-72591679D01*
X184202458Y-72583555D01*
X184202509Y-72582834D01*
X184203023Y-72581396D01*
X184247979Y-72401570D01*
X184283433Y-72330663D01*
X184308101Y-72305994D01*
X184367711Y-72276190D01*
X184415735Y-72276190D01*
X184475346Y-72305996D01*
X184500014Y-72330663D01*
X184529819Y-72390273D01*
X184529819Y-72588534D01*
X184487332Y-72715995D01*
X184482985Y-72735111D01*
X184485751Y-72774031D01*
X184503201Y-72808930D01*
X184532677Y-72834495D01*
X184569693Y-72846833D01*
X184608613Y-72844067D01*
X184643512Y-72826617D01*
X184669077Y-72797141D01*
X184677068Y-72779241D01*
X184724687Y-72636384D01*
X184726886Y-72626711D01*
X184727898Y-72624270D01*
X184728246Y-72620732D01*
X184729034Y-72617269D01*
X184728846Y-72614634D01*
X184729819Y-72604761D01*
X184729819Y-72366666D01*
X184727898Y-72347157D01*
X184726522Y-72343836D01*
X184726268Y-72340253D01*
X184719262Y-72321944D01*
X184671643Y-72226707D01*
X184666357Y-72218310D01*
X184665347Y-72215870D01*
X184663093Y-72213124D01*
X184661200Y-72210116D01*
X184659203Y-72208384D01*
X184652910Y-72200716D01*
X184605290Y-72153098D01*
X184597620Y-72146803D01*
X184595891Y-72144809D01*
X184592886Y-72142917D01*
X184590137Y-72140661D01*
X184587693Y-72139649D01*
X184579301Y-72134366D01*
X184484063Y-72086747D01*
X184465755Y-72079741D01*
X184462171Y-72079486D01*
X184458851Y-72078111D01*
X184439342Y-72076190D01*
X184344104Y-72076190D01*
X184324595Y-72078111D01*
X184321274Y-72079486D01*
X184317691Y-72079741D01*
X184299382Y-72086747D01*
X184204145Y-72134366D01*
X184195748Y-72139651D01*
X184193308Y-72140662D01*
X184190562Y-72142915D01*
X184187554Y-72144809D01*
X184185821Y-72146806D01*
X184178155Y-72153099D01*
X184130536Y-72200717D01*
X184124241Y-72208387D01*
X184122247Y-72210117D01*
X184120353Y-72213124D01*
X184118100Y-72215871D01*
X184117089Y-72218310D01*
X184111804Y-72226707D01*
X184064185Y-72321945D01*
X184063639Y-72323371D01*
X184063209Y-72323952D01*
X184060287Y-72332128D01*
X184057179Y-72340253D01*
X184057127Y-72340975D01*
X184056614Y-72342413D01*
X184011657Y-72522237D01*
X183976204Y-72593144D01*
X183951535Y-72617812D01*
X183891926Y-72647618D01*
X183843902Y-72647618D01*
X183784292Y-72617813D01*
X183759624Y-72593144D01*
X183729819Y-72533534D01*
X183729819Y-72335274D01*
X183772306Y-72207813D01*
X183776653Y-72188698D01*
X183773887Y-72149778D01*
X183756437Y-72114879D01*
X183726961Y-72089314D01*
X183689945Y-72076975D01*
X183651025Y-72079742D01*
X183616126Y-72097191D01*
X183590561Y-72126667D01*
X183582570Y-72144568D01*
X183534951Y-72287424D01*
X183532751Y-72297095D01*
X183531740Y-72299538D01*
X183531391Y-72303076D01*
X183530604Y-72306540D01*
X183530791Y-72309173D01*
X183529819Y-72319047D01*
X183418708Y-72319047D01*
X183418708Y-71366666D01*
X183529819Y-71366666D01*
X183529819Y-71747618D01*
X183531740Y-71767127D01*
X183546672Y-71803175D01*
X183574262Y-71830765D01*
X183610310Y-71845697D01*
X183629819Y-71847618D01*
X184629819Y-71847618D01*
X184649328Y-71845697D01*
X184685376Y-71830765D01*
X184712966Y-71803175D01*
X184727898Y-71767127D01*
X184727898Y-71728109D01*
X184712966Y-71692061D01*
X184685376Y-71664471D01*
X184649328Y-71649539D01*
X184629819Y-71647618D01*
X184253628Y-71647618D01*
X184253628Y-71366666D01*
X184251707Y-71347157D01*
X184250331Y-71343836D01*
X184250077Y-71340253D01*
X184243071Y-71321944D01*
X184195452Y-71226707D01*
X184190166Y-71218310D01*
X184189156Y-71215870D01*
X184186902Y-71213124D01*
X184185009Y-71210116D01*
X184183011Y-71208383D01*
X184176719Y-71200717D01*
X184129101Y-71153098D01*
X184121430Y-71146803D01*
X184119701Y-71144809D01*
X184116693Y-71142915D01*
X184113947Y-71140662D01*
X184111507Y-71139651D01*
X184103111Y-71134366D01*
X184007873Y-71086747D01*
X183989565Y-71079741D01*
X183985981Y-71079486D01*
X183982661Y-71078111D01*
X183963152Y-71076190D01*
X183820295Y-71076190D01*
X183800786Y-71078111D01*
X183797465Y-71079486D01*
X183793882Y-71079741D01*
X183775573Y-71086747D01*
X183680336Y-71134366D01*
X183671939Y-71139651D01*
X183669499Y-71140662D01*
X183666753Y-71142915D01*
X183663745Y-71144809D01*
X183662012Y-71146806D01*
X183654346Y-71153099D01*
X183606727Y-71200717D01*
X183600432Y-71208387D01*
X183598438Y-71210117D01*
X183596544Y-71213124D01*
X183594291Y-71215871D01*
X183593280Y-71218310D01*
X183587995Y-71226707D01*
X183540376Y-71321945D01*
X183533370Y-71340253D01*
X183533115Y-71343836D01*
X183531740Y-71347157D01*
X183529819Y-71366666D01*
X183418708Y-71366666D01*
X183418708Y-70965079D01*
X184840930Y-70965079D01*
X184840930Y-73387300D01*
G37*
D10*
X162083580Y-75320666D02*
X162131200Y-75368285D01*
X162131200Y-75368285D02*
X162178819Y-75511142D01*
X162178819Y-75511142D02*
X162178819Y-75606380D01*
X162178819Y-75606380D02*
X162131200Y-75749237D01*
X162131200Y-75749237D02*
X162035961Y-75844475D01*
X162035961Y-75844475D02*
X161940723Y-75892094D01*
X161940723Y-75892094D02*
X161750247Y-75939713D01*
X161750247Y-75939713D02*
X161607390Y-75939713D01*
X161607390Y-75939713D02*
X161416914Y-75892094D01*
X161416914Y-75892094D02*
X161321676Y-75844475D01*
X161321676Y-75844475D02*
X161226438Y-75749237D01*
X161226438Y-75749237D02*
X161178819Y-75606380D01*
X161178819Y-75606380D02*
X161178819Y-75511142D01*
X161178819Y-75511142D02*
X161226438Y-75368285D01*
X161226438Y-75368285D02*
X161274057Y-75320666D01*
X161274057Y-74939713D02*
X161226438Y-74892094D01*
X161226438Y-74892094D02*
X161178819Y-74796856D01*
X161178819Y-74796856D02*
X161178819Y-74558761D01*
X161178819Y-74558761D02*
X161226438Y-74463523D01*
X161226438Y-74463523D02*
X161274057Y-74415904D01*
X161274057Y-74415904D02*
X161369295Y-74368285D01*
X161369295Y-74368285D02*
X161464533Y-74368285D01*
X161464533Y-74368285D02*
X161607390Y-74415904D01*
X161607390Y-74415904D02*
X162178819Y-74987332D01*
X162178819Y-74987332D02*
X162178819Y-74368285D01*
X149365333Y-65861580D02*
X149317714Y-65909200D01*
X149317714Y-65909200D02*
X149174857Y-65956819D01*
X149174857Y-65956819D02*
X149079619Y-65956819D01*
X149079619Y-65956819D02*
X148936762Y-65909200D01*
X148936762Y-65909200D02*
X148841524Y-65813961D01*
X148841524Y-65813961D02*
X148793905Y-65718723D01*
X148793905Y-65718723D02*
X148746286Y-65528247D01*
X148746286Y-65528247D02*
X148746286Y-65385390D01*
X148746286Y-65385390D02*
X148793905Y-65194914D01*
X148793905Y-65194914D02*
X148841524Y-65099676D01*
X148841524Y-65099676D02*
X148936762Y-65004438D01*
X148936762Y-65004438D02*
X149079619Y-64956819D01*
X149079619Y-64956819D02*
X149174857Y-64956819D01*
X149174857Y-64956819D02*
X149317714Y-65004438D01*
X149317714Y-65004438D02*
X149365333Y-65052057D01*
X149698667Y-64956819D02*
X150317714Y-64956819D01*
X150317714Y-64956819D02*
X149984381Y-65337771D01*
X149984381Y-65337771D02*
X150127238Y-65337771D01*
X150127238Y-65337771D02*
X150222476Y-65385390D01*
X150222476Y-65385390D02*
X150270095Y-65433009D01*
X150270095Y-65433009D02*
X150317714Y-65528247D01*
X150317714Y-65528247D02*
X150317714Y-65766342D01*
X150317714Y-65766342D02*
X150270095Y-65861580D01*
X150270095Y-65861580D02*
X150222476Y-65909200D01*
X150222476Y-65909200D02*
X150127238Y-65956819D01*
X150127238Y-65956819D02*
X149841524Y-65956819D01*
X149841524Y-65956819D02*
X149746286Y-65909200D01*
X149746286Y-65909200D02*
X149698667Y-65861580D01*
X153687619Y-85702857D02*
X153211428Y-86036190D01*
X153687619Y-86274285D02*
X152687619Y-86274285D01*
X152687619Y-86274285D02*
X152687619Y-85893333D01*
X152687619Y-85893333D02*
X152735238Y-85798095D01*
X152735238Y-85798095D02*
X152782857Y-85750476D01*
X152782857Y-85750476D02*
X152878095Y-85702857D01*
X152878095Y-85702857D02*
X153020952Y-85702857D01*
X153020952Y-85702857D02*
X153116190Y-85750476D01*
X153116190Y-85750476D02*
X153163809Y-85798095D01*
X153163809Y-85798095D02*
X153211428Y-85893333D01*
X153211428Y-85893333D02*
X153211428Y-86274285D01*
X153687619Y-84750476D02*
X153687619Y-85321904D01*
X153687619Y-85036190D02*
X152687619Y-85036190D01*
X152687619Y-85036190D02*
X152830476Y-85131428D01*
X152830476Y-85131428D02*
X152925714Y-85226666D01*
X152925714Y-85226666D02*
X152973333Y-85321904D01*
X152687619Y-84417142D02*
X152687619Y-83750476D01*
X152687619Y-83750476D02*
X153687619Y-84179047D01*
X160440833Y-82914580D02*
X160393214Y-82962200D01*
X160393214Y-82962200D02*
X160250357Y-83009819D01*
X160250357Y-83009819D02*
X160155119Y-83009819D01*
X160155119Y-83009819D02*
X160012262Y-82962200D01*
X160012262Y-82962200D02*
X159917024Y-82866961D01*
X159917024Y-82866961D02*
X159869405Y-82771723D01*
X159869405Y-82771723D02*
X159821786Y-82581247D01*
X159821786Y-82581247D02*
X159821786Y-82438390D01*
X159821786Y-82438390D02*
X159869405Y-82247914D01*
X159869405Y-82247914D02*
X159917024Y-82152676D01*
X159917024Y-82152676D02*
X160012262Y-82057438D01*
X160012262Y-82057438D02*
X160155119Y-82009819D01*
X160155119Y-82009819D02*
X160250357Y-82009819D01*
X160250357Y-82009819D02*
X160393214Y-82057438D01*
X160393214Y-82057438D02*
X160440833Y-82105057D01*
X161297976Y-82009819D02*
X161107500Y-82009819D01*
X161107500Y-82009819D02*
X161012262Y-82057438D01*
X161012262Y-82057438D02*
X160964643Y-82105057D01*
X160964643Y-82105057D02*
X160869405Y-82247914D01*
X160869405Y-82247914D02*
X160821786Y-82438390D01*
X160821786Y-82438390D02*
X160821786Y-82819342D01*
X160821786Y-82819342D02*
X160869405Y-82914580D01*
X160869405Y-82914580D02*
X160917024Y-82962200D01*
X160917024Y-82962200D02*
X161012262Y-83009819D01*
X161012262Y-83009819D02*
X161202738Y-83009819D01*
X161202738Y-83009819D02*
X161297976Y-82962200D01*
X161297976Y-82962200D02*
X161345595Y-82914580D01*
X161345595Y-82914580D02*
X161393214Y-82819342D01*
X161393214Y-82819342D02*
X161393214Y-82581247D01*
X161393214Y-82581247D02*
X161345595Y-82486009D01*
X161345595Y-82486009D02*
X161297976Y-82438390D01*
X161297976Y-82438390D02*
X161202738Y-82390771D01*
X161202738Y-82390771D02*
X161012262Y-82390771D01*
X161012262Y-82390771D02*
X160917024Y-82438390D01*
X160917024Y-82438390D02*
X160869405Y-82486009D01*
X160869405Y-82486009D02*
X160821786Y-82581247D01*
X146446819Y-80948333D02*
X147161104Y-80948333D01*
X147161104Y-80948333D02*
X147303961Y-80995952D01*
X147303961Y-80995952D02*
X147399200Y-81091190D01*
X147399200Y-81091190D02*
X147446819Y-81234047D01*
X147446819Y-81234047D02*
X147446819Y-81329285D01*
X146446819Y-79995952D02*
X146446819Y-80472142D01*
X146446819Y-80472142D02*
X146923009Y-80519761D01*
X146923009Y-80519761D02*
X146875390Y-80472142D01*
X146875390Y-80472142D02*
X146827771Y-80376904D01*
X146827771Y-80376904D02*
X146827771Y-80138809D01*
X146827771Y-80138809D02*
X146875390Y-80043571D01*
X146875390Y-80043571D02*
X146923009Y-79995952D01*
X146923009Y-79995952D02*
X147018247Y-79948333D01*
X147018247Y-79948333D02*
X147256342Y-79948333D01*
X147256342Y-79948333D02*
X147351580Y-79995952D01*
X147351580Y-79995952D02*
X147399200Y-80043571D01*
X147399200Y-80043571D02*
X147446819Y-80138809D01*
X147446819Y-80138809D02*
X147446819Y-80376904D01*
X147446819Y-80376904D02*
X147399200Y-80472142D01*
X147399200Y-80472142D02*
X147351580Y-80519761D01*
X183615666Y-109406819D02*
X183615666Y-110121104D01*
X183615666Y-110121104D02*
X183568047Y-110263961D01*
X183568047Y-110263961D02*
X183472809Y-110359200D01*
X183472809Y-110359200D02*
X183329952Y-110406819D01*
X183329952Y-110406819D02*
X183234714Y-110406819D01*
X183996619Y-109406819D02*
X184663285Y-109406819D01*
X184663285Y-109406819D02*
X184234714Y-110406819D01*
X167399333Y-64337580D02*
X167351714Y-64385200D01*
X167351714Y-64385200D02*
X167208857Y-64432819D01*
X167208857Y-64432819D02*
X167113619Y-64432819D01*
X167113619Y-64432819D02*
X166970762Y-64385200D01*
X166970762Y-64385200D02*
X166875524Y-64289961D01*
X166875524Y-64289961D02*
X166827905Y-64194723D01*
X166827905Y-64194723D02*
X166780286Y-64004247D01*
X166780286Y-64004247D02*
X166780286Y-63861390D01*
X166780286Y-63861390D02*
X166827905Y-63670914D01*
X166827905Y-63670914D02*
X166875524Y-63575676D01*
X166875524Y-63575676D02*
X166970762Y-63480438D01*
X166970762Y-63480438D02*
X167113619Y-63432819D01*
X167113619Y-63432819D02*
X167208857Y-63432819D01*
X167208857Y-63432819D02*
X167351714Y-63480438D01*
X167351714Y-63480438D02*
X167399333Y-63528057D01*
X168351714Y-64432819D02*
X167780286Y-64432819D01*
X168066000Y-64432819D02*
X168066000Y-63432819D01*
X168066000Y-63432819D02*
X167970762Y-63575676D01*
X167970762Y-63575676D02*
X167875524Y-63670914D01*
X167875524Y-63670914D02*
X167780286Y-63718533D01*
D13*
X166427837Y-86548718D02*
X166427837Y-85278718D01*
X167758314Y-86427765D02*
X167697838Y-86488242D01*
X167697838Y-86488242D02*
X167516409Y-86548718D01*
X167516409Y-86548718D02*
X167395457Y-86548718D01*
X167395457Y-86548718D02*
X167214028Y-86488242D01*
X167214028Y-86488242D02*
X167093076Y-86367289D01*
X167093076Y-86367289D02*
X167032599Y-86246337D01*
X167032599Y-86246337D02*
X166972123Y-86004432D01*
X166972123Y-86004432D02*
X166972123Y-85823003D01*
X166972123Y-85823003D02*
X167032599Y-85581099D01*
X167032599Y-85581099D02*
X167093076Y-85460146D01*
X167093076Y-85460146D02*
X167214028Y-85339194D01*
X167214028Y-85339194D02*
X167395457Y-85278718D01*
X167395457Y-85278718D02*
X167516409Y-85278718D01*
X167516409Y-85278718D02*
X167697838Y-85339194D01*
X167697838Y-85339194D02*
X167758314Y-85399670D01*
X168967838Y-86548718D02*
X168242123Y-86548718D01*
X168604980Y-86548718D02*
X168604980Y-85278718D01*
X168604980Y-85278718D02*
X168484028Y-85460146D01*
X168484028Y-85460146D02*
X168363076Y-85581099D01*
X168363076Y-85581099D02*
X168242123Y-85641575D01*
D10*
X158146580Y-77606666D02*
X158194200Y-77654285D01*
X158194200Y-77654285D02*
X158241819Y-77797142D01*
X158241819Y-77797142D02*
X158241819Y-77892380D01*
X158241819Y-77892380D02*
X158194200Y-78035237D01*
X158194200Y-78035237D02*
X158098961Y-78130475D01*
X158098961Y-78130475D02*
X158003723Y-78178094D01*
X158003723Y-78178094D02*
X157813247Y-78225713D01*
X157813247Y-78225713D02*
X157670390Y-78225713D01*
X157670390Y-78225713D02*
X157479914Y-78178094D01*
X157479914Y-78178094D02*
X157384676Y-78130475D01*
X157384676Y-78130475D02*
X157289438Y-78035237D01*
X157289438Y-78035237D02*
X157241819Y-77892380D01*
X157241819Y-77892380D02*
X157241819Y-77797142D01*
X157241819Y-77797142D02*
X157289438Y-77654285D01*
X157289438Y-77654285D02*
X157337057Y-77606666D01*
X158241819Y-77130475D02*
X158241819Y-76939999D01*
X158241819Y-76939999D02*
X158194200Y-76844761D01*
X158194200Y-76844761D02*
X158146580Y-76797142D01*
X158146580Y-76797142D02*
X158003723Y-76701904D01*
X158003723Y-76701904D02*
X157813247Y-76654285D01*
X157813247Y-76654285D02*
X157432295Y-76654285D01*
X157432295Y-76654285D02*
X157337057Y-76701904D01*
X157337057Y-76701904D02*
X157289438Y-76749523D01*
X157289438Y-76749523D02*
X157241819Y-76844761D01*
X157241819Y-76844761D02*
X157241819Y-77035237D01*
X157241819Y-77035237D02*
X157289438Y-77130475D01*
X157289438Y-77130475D02*
X157337057Y-77178094D01*
X157337057Y-77178094D02*
X157432295Y-77225713D01*
X157432295Y-77225713D02*
X157670390Y-77225713D01*
X157670390Y-77225713D02*
X157765628Y-77178094D01*
X157765628Y-77178094D02*
X157813247Y-77130475D01*
X157813247Y-77130475D02*
X157860866Y-77035237D01*
X157860866Y-77035237D02*
X157860866Y-76844761D01*
X157860866Y-76844761D02*
X157813247Y-76749523D01*
X157813247Y-76749523D02*
X157765628Y-76701904D01*
X157765628Y-76701904D02*
X157670390Y-76654285D01*
D12*
G36*
X183846754Y-62877424D02*
G01*
X183871423Y-62902092D01*
X183901228Y-62961702D01*
X183901228Y-63219047D01*
X183577419Y-63219047D01*
X183577419Y-62961702D01*
X183607224Y-62902092D01*
X183631892Y-62877423D01*
X183691502Y-62847619D01*
X183787145Y-62847619D01*
X183846754Y-62877424D01*
G37*
G36*
X184688530Y-63530158D02*
G01*
X183266308Y-63530158D01*
X183266308Y-62938095D01*
X183377419Y-62938095D01*
X183377419Y-63319047D01*
X183379340Y-63338556D01*
X183394272Y-63374604D01*
X183421862Y-63402194D01*
X183457910Y-63417126D01*
X183477419Y-63419047D01*
X184477419Y-63419047D01*
X184496928Y-63417126D01*
X184532976Y-63402194D01*
X184560566Y-63374604D01*
X184575498Y-63338556D01*
X184575498Y-63299538D01*
X184560566Y-63263490D01*
X184532976Y-63235900D01*
X184496928Y-63220968D01*
X184477419Y-63219047D01*
X184101228Y-63219047D01*
X184101228Y-63133017D01*
X184534765Y-62829542D01*
X184549646Y-62816781D01*
X184570615Y-62783876D01*
X184577396Y-62745451D01*
X184568956Y-62707357D01*
X184546581Y-62675392D01*
X184513676Y-62654423D01*
X184475252Y-62647642D01*
X184437157Y-62656082D01*
X184420073Y-62665696D01*
X184091547Y-62895663D01*
X184090671Y-62893373D01*
X184043052Y-62798136D01*
X184037766Y-62789739D01*
X184036756Y-62787299D01*
X184034502Y-62784553D01*
X184032609Y-62781545D01*
X184030611Y-62779812D01*
X184024319Y-62772146D01*
X183976701Y-62724527D01*
X183969030Y-62718232D01*
X183967301Y-62716238D01*
X183964293Y-62714344D01*
X183961547Y-62712091D01*
X183959107Y-62711080D01*
X183950711Y-62705795D01*
X183855473Y-62658176D01*
X183837165Y-62651170D01*
X183833581Y-62650915D01*
X183830261Y-62649540D01*
X183810752Y-62647619D01*
X183667895Y-62647619D01*
X183648386Y-62649540D01*
X183645065Y-62650915D01*
X183641482Y-62651170D01*
X183623173Y-62658176D01*
X183527936Y-62705795D01*
X183519539Y-62711080D01*
X183517099Y-62712091D01*
X183514353Y-62714344D01*
X183511345Y-62716238D01*
X183509612Y-62718235D01*
X183501946Y-62724528D01*
X183454327Y-62772146D01*
X183448032Y-62779816D01*
X183446038Y-62781546D01*
X183444144Y-62784553D01*
X183441891Y-62787300D01*
X183440880Y-62789739D01*
X183435595Y-62798136D01*
X183387976Y-62893374D01*
X183380970Y-62911682D01*
X183380715Y-62915265D01*
X183379340Y-62918586D01*
X183377419Y-62938095D01*
X183266308Y-62938095D01*
X183266308Y-61938095D01*
X183377419Y-61938095D01*
X183377419Y-62176190D01*
X183379340Y-62195699D01*
X183380715Y-62199019D01*
X183380970Y-62202603D01*
X183387976Y-62220911D01*
X183435595Y-62316149D01*
X183440880Y-62324545D01*
X183441891Y-62326985D01*
X183444144Y-62329731D01*
X183446038Y-62332739D01*
X183448032Y-62334468D01*
X183454327Y-62342139D01*
X183501946Y-62389757D01*
X183509612Y-62396049D01*
X183511345Y-62398047D01*
X183514353Y-62399940D01*
X183517099Y-62402194D01*
X183519539Y-62403204D01*
X183527936Y-62408490D01*
X183623173Y-62456109D01*
X183641482Y-62463115D01*
X183645065Y-62463369D01*
X183648386Y-62464745D01*
X183667895Y-62466666D01*
X183763133Y-62466666D01*
X183782642Y-62464745D01*
X183785962Y-62463369D01*
X183789546Y-62463115D01*
X183807854Y-62456109D01*
X183903092Y-62408490D01*
X183911488Y-62403204D01*
X183913928Y-62402194D01*
X183916674Y-62399940D01*
X183919682Y-62398047D01*
X183921411Y-62396052D01*
X183929082Y-62389758D01*
X183976700Y-62342139D01*
X183982992Y-62334472D01*
X183984990Y-62332740D01*
X183986883Y-62329731D01*
X183989137Y-62326986D01*
X183990147Y-62324545D01*
X183995433Y-62316149D01*
X184043052Y-62220912D01*
X184043598Y-62219483D01*
X184044028Y-62218904D01*
X184046949Y-62210727D01*
X184050058Y-62202603D01*
X184050109Y-62201882D01*
X184050623Y-62200444D01*
X184095579Y-62020618D01*
X184131033Y-61949711D01*
X184155701Y-61925042D01*
X184215311Y-61895238D01*
X184263335Y-61895238D01*
X184322946Y-61925044D01*
X184347614Y-61949711D01*
X184377419Y-62009321D01*
X184377419Y-62207582D01*
X184334932Y-62335043D01*
X184330585Y-62354159D01*
X184333351Y-62393079D01*
X184350801Y-62427978D01*
X184380277Y-62453543D01*
X184417293Y-62465881D01*
X184456213Y-62463115D01*
X184491112Y-62445665D01*
X184516677Y-62416189D01*
X184524668Y-62398289D01*
X184572287Y-62255432D01*
X184574486Y-62245759D01*
X184575498Y-62243318D01*
X184575846Y-62239780D01*
X184576634Y-62236317D01*
X184576446Y-62233682D01*
X184577419Y-62223809D01*
X184577419Y-61985714D01*
X184575498Y-61966205D01*
X184574122Y-61962884D01*
X184573868Y-61959301D01*
X184566862Y-61940992D01*
X184519243Y-61845755D01*
X184513957Y-61837358D01*
X184512947Y-61834918D01*
X184510693Y-61832172D01*
X184508800Y-61829164D01*
X184506803Y-61827432D01*
X184500510Y-61819764D01*
X184452890Y-61772146D01*
X184445220Y-61765851D01*
X184443491Y-61763857D01*
X184440486Y-61761965D01*
X184437737Y-61759709D01*
X184435293Y-61758697D01*
X184426901Y-61753414D01*
X184331663Y-61705795D01*
X184313355Y-61698789D01*
X184309771Y-61698534D01*
X184306451Y-61697159D01*
X184286942Y-61695238D01*
X184191704Y-61695238D01*
X184172195Y-61697159D01*
X184168874Y-61698534D01*
X184165291Y-61698789D01*
X184146982Y-61705795D01*
X184051745Y-61753414D01*
X184043348Y-61758699D01*
X184040908Y-61759710D01*
X184038162Y-61761963D01*
X184035154Y-61763857D01*
X184033421Y-61765854D01*
X184025755Y-61772147D01*
X183978136Y-61819765D01*
X183971841Y-61827435D01*
X183969847Y-61829165D01*
X183967953Y-61832172D01*
X183965700Y-61834919D01*
X183964689Y-61837358D01*
X183959404Y-61845755D01*
X183911785Y-61940993D01*
X183911239Y-61942419D01*
X183910809Y-61943000D01*
X183907887Y-61951176D01*
X183904779Y-61959301D01*
X183904727Y-61960023D01*
X183904214Y-61961461D01*
X183859257Y-62141285D01*
X183823804Y-62212192D01*
X183799135Y-62236860D01*
X183739526Y-62266666D01*
X183691502Y-62266666D01*
X183631892Y-62236861D01*
X183607224Y-62212192D01*
X183577419Y-62152582D01*
X183577419Y-61954322D01*
X183619906Y-61826861D01*
X183624253Y-61807746D01*
X183621487Y-61768826D01*
X183604037Y-61733927D01*
X183574561Y-61708362D01*
X183537545Y-61696023D01*
X183498625Y-61698790D01*
X183463726Y-61716239D01*
X183438161Y-61745715D01*
X183430170Y-61763616D01*
X183382551Y-61906472D01*
X183380351Y-61916143D01*
X183379340Y-61918586D01*
X183378991Y-61922124D01*
X183378204Y-61925588D01*
X183378391Y-61928221D01*
X183377419Y-61938095D01*
X183266308Y-61938095D01*
X183266308Y-60938095D01*
X183377419Y-60938095D01*
X183377419Y-61509523D01*
X183379340Y-61529032D01*
X183394272Y-61565080D01*
X183421862Y-61592670D01*
X183457910Y-61607602D01*
X183496928Y-61607602D01*
X183532976Y-61592670D01*
X183560566Y-61565080D01*
X183575498Y-61529032D01*
X183577419Y-61509523D01*
X183577419Y-61323809D01*
X184477419Y-61323809D01*
X184496928Y-61321888D01*
X184532976Y-61306956D01*
X184560566Y-61279366D01*
X184575498Y-61243318D01*
X184575498Y-61204300D01*
X184560566Y-61168252D01*
X184532976Y-61140662D01*
X184496928Y-61125730D01*
X184477419Y-61123809D01*
X183577419Y-61123809D01*
X183577419Y-60938095D01*
X183575498Y-60918586D01*
X183560566Y-60882538D01*
X183532976Y-60854948D01*
X183496928Y-60840016D01*
X183457910Y-60840016D01*
X183421862Y-60854948D01*
X183394272Y-60882538D01*
X183379340Y-60918586D01*
X183377419Y-60938095D01*
X183266308Y-60938095D01*
X183266308Y-60728905D01*
X184688530Y-60728905D01*
X184688530Y-63530158D01*
G37*
D10*
X160533333Y-68245180D02*
X160533333Y-67530895D01*
X160533333Y-67530895D02*
X160580952Y-67388038D01*
X160580952Y-67388038D02*
X160676190Y-67292800D01*
X160676190Y-67292800D02*
X160819047Y-67245180D01*
X160819047Y-67245180D02*
X160914285Y-67245180D01*
X159628571Y-67911847D02*
X159628571Y-67245180D01*
X159866666Y-68292800D02*
X160104761Y-67578514D01*
X160104761Y-67578514D02*
X159485714Y-67578514D01*
X148158019Y-75374171D02*
X148158019Y-75850361D01*
X148158019Y-75850361D02*
X147158019Y-75850361D01*
X148158019Y-75040837D02*
X147158019Y-75040837D01*
X147158019Y-75040837D02*
X147872304Y-74707504D01*
X147872304Y-74707504D02*
X147158019Y-74374171D01*
X147158019Y-74374171D02*
X148158019Y-74374171D01*
X148158019Y-73374171D02*
X148158019Y-73945599D01*
X148158019Y-73659885D02*
X147158019Y-73659885D01*
X147158019Y-73659885D02*
X147300876Y-73755123D01*
X147300876Y-73755123D02*
X147396114Y-73850361D01*
X147396114Y-73850361D02*
X147443733Y-73945599D01*
X148158019Y-72421790D02*
X148158019Y-72993218D01*
X148158019Y-72707504D02*
X147158019Y-72707504D01*
X147158019Y-72707504D02*
X147300876Y-72802742D01*
X147300876Y-72802742D02*
X147396114Y-72897980D01*
X147396114Y-72897980D02*
X147443733Y-72993218D01*
X148158019Y-71469409D02*
X148158019Y-72040837D01*
X148158019Y-71755123D02*
X147158019Y-71755123D01*
X147158019Y-71755123D02*
X147300876Y-71850361D01*
X147300876Y-71850361D02*
X147396114Y-71945599D01*
X147396114Y-71945599D02*
X147443733Y-72040837D01*
X147158019Y-71136075D02*
X147158019Y-70469409D01*
X147158019Y-70469409D02*
X148158019Y-70897980D01*
X148253257Y-70326552D02*
X148253257Y-69564647D01*
X147158019Y-69421789D02*
X147158019Y-68802742D01*
X147158019Y-68802742D02*
X147538971Y-69136075D01*
X147538971Y-69136075D02*
X147538971Y-68993218D01*
X147538971Y-68993218D02*
X147586590Y-68897980D01*
X147586590Y-68897980D02*
X147634209Y-68850361D01*
X147634209Y-68850361D02*
X147729447Y-68802742D01*
X147729447Y-68802742D02*
X147967542Y-68802742D01*
X147967542Y-68802742D02*
X148062780Y-68850361D01*
X148062780Y-68850361D02*
X148110400Y-68897980D01*
X148110400Y-68897980D02*
X148158019Y-68993218D01*
X148158019Y-68993218D02*
X148158019Y-69278932D01*
X148158019Y-69278932D02*
X148110400Y-69374170D01*
X148110400Y-69374170D02*
X148062780Y-69421789D01*
X147158019Y-68517027D02*
X148158019Y-68183694D01*
X148158019Y-68183694D02*
X147158019Y-67850361D01*
X147158019Y-67612265D02*
X147158019Y-66993218D01*
X147158019Y-66993218D02*
X147538971Y-67326551D01*
X147538971Y-67326551D02*
X147538971Y-67183694D01*
X147538971Y-67183694D02*
X147586590Y-67088456D01*
X147586590Y-67088456D02*
X147634209Y-67040837D01*
X147634209Y-67040837D02*
X147729447Y-66993218D01*
X147729447Y-66993218D02*
X147967542Y-66993218D01*
X147967542Y-66993218D02*
X148062780Y-67040837D01*
X148062780Y-67040837D02*
X148110400Y-67088456D01*
X148110400Y-67088456D02*
X148158019Y-67183694D01*
X148158019Y-67183694D02*
X148158019Y-67469408D01*
X148158019Y-67469408D02*
X148110400Y-67564646D01*
X148110400Y-67564646D02*
X148062780Y-67612265D01*
X160587100Y-78180580D02*
X160539481Y-78228200D01*
X160539481Y-78228200D02*
X160396624Y-78275819D01*
X160396624Y-78275819D02*
X160301386Y-78275819D01*
X160301386Y-78275819D02*
X160158529Y-78228200D01*
X160158529Y-78228200D02*
X160063291Y-78132961D01*
X160063291Y-78132961D02*
X160015672Y-78037723D01*
X160015672Y-78037723D02*
X159968053Y-77847247D01*
X159968053Y-77847247D02*
X159968053Y-77704390D01*
X159968053Y-77704390D02*
X160015672Y-77513914D01*
X160015672Y-77513914D02*
X160063291Y-77418676D01*
X160063291Y-77418676D02*
X160158529Y-77323438D01*
X160158529Y-77323438D02*
X160301386Y-77275819D01*
X160301386Y-77275819D02*
X160396624Y-77275819D01*
X160396624Y-77275819D02*
X160539481Y-77323438D01*
X160539481Y-77323438D02*
X160587100Y-77371057D01*
X160920434Y-77275819D02*
X161587100Y-77275819D01*
X161587100Y-77275819D02*
X161158529Y-78275819D01*
X179306019Y-88242857D02*
X178829828Y-88576190D01*
X179306019Y-88814285D02*
X178306019Y-88814285D01*
X178306019Y-88814285D02*
X178306019Y-88433333D01*
X178306019Y-88433333D02*
X178353638Y-88338095D01*
X178353638Y-88338095D02*
X178401257Y-88290476D01*
X178401257Y-88290476D02*
X178496495Y-88242857D01*
X178496495Y-88242857D02*
X178639352Y-88242857D01*
X178639352Y-88242857D02*
X178734590Y-88290476D01*
X178734590Y-88290476D02*
X178782209Y-88338095D01*
X178782209Y-88338095D02*
X178829828Y-88433333D01*
X178829828Y-88433333D02*
X178829828Y-88814285D01*
X179306019Y-87290476D02*
X179306019Y-87861904D01*
X179306019Y-87576190D02*
X178306019Y-87576190D01*
X178306019Y-87576190D02*
X178448876Y-87671428D01*
X178448876Y-87671428D02*
X178544114Y-87766666D01*
X178544114Y-87766666D02*
X178591733Y-87861904D01*
X178306019Y-86385714D02*
X178306019Y-86861904D01*
X178306019Y-86861904D02*
X178782209Y-86909523D01*
X178782209Y-86909523D02*
X178734590Y-86861904D01*
X178734590Y-86861904D02*
X178686971Y-86766666D01*
X178686971Y-86766666D02*
X178686971Y-86528571D01*
X178686971Y-86528571D02*
X178734590Y-86433333D01*
X178734590Y-86433333D02*
X178782209Y-86385714D01*
X178782209Y-86385714D02*
X178877447Y-86338095D01*
X178877447Y-86338095D02*
X179115542Y-86338095D01*
X179115542Y-86338095D02*
X179210780Y-86385714D01*
X179210780Y-86385714D02*
X179258400Y-86433333D01*
X179258400Y-86433333D02*
X179306019Y-86528571D01*
X179306019Y-86528571D02*
X179306019Y-86766666D01*
X179306019Y-86766666D02*
X179258400Y-86861904D01*
X179258400Y-86861904D02*
X179210780Y-86909523D01*
D12*
G36*
X146915154Y-97975405D02*
G01*
X146939823Y-98000073D01*
X146969628Y-98059683D01*
X146969628Y-98317028D01*
X146645819Y-98317028D01*
X146645819Y-98059683D01*
X146675624Y-98000073D01*
X146700292Y-97975404D01*
X146759902Y-97945600D01*
X146855545Y-97945600D01*
X146915154Y-97975405D01*
G37*
G36*
X146915154Y-95927786D02*
G01*
X146939823Y-95952454D01*
X146969628Y-96012064D01*
X146969628Y-96269409D01*
X146645819Y-96269409D01*
X146645819Y-96012064D01*
X146675624Y-95952454D01*
X146700292Y-95927785D01*
X146759902Y-95897981D01*
X146855545Y-95897981D01*
X146915154Y-95927786D01*
G37*
G36*
X146915154Y-94927786D02*
G01*
X146939823Y-94952454D01*
X146969628Y-95012064D01*
X146969628Y-95269409D01*
X146645819Y-95269409D01*
X146645819Y-95012064D01*
X146675624Y-94952454D01*
X146700292Y-94927785D01*
X146759902Y-94897981D01*
X146855545Y-94897981D01*
X146915154Y-94927786D01*
G37*
G36*
X147995025Y-100056710D02*
G01*
X146287089Y-100056710D01*
X146287089Y-99826090D01*
X146447740Y-99826090D01*
X146447740Y-99865108D01*
X146462672Y-99901156D01*
X146490262Y-99928746D01*
X146526310Y-99943678D01*
X146545819Y-99945599D01*
X147545819Y-99945599D01*
X147565328Y-99943678D01*
X147601376Y-99928746D01*
X147628966Y-99901156D01*
X147643898Y-99865108D01*
X147643898Y-99826090D01*
X147628966Y-99790042D01*
X147601376Y-99762452D01*
X147565328Y-99747520D01*
X147545819Y-99745599D01*
X146545819Y-99745599D01*
X146526310Y-99747520D01*
X146490262Y-99762452D01*
X146462672Y-99790042D01*
X146447740Y-99826090D01*
X146287089Y-99826090D01*
X146287089Y-98988457D01*
X146445819Y-98988457D01*
X146445819Y-99226552D01*
X146447740Y-99246061D01*
X146449115Y-99249381D01*
X146449370Y-99252965D01*
X146456376Y-99271273D01*
X146503995Y-99366511D01*
X146509280Y-99374907D01*
X146510291Y-99377347D01*
X146512544Y-99380093D01*
X146514438Y-99383101D01*
X146516432Y-99384830D01*
X146522727Y-99392501D01*
X146570346Y-99440119D01*
X146578012Y-99446411D01*
X146579745Y-99448409D01*
X146582753Y-99450302D01*
X146585499Y-99452556D01*
X146587939Y-99453566D01*
X146596336Y-99458852D01*
X146691573Y-99506471D01*
X146709882Y-99513477D01*
X146713465Y-99513731D01*
X146716786Y-99515107D01*
X146736295Y-99517028D01*
X146831533Y-99517028D01*
X146851042Y-99515107D01*
X146854362Y-99513731D01*
X146857946Y-99513477D01*
X146876254Y-99506471D01*
X146971492Y-99458852D01*
X146979888Y-99453566D01*
X146982328Y-99452556D01*
X146985074Y-99450302D01*
X146988082Y-99448409D01*
X146989811Y-99446414D01*
X146997482Y-99440120D01*
X147045100Y-99392501D01*
X147051392Y-99384834D01*
X147053390Y-99383102D01*
X147055283Y-99380093D01*
X147057537Y-99377348D01*
X147058547Y-99374907D01*
X147063833Y-99366511D01*
X147111452Y-99271274D01*
X147111998Y-99269845D01*
X147112428Y-99269266D01*
X147115349Y-99261089D01*
X147118458Y-99252965D01*
X147118509Y-99252244D01*
X147119023Y-99250806D01*
X147163979Y-99070980D01*
X147199433Y-99000073D01*
X147224101Y-98975404D01*
X147283711Y-98945600D01*
X147331735Y-98945600D01*
X147391346Y-98975406D01*
X147416014Y-99000073D01*
X147445819Y-99059683D01*
X147445819Y-99257944D01*
X147403332Y-99385405D01*
X147398985Y-99404521D01*
X147401751Y-99443441D01*
X147419201Y-99478340D01*
X147448677Y-99503905D01*
X147485693Y-99516243D01*
X147524613Y-99513477D01*
X147559512Y-99496027D01*
X147585077Y-99466551D01*
X147593068Y-99448651D01*
X147640687Y-99305794D01*
X147642886Y-99296121D01*
X147643898Y-99293680D01*
X147644246Y-99290142D01*
X147645034Y-99286679D01*
X147644846Y-99284044D01*
X147645819Y-99274171D01*
X147645819Y-99036076D01*
X147643898Y-99016567D01*
X147642522Y-99013246D01*
X147642268Y-99009663D01*
X147635262Y-98991354D01*
X147587643Y-98896117D01*
X147582357Y-98887720D01*
X147581347Y-98885280D01*
X147579093Y-98882534D01*
X147577200Y-98879526D01*
X147575203Y-98877794D01*
X147568910Y-98870126D01*
X147521290Y-98822508D01*
X147513620Y-98816213D01*
X147511891Y-98814219D01*
X147508886Y-98812327D01*
X147506137Y-98810071D01*
X147503693Y-98809059D01*
X147495301Y-98803776D01*
X147400063Y-98756157D01*
X147381755Y-98749151D01*
X147378171Y-98748896D01*
X147374851Y-98747521D01*
X147355342Y-98745600D01*
X147260104Y-98745600D01*
X147240595Y-98747521D01*
X147237274Y-98748896D01*
X147233691Y-98749151D01*
X147215382Y-98756157D01*
X147120145Y-98803776D01*
X147111748Y-98809061D01*
X147109308Y-98810072D01*
X147106562Y-98812325D01*
X147103554Y-98814219D01*
X147101821Y-98816216D01*
X147094155Y-98822509D01*
X147046536Y-98870127D01*
X147040241Y-98877797D01*
X147038247Y-98879527D01*
X147036353Y-98882534D01*
X147034100Y-98885281D01*
X147033089Y-98887720D01*
X147027804Y-98896117D01*
X146980185Y-98991355D01*
X146979639Y-98992781D01*
X146979209Y-98993362D01*
X146976287Y-99001538D01*
X146973179Y-99009663D01*
X146973127Y-99010385D01*
X146972614Y-99011823D01*
X146927657Y-99191647D01*
X146892204Y-99262554D01*
X146867535Y-99287222D01*
X146807926Y-99317028D01*
X146759902Y-99317028D01*
X146700292Y-99287223D01*
X146675624Y-99262554D01*
X146645819Y-99202944D01*
X146645819Y-99004684D01*
X146688306Y-98877223D01*
X146692653Y-98858108D01*
X146689887Y-98819188D01*
X146672437Y-98784289D01*
X146642961Y-98758724D01*
X146605945Y-98746385D01*
X146567025Y-98749152D01*
X146532126Y-98766601D01*
X146506561Y-98796077D01*
X146498570Y-98813978D01*
X146450951Y-98956834D01*
X146448751Y-98966505D01*
X146447740Y-98968948D01*
X146447391Y-98972486D01*
X146446604Y-98975950D01*
X146446791Y-98978583D01*
X146445819Y-98988457D01*
X146287089Y-98988457D01*
X146287089Y-98036076D01*
X146445819Y-98036076D01*
X146445819Y-98417028D01*
X146447740Y-98436537D01*
X146462672Y-98472585D01*
X146490262Y-98500175D01*
X146526310Y-98515107D01*
X146545819Y-98517028D01*
X147545819Y-98517028D01*
X147565328Y-98515107D01*
X147601376Y-98500175D01*
X147628966Y-98472585D01*
X147643898Y-98436537D01*
X147643898Y-98397519D01*
X147628966Y-98361471D01*
X147601376Y-98333881D01*
X147565328Y-98318949D01*
X147545819Y-98317028D01*
X147169628Y-98317028D01*
X147169628Y-98036076D01*
X147167707Y-98016567D01*
X147166331Y-98013246D01*
X147166077Y-98009663D01*
X147159071Y-97991354D01*
X147111452Y-97896117D01*
X147106166Y-97887720D01*
X147105156Y-97885280D01*
X147102902Y-97882534D01*
X147101009Y-97879526D01*
X147099011Y-97877793D01*
X147092719Y-97870127D01*
X147045101Y-97822508D01*
X147037430Y-97816213D01*
X147035701Y-97814219D01*
X147032693Y-97812325D01*
X147029947Y-97810072D01*
X147027507Y-97809061D01*
X147019111Y-97803776D01*
X146923873Y-97756157D01*
X146905565Y-97749151D01*
X146901981Y-97748896D01*
X146898661Y-97747521D01*
X146879152Y-97745600D01*
X146736295Y-97745600D01*
X146716786Y-97747521D01*
X146713465Y-97748896D01*
X146709882Y-97749151D01*
X146691573Y-97756157D01*
X146596336Y-97803776D01*
X146587939Y-97809061D01*
X146585499Y-97810072D01*
X146582753Y-97812325D01*
X146579745Y-97814219D01*
X146578012Y-97816216D01*
X146570346Y-97822509D01*
X146522727Y-97870127D01*
X146516432Y-97877797D01*
X146514438Y-97879527D01*
X146512544Y-97882534D01*
X146510291Y-97885281D01*
X146509280Y-97887720D01*
X146503995Y-97896117D01*
X146456376Y-97991355D01*
X146449370Y-98009663D01*
X146449115Y-98013246D01*
X146447740Y-98016567D01*
X146445819Y-98036076D01*
X146287089Y-98036076D01*
X146287089Y-96702848D01*
X146398200Y-96702848D01*
X146405852Y-96741108D01*
X146427563Y-96773528D01*
X146442730Y-96785948D01*
X147728444Y-97643090D01*
X147745742Y-97652314D01*
X147784019Y-97659885D01*
X147822279Y-97652233D01*
X147854699Y-97630522D01*
X147876343Y-97598057D01*
X147883914Y-97559781D01*
X147876262Y-97521520D01*
X147854551Y-97489100D01*
X147839384Y-97476680D01*
X146553670Y-96619538D01*
X146536372Y-96610315D01*
X146498095Y-96602743D01*
X146459835Y-96610395D01*
X146427415Y-96632106D01*
X146405772Y-96664571D01*
X146398200Y-96702848D01*
X146287089Y-96702848D01*
X146287089Y-95988457D01*
X146445819Y-95988457D01*
X146445819Y-96369409D01*
X146447740Y-96388918D01*
X146462672Y-96424966D01*
X146490262Y-96452556D01*
X146526310Y-96467488D01*
X146545819Y-96469409D01*
X147545819Y-96469409D01*
X147565328Y-96467488D01*
X147601376Y-96452556D01*
X147628966Y-96424966D01*
X147643898Y-96388918D01*
X147643898Y-96349900D01*
X147628966Y-96313852D01*
X147601376Y-96286262D01*
X147565328Y-96271330D01*
X147545819Y-96269409D01*
X147169628Y-96269409D01*
X147169628Y-95988457D01*
X147167707Y-95968948D01*
X147166331Y-95965627D01*
X147166077Y-95962044D01*
X147159071Y-95943735D01*
X147111452Y-95848498D01*
X147106166Y-95840101D01*
X147105156Y-95837661D01*
X147102902Y-95834915D01*
X147101009Y-95831907D01*
X147099011Y-95830174D01*
X147092719Y-95822508D01*
X147045101Y-95774889D01*
X147037430Y-95768594D01*
X147035701Y-95766600D01*
X147032693Y-95764706D01*
X147029947Y-95762453D01*
X147027507Y-95761442D01*
X147019111Y-95756157D01*
X146923873Y-95708538D01*
X146905565Y-95701532D01*
X146901981Y-95701277D01*
X146898661Y-95699902D01*
X146879152Y-95697981D01*
X146736295Y-95697981D01*
X146716786Y-95699902D01*
X146713465Y-95701277D01*
X146709882Y-95701532D01*
X146691573Y-95708538D01*
X146596336Y-95756157D01*
X146587939Y-95761442D01*
X146585499Y-95762453D01*
X146582753Y-95764706D01*
X146579745Y-95766600D01*
X146578012Y-95768597D01*
X146570346Y-95774890D01*
X146522727Y-95822508D01*
X146516432Y-95830178D01*
X146514438Y-95831908D01*
X146512544Y-95834915D01*
X146510291Y-95837662D01*
X146509280Y-95840101D01*
X146503995Y-95848498D01*
X146456376Y-95943736D01*
X146449370Y-95962044D01*
X146449115Y-95965627D01*
X146447740Y-95968948D01*
X146445819Y-95988457D01*
X146287089Y-95988457D01*
X146287089Y-94988457D01*
X146445819Y-94988457D01*
X146445819Y-95369409D01*
X146447740Y-95388918D01*
X146462672Y-95424966D01*
X146490262Y-95452556D01*
X146526310Y-95467488D01*
X146545819Y-95469409D01*
X147545819Y-95469409D01*
X147565328Y-95467488D01*
X147601376Y-95452556D01*
X147628966Y-95424966D01*
X147643898Y-95388918D01*
X147643898Y-95349900D01*
X147628966Y-95313852D01*
X147601376Y-95286262D01*
X147565328Y-95271330D01*
X147545819Y-95269409D01*
X147169628Y-95269409D01*
X147169628Y-95183379D01*
X147603165Y-94879904D01*
X147618046Y-94867143D01*
X147639015Y-94834238D01*
X147645796Y-94795813D01*
X147637356Y-94757719D01*
X147614981Y-94725754D01*
X147582076Y-94704785D01*
X147543652Y-94698004D01*
X147505557Y-94706444D01*
X147488473Y-94716058D01*
X147159947Y-94946025D01*
X147159071Y-94943735D01*
X147111452Y-94848498D01*
X147106166Y-94840101D01*
X147105156Y-94837661D01*
X147102902Y-94834915D01*
X147101009Y-94831907D01*
X147099011Y-94830174D01*
X147092719Y-94822508D01*
X147045101Y-94774889D01*
X147037430Y-94768594D01*
X147035701Y-94766600D01*
X147032693Y-94764706D01*
X147029947Y-94762453D01*
X147027507Y-94761442D01*
X147019111Y-94756157D01*
X146923873Y-94708538D01*
X146905565Y-94701532D01*
X146901981Y-94701277D01*
X146898661Y-94699902D01*
X146879152Y-94697981D01*
X146736295Y-94697981D01*
X146716786Y-94699902D01*
X146713465Y-94701277D01*
X146709882Y-94701532D01*
X146691573Y-94708538D01*
X146596336Y-94756157D01*
X146587939Y-94761442D01*
X146585499Y-94762453D01*
X146582753Y-94764706D01*
X146579745Y-94766600D01*
X146578012Y-94768597D01*
X146570346Y-94774890D01*
X146522727Y-94822508D01*
X146516432Y-94830178D01*
X146514438Y-94831908D01*
X146512544Y-94834915D01*
X146510291Y-94837662D01*
X146509280Y-94840101D01*
X146503995Y-94848498D01*
X146456376Y-94943736D01*
X146449370Y-94962044D01*
X146449115Y-94965627D01*
X146447740Y-94968948D01*
X146445819Y-94988457D01*
X146287089Y-94988457D01*
X146287089Y-93940838D01*
X146445819Y-93940838D01*
X146445819Y-94083695D01*
X146446791Y-94093568D01*
X146446604Y-94096202D01*
X146447391Y-94099665D01*
X146447740Y-94103204D01*
X146448751Y-94105646D01*
X146450951Y-94115318D01*
X146498570Y-94258174D01*
X146506561Y-94276075D01*
X146508916Y-94278790D01*
X146510291Y-94282109D01*
X146522727Y-94297263D01*
X146617965Y-94392501D01*
X146625631Y-94398792D01*
X146627364Y-94400790D01*
X146630375Y-94402685D01*
X146633119Y-94404937D01*
X146635556Y-94405946D01*
X146643955Y-94411233D01*
X146739192Y-94458852D01*
X146740620Y-94459398D01*
X146741200Y-94459828D01*
X146749376Y-94462749D01*
X146757501Y-94465858D01*
X146758221Y-94465909D01*
X146759660Y-94466423D01*
X146950136Y-94514042D01*
X146953517Y-94514542D01*
X146954881Y-94515107D01*
X146962231Y-94515830D01*
X146969529Y-94516910D01*
X146970987Y-94516692D01*
X146974390Y-94517028D01*
X147117247Y-94517028D01*
X147120649Y-94516692D01*
X147122108Y-94516910D01*
X147129405Y-94515830D01*
X147136756Y-94515107D01*
X147138119Y-94514542D01*
X147141501Y-94514042D01*
X147331976Y-94466423D01*
X147333413Y-94465909D01*
X147334136Y-94465858D01*
X147342260Y-94462749D01*
X147350437Y-94459828D01*
X147351017Y-94459397D01*
X147352444Y-94458852D01*
X147447682Y-94411233D01*
X147456074Y-94405950D01*
X147458518Y-94404938D01*
X147461267Y-94402681D01*
X147464272Y-94400790D01*
X147466001Y-94398795D01*
X147473671Y-94392501D01*
X147568911Y-94297263D01*
X147581347Y-94282110D01*
X147582722Y-94278790D01*
X147585077Y-94276075D01*
X147593068Y-94258175D01*
X147640687Y-94115318D01*
X147642886Y-94105645D01*
X147643898Y-94103204D01*
X147644246Y-94099666D01*
X147645034Y-94096203D01*
X147644846Y-94093568D01*
X147645819Y-94083695D01*
X147645819Y-93988457D01*
X147644846Y-93978583D01*
X147645034Y-93975949D01*
X147644246Y-93972485D01*
X147643898Y-93968948D01*
X147642886Y-93966506D01*
X147640687Y-93956834D01*
X147593068Y-93813977D01*
X147585077Y-93796077D01*
X147582722Y-93793361D01*
X147581347Y-93790042D01*
X147568910Y-93774888D01*
X147521290Y-93727270D01*
X147506137Y-93714833D01*
X147480646Y-93704275D01*
X147470089Y-93699902D01*
X147450580Y-93697981D01*
X147117247Y-93697981D01*
X147097738Y-93699902D01*
X147061690Y-93714834D01*
X147034100Y-93742424D01*
X147019168Y-93778472D01*
X147017247Y-93797981D01*
X147017247Y-93988457D01*
X147019168Y-94007966D01*
X147034100Y-94044014D01*
X147061690Y-94071604D01*
X147097738Y-94086536D01*
X147136756Y-94086536D01*
X147172804Y-94071604D01*
X147200394Y-94044014D01*
X147215326Y-94007966D01*
X147217247Y-93988457D01*
X147217247Y-93897981D01*
X147409160Y-93897981D01*
X147410797Y-93899618D01*
X147445819Y-94004683D01*
X147445819Y-94067468D01*
X147410797Y-94172533D01*
X147343727Y-94239603D01*
X147272818Y-94275057D01*
X147104937Y-94317028D01*
X146986699Y-94317028D01*
X146818818Y-94275057D01*
X146747913Y-94239605D01*
X146680840Y-94172532D01*
X146645819Y-94067468D01*
X146645819Y-93964445D01*
X146682881Y-93890322D01*
X146689887Y-93872013D01*
X146692653Y-93833093D01*
X146680314Y-93796077D01*
X146654749Y-93766600D01*
X146619851Y-93749151D01*
X146580931Y-93746386D01*
X146543915Y-93758724D01*
X146514438Y-93784289D01*
X146503995Y-93800879D01*
X146456376Y-93896117D01*
X146449370Y-93914425D01*
X146449115Y-93918008D01*
X146447740Y-93921329D01*
X146445819Y-93940838D01*
X146287089Y-93940838D01*
X146287089Y-93586870D01*
X147995025Y-93586870D01*
X147995025Y-100056710D01*
G37*
D10*
X151510819Y-61223666D02*
X151034628Y-61556999D01*
X151510819Y-61795094D02*
X150510819Y-61795094D01*
X150510819Y-61795094D02*
X150510819Y-61414142D01*
X150510819Y-61414142D02*
X150558438Y-61318904D01*
X150558438Y-61318904D02*
X150606057Y-61271285D01*
X150606057Y-61271285D02*
X150701295Y-61223666D01*
X150701295Y-61223666D02*
X150844152Y-61223666D01*
X150844152Y-61223666D02*
X150939390Y-61271285D01*
X150939390Y-61271285D02*
X150987009Y-61318904D01*
X150987009Y-61318904D02*
X151034628Y-61414142D01*
X151034628Y-61414142D02*
X151034628Y-61795094D01*
X150510819Y-60318904D02*
X150510819Y-60795094D01*
X150510819Y-60795094D02*
X150987009Y-60842713D01*
X150987009Y-60842713D02*
X150939390Y-60795094D01*
X150939390Y-60795094D02*
X150891771Y-60699856D01*
X150891771Y-60699856D02*
X150891771Y-60461761D01*
X150891771Y-60461761D02*
X150939390Y-60366523D01*
X150939390Y-60366523D02*
X150987009Y-60318904D01*
X150987009Y-60318904D02*
X151082247Y-60271285D01*
X151082247Y-60271285D02*
X151320342Y-60271285D01*
X151320342Y-60271285D02*
X151415580Y-60318904D01*
X151415580Y-60318904D02*
X151463200Y-60366523D01*
X151463200Y-60366523D02*
X151510819Y-60461761D01*
X151510819Y-60461761D02*
X151510819Y-60699856D01*
X151510819Y-60699856D02*
X151463200Y-60795094D01*
X151463200Y-60795094D02*
X151415580Y-60842713D01*
X183361666Y-92024819D02*
X183361666Y-92739104D01*
X183361666Y-92739104D02*
X183314047Y-92881961D01*
X183314047Y-92881961D02*
X183218809Y-92977200D01*
X183218809Y-92977200D02*
X183075952Y-93024819D01*
X183075952Y-93024819D02*
X182980714Y-93024819D01*
X184266428Y-92024819D02*
X184075952Y-92024819D01*
X184075952Y-92024819D02*
X183980714Y-92072438D01*
X183980714Y-92072438D02*
X183933095Y-92120057D01*
X183933095Y-92120057D02*
X183837857Y-92262914D01*
X183837857Y-92262914D02*
X183790238Y-92453390D01*
X183790238Y-92453390D02*
X183790238Y-92834342D01*
X183790238Y-92834342D02*
X183837857Y-92929580D01*
X183837857Y-92929580D02*
X183885476Y-92977200D01*
X183885476Y-92977200D02*
X183980714Y-93024819D01*
X183980714Y-93024819D02*
X184171190Y-93024819D01*
X184171190Y-93024819D02*
X184266428Y-92977200D01*
X184266428Y-92977200D02*
X184314047Y-92929580D01*
X184314047Y-92929580D02*
X184361666Y-92834342D01*
X184361666Y-92834342D02*
X184361666Y-92596247D01*
X184361666Y-92596247D02*
X184314047Y-92501009D01*
X184314047Y-92501009D02*
X184266428Y-92453390D01*
X184266428Y-92453390D02*
X184171190Y-92405771D01*
X184171190Y-92405771D02*
X183980714Y-92405771D01*
X183980714Y-92405771D02*
X183885476Y-92453390D01*
X183885476Y-92453390D02*
X183837857Y-92501009D01*
X183837857Y-92501009D02*
X183790238Y-92596247D01*
X176164819Y-121588333D02*
X176879104Y-121588333D01*
X176879104Y-121588333D02*
X177021961Y-121635952D01*
X177021961Y-121635952D02*
X177117200Y-121731190D01*
X177117200Y-121731190D02*
X177164819Y-121874047D01*
X177164819Y-121874047D02*
X177164819Y-121969285D01*
X177164819Y-120588333D02*
X177164819Y-121159761D01*
X177164819Y-120874047D02*
X176164819Y-120874047D01*
X176164819Y-120874047D02*
X176307676Y-120969285D01*
X176307676Y-120969285D02*
X176402914Y-121064523D01*
X176402914Y-121064523D02*
X176450533Y-121159761D01*
X163296419Y-90916266D02*
X162820228Y-91249599D01*
X163296419Y-91487694D02*
X162296419Y-91487694D01*
X162296419Y-91487694D02*
X162296419Y-91106742D01*
X162296419Y-91106742D02*
X162344038Y-91011504D01*
X162344038Y-91011504D02*
X162391657Y-90963885D01*
X162391657Y-90963885D02*
X162486895Y-90916266D01*
X162486895Y-90916266D02*
X162629752Y-90916266D01*
X162629752Y-90916266D02*
X162724990Y-90963885D01*
X162724990Y-90963885D02*
X162772609Y-91011504D01*
X162772609Y-91011504D02*
X162820228Y-91106742D01*
X162820228Y-91106742D02*
X162820228Y-91487694D01*
X162724990Y-90344837D02*
X162677371Y-90440075D01*
X162677371Y-90440075D02*
X162629752Y-90487694D01*
X162629752Y-90487694D02*
X162534514Y-90535313D01*
X162534514Y-90535313D02*
X162486895Y-90535313D01*
X162486895Y-90535313D02*
X162391657Y-90487694D01*
X162391657Y-90487694D02*
X162344038Y-90440075D01*
X162344038Y-90440075D02*
X162296419Y-90344837D01*
X162296419Y-90344837D02*
X162296419Y-90154361D01*
X162296419Y-90154361D02*
X162344038Y-90059123D01*
X162344038Y-90059123D02*
X162391657Y-90011504D01*
X162391657Y-90011504D02*
X162486895Y-89963885D01*
X162486895Y-89963885D02*
X162534514Y-89963885D01*
X162534514Y-89963885D02*
X162629752Y-90011504D01*
X162629752Y-90011504D02*
X162677371Y-90059123D01*
X162677371Y-90059123D02*
X162724990Y-90154361D01*
X162724990Y-90154361D02*
X162724990Y-90344837D01*
X162724990Y-90344837D02*
X162772609Y-90440075D01*
X162772609Y-90440075D02*
X162820228Y-90487694D01*
X162820228Y-90487694D02*
X162915466Y-90535313D01*
X162915466Y-90535313D02*
X163105942Y-90535313D01*
X163105942Y-90535313D02*
X163201180Y-90487694D01*
X163201180Y-90487694D02*
X163248800Y-90440075D01*
X163248800Y-90440075D02*
X163296419Y-90344837D01*
X163296419Y-90344837D02*
X163296419Y-90154361D01*
X163296419Y-90154361D02*
X163248800Y-90059123D01*
X163248800Y-90059123D02*
X163201180Y-90011504D01*
X163201180Y-90011504D02*
X163105942Y-89963885D01*
X163105942Y-89963885D02*
X162915466Y-89963885D01*
X162915466Y-89963885D02*
X162820228Y-90011504D01*
X162820228Y-90011504D02*
X162772609Y-90059123D01*
X162772609Y-90059123D02*
X162724990Y-90154361D01*
X174899619Y-87931694D02*
X173899619Y-87931694D01*
X173899619Y-87931694D02*
X173899619Y-87693599D01*
X173899619Y-87693599D02*
X173947238Y-87550742D01*
X173947238Y-87550742D02*
X174042476Y-87455504D01*
X174042476Y-87455504D02*
X174137714Y-87407885D01*
X174137714Y-87407885D02*
X174328190Y-87360266D01*
X174328190Y-87360266D02*
X174471047Y-87360266D01*
X174471047Y-87360266D02*
X174661523Y-87407885D01*
X174661523Y-87407885D02*
X174756761Y-87455504D01*
X174756761Y-87455504D02*
X174852000Y-87550742D01*
X174852000Y-87550742D02*
X174899619Y-87693599D01*
X174899619Y-87693599D02*
X174899619Y-87931694D01*
X173899619Y-87026932D02*
X173899619Y-86407885D01*
X173899619Y-86407885D02*
X174280571Y-86741218D01*
X174280571Y-86741218D02*
X174280571Y-86598361D01*
X174280571Y-86598361D02*
X174328190Y-86503123D01*
X174328190Y-86503123D02*
X174375809Y-86455504D01*
X174375809Y-86455504D02*
X174471047Y-86407885D01*
X174471047Y-86407885D02*
X174709142Y-86407885D01*
X174709142Y-86407885D02*
X174804380Y-86455504D01*
X174804380Y-86455504D02*
X174852000Y-86503123D01*
X174852000Y-86503123D02*
X174899619Y-86598361D01*
X174899619Y-86598361D02*
X174899619Y-86884075D01*
X174899619Y-86884075D02*
X174852000Y-86979313D01*
X174852000Y-86979313D02*
X174804380Y-87026932D01*
X162441561Y-85000457D02*
X162346323Y-84952838D01*
X162346323Y-84952838D02*
X162251085Y-84857600D01*
X162251085Y-84857600D02*
X162108228Y-84714742D01*
X162108228Y-84714742D02*
X162012990Y-84667123D01*
X162012990Y-84667123D02*
X161917752Y-84667123D01*
X161965371Y-84905219D02*
X161870133Y-84857600D01*
X161870133Y-84857600D02*
X161774895Y-84762361D01*
X161774895Y-84762361D02*
X161727276Y-84571885D01*
X161727276Y-84571885D02*
X161727276Y-84238552D01*
X161727276Y-84238552D02*
X161774895Y-84048076D01*
X161774895Y-84048076D02*
X161870133Y-83952838D01*
X161870133Y-83952838D02*
X161965371Y-83905219D01*
X161965371Y-83905219D02*
X162155847Y-83905219D01*
X162155847Y-83905219D02*
X162251085Y-83952838D01*
X162251085Y-83952838D02*
X162346323Y-84048076D01*
X162346323Y-84048076D02*
X162393942Y-84238552D01*
X162393942Y-84238552D02*
X162393942Y-84571885D01*
X162393942Y-84571885D02*
X162346323Y-84762361D01*
X162346323Y-84762361D02*
X162251085Y-84857600D01*
X162251085Y-84857600D02*
X162155847Y-84905219D01*
X162155847Y-84905219D02*
X161965371Y-84905219D01*
X162774895Y-84000457D02*
X162822514Y-83952838D01*
X162822514Y-83952838D02*
X162917752Y-83905219D01*
X162917752Y-83905219D02*
X163155847Y-83905219D01*
X163155847Y-83905219D02*
X163251085Y-83952838D01*
X163251085Y-83952838D02*
X163298704Y-84000457D01*
X163298704Y-84000457D02*
X163346323Y-84095695D01*
X163346323Y-84095695D02*
X163346323Y-84190933D01*
X163346323Y-84190933D02*
X163298704Y-84333790D01*
X163298704Y-84333790D02*
X162727276Y-84905219D01*
X162727276Y-84905219D02*
X163346323Y-84905219D01*
X157962419Y-90884457D02*
X157486228Y-91217790D01*
X157962419Y-91455885D02*
X156962419Y-91455885D01*
X156962419Y-91455885D02*
X156962419Y-91074933D01*
X156962419Y-91074933D02*
X157010038Y-90979695D01*
X157010038Y-90979695D02*
X157057657Y-90932076D01*
X157057657Y-90932076D02*
X157152895Y-90884457D01*
X157152895Y-90884457D02*
X157295752Y-90884457D01*
X157295752Y-90884457D02*
X157390990Y-90932076D01*
X157390990Y-90932076D02*
X157438609Y-90979695D01*
X157438609Y-90979695D02*
X157486228Y-91074933D01*
X157486228Y-91074933D02*
X157486228Y-91455885D01*
X157962419Y-89932076D02*
X157962419Y-90503504D01*
X157962419Y-90217790D02*
X156962419Y-90217790D01*
X156962419Y-90217790D02*
X157105276Y-90313028D01*
X157105276Y-90313028D02*
X157200514Y-90408266D01*
X157200514Y-90408266D02*
X157248133Y-90503504D01*
X156962419Y-89313028D02*
X156962419Y-89217790D01*
X156962419Y-89217790D02*
X157010038Y-89122552D01*
X157010038Y-89122552D02*
X157057657Y-89074933D01*
X157057657Y-89074933D02*
X157152895Y-89027314D01*
X157152895Y-89027314D02*
X157343371Y-88979695D01*
X157343371Y-88979695D02*
X157581466Y-88979695D01*
X157581466Y-88979695D02*
X157771942Y-89027314D01*
X157771942Y-89027314D02*
X157867180Y-89074933D01*
X157867180Y-89074933D02*
X157914800Y-89122552D01*
X157914800Y-89122552D02*
X157962419Y-89217790D01*
X157962419Y-89217790D02*
X157962419Y-89313028D01*
X157962419Y-89313028D02*
X157914800Y-89408266D01*
X157914800Y-89408266D02*
X157867180Y-89455885D01*
X157867180Y-89455885D02*
X157771942Y-89503504D01*
X157771942Y-89503504D02*
X157581466Y-89551123D01*
X157581466Y-89551123D02*
X157343371Y-89551123D01*
X157343371Y-89551123D02*
X157152895Y-89503504D01*
X157152895Y-89503504D02*
X157057657Y-89455885D01*
X157057657Y-89455885D02*
X157010038Y-89408266D01*
X157010038Y-89408266D02*
X156962419Y-89313028D01*
X176270342Y-92736019D02*
X175937009Y-92259828D01*
X175698914Y-92736019D02*
X175698914Y-91736019D01*
X175698914Y-91736019D02*
X176079866Y-91736019D01*
X176079866Y-91736019D02*
X176175104Y-91783638D01*
X176175104Y-91783638D02*
X176222723Y-91831257D01*
X176222723Y-91831257D02*
X176270342Y-91926495D01*
X176270342Y-91926495D02*
X176270342Y-92069352D01*
X176270342Y-92069352D02*
X176222723Y-92164590D01*
X176222723Y-92164590D02*
X176175104Y-92212209D01*
X176175104Y-92212209D02*
X176079866Y-92259828D01*
X176079866Y-92259828D02*
X175698914Y-92259828D01*
X177222723Y-92736019D02*
X176651295Y-92736019D01*
X176937009Y-92736019D02*
X176937009Y-91736019D01*
X176937009Y-91736019D02*
X176841771Y-91878876D01*
X176841771Y-91878876D02*
X176746533Y-91974114D01*
X176746533Y-91974114D02*
X176651295Y-92021733D01*
X178079866Y-91736019D02*
X177889390Y-91736019D01*
X177889390Y-91736019D02*
X177794152Y-91783638D01*
X177794152Y-91783638D02*
X177746533Y-91831257D01*
X177746533Y-91831257D02*
X177651295Y-91974114D01*
X177651295Y-91974114D02*
X177603676Y-92164590D01*
X177603676Y-92164590D02*
X177603676Y-92545542D01*
X177603676Y-92545542D02*
X177651295Y-92640780D01*
X177651295Y-92640780D02*
X177698914Y-92688400D01*
X177698914Y-92688400D02*
X177794152Y-92736019D01*
X177794152Y-92736019D02*
X177984628Y-92736019D01*
X177984628Y-92736019D02*
X178079866Y-92688400D01*
X178079866Y-92688400D02*
X178127485Y-92640780D01*
X178127485Y-92640780D02*
X178175104Y-92545542D01*
X178175104Y-92545542D02*
X178175104Y-92307447D01*
X178175104Y-92307447D02*
X178127485Y-92212209D01*
X178127485Y-92212209D02*
X178079866Y-92164590D01*
X178079866Y-92164590D02*
X177984628Y-92116971D01*
X177984628Y-92116971D02*
X177794152Y-92116971D01*
X177794152Y-92116971D02*
X177698914Y-92164590D01*
X177698914Y-92164590D02*
X177651295Y-92212209D01*
X177651295Y-92212209D02*
X177603676Y-92307447D01*
X146693561Y-83019257D02*
X146598323Y-82971638D01*
X146598323Y-82971638D02*
X146503085Y-82876400D01*
X146503085Y-82876400D02*
X146360228Y-82733542D01*
X146360228Y-82733542D02*
X146264990Y-82685923D01*
X146264990Y-82685923D02*
X146169752Y-82685923D01*
X146217371Y-82924019D02*
X146122133Y-82876400D01*
X146122133Y-82876400D02*
X146026895Y-82781161D01*
X146026895Y-82781161D02*
X145979276Y-82590685D01*
X145979276Y-82590685D02*
X145979276Y-82257352D01*
X145979276Y-82257352D02*
X146026895Y-82066876D01*
X146026895Y-82066876D02*
X146122133Y-81971638D01*
X146122133Y-81971638D02*
X146217371Y-81924019D01*
X146217371Y-81924019D02*
X146407847Y-81924019D01*
X146407847Y-81924019D02*
X146503085Y-81971638D01*
X146503085Y-81971638D02*
X146598323Y-82066876D01*
X146598323Y-82066876D02*
X146645942Y-82257352D01*
X146645942Y-82257352D02*
X146645942Y-82590685D01*
X146645942Y-82590685D02*
X146598323Y-82781161D01*
X146598323Y-82781161D02*
X146503085Y-82876400D01*
X146503085Y-82876400D02*
X146407847Y-82924019D01*
X146407847Y-82924019D02*
X146217371Y-82924019D01*
X146979276Y-81924019D02*
X147598323Y-81924019D01*
X147598323Y-81924019D02*
X147264990Y-82304971D01*
X147264990Y-82304971D02*
X147407847Y-82304971D01*
X147407847Y-82304971D02*
X147503085Y-82352590D01*
X147503085Y-82352590D02*
X147550704Y-82400209D01*
X147550704Y-82400209D02*
X147598323Y-82495447D01*
X147598323Y-82495447D02*
X147598323Y-82733542D01*
X147598323Y-82733542D02*
X147550704Y-82828780D01*
X147550704Y-82828780D02*
X147503085Y-82876400D01*
X147503085Y-82876400D02*
X147407847Y-82924019D01*
X147407847Y-82924019D02*
X147122133Y-82924019D01*
X147122133Y-82924019D02*
X147026895Y-82876400D01*
X147026895Y-82876400D02*
X146979276Y-82828780D01*
X155574819Y-113643581D02*
X155098628Y-113976914D01*
X155574819Y-114215009D02*
X154574819Y-114215009D01*
X154574819Y-114215009D02*
X154574819Y-113834057D01*
X154574819Y-113834057D02*
X154622438Y-113738819D01*
X154622438Y-113738819D02*
X154670057Y-113691200D01*
X154670057Y-113691200D02*
X154765295Y-113643581D01*
X154765295Y-113643581D02*
X154908152Y-113643581D01*
X154908152Y-113643581D02*
X155003390Y-113691200D01*
X155003390Y-113691200D02*
X155051009Y-113738819D01*
X155051009Y-113738819D02*
X155098628Y-113834057D01*
X155098628Y-113834057D02*
X155098628Y-114215009D01*
X155574819Y-112691200D02*
X155574819Y-113262628D01*
X155574819Y-112976914D02*
X154574819Y-112976914D01*
X154574819Y-112976914D02*
X154717676Y-113072152D01*
X154717676Y-113072152D02*
X154812914Y-113167390D01*
X154812914Y-113167390D02*
X154860533Y-113262628D01*
X154574819Y-112357866D02*
X154574819Y-111738819D01*
X154574819Y-111738819D02*
X154955771Y-112072152D01*
X154955771Y-112072152D02*
X154955771Y-111929295D01*
X154955771Y-111929295D02*
X155003390Y-111834057D01*
X155003390Y-111834057D02*
X155051009Y-111786438D01*
X155051009Y-111786438D02*
X155146247Y-111738819D01*
X155146247Y-111738819D02*
X155384342Y-111738819D01*
X155384342Y-111738819D02*
X155479580Y-111786438D01*
X155479580Y-111786438D02*
X155527200Y-111834057D01*
X155527200Y-111834057D02*
X155574819Y-111929295D01*
X155574819Y-111929295D02*
X155574819Y-112215009D01*
X155574819Y-112215009D02*
X155527200Y-112310247D01*
X155527200Y-112310247D02*
X155479580Y-112357866D01*
X155543942Y-83178019D02*
X155210609Y-82701828D01*
X154972514Y-83178019D02*
X154972514Y-82178019D01*
X154972514Y-82178019D02*
X155353466Y-82178019D01*
X155353466Y-82178019D02*
X155448704Y-82225638D01*
X155448704Y-82225638D02*
X155496323Y-82273257D01*
X155496323Y-82273257D02*
X155543942Y-82368495D01*
X155543942Y-82368495D02*
X155543942Y-82511352D01*
X155543942Y-82511352D02*
X155496323Y-82606590D01*
X155496323Y-82606590D02*
X155448704Y-82654209D01*
X155448704Y-82654209D02*
X155353466Y-82701828D01*
X155353466Y-82701828D02*
X154972514Y-82701828D01*
X156496323Y-83178019D02*
X155924895Y-83178019D01*
X156210609Y-83178019D02*
X156210609Y-82178019D01*
X156210609Y-82178019D02*
X156115371Y-82320876D01*
X156115371Y-82320876D02*
X156020133Y-82416114D01*
X156020133Y-82416114D02*
X155924895Y-82463733D01*
X157353466Y-82511352D02*
X157353466Y-83178019D01*
X157115371Y-82130400D02*
X156877276Y-82844685D01*
X156877276Y-82844685D02*
X157496323Y-82844685D01*
X174751819Y-83479166D02*
X174275628Y-83812499D01*
X174751819Y-84050594D02*
X173751819Y-84050594D01*
X173751819Y-84050594D02*
X173751819Y-83669642D01*
X173751819Y-83669642D02*
X173799438Y-83574404D01*
X173799438Y-83574404D02*
X173847057Y-83526785D01*
X173847057Y-83526785D02*
X173942295Y-83479166D01*
X173942295Y-83479166D02*
X174085152Y-83479166D01*
X174085152Y-83479166D02*
X174180390Y-83526785D01*
X174180390Y-83526785D02*
X174228009Y-83574404D01*
X174228009Y-83574404D02*
X174275628Y-83669642D01*
X174275628Y-83669642D02*
X174275628Y-84050594D01*
X173751819Y-83145832D02*
X173751819Y-82526785D01*
X173751819Y-82526785D02*
X174132771Y-82860118D01*
X174132771Y-82860118D02*
X174132771Y-82717261D01*
X174132771Y-82717261D02*
X174180390Y-82622023D01*
X174180390Y-82622023D02*
X174228009Y-82574404D01*
X174228009Y-82574404D02*
X174323247Y-82526785D01*
X174323247Y-82526785D02*
X174561342Y-82526785D01*
X174561342Y-82526785D02*
X174656580Y-82574404D01*
X174656580Y-82574404D02*
X174704200Y-82622023D01*
X174704200Y-82622023D02*
X174751819Y-82717261D01*
X174751819Y-82717261D02*
X174751819Y-83002975D01*
X174751819Y-83002975D02*
X174704200Y-83098213D01*
X174704200Y-83098213D02*
X174656580Y-83145832D01*
X148736742Y-93084019D02*
X148403409Y-92607828D01*
X148165314Y-93084019D02*
X148165314Y-92084019D01*
X148165314Y-92084019D02*
X148546266Y-92084019D01*
X148546266Y-92084019D02*
X148641504Y-92131638D01*
X148641504Y-92131638D02*
X148689123Y-92179257D01*
X148689123Y-92179257D02*
X148736742Y-92274495D01*
X148736742Y-92274495D02*
X148736742Y-92417352D01*
X148736742Y-92417352D02*
X148689123Y-92512590D01*
X148689123Y-92512590D02*
X148641504Y-92560209D01*
X148641504Y-92560209D02*
X148546266Y-92607828D01*
X148546266Y-92607828D02*
X148165314Y-92607828D01*
X149689123Y-93084019D02*
X149117695Y-93084019D01*
X149403409Y-93084019D02*
X149403409Y-92084019D01*
X149403409Y-92084019D02*
X149308171Y-92226876D01*
X149308171Y-92226876D02*
X149212933Y-92322114D01*
X149212933Y-92322114D02*
X149117695Y-92369733D01*
X150260552Y-92512590D02*
X150165314Y-92464971D01*
X150165314Y-92464971D02*
X150117695Y-92417352D01*
X150117695Y-92417352D02*
X150070076Y-92322114D01*
X150070076Y-92322114D02*
X150070076Y-92274495D01*
X150070076Y-92274495D02*
X150117695Y-92179257D01*
X150117695Y-92179257D02*
X150165314Y-92131638D01*
X150165314Y-92131638D02*
X150260552Y-92084019D01*
X150260552Y-92084019D02*
X150451028Y-92084019D01*
X150451028Y-92084019D02*
X150546266Y-92131638D01*
X150546266Y-92131638D02*
X150593885Y-92179257D01*
X150593885Y-92179257D02*
X150641504Y-92274495D01*
X150641504Y-92274495D02*
X150641504Y-92322114D01*
X150641504Y-92322114D02*
X150593885Y-92417352D01*
X150593885Y-92417352D02*
X150546266Y-92464971D01*
X150546266Y-92464971D02*
X150451028Y-92512590D01*
X150451028Y-92512590D02*
X150260552Y-92512590D01*
X150260552Y-92512590D02*
X150165314Y-92560209D01*
X150165314Y-92560209D02*
X150117695Y-92607828D01*
X150117695Y-92607828D02*
X150070076Y-92703066D01*
X150070076Y-92703066D02*
X150070076Y-92893542D01*
X150070076Y-92893542D02*
X150117695Y-92988780D01*
X150117695Y-92988780D02*
X150165314Y-93036400D01*
X150165314Y-93036400D02*
X150260552Y-93084019D01*
X150260552Y-93084019D02*
X150451028Y-93084019D01*
X150451028Y-93084019D02*
X150546266Y-93036400D01*
X150546266Y-93036400D02*
X150593885Y-92988780D01*
X150593885Y-92988780D02*
X150641504Y-92893542D01*
X150641504Y-92893542D02*
X150641504Y-92703066D01*
X150641504Y-92703066D02*
X150593885Y-92607828D01*
X150593885Y-92607828D02*
X150546266Y-92560209D01*
X150546266Y-92560209D02*
X150451028Y-92512590D01*
X176329580Y-79966666D02*
X176377200Y-80014285D01*
X176377200Y-80014285D02*
X176424819Y-80157142D01*
X176424819Y-80157142D02*
X176424819Y-80252380D01*
X176424819Y-80252380D02*
X176377200Y-80395237D01*
X176377200Y-80395237D02*
X176281961Y-80490475D01*
X176281961Y-80490475D02*
X176186723Y-80538094D01*
X176186723Y-80538094D02*
X175996247Y-80585713D01*
X175996247Y-80585713D02*
X175853390Y-80585713D01*
X175853390Y-80585713D02*
X175662914Y-80538094D01*
X175662914Y-80538094D02*
X175567676Y-80490475D01*
X175567676Y-80490475D02*
X175472438Y-80395237D01*
X175472438Y-80395237D02*
X175424819Y-80252380D01*
X175424819Y-80252380D02*
X175424819Y-80157142D01*
X175424819Y-80157142D02*
X175472438Y-80014285D01*
X175472438Y-80014285D02*
X175520057Y-79966666D01*
X175424819Y-79061904D02*
X175424819Y-79538094D01*
X175424819Y-79538094D02*
X175901009Y-79585713D01*
X175901009Y-79585713D02*
X175853390Y-79538094D01*
X175853390Y-79538094D02*
X175805771Y-79442856D01*
X175805771Y-79442856D02*
X175805771Y-79204761D01*
X175805771Y-79204761D02*
X175853390Y-79109523D01*
X175853390Y-79109523D02*
X175901009Y-79061904D01*
X175901009Y-79061904D02*
X175996247Y-79014285D01*
X175996247Y-79014285D02*
X176234342Y-79014285D01*
X176234342Y-79014285D02*
X176329580Y-79061904D01*
X176329580Y-79061904D02*
X176377200Y-79109523D01*
X176377200Y-79109523D02*
X176424819Y-79204761D01*
X176424819Y-79204761D02*
X176424819Y-79442856D01*
X176424819Y-79442856D02*
X176377200Y-79538094D01*
X176377200Y-79538094D02*
X176329580Y-79585713D01*
D14*
%TO.C,R7*%
X171107500Y-112491276D02*
X171107500Y-113000724D01*
X172152500Y-112491276D02*
X172152500Y-113000724D01*
%TO.C,Q4*%
X152834000Y-87273300D02*
X152184000Y-87273300D01*
X152834000Y-87273300D02*
X153484000Y-87273300D01*
X152834000Y-90393300D02*
X152184000Y-90393300D01*
X152834000Y-90393300D02*
X153484000Y-90393300D01*
X154236500Y-90673300D02*
X153756500Y-90673300D01*
X153996500Y-90343300D01*
X154236500Y-90673300D01*
G36*
X154236500Y-90673300D02*
G01*
X153756500Y-90673300D01*
X153996500Y-90343300D01*
X154236500Y-90673300D01*
G37*
%TO.C,R4*%
X167297500Y-60422724D02*
X167297500Y-59913276D01*
X168342500Y-60422724D02*
X168342500Y-59913276D01*
%TO.C,R12*%
X158407500Y-113000724D02*
X158407500Y-112491276D01*
X159452500Y-113000724D02*
X159452500Y-112491276D01*
%TO.C,U3*%
X158640000Y-71800000D02*
X158640000Y-71000000D01*
X158640000Y-71800000D02*
X158640000Y-72600000D01*
X161760000Y-71800000D02*
X161760000Y-71000000D01*
X161760000Y-71800000D02*
X161760000Y-72600000D01*
X162040000Y-70740000D02*
X161710000Y-70500000D01*
X162040000Y-70260000D01*
X162040000Y-70740000D01*
G36*
X162040000Y-70740000D02*
G01*
X161710000Y-70500000D01*
X162040000Y-70260000D01*
X162040000Y-70740000D01*
G37*
%TO.C,R9*%
X160947500Y-89631276D02*
X160947500Y-90140724D01*
X161992500Y-89631276D02*
X161992500Y-90140724D01*
%TO.C,R11*%
X160947500Y-112491276D02*
X160947500Y-113000724D01*
X161992500Y-112491276D02*
X161992500Y-113000724D01*
%TO.C,LM1117_1V8*%
X164790000Y-69950000D02*
X164790000Y-73710000D01*
X164790000Y-73710000D02*
X166050000Y-73710000D01*
X171610000Y-69950000D02*
X171610000Y-73710000D01*
X171610000Y-73710000D02*
X170350000Y-73710000D01*
X171840000Y-68910000D02*
X171510000Y-68670000D01*
X171840000Y-68430000D01*
X171840000Y-68910000D01*
G36*
X171840000Y-68910000D02*
G01*
X171510000Y-68670000D01*
X171840000Y-68430000D01*
X171840000Y-68910000D01*
G37*
%TO.C,R6*%
X168567500Y-89631276D02*
X168567500Y-90140724D01*
X169612500Y-89631276D02*
X169612500Y-90140724D01*
%TO.C,C4*%
X156490000Y-74346267D02*
X156490000Y-74053733D01*
X157510000Y-74346267D02*
X157510000Y-74053733D01*
%TO.C,ISP*%
X174700000Y-71450000D02*
X174700000Y-72950000D01*
X175950000Y-75450000D02*
X180450000Y-75450000D01*
X180450000Y-68950000D02*
X175950000Y-68950000D01*
X181700000Y-72950000D02*
X181700000Y-71450000D01*
%TO.C,C2*%
X162890000Y-74346267D02*
X162890000Y-74053733D01*
X163910000Y-74346267D02*
X163910000Y-74053733D01*
%TO.C,C3*%
X152116233Y-64890000D02*
X152408767Y-64890000D01*
X152116233Y-65910000D02*
X152408767Y-65910000D01*
%TO.C,R17*%
X154140300Y-85314724D02*
X154140300Y-84805276D01*
X155185300Y-85314724D02*
X155185300Y-84805276D01*
%TO.C,C6*%
X160753767Y-80615000D02*
X160461233Y-80615000D01*
X160753767Y-81635000D02*
X160461233Y-81635000D01*
%TO.C,J5*%
X148280000Y-79220000D02*
X148280000Y-81980000D01*
X153470000Y-79220000D02*
X148280000Y-79220000D01*
X153470000Y-79220000D02*
X153470000Y-81980000D01*
X153470000Y-81980000D02*
X148280000Y-81980000D01*
X154740000Y-79220000D02*
X156120000Y-79220000D01*
X156120000Y-79220000D02*
X156120000Y-80600000D01*
%TO.C,J7*%
X149330000Y-93601500D02*
X149330000Y-109001500D01*
X149330000Y-109001500D02*
X184830000Y-109001500D01*
X172900000Y-92541500D02*
X175440000Y-92541500D01*
X178070000Y-93601500D02*
X149330000Y-93601500D01*
X184830000Y-93601500D02*
X182970000Y-93601500D01*
X184830000Y-95841500D02*
X182570000Y-95841500D01*
X184830000Y-109001500D02*
X184830000Y-93601500D01*
X181420000Y-94291500D02*
G75*
G02*
X179620000Y-94291500I-900000J0D01*
G01*
X179620000Y-94291500D02*
G75*
G02*
X181420000Y-94291500I900000J0D01*
G01*
X183070000Y-94291500D02*
G75*
G02*
X177970000Y-94291500I-2550000J0D01*
G01*
X177970000Y-94291500D02*
G75*
G02*
X183070000Y-94291500I2550000J0D01*
G01*
%TO.C,C1*%
X167991233Y-64890000D02*
X168283767Y-64890000D01*
X167991233Y-65910000D02*
X168283767Y-65910000D01*
D12*
%TO.C,IC1*%
X164550000Y-77900000D02*
X166000000Y-77900000D01*
X166350000Y-78150000D02*
X170050000Y-78150000D01*
X166350000Y-84650000D02*
X166350000Y-78150000D01*
X170050000Y-78150000D02*
X170050000Y-84650000D01*
X170050000Y-84650000D02*
X166350000Y-84650000D01*
D14*
%TO.C,C9*%
X157290000Y-80408767D02*
X157290000Y-80116233D01*
X158310000Y-80408767D02*
X158310000Y-80116233D01*
%TO.C,RST*%
X174700000Y-61450000D02*
X174700000Y-62950000D01*
X175950000Y-65450000D02*
X180450000Y-65450000D01*
X180450000Y-58950000D02*
X175950000Y-58950000D01*
X181700000Y-62950000D02*
X181700000Y-61450000D01*
%TO.C,J4*%
X155530000Y-62300000D02*
X155530000Y-64000000D01*
X164870000Y-62300000D02*
X164870000Y-64000000D01*
%TO.C,LM1117_3V3*%
X148790000Y-69950000D02*
X148790000Y-73710000D01*
X148790000Y-73710000D02*
X150050000Y-73710000D01*
X155610000Y-69950000D02*
X155610000Y-73710000D01*
X155610000Y-73710000D02*
X154350000Y-73710000D01*
X155840000Y-68910000D02*
X155510000Y-68670000D01*
X155840000Y-68430000D01*
X155840000Y-68910000D01*
G36*
X155840000Y-68910000D02*
G01*
X155510000Y-68670000D01*
X155840000Y-68430000D01*
X155840000Y-68910000D01*
G37*
%TO.C,C7*%
X160753767Y-78708000D02*
X160461233Y-78708000D01*
X160753767Y-79728000D02*
X160461233Y-79728000D01*
%TO.C,R15*%
X176898700Y-87345276D02*
X176898700Y-87854724D01*
X177943700Y-87345276D02*
X177943700Y-87854724D01*
%TO.C,ISP/PRG*%
X147229200Y-91090400D02*
X147385200Y-91090400D01*
X149545200Y-91090400D02*
X149701200Y-91090400D01*
X147229684Y-91090400D02*
G75*
G02*
X147385139Y-87859003I1235516J1560000D01*
G01*
X147385200Y-90571361D02*
G75*
G02*
X147385151Y-88489490I1080000J1040961D01*
G01*
X149545249Y-88489490D02*
G75*
G02*
X149545200Y-90571361I-1080049J-1040910D01*
G01*
X149545261Y-87859003D02*
G75*
G02*
X149700716Y-91090400I-1080061J-1671397D01*
G01*
%TO.C,R5*%
X152057500Y-60422724D02*
X152057500Y-59913276D01*
X153102500Y-60422724D02*
X153102500Y-59913276D01*
%TO.C,J6*%
X179410000Y-91130000D02*
X179410000Y-89800000D01*
X180520000Y-91130000D02*
X179410000Y-91130000D01*
X181980000Y-79280000D02*
X181570000Y-79280000D01*
X181980000Y-80000000D02*
X181570000Y-80000000D01*
X181980000Y-81820000D02*
X181570000Y-81820000D01*
X181980000Y-82540000D02*
X181570000Y-82540000D01*
X181980000Y-84360000D02*
X181570000Y-84360000D01*
X181980000Y-85080000D02*
X181570000Y-85080000D01*
X181980000Y-86900000D02*
X181570000Y-86900000D01*
X181980000Y-87620000D02*
X181570000Y-87620000D01*
X181980000Y-89440000D02*
X181630000Y-89440000D01*
X181980000Y-90160000D02*
X181630000Y-90160000D01*
X181980000Y-91130000D02*
X181980000Y-78310000D01*
X190610000Y-78310000D02*
X181980000Y-78310000D01*
X190610000Y-80910000D02*
X181980000Y-80910000D01*
X190610000Y-83450000D02*
X181980000Y-83450000D01*
X190610000Y-85990000D02*
X181980000Y-85990000D01*
X190610000Y-88530000D02*
X181980000Y-88530000D01*
X190610000Y-88648100D02*
X181980000Y-88648100D01*
X190610000Y-88766195D02*
X181980000Y-88766195D01*
X190610000Y-88884290D02*
X181980000Y-88884290D01*
X190610000Y-89002385D02*
X181980000Y-89002385D01*
X190610000Y-89120480D02*
X181980000Y-89120480D01*
X190610000Y-89238575D02*
X181980000Y-89238575D01*
X190610000Y-89356670D02*
X181980000Y-89356670D01*
X190610000Y-89474765D02*
X181980000Y-89474765D01*
X190610000Y-89592860D02*
X181980000Y-89592860D01*
X190610000Y-89710955D02*
X181980000Y-89710955D01*
X190610000Y-89829050D02*
X181980000Y-89829050D01*
X190610000Y-89947145D02*
X181980000Y-89947145D01*
X190610000Y-90065240D02*
X181980000Y-90065240D01*
X190610000Y-90183335D02*
X181980000Y-90183335D01*
X190610000Y-90301430D02*
X181980000Y-90301430D01*
X190610000Y-90419525D02*
X181980000Y-90419525D01*
X190610000Y-90537620D02*
X181980000Y-90537620D01*
X190610000Y-90655715D02*
X181980000Y-90655715D01*
X190610000Y-90773810D02*
X181980000Y-90773810D01*
X190610000Y-90891905D02*
X181980000Y-90891905D01*
X190610000Y-91010000D02*
X181980000Y-91010000D01*
X190610000Y-91130000D02*
X181980000Y-91130000D01*
X190610000Y-91130000D02*
X190610000Y-78310000D01*
%TO.C,J1*%
X149960000Y-120190000D02*
X149960000Y-122950000D01*
X149960000Y-122950000D02*
X175580000Y-122950000D01*
X150910000Y-119877358D02*
X150910000Y-120190000D01*
X150910000Y-128950000D02*
X150910000Y-122950000D01*
X151770000Y-119877358D02*
X151770000Y-120190000D01*
X151770000Y-122950000D02*
X151770000Y-128950000D01*
X151770000Y-128950000D02*
X150910000Y-128950000D01*
X152610000Y-120190000D02*
X152610000Y-122950000D01*
X153450000Y-119877358D02*
X153450000Y-120190000D01*
X153450000Y-128950000D02*
X153450000Y-122950000D01*
X154310000Y-119877358D02*
X154310000Y-120190000D01*
X154310000Y-122950000D02*
X154310000Y-128950000D01*
X154310000Y-128950000D02*
X153450000Y-128950000D01*
X155150000Y-120190000D02*
X155150000Y-122950000D01*
X155990000Y-119877358D02*
X155990000Y-120190000D01*
X155990000Y-128950000D02*
X155990000Y-122950000D01*
X156850000Y-119877358D02*
X156850000Y-120190000D01*
X156850000Y-122950000D02*
X156850000Y-128950000D01*
X156850000Y-128950000D02*
X155990000Y-128950000D01*
X157690000Y-120190000D02*
X157690000Y-122950000D01*
X158530000Y-119877358D02*
X158530000Y-120190000D01*
X158530000Y-128950000D02*
X158530000Y-122950000D01*
X159390000Y-119877358D02*
X159390000Y-120190000D01*
X159390000Y-122950000D02*
X159390000Y-128950000D01*
X159390000Y-128950000D02*
X158530000Y-128950000D01*
X160230000Y-120190000D02*
X160230000Y-122950000D01*
X161070000Y-119877358D02*
X161070000Y-120190000D01*
X161070000Y-128950000D02*
X161070000Y-122950000D01*
X161930000Y-119877358D02*
X161930000Y-120190000D01*
X161930000Y-122950000D02*
X161930000Y-128950000D01*
X161930000Y-128950000D02*
X161070000Y-128950000D01*
X162770000Y-120190000D02*
X162770000Y-122950000D01*
X163610000Y-119877358D02*
X163610000Y-120190000D01*
X163610000Y-128950000D02*
X163610000Y-122950000D01*
X164470000Y-119877358D02*
X164470000Y-120190000D01*
X164470000Y-122950000D02*
X164470000Y-128950000D01*
X164470000Y-128950000D02*
X163610000Y-128950000D01*
X165310000Y-120190000D02*
X165310000Y-122950000D01*
X166150000Y-119877358D02*
X166150000Y-120190000D01*
X166150000Y-128950000D02*
X166150000Y-122950000D01*
X167010000Y-119877358D02*
X167010000Y-120190000D01*
X167010000Y-122950000D02*
X167010000Y-128950000D01*
X167010000Y-128950000D02*
X166150000Y-128950000D01*
X167850000Y-120190000D02*
X167850000Y-122950000D01*
X168690000Y-119877358D02*
X168690000Y-120190000D01*
X168690000Y-128950000D02*
X168690000Y-122950000D01*
X169550000Y-119877358D02*
X169550000Y-120190000D01*
X169550000Y-122950000D02*
X169550000Y-128950000D01*
X169550000Y-128950000D02*
X168690000Y-128950000D01*
X170390000Y-120190000D02*
X170390000Y-122950000D01*
X171230000Y-119877358D02*
X171230000Y-120190000D01*
X171230000Y-128950000D02*
X171230000Y-122950000D01*
X172090000Y-119877358D02*
X172090000Y-120190000D01*
X172090000Y-122950000D02*
X172090000Y-128950000D01*
X172090000Y-128950000D02*
X171230000Y-128950000D01*
X172930000Y-120190000D02*
X172930000Y-122950000D01*
X173770000Y-119960000D02*
X173770000Y-120190000D01*
X174200000Y-117530000D02*
X175470000Y-117530000D01*
X174630000Y-119960000D02*
X174630000Y-120190000D01*
X175470000Y-117530000D02*
X175470000Y-118800000D01*
X175580000Y-120190000D02*
X149960000Y-120190000D01*
X175580000Y-122950000D02*
X175580000Y-120190000D01*
X174630000Y-122950000D02*
X173770000Y-122950000D01*
X173770000Y-128950000D01*
X174630000Y-128950000D01*
X174630000Y-122950000D01*
G36*
X174630000Y-122950000D02*
G01*
X173770000Y-122950000D01*
X173770000Y-128950000D01*
X174630000Y-128950000D01*
X174630000Y-122950000D01*
G37*
%TO.C,R8*%
X163487500Y-89631276D02*
X163487500Y-90140724D01*
X164532500Y-89631276D02*
X164532500Y-90140724D01*
%TO.C,D3*%
X175144800Y-86493600D02*
X175144800Y-88453600D01*
X175144800Y-88453600D02*
X176344800Y-88453600D01*
X176344800Y-86493600D02*
X176344800Y-88453600D01*
%TO.C,Q2*%
X159465700Y-83921600D02*
X158815700Y-83921600D01*
X159465700Y-83921600D02*
X160115700Y-83921600D01*
X159465700Y-87041600D02*
X158815700Y-87041600D01*
X159465700Y-87041600D02*
X160115700Y-87041600D01*
X160868200Y-87321600D02*
X160388200Y-87321600D01*
X160628200Y-86991600D01*
X160868200Y-87321600D01*
G36*
X160868200Y-87321600D02*
G01*
X160388200Y-87321600D01*
X160628200Y-86991600D01*
X160868200Y-87321600D01*
G37*
%TO.C,R10*%
X158407500Y-89631276D02*
X158407500Y-90140724D01*
X159452500Y-89631276D02*
X159452500Y-90140724D01*
%TO.C,R16*%
X177167924Y-90328700D02*
X176658476Y-90328700D01*
X177167924Y-91373700D02*
X176658476Y-91373700D01*
%TO.C,Q3*%
X148770000Y-83361700D02*
X148120000Y-83361700D01*
X148770000Y-83361700D02*
X149420000Y-83361700D01*
X148770000Y-86481700D02*
X148120000Y-86481700D01*
X148770000Y-86481700D02*
X149420000Y-86481700D01*
X150172500Y-86761700D02*
X149692500Y-86761700D01*
X149932500Y-86431700D01*
X150172500Y-86761700D01*
G36*
X150172500Y-86761700D02*
G01*
X149692500Y-86761700D01*
X149932500Y-86431700D01*
X150172500Y-86761700D01*
G37*
%TO.C,R13*%
X155867500Y-113000724D02*
X155867500Y-112491276D01*
X156912500Y-113000724D02*
X156912500Y-112491276D01*
%TO.C,R14*%
X155867500Y-84805276D02*
X155867500Y-85314724D01*
X156912500Y-84805276D02*
X156912500Y-85314724D01*
%TO.C,J2*%
X179250000Y-112390000D02*
X180520000Y-112390000D01*
X179250000Y-113660000D02*
X179250000Y-112390000D01*
X181597358Y-115770000D02*
X181910000Y-115770000D01*
X181597358Y-116630000D02*
X181910000Y-116630000D01*
X181597358Y-118310000D02*
X181910000Y-118310000D01*
X181597358Y-119170000D02*
X181910000Y-119170000D01*
X181680000Y-113230000D02*
X181910000Y-113230000D01*
X181680000Y-114090000D02*
X181910000Y-114090000D01*
X181910000Y-112280000D02*
X181910000Y-120120000D01*
X181910000Y-114930000D02*
X184670000Y-114930000D01*
X181910000Y-117470000D02*
X184670000Y-117470000D01*
X181910000Y-120120000D02*
X184670000Y-120120000D01*
X184670000Y-112280000D02*
X181910000Y-112280000D01*
X184670000Y-115770000D02*
X190670000Y-115770000D01*
X184670000Y-118310000D02*
X190670000Y-118310000D01*
X184670000Y-120120000D02*
X184670000Y-112280000D01*
X190670000Y-115770000D02*
X190670000Y-116630000D01*
X190670000Y-116630000D02*
X184670000Y-116630000D01*
X190670000Y-118310000D02*
X190670000Y-119170000D01*
X190670000Y-119170000D02*
X184670000Y-119170000D01*
X184670000Y-113230000D02*
X190670000Y-113230000D01*
X190670000Y-114090000D01*
X184670000Y-114090000D01*
X184670000Y-113230000D01*
G36*
X184670000Y-113230000D02*
G01*
X190670000Y-113230000D01*
X190670000Y-114090000D01*
X184670000Y-114090000D01*
X184670000Y-113230000D01*
G37*
%TO.C,R3*%
X176877500Y-83567224D02*
X176877500Y-83057776D01*
X177922500Y-83567224D02*
X177922500Y-83057776D01*
%TO.C,R18*%
X152630076Y-91395500D02*
X153139524Y-91395500D01*
X152630076Y-92440500D02*
X153139524Y-92440500D01*
%TO.C,C5*%
X176890000Y-79946267D02*
X176890000Y-79653733D01*
X177910000Y-79946267D02*
X177910000Y-79653733D01*
%TD*%
D15*
X185600000Y-123160000D02*
X144960000Y-123160000D01*
X185600000Y-57120000D02*
X185600000Y-123160000D01*
X144960000Y-57120000D02*
X185600000Y-57120000D01*
X144960000Y-123160000D02*
X144960000Y-57120000D01*
M02*
